<svg xmlns="http://www.w3.org/2000/svg" viewBox="0 0 181.92 239.88"><defs><style>.cls-1{fill:#231f20;fill-rule:evenodd;}</style></defs><g id="Layer_2" data-name="Layer 2"><g id="Graphics"><path class="cls-1" d="M21.69,29.86c-.2,0-.16.26-.2.42-2,.1-3.23-1.38-4.95-2.48a92.4,92.4,0,0,1-7.82-6.17c0-.24-.05-.37-.21-.41a.57.57,0,0,1,.62-.42c.81-.19.52.72,1.44.42.46,1.39,2.06,1.64,2.68,2.88,2.08.15,2.85,2.09,4.32,3.09S21,28.09,21.69,29.86Z"/><path class="cls-1" d="M27.87,33.36c-2.52,9.38,2.33,19.75,5.56,26-1.52,1.22-1.75-1.8-3.09-2.06-2.83-6.17-7.12-15.52-3.5-23.68.17-.18.56-.12.62-.41C27.7,33.12,27.82,33.2,27.87,33.36Z"/><path class="cls-1" d="M55.67,39.33c1.43-.67,1.77,1.69,2.26.62.65,1.43,2.44,1.28,2.68,2.68C56,41,52.46,38.15,47,37.28,48.88,35.21,54.38,37.09,55.67,39.33Z"/><path class="cls-1" d="M31.37,39.54c.26,3.21.54,7.38,1.85,10.3C30.45,50.11,29,42.09,31.37,39.54Z"/><path class="cls-1" d="M65.14,50.66c-.75.48-1-.56-1.65-.82A16.76,16.76,0,0,0,57.11,49c-3.41.63-4.13,5.5-7.42,6,2.78-2.06,4.15-7.29,9.48-7.2C61.41,47.81,65.41,48,65.14,50.66Z"/><path class="cls-1" d="M83.87,51.28c.84-.08.95.56,1.44.82.1,1.64-1,3.11-2.47,2.47C82.78,53.83,83.54,52.29,83.87,51.28Z"/><path class="cls-1" d="M22.93,54c-.8,1.58-3.81.74-6,.62-2.54-.14-5.16-.5-7-.62-.35.08-.39-.16-.42-.41C12.73,53.57,18.57,52.76,22.93,54Z"/><path class="cls-1" d="M88.81,56.22c.2.38-.61.69,0,.82-.55.63-.93.15-1.64,0C87.13,55.91,88.15,55.57,88.81,56.22Z"/><path class="cls-1" d="M24.57,58.9v1c-1.88.71-3.35-.2-4.94.21-1.52-1.07-4.66.24-5.35-1.23.46-.51,2.68-.73,3.09,0,.66-.39,1.08-.59,1.64.2C20.42,58,22.53,58.73,24.57,58.9Z"/><path class="cls-1" d="M116.82,59.92c-1.69,2.09-2.73,4.82-4.94,6.39,0-2.35,2.43-4,3.29-6.18A3.92,3.92,0,0,1,116.82,59.92Z"/><path class="cls-1" d="M97.05,62.19a5,5,0,0,1,1.24.41c.48,1.92-2.11,4.28-3.92,2.68C95.5,64.36,96.88,63.5,97.05,62.19Z"/><path class="cls-1" d="M101,62.4c1.6,1.9-1,6.38-3.7,4.73,0-1,1.34-.72,1.85-1.23C99.76,64.77,99.72,62.94,101,62.4Z"/><path class="cls-1" d="M102.4,65.28c.61,1.83-1.3,6.5-4.32,4.73C100.59,69.31,100.56,66.89,102.4,65.28Z"/><path class="cls-1" d="M37.55,75c.71-.16.79.31,1.44.21A123,123,0,0,0,46.4,93.07c.58,1.15,1.24,2.32.62,3.5C42.86,90.11,40.11,82.38,37.55,75Z"/><path class="cls-1" d="M97.46,75c1.28.85,3.24,3.47.41,3.92C97.36,77.71,96.23,76.12,97.46,75Z"/><path class="cls-1" d="M109.61,75.78c.3.11.52.3.82.41.4,2.25-1.63,3.7-2.88,2.47C108,77.45,109,76.86,109.61,75.78Z"/><path class="cls-1" d="M96,80.1c4.19-.33,6,5,2.68,7-2.44-.85-5.69-5.27-2.89-7C91.61,81.4,92,75.84,95,76,96.75,76.07,98,78.86,96,80.1Zm-.41-1c.37-.68-.54-1.57-1.65-1.44C94.07,78.56,94.84,78.81,95.61,79.07Zm3.29,6.18c1.41-2.2-1.63-3.29-2.88-3.09C96.93,83.24,97.25,84.91,98.9,85.25Z"/><path class="cls-1" d="M112.9,78c1.49,2.84-1.72,5.36-3.5,3.09.69-.88,1.78-.38,2.27-1.65C110.91,79.16,112,77.33,112.9,78Z"/><path class="cls-1" d="M28.07,120.87c-1.58-2-3.69-3.43-3.91-5.35-.58-.13-2.21-1.64-1.85-2.68-.35,0-.53.35-.62,0a51.1,51.1,0,0,1-2.88-6.18c-.28-.65-.91-1-1.24-1.64-.46-.93-.54-2.24-1-3.3-1.1-2.42-2.54-4.65-3.7-7.82-.32-.87-.67-1.75-1-2.68-1.47-3.72-3.65-6.78-3.3-9.47A2.63,2.63,0,0,1,7.9,80.1c0-.24,0-.36.2-.41.65-.55,1.15.38,1.65.62-.11.79.37,1,.21,1.85,3,9.68,7.88,17.51,11.32,26.77,2.25,3.51,3.95,7.58,6.59,10.7C27.51,120.36,28,120.14,28.07,120.87Z"/><path class="cls-1" d="M115.79,80.1a4.72,4.72,0,0,1-1.44,5.15c-.88-.23-2.06-.14-2.06-1.24C114.79,84.8,113.25,79.25,115.79,80.1Z"/><path class="cls-1" d="M93.14,87.72c-1.68-.38-3.08-1.52-2.68-3.5C91.38,79.71,97.7,85.21,93.14,87.72Zm-.21-1.85a1.26,1.26,0,0,0-1-1.86A1.7,1.7,0,0,0,92.93,85.87Z"/><path class="cls-1" d="M119.9,87.72h1c.63,2.57-.93,4.68-2.05,6.18-1,0-1.34-.59-1.24-1.65C119.66,92.18,119.88,90.53,119.9,87.72Z"/><path class="cls-1" d="M137.41,88.75a5.8,5.8,0,0,1-3.3,3.71A6.5,6.5,0,0,1,137.41,88.75Z"/><path class="cls-1" d="M38.37,89.57c.1.85-1.19,1.21-1.85,1.45-3.1,1.09-7.71,2.26-10.92,1.64A40.1,40.1,0,0,1,38.37,89.57Z"/><path class="cls-1" d="M121.35,89.78a2.43,2.43,0,0,1,1.85,1c.44,2-2.5,6.62-3.91,3.91C121.83,94.87,122.82,91.17,121.35,89.78Z"/><path class="cls-1" d="M123.82,93.69h.62c.65,1.59-1.09,4.4-3.09,3.91C122.06,96.19,123.69,95.69,123.82,93.69Z"/><path class="cls-1" d="M73,94.72c.81,2.58-2.79,4-4.53,2.88A3.1,3.1,0,0,1,73,94.72Zm-3.09,1.85c.74,0,1.42-.09,1.65-.61C70.86,95.65,69.84,95.65,69.87,96.57Z"/><path class="cls-1" d="M145.64,96.78a25.9,25.9,0,0,1-7.2,6.79c-.56.15.14-1-.42-.82,1.11-1,1.94-2,3.09-2.88.22-.16.58,0,.62,0C142.76,98.74,143.29,96.54,145.64,96.78Z"/><path class="cls-1" d="M33.43,97.81a2.65,2.65,0,0,1-3.09,1.85c-.52.61-2.81,1.82-3.09.21C29.39,99.26,31,98.15,33.43,97.81Z"/><path class="cls-1" d="M124,97.81c.85,1.24-.7,2.81-1.85,2.06A3.9,3.9,0,0,1,124,97.81Z"/><path class="cls-1" d="M122.17,103.16c1.9-1.39,3.09-3.49,4.74-5.14C128.26,100.94,124.86,103.58,122.17,103.16Z"/><path class="cls-1" d="M48.66,99.87h.42c1.67.8,2.22,2.71,2.67,4.73,6.67,14.2,17.61,24.13,24.92,37.68a25.66,25.66,0,0,1,4.73,7c-1.65.51-2.5-.93-3.09-1.64-2.39-2.94-4.52-6.84-6.79-10.5-3.74-6-8.66-12-13-17.92a66.62,66.62,0,0,1-4.12-6c-2.34-4.09-3.92-8.55-6-12.76C48.4,100.15,48.65,100.13,48.66,99.87Z"/><path class="cls-1" d="M127.32,102.13c-.11,2-1.9,3.86-3.91,2.68C124.75,104,125.44,101.7,127.32,102.13Z"/><path class="cls-1" d="M72.75,103h.62c.93,2.07,2.43,4.12,3.5,6.59-.73-.29-.69-.75-1.65-.42C74.62,106.89,72,105.89,72.75,103Z"/><path class="cls-1" d="M128.55,105.63c.13,1.8-2.7,3.43-3.29,1.45C126.54,106.82,127,104.93,128.55,105.63Z"/><path class="cls-1" d="M148.73,105.43c-1.93,1.57-3.22,3.78-6.18,4.32A9.7,9.7,0,0,1,148.73,105.43Z"/><path class="cls-1" d="M129.17,108.1c1.36,1.73-1.44,2.76-2.26,2.06C127.18,109,128.48,108.85,129.17,108.1Z"/><path class="cls-1" d="M130.41,109.55c.27.21.75.2,1,.41a11.34,11.34,0,0,1-1,3.09c-1-.14-1.37.36-2.06,0,0-.24,0-.37-.21-.42A33.5,33.5,0,0,0,130.41,109.55Z"/><path class="cls-1" d="M132.88,111.19c3.48.28-2.57,9.11-4.33,5.56C130.65,116.31,131.73,113.26,132.88,111.19Z"/><path class="cls-1" d="M80.58,112.84a.57.57,0,0,1,.41.62c-.64.53-1.47.86-1.85,1.65a9.56,9.56,0,0,0,2.06,6.58c1.86,2.47,4.62,4.94,8.44,5.15-1,1.19-2.71.25-3.71.21-1.24-1.4-2.86-1.3-3.5-3.09C78.11,123.07,75.81,114.72,80.58,112.84Z"/><path class="cls-1" d="M136.17,115.11a5.2,5.2,0,0,1-5.35,4.73,58,58,0,0,0,4.32-5.15C135.65,114.66,135.78,115,136.17,115.11Z"/><path class="cls-1" d="M78.93,140.43c-1.33,1.31-2.39-1.62-3.09-2.68-1.84-2.77-4.13-5.07-6.17-7.82-2.23-3-4.1-6-6.39-9.27-1.22-1.77-3.24-3.14-3.5-5.35.47.06.78,0,.83-.41,1.11.81,2.16,2.61,3.29,4.12,1.95,2.59,3.48,5.57,5.77,8.23,1.19,1.39,2,2.83,3.08,4.12A38.65,38.65,0,0,1,78.93,140.43Z"/><path class="cls-1" d="M90.05,115.11c-.4,2.29-2.34,1.68-3.71,2.46C86.37,116.33,88.09,115.09,90.05,115.11Z"/><path class="cls-1" d="M136.58,119.84a3.18,3.18,0,0,1-4.53,2.27c0-.68.59-.79,1.24-.83C134.29,120.74,135.29,118.2,136.58,119.84Z"/><path class="cls-1" d="M138.85,122.31c-1,1.38-2.81,3.91-4.94,2.27C135.36,123.72,136.94,121.43,138.85,122.31Z"/><path class="cls-1" d="M140.7,124.16c-.47,1.88-2.91,3.72-4.94,2.68C137.17,125.9,138.94,123.42,140.7,124.16Z"/><path class="cls-1" d="M144.41,126.43a12.15,12.15,0,0,0-5.77,4.12,3,3,0,0,1-1.44-.62C138.39,127.5,141.55,125.36,144.41,126.43Z"/><path class="cls-1" d="M143.17,130.55c-1.27.3-2.1,1.06-3.7,1C139.59,130,142.16,129.4,143.17,130.55Z"/><path class="cls-1" d="M31,132.61h.62c4.74,8,10.2,15.57,14.82,23.67.66,1.17,1.29,2.08,2.06,3.5s2,2.37,2.88,3.71c1.33,2.15,2.39,4.35,3.71,6.38s2.85,3.62,4.32,5.56c1.34,1.78,2.6,3.85,3.91,5.77,2.73,4,6.23,7.51,8.86,11.73-.33-.09-2-.58-1.86-1.85-.26-.28-1-.13-1.23-.41-3.08-3.85-6.32-7.54-9.47-11.33-1.18-2.12-2.86-3.78-4.33-5.76-1.76-2.37-2.84-5.38-4.94-7.41-6.14-11.36-13.51-21.49-19.56-32.95C30.69,132.89,31,132.87,31,132.61Z"/><path class="cls-1" d="M145,133.84a13.69,13.69,0,0,1-3.09,1.44c0-.39-.69-.14-.62-.62C141.71,133.55,143.93,133,145,133.84Z"/><path class="cls-1" d="M123.2,133.64c.36.05.47.35.41.82,3.84-.38,7.25,6.16,2.68,7.41C123.4,140.49,119.48,135.71,123.2,133.64Zm3.71,6.38c.15-1.76-1.55-3.38-3.3-3.91C124,138.13,125.48,139,126.91,140Z"/><path class="cls-1" d="M148.11,135.9c-1.54.32-4.2-.53-4.53,1.44a1.76,1.76,0,0,1-1.23-.2C142.63,134.85,146.56,134.57,148.11,135.9Z"/><path class="cls-1" d="M97.87,143.31c-4.43-2.5,1.93-8,2.89-3.7C101.2,141.61,99.52,142.89,97.87,143.31Zm1.44-1.85a1.24,1.24,0,0,0-1.44-1.65C98,140.76,98.32,141.42,99.31,141.46Z"/><path class="cls-1" d="M144,138c1.59-.14,2.54.35,4.12.2a3.6,3.6,0,0,1-4.12.62Z"/><path class="cls-1" d="M106.32,146.61c-1.87-1.24-4.85-2-4.33-5.15a3.27,3.27,0,0,1,5.56-1.65C109.48,141.72,108.4,145,106.32,146.61Zm.2-2.27c1.21-1.61-.16-4-2.47-3.91A3,3,0,0,0,106.52,144.34Z"/><path class="cls-1" d="M150.17,140.43c-2.47-1-4.07,1.79-5.76.82C144.81,139.51,149.24,138.52,150.17,140.43Z"/><path class="cls-1" d="M152.44,142.9c-2.54.16-6.14.62-7.41,2.68-1.39-1.41,1.73-3,3.91-2.89C149.77,141.8,152.27,140.84,152.44,142.9Z"/><path class="cls-1" d="M104.05,146.19a10.44,10.44,0,0,1,1.85,1.65,1.44,1.44,0,0,1-2.67,0C103.82,147.61,103.52,146.49,104.05,146.19Z"/><path class="cls-1" d="M110,147c1.57,1.12.27,4.28-1.23,4.32C106.23,151.41,106.45,146.57,110,147Zm-1.23,2.26c.24,0,.58,0,.61-.2-.27,0-.76-.69-.82-.21C108.74,148.92,108.82,149,108.79,149.28Z"/><path class="cls-1" d="M33,147.43h.61c5.81,8.4,11,17.44,17.09,25.53a6.54,6.54,0,0,0,1.86,1.65c2.45,3.55,4.23,6.63,7.41,9.26.28,1.73,2.59,2.46,2.47,3.92-4.74-2.95-7.85-7.52-11.12-11.95-3.23-3.35-5.23-8-8.65-11.11-3.06-5.86-6.73-11.12-10.09-16.68C32.49,147.59,33,147.76,33,147.43Z"/><path class="cls-1" d="M103.43,149.08a20.12,20.12,0,0,0-.41,3.09c-1.87,1.39-4.23-.79-4.32-3.09C99.29,146.84,102.63,147.36,103.43,149.08Zm-1.64,1.23c.22-.79-.89-1.29-1.24-.82C100.89,149.83,101.09,150.32,101.79,150.31Z"/><path class="cls-1" d="M153.47,149.9c-1.9.72-5.25-2.09-7.21,0C145.76,146.82,152.87,147.57,153.47,149.9Z"/><path class="cls-1" d="M148.11,149.7c1.82.57,3.34.46,4.74,1.64-.22.54-.13,1.38-.62,1.65-1-.39-3.42-1.09-4.53-2.06C148,150.67,147.83,150,148.11,149.7Z"/><path class="cls-1" d="M70.08,150.11c-.66,2-3.25,3.15-5.15,3.29,0-.24-.05-.36-.21-.41C66.18,152,67.63,149.87,70.08,150.11Z"/><path class="cls-1" d="M107.55,157.73c-1.27-.32-1.81-1.35-3.29-1.45C104.11,150.27,113.67,155.91,107.55,157.73Zm.21-1c.35-.62-.71-1.27-1.65-1.24C106.29,156.24,106.92,156.58,107.76,156.7Z"/><path class="cls-1" d="M77.7,157.11c-3,2.82-7.52,4.15-10.92,6.59-1.18-2,1.72-2.8,3.09-3.5C71.46,159,75.8,155.81,77.7,157.11Z"/><path class="cls-1" d="M130.61,199.11c-1.73,1.65-4.84-1.13-6.17-2.47-2-.25-3.4-1.79-5-3.09s-3.37-2-4.73-3.29a97.91,97.91,0,0,1-8.24-8c-2.92-3.49-5.46-7.36-8.23-10.91-.5-.64-1.17-1-1.65-1.65-1.83-2.37-3.1-5.15-4.94-7.41-1.1-1.36-3.34-2.17-3.71-3.92,0-.24.05-.36.21-.41s.36-.25.41,0c4,2.41,7.16,7.28,9.88,10.91,2.14,2.85,4.69,5.91,6.8,9.06A100.61,100.61,0,0,0,130.61,199.11Z"/><path class="cls-1" d="M105.7,175h.41c5.93,5.23,11.68,12.1,19.15,16.88a1.39,1.39,0,0,0-.21,1c-2.83-.57-4.66-2.92-6.79-4.73C113.7,184.33,108.52,180.56,105.7,175Z"/><path class="cls-1" d="M87.58,176.46c.46.15.68,1,.41,1.24-2.34,2.21-5.46,4.33-8.44,4.73,0-.89.78-1,1.44-1.23C83.11,179.54,85.73,178.39,87.58,176.46Z"/><path class="cls-1" d="M96.84,181.61c.19.09.37.18.42.41-.84,1.64-2.71,2.24-3.09,4.33-2.11.66-3.45,4.89-6.18,4.94.54-1.87,2-2.84,3.29-3.92A25.26,25.26,0,0,1,96.84,181.61Z"/><path class="cls-1" d="M88.81,183.05a5.73,5.73,0,0,1-4.53,1.85C84.81,183.46,87.48,182.36,88.81,183.05Z"/><path class="cls-1" d="M105.49,189.64c.65.53-.51,1-.2,1.85-1,.27-.77,1.85-1.86,2.06a12.72,12.72,0,0,1-2.88,4.12c-.29.81-.39,1.8-1.65,1.65A48.57,48.57,0,0,1,105.49,189.64Z"/><path class="cls-1" d="M111.26,195.82c.18.09.37.18.41.41-1,2.53-1.74,5.26-3.5,7,0,1.47-1.07,2.35-2.27,2.06C107.8,202.24,109.18,198.68,111.26,195.82Z"/><path class="cls-1" d="M138.23,203c2.48,1.33,4.61,4.64,7.82,6.18.91.44,2.45.55,3.71,1,2.74,1.05,7.31,3.09,10.91,1.65.93-.73,1.14-2.16,2.68-2.27-1.69,6.63-13.5,4.42-18.94,1-.62-.38-1-1.2-1.65-1.65s-1.59-.61-2.06-1c-1.56-1.38-2-3.54-3.71-4.11C137.29,203.46,137.45,202.93,138.23,203Z"/><path class="cls-1" d="M155.11,209c-.83,1.12-2.87.28-4.11,0-3.5-.76-7-2.17-8.45-4.73H143c1.51,0,4,1.63,6.38,2.47C151.41,207.46,153.72,207.58,155.11,209Z"/><path class="cls-1" d="M28.49,0c1.15-.12,1,1.08,1.85,1.23A54.16,54.16,0,0,1,46.61,3.1c1,1.17,2.5,1.5,4.52,2.06,2.45.67,4.9,2.12,7,2.26a15.64,15.64,0,0,0,1.24,1.44c7.09,2.52,12.54,6.68,18.53,10.3,2.41.27,3.61,2.54,5.36,3.7.6.41,1.43.42,2,.83,1,.67,1.83,1.95,2.89,2.88,1.6,1.41,3.15,2.52,4.73,3.91,2,1.76,4.07,3.29,6.18,5.15.65.57,1.64.9,2.26,1.44,1.35,1.18,2,3.11,3.92,3.5,11.31,13.88,24,26.33,33.35,42.21a87.39,87.39,0,0,1,11.12,16.27c2,3.69,4.88,7,5.76,10.91.06.42.92.05.83.61,1,1.78,1.5,3.83,2.26,5.56,2.07,4.66,4,10.37,6.59,15.65,2.25,4.62,4.51,9.41,6.39,14.21.27.7.13,1.56.41,2.26.39,1,1.11,1.89,1.44,2.89a101.42,101.42,0,0,1,2.88,11.53c.67,3.4,1.09,6.06,1.65,10.09.43,3.11,1.68,6.06,2.26,9.26s1,6.67,1.44,10.09c.6,5,0,9.66-.41,15.65-.18,2.82-1.48,6.54-1,8.85.18.92,0,1.08,1,1.44-1.95,1.32-1.77,5-2.67,7.62-1.54,4.42-4.75,6.78-7.21,10.3-3.22,1-5.94,3.9-9.68,3.91-.7,0-1.35-.5-2.06-.62-2-.35-4.19.36-6.38.41-2.91.07-6.52-1-9.47-1.64-1.38-.29-3-.32-3.91-.62-1.47-.47-2.61-1.74-3.91-2.27s-2.46-.44-3.51-1-1.75-1.7-2.67-2.26c-2-1.25-4.29-1.5-6-3.09-.65,0-.69.55-1.44.41-.43-.6-1.43-.63-1.86-1.23-3.77-1.33-9-.83-13-2.27-1.34-.48-2.41-1.56-3.91-2.26-5.52-2.58-11.37-4.27-16.06-6.8a54.82,54.82,0,0,1-6-3.91c-6-4.38-11-10-16.06-15.65-1.25-1.39-2.62-2.23-3.3-4.32-3.82-4.9-8.71-9.06-12.76-14-1.43-1.75-2-4.34-4.12-5.56-1.06-1.6-1.78-3.4-2.88-4.94-1-1.33-2.5-2.21-3.5-3.5-1.61-2.09-2.79-4.46-4.33-6.59-2.35-3.26-5.33-6.33-7.2-10.3-3.68-7.78-7.15-16.38-11.12-24.29-2.95-5.88-6.11-12.93-8.85-19.56v-1.44a68,68,0,0,1-4.33-17.3C-.2,72.34-.48,62.64.48,49c-.09-.72.52-.72.83-1A65.49,65.49,0,0,1,1.1,27.19,30.67,30.67,0,0,1,4.4,16.27c.39-.75,1.31-1.26,1.85-2.06s.76-2,1.24-2.67c.93-1.25,3.2-2.37,4.52-3.71,1.65-1.66,4-2.93,5.56-4.94-.11,1-.4.78-.41,1.65a23,23,0,0,1,11.33-3.3C28.42.76,28.08.39,28.49,0ZM29.93,69.6C29,66.51,27,63.9,25.81,61c-1.14-2.79-2.08-5.62-3.09-8.64C18.77,50.22,13,49.92,7.9,49c3.49,23.62,14.16,41.55,22.23,62.39a59,59,0,0,1,5.15,10.09c6.57,9.29,13.93,17.77,19.15,28.41a39.42,39.42,0,0,1,7.41,10.5c3.16,4.37,7,9,9.89,13,3-.94,5.64-3.71,7.41-6.59,2.21.83,4.15-2,5.56-1.44-4.26,3.06-7.36,6.06-11.74,9.48,6.3,7.35,11.36,16,19.35,21.61,1.86-2.34,3.43-5.35,5.36-7.82,1.39-1.79,3.21-3.78,5.14-4.53-2.47,4.21-5.75,7-8,11.74a3.1,3.1,0,0,0-1.86,1.44A151.65,151.65,0,0,0,117,217.85c1.53-5,2-9.81,3.71-14.42,1.79,4.7-2.29,10.89-1.85,16.48,1.77,1.66,4.36,2.32,6.38,3.7a48.61,48.61,0,0,0,4.12,3.09,50.71,50.71,0,0,0,11.11,4.74c6.09,1.74,13.8,5.38,20.18,4.32,5.64,1.51,10.72-1.94,13-5.76-2.7-3.41-5.34-7.48-8-10.92-.74-1-1.89-2.22-3.08-2.47,1.54,4.49,4.58,7.5,6,12.15a5.76,5.76,0,0,1,1.44,2.27c-.62-.21-.37.45-.41.82a10.7,10.7,0,0,1-2.89-5.35,91.61,91.61,0,0,1-5.76-8.86c-.88,0-1.11.54-2.06.41,1.71,3.5,1.85,5.89,4.74,8.65-.37,1.32,1.58,3,1.23,4.33,1.21.3,1.89,2.22,1.65,3.29-2.92-5.91-6.31-10.25-9.47-16.06-1.94,0-4-1.08-5.36-1,1.65,3.57,3.19,4.93,4.33,8.44-2.19-2.27-3.66-5.27-5.15-8.23-13.26-5.82-23.1-15.06-34.8-22.45-1.38,4.6-3.67,9.34-4.32,14-1.21.58-.77,2.81-2.47,2.89,1.93-5.55,3.62-11.35,5.56-16.89a1,1,0,0,0,1-.41c-8.05-8.57-18.45-15.53-24.71-25.53-1.07-1.7-1.65-3.5-2.88-4.74s-3.17-1.9-4.53-3.5c-1.78-2.07-3.16-4.68-5-6.79-.65-.77-1.47-1.29-2-2.06-5.83-7.7-10.83-17.48-16.48-25.12-1.15-1.56-2-3.15-2.88-4.53-.36-.6-.46-1.47-.82-2.06-.71-1.14-2-1.81-2.68-2.68A55.33,55.33,0,0,1,49.9,111a44.89,44.89,0,0,1-3.09-6c-2.63-6.41-6.57-12.58-8.44-19.15-5.26.14-11.85,1.88-18.12,1.23.46-2.64,3.25-1.12,5.35-1.23,1.29-.07,2.9-.76,4.53-.83a51.34,51.34,0,0,1,7.62.21,13.38,13.38,0,0,0-1.44-4.12c-5.83-.12-11,1.61-16.27.41,4.64-2.12,11-.26,15.86-1.64-1.55-1.54-1.55-4.37-3.71-5a8.84,8.84,0,0,0-2.26.21c-3.49.15-8.36.56-10.71,0,3.4-1.13,8.07-1,12.56-1.44,0-.66-.36-.87-.2-1.65-.74.08-.76.56-1.45.21-.48-.54-.62-1.44-1.23-1.85a67.48,67.48,0,0,1-7.41,0c-2.39-.08-5,.24-6.59-1A102.85,102.85,0,0,0,29.93,69.6ZM26.63,3.1c1.28,5.09,3.71,8.69,5.36,13.79a7.24,7.24,0,0,0,2.88-1.44C33,11.39,31.45,7.07,29.72,2.89,28.46,2.73,27.8,3.16,26.63,3.1Zm4.74,0c.5,4.45,3.65,7.31,3.91,11.32.31.24.92.18.82.82a7.44,7.44,0,0,1,2.68-.41c-.39-4.07-3.26-7.44-4.12-11.73A6.23,6.23,0,0,0,31.37,3.1Zm7.21,7c.92,1.72,1.42,3.52,2.47,4.73-.51-4.54-1.77-7.12-2.47-11.32-.6-.23-1.47-.19-2.06-.41C36.35,5,37.45,8,38.58,10.1ZM20,5c.85,3,3,5.49,4.12,7.82.83,1.72,1.55,2.72,2.27,4.12.85,1.65.65,2.42,2.06,2.88.42-1.08,1.68-1.33,2.26-2.26-1.88-4.57-3.68-9.23-5.56-13.8C23.13,3.77,21.78,4.56,20,5ZM44.55,15c-.69-4.22-1.61-6.93-2.47-10.91-.95.12-1.19-.47-2.06-.42.28,3.72,1.77,7.92,2.47,11.33C43.2,14.89,44.44,15.26,44.55,15Zm1.23.2c1.2.09,2.59.78,3.3.21-1.76-3-.53-10.56-5.56-10.91C44,8.5,45.66,11.63,45.78,15.24Zm-20,3.3c-1.19-2.19-1.93-3.28-2.88-5.15C21.56,10.71,20.33,7.7,19,6.18c-1.31-.28-2.7,1.14-3.91,1.65,2.87,5.58,7.09,9.8,10.3,15C27.79,21.86,26.79,20.34,25.81,18.54ZM48.46,9.89c.21.63.84,1.11,1,1.65.6,1.68,0,4,1.85,4.53.5-3.65-1.13-6-1.23-9.27-.92-.11-1.4-.66-2.48-.62C48.4,7.13,48.07,8.76,48.46,9.89Zm4.12,6.8c.51,0,.63.32,1,.41-.18-.73,0-.51-.21-1.24a1.33,1.33,0,0,1,1-.2c-.77-2.38.09-7.83-3.09-8.45C51.73,10.39,52.71,13.3,52.58,16.69Zm1.85-7.83a70.74,70.74,0,0,1,1,8.65,8.58,8.58,0,0,0,2.47,1c.59-2.83-.54-5.61-.41-8.65C56.45,9.68,55.37,8.53,54.43,8.86ZM10.78,14.63c.9.74,1.12,2.17,2.47,2.47C14,19.21,17.08,20,17.16,22c1.28-.08,2,1.89,3.71,2.06,1,.76,1.11,2.46,2.88,2.47a16.62,16.62,0,0,1,1-2.47c-3.44-4.94-7.08-9.67-10.5-14.62h-.62C12.79,11.28,11.14,12.31,10.78,14.63ZM59,17.51c.5.94.46,2.42,1.85,2.47a64,64,0,0,0,0-8.65,8.08,8.08,0,0,0-2.26-1C57.89,13.47,59.77,15.23,59,17.51ZM8.51,12.77C7,16,4.71,18.62,3.57,21.83c-.92,2.63-1.06,6.26-1.23,9.06C1.78,40,2.5,50.42,5.63,59.72s7.27,18.2,10.5,26.35c1.12,1,1.39,2.87,2.47,3.91-5.34-12.41-10.38-26-13-41-.27-.62-1.76,0-1.85-.82C3.66,47,5.3,47.65,5.43,46.75c-1.08-4.34-1-8.82-1.24-13.18-.52-9.4,3.62-16.69,6.18-22.86C10,11.6,9.13,12.08,8.51,12.77Zm53.54,6.59c-.11.58-1,.4-1,1,1,.41,1.72,1,2.67,1.44.63-3.19-1.13-6.73-.41-9.47-.73.11-.9-.33-1.23-.62C61.68,14.5,62.14,16.9,62.05,19.36Zm2.88,3.5c.8-.11.85.53,1.44.62.26-2.25,0-5.77,1-8.65A19.71,19.71,0,0,1,63.9,13C63.85,17.05,65.37,18.73,64.93,22.86ZM67.2,24.1c1.94.64,2.67,2.14,4.11,3.09,1.2.79,2.87,1,3.91,1.85.64.51.86,1.57,1.45,2.06,1.29,1.09,2.83,1,4.11,2.06-.2-3.42.75-6.1,1.24-9.27-4.41-3.14-9.26-5.83-14-8.65C67.28,18.18,67.63,20.94,67.2,24.1Zm-59.92.2a65,65,0,0,0,14.21,8.24,39.14,39.14,0,0,1,1.44-4.74c-5-3.32-8.71-7.89-13-11.94A38.81,38.81,0,0,0,7.28,24.3Zm34.8,41.6C40.25,61,37.76,55.27,37.75,49.22c0-2.81,1.68-5.21,2.06-8,.5-3.74.1-7.2,1.44-10.09a9.74,9.74,0,0,1,5.36-4.94c5.31-1.69,8.56.72,12.14,2.47,1.71.83,3.31,1.89,4.94,2.88,3.42,2.07,7.17,4,9.68,6a5.76,5.76,0,0,1,2.06,2.68c-.06-.25.6-.71.62-.21.33,1.86,0,5.56-2.06,7.41,1.73.45,3.31-1.65,3.91-2.88,1.5-3.06-.27-6.52-1.44-9.26a23.52,23.52,0,0,0-.82-2.47c-.67-.95-2.87-2.12-4.33-3.3a60,60,0,0,0-9.26-6.18C60.43,22.38,59,21,57.31,20.19c-5.4-2.67-12.94-2.69-19.76-3.5-.69,0,0,1.34-.83,1.23a3.43,3.43,0,0,0-4.32,1.85c-.73.12-.51-.73-1.24-.61C29.53,20.75,27.6,22,26.63,24.3a1.43,1.43,0,0,1,1,1c1.14.39,1.19-1.93,3.09-1.44-.84,2.53-3.17,3.41-4.12,5.56-2.08,4.75-2.3,13.3-.61,18.74,1.5,4.85,4.17,9,5.14,12.76-2.9-.15-3.52-3.91-4.53-6.59-1.55-4.13-3.34-8.13-3.5-12.76-.19-5.69,1.17-11.16,3.92-15-.92.15-.71-.8-1.24-1a25.4,25.4,0,0,0-3.5,11.12c-.66,9.77,3.06,16.34,5.35,23.68,1.59,1.77,2,4.68,3.5,6.59C34.34,65.57,39.23,64.71,42.08,65.9ZM81.61,33.78c.9.35,1.21,1.46,1.85,1.85a14.56,14.56,0,0,1,4.12,3.09c2,2.35,3.54,4.69,5.76,6.17.59-3.11,1.85-4.91,2.68-8.44.13-.28.79,0,.82-.41-1.18-.55-2.15-1.92-3.29-2.88S90.88,31,90.26,31.1c-1,2.4-.48,6.24-2.68,7.41,0-2.6,1.06-5.76,1.65-8.85a43.79,43.79,0,0,0-6.18-4.74C82.52,28.1,82.35,30.63,81.61,33.78ZM6.25,29.66c4.86,2.14,9.47,4.53,14.41,6.59a10.74,10.74,0,0,0,.41-2.06C15.75,32,11.36,28.8,6.66,26,6.6,27.27,6.13,28.16,6.25,29.66Zm44.68,2.26c1.18-.6.71-2.86.82-4.53H50.31C51.4,28.9,50.14,30.47,50.93,31.92ZM46.4,27.8c1.41.71.54,2.29,0,3.3a5.94,5.94,0,0,0,2.06,0,3.55,3.55,0,0,0,0-3.5C47.54,27.44,47.22,27.87,46.4,27.8Zm6.79,4.95c.64,0,.59.64,1.44.41.53-1.22,1.49-5-.82-4.94C53.54,29.29,53.76,31.43,53.19,32.75Zm3.3,2.47c1.74-.09,2.69-4.65.82-5.15C57.4,31.48,56.33,33.78,56.49,35.22ZM59,36.66c4.67,3,8.05,7.32,13.18,9.88,1.77-1.24,2.56-3.47,2.88-6.18-1.39.92-.64,6-3.5,4.12,0-2.06,1.85-3.73.82-5.56a3.63,3.63,0,0,0,.83-.61c-.8.08-.74.22-1.24-.21.15,2.62-.68,4.26-2.06,5.35-.08-.46-1.13,0-1-.61.34-1.87,2.31-4.53.41-6.18.24,2.54-.87,5.79-3.29,4.32,1-1.17,2.42-5.19.41-5.76-.12,2,0,3.3-1,4.53-.86,0-1.72.07-1.85-.62,1.37-.89.52-4,1.65-5.15-.84-.26-1-1.21-2.06-1.23.06,1.84-.24,3.33-1.24,4.11-.65,0-1.24,0-1.44-.41.39-1.88,1.56-3.91,0-5.15C60,33.13,59.79,35.22,59,36.66ZM6,36a86.87,86.87,0,0,0,14.42,5.35,15.75,15.75,0,0,0,0-3.5c-4.82-1.66-9.35-4.4-14.42-6.38ZM72.75,66.72a5.42,5.42,0,0,1-.82,1.65c3.3,2.6,6.71,5.09,9.47,8.23-.37,0-.48.21-.41.62-1.08-1.6-2.71-2-3.91-2.88-1.61-1.17-2.59-3.14-4.33-3.71.06-.13.52-.79,0-.82a1.57,1.57,0,0,1-.41.62,3.47,3.47,0,0,1-.61-1.65c-4.16-1.55-7.21,3-9.48,2.88-3.06-.22-3.43-7.2-4.94-9.68-1.62,1-1.76,2.56-3.09,3.5-5.56,4-8.23-3.37-9.88-7.41a27.49,27.49,0,0,1-1.85-7.41C42.27,47.51,44,40,46.61,39.33c-2,3.77-3.9,13.2-.62,17.71.47-2.27,1.53-3.95,2.26-6-.66-.18-.42.54-.82.62-1-3-1.61-8.1,1.44-9.47a14.24,14.24,0,0,0-.41,8.64c2.87-3.47,7.73-7.18,14-6.17,4.7.75,6.19,4.63,8.65,7.82,1.43-.17,2.42,1.64,3.91,2.06-.48-1.69-2.63-2.47-1-4.12-1.13-.12-1.72,1.15-2.47.21.12-.64,1-.54,1-1.24-7.07-4-11.7-10.4-19.15-14-.14-.55-.59-.78-.82-1.23-2.31-.79-4.34-1.84-7.62-1.65-.67.4.07,1-.62,1.24a1.48,1.48,0,0,1-1-1.45c-1.91.78-1.39,2.74-1,4.74a8.66,8.66,0,0,0-1,5.15c.54-2,1.65-5.24,3.71-5.56-1.17,2.67-2.73,5.17-3.5,8.44-1.77,7.48,1.68,16.52,4.73,21.62-.36.18-.52.57-1.23.41.72,1.07,1.14,2.43,1.85,3.5-.45,0-.09.73-.2,1,2.89,4.52,4.72,10.1,7.82,14.41a26.93,26.93,0,0,1,1-7.2c-2.91-2.44-6.1-4.61-8.44-7.62.16,0,.24-.17.2-.41,2.58,0,3.26,2.18,4.53,3.29,1.61,1.4,3.41,2,4.74,3.5,2.76-2.29,7.36-3,10.91-2.06C73.9,77.3,78,85.49,77.28,93.69a56.45,56.45,0,0,0,6,4.94,47.47,47.47,0,0,0,4.52,2.68c1.87,1.21,2.78,3.64,5.15,4.12,1.21.85,2.49,2.72,3.71,2.88-2.08-4.28-4-9.08-5.77-13-1.44-3.23-2.4-6.53-3.91-9.68-.8-1.66-1.64-3-2.26-4.53-1.24-3-1.84-6.52-2.89-9.26a6.88,6.88,0,0,1-2.26-2.47c-.48-.41-.23,0-.62.2-2.93-2.84-6.21-6.41-9.88-7.82A29.75,29.75,0,0,1,72.75,66.72ZM80.17,42c2.33,3.34-1.52,6.59-3.91,7.83.86.23,1,1.19,2.26,1,1.46-2.38,3.84-5.08,3.29-8.23,1.91-.23,2.18,3.1.83,4.32,2.41,1.07.72,7.08-1.86,4.74a4.45,4.45,0,0,0,1.45-2.88c-1.58-.18-1.5,3-3.51,3.08A83.39,83.39,0,0,0,96.23,68c1.07,2.15,3,3.43,4.53,5.15,1.76-.5,2.17-2.35,3.7-3.09,1.45,1-.2,3.57-1.85,3.92-.4-.36-1.15-.36-1.65-.62.17,1.13,1,1.6,1.44,2.47a7.2,7.2,0,0,1,2.27,0c2-.62,1.34-4.38,3.71-4.33A4.76,4.76,0,0,1,103,76.81c2,3.66,5.59,7,7.83,11.12,4.21,1.32,5.54-2.86,6.38-6.18,2.94,3-1.23,6.92-3.5,7.82-.13-.48-1.27,0-1.44-.41.2,1.78,3.25.72,4.73,1.24.43-.77-.29-.54-.2-1.44,2.48-2.51,3.08-8.6,0-11.12.12-.67-.14-1-.21-1.44-2.23-2.61-3.69-5.92-6-8.45s-5.12-4.48-7.21-7.2C99,55,94.88,48.75,89.23,44.07a26.66,26.66,0,0,0-10.71-9.68C79.16,37.27,80.68,38.6,80.17,42Zm13.59,3.5c1.26.73,1.72,2.26,2.88,3.09,1.24-3.08,2.67-6,3.91-9.06-1.06-1.13-1.84-2.55-3.5-3.09A40.22,40.22,0,0,1,93.76,45.51ZM6.46,41.39c2.13.69,5.13,1.32,6.58,2.68,2.51.07,5.56,1.28,7.83,2.27,0,.58.18,1.41-.41,1.44-4.64-1.29-8.66-3.51-13.59-3.92.31,1.19.39,3,.62,3.71,4.9,1.14,9.31,1.41,14.61,2.27a20.77,20.77,0,0,1-1.44-6.18c-4.49-1.9-10-3.83-14.41-5.15A9.94,9.94,0,0,1,6.46,41.39ZM113.52,68.57c2.19,3.1,4,6.5,6.38,9.89.53.75,1.36,1.25,1.86,2.05,1.8,2.87,3,6.1,5.35,8.65,2,3.44,3.69,6.78,5.56,10.3,1.08,2,1.73,4.42,3.09,6.17.47.62,1.19,1,1.65,1.65,1.33,1.93,2.61,3.9,3.91,5.77s2.83,3.51,4.12,5.35c5.24,7.49,9.84,16.46,11.73,26.56,3.59-.6,7.19-1.18,10.71-1.85a58.19,58.19,0,0,0-3.71-9.27c-2.56.72-4.86,2.72-7.2,2.06,1.88-1.48,4.56-2.16,6.59-3.5-.46-.71-.52-1.82-1.45-2.06-1.19,1.19-4.42,2.86-5.56,1.65,1.44-1.52,4.58-1.33,5.36-3.5-3.07-5.24-4.22-12.39-7.62-17.3-2.52,1.82-6.61,4.22-9.88,3.92,1.76-.63,4.06-2.51,6.38-2.48.53-1.25,2.05-1.51,3.29-2.06-10.61-20.2-23.66-38-38.09-54.35a119.31,119.31,0,0,0-14.62-16.06c-1.33,3.12-2.23,6.68-4.32,9.06,2.14,2.82,4.22,6.28,6.59,8.23.75-.28.78-1.28,1.65-1.44a4.38,4.38,0,0,1,2.06-3.29c.49-1.43.7-3.14,2.47-3.3-1.06,3.82-3.47,6.28-5.36,9.27C107,62.57,111,65,113.52,68.57ZM40.22,45.51c.49-1.29.68-2,1-3.09C40.61,43,39.67,44.41,40.22,45.51ZM39.6,49c.07-1.3.67-1.9.21-3.09C39.74,46.82,39.06,48.18,39.6,49Zm22.45-2.47c-3.23-.77-9.74,1.42-11.94,4.32-1.75,2.32-3.39,6.38-2.89,9.48.71,4.33,7.5,6.5,8.24.61-.65-.25-2.8.8-3.91-.2-.73-2.47,2.51-3.73,3.91-3.5C59.82,58,60,68.13,63.08,70c1.7-1.87,4.62-2.51,7.41-3.29-1.62-2.77-4.23-4.56-5.56-7.62-.27-.34-1.17-.07-1.44-.41a13,13,0,0,1-1.85-3.5c-.14-.94,2.84-2.56,3.91-1,.2,1-.77,2,.2,3.09A3.29,3.29,0,0,0,68,56.84C69.64,51.77,65.44,47.35,62.05,46.54Zm14.62,1c.68.25,1.17-.72.82-.82C77.3,47.11,76.73,47.09,76.67,47.57Zm7,23.68c1.09-3,4-5.33,7.61-4.53-4.52-3.92-9.52-7.36-12.76-12.56-1-.38-1.86-2-2.68-1.85C78.9,58.17,80.65,65.35,83.67,71.25ZM77.49,60.34c-1.2-3.74-4.84-5.05-7.41-7.42.13,1.08-.25,1.86,0,2.47C72.4,56.28,75.33,59.31,77.49,60.34ZM18.81,120.46c1,1.92,1.75,3.35,2.68,5.15,2.28,4.43,5.44,9.58,6.38,13.17a12,12,0,0,1-1-2.47c-3.63-3.89-5.51-9.54-8.65-13.38,3.65,8.5,7.8,16.49,11.53,24.91,1.85,2.62,3.9,5,5.36,8,2.58,3.88,6,7.14,8.85,10.91,3.88,5.11,6.87,10.88,11.32,15.65,1.74,1.86,3.84,3.28,5.56,5.15C62.87,189.81,64,192.71,66,195c1.21,1.43,2.81,2.7,4.12,4.12s2.57,3.15,3.91,4.53c.73.75,1.85,1.11,2.68,1.85.65.59,1,1.46,1.64,2.06,1,.95,2.35,1.36,3.5,2.27s2,2.3,3.3,3.09c1,.58,2.3.82,3.5,1.44s2,1.53,3.09,2.06c2.84,1.45,6.42,2.31,9.47,3.91,5.9,3.1,10.36,4.74,17.5,5.15a177.17,177.17,0,0,1-30.06-23.89,9.53,9.53,0,0,0,1.65,2.47c1.51,1.59,3.85,2.81,4.32,4.74-.77,0-.62-.89-1.65-.62-1-2.19-4.79-3.27-5.76-6.18a167.2,167.2,0,0,1-20.8-22.23c-6.57-4.9-9.68-13.25-15.24-19.15-3.73-7.18-9.14-12.68-12.76-20-2.12-1.84-3.31-5.68-4.74-8.45-.67-1.31-3-3.28-1.23-4.53,1.46,2.18,3,4.25,3.7,7.21,3.69,6.69,9.34,12.52,13.39,19.36,1.75,3,4.12,5.62,6.18,8.64,1.32,2,2.45,3.26,3.5,4.95.83,1.33,1.37,2.85,2.26,4.11,2.46,3.49,5.89,6.14,8.44,9.06.56.64,1.07,1.23,1.65,1.85,3.45,3.72,5.9,8,9.88,10.71-3.55-3.76-6.78-8.05-10.09-11.73a106.47,106.47,0,0,1-7.41-9.06c-3-4.2-6.79-7.83-9.68-12.15-2.34-3.52-4.15-7.54-6.38-11.33-3.1-2.66-4.22-7.31-7.41-9.88-2.27-4.77-5.49-8.71-7.83-13-.6-1.1-.77-2.41-1.44-3.5-3.2-5.26-5.67-10.91-8.85-16.27-1.55-2.6-3.41-4.62-4.53-7.41s-1.88-4.89-3.09-7.41c-3.79-10.62-7.83-21-11.12-32.12-1-.62-.7-2.45-1.44-3.3.06-1,.33-2.26-.41-2.88.35,12.2.78,21.14,3.91,31.3.82.12,1-1.44,1.65-.83C9,87.94,9.62,92.12,11,96c3.49,9.83,9.53,18.38,14,26.35.9.55,2.33,3.43,2.67,4.53-6.6-6.71-11.39-15.23-15.44-24.5-1.14-.13-2-2.59-2.47-2.06,0,.12,0,.24.21.21C12.84,107.18,15.77,114.82,18.81,120.46Zm48-61.56c.56.57.52.16,1.24,0A116.75,116.75,0,0,1,80.58,69.19C79.92,67,79,65,78.31,62.81c-3-2-5.55-4.47-8.64-6.39C69.48,58,68,58.37,66.78,58.9ZM33.22,70c0,1.36,1.87,3.49,2.88,5.56s1.84,3.53,2.48,4.94c1.22,2.75,2,5.68,3.08,8.45s2.42,5.35,3.71,8c2.55,5.27,4.39,10.88,7.62,15.86,1.53,2.35,4.09,4.45,5.56,7,1.34,2.33,2.34,4.22,3.7,6.38,1,1.54,1.58,3.4,2.47,4.74,1,1.53,3,2.6,2.68,4.32a4.11,4.11,0,0,1,1.85,1.86c3.69,5.43,7.18,11.43,11.33,16.06.6.67.93,1.69,1.85,2.05,6.82.86,9.15-5,7.21-10.29-.28-.76-.18-1.42-.41-1.85-.84-1.56-2.9-2.72-4.12-4.53a48.38,48.38,0,0,1-5.77-11.12c-2-3.17-4.22-5.14-6.59-7.83-.65-.74-1.35-1.29-2-2.06s-1-1.71-1.65-2.46c-2-2.34-4.41-4-5.77-6.8-1.12-2.33-2.2-4.56-3.29-7C54.72,89.55,47.83,79.84,42.9,68.16,40.42,67.13,33.36,66.05,33.22,70ZM85.93,76.4c2.91-6.11,9.12,3.84,3.3,5.56-1-.27-1-1.6-2.06-1.86,1.24,4.19,4.27,8.81,8.44,9.88a5,5,0,0,0,5.56-2.67c1.54-3,.58-8.41-1.65-11.53-1.65-2.32-4.27-3.78-6-5.15.72,1.21,2,1.81,1.65,4.12a11.27,11.27,0,0,1-3.09,1.44c0-2.75-5.27-1.2-5.56-3.71-.23-2,2.49-2.77,4.53-3.29C86.69,66.14,82.69,73.06,85.93,76.4Zm7.41-6c-.31-.32-1.15-1.17-1.64-.62C92.41,69.72,92.84,71,93.34,70.43ZM88.4,71.87a25.24,25.24,0,0,0,4.94,2.06C92.78,72,90,69.5,88.4,71.87Zm1.44,8.44c.75-1.8-.34-4.35-2.47-4.53C87.28,78.2,88.51,79.31,89.84,80.31ZM59.37,77.63a17,17,0,0,1-1,1.44c.31.31.87.37,1,.83,2.09-2.93,7.31-.07,4.94,3.91a77.35,77.35,0,0,0,10.91,8.44,6.8,6.8,0,0,0-.82-5.35c-.18,5.8-7.78-.47-3.09-1.86,1.35-.39,2.19.2,3.09,1.65C72.63,80.54,67.51,75.48,59.37,77.63Zm4.32,14.21c-1.63-1.13-1.6-4.44.62-5.56-.4-.35-.6-.9-1.23-1-2.45,1.34-4.92-.72-3.91-3.5a3.83,3.83,0,0,0-2.27-1.44c-2.44,7.38,1.84,13.39,5.56,16.26-1.47-1-1.72-3.22-2.88-4.53.6-.83.39-2.49,1.64-2.67v2.06C62.16,91.45,63.31,91.26,63.69,91.84ZM63.28,83c.47-.44-.17-.7,0-1.44a11.69,11.69,0,0,0-2.26-1C61.12,82,62.31,82.37,63.28,83Zm29.24,8c-.42-.54-1.77-2.13-2.06-1.45,1.45,2.81,2.29,6.23,3.91,8.86,1.75,4.31,3.36,9.22,6.18,13.18,2.07-2.38,3.15-5.39,4.53-8.24,2.07-4.28,4.22-7.76,6.18-11.94-2.55-3.36-4.86-7-7.62-10.09C104.23,88.87,99.24,93.9,92.52,91Zm63,55.38c-2.28-15.3-11-25.94-18.53-36.65-.63-.63-1.31,0-1.85-.62A173.9,173.9,0,0,0,120.73,83c-1,4.66-1.34,10.16-7,8.65.85,3.1,3.65,4.86,5.35,7.62,2.12,3.44,3.36,7.68,5.15,11.53.86,1.86,2.06,3.49,3.09,5.35s1.51,4.17,2.47,6c1.38,2.6,3.73,4.56,5.15,6.79,1.11,1.76,1.9,4,3.08,6,2.42,4,4.52,6.91,4.95,11.74C146.42,144.73,152.93,143.65,155.52,146.4ZM61.64,83.81c-.37-.07-.81-1.09-1.24-.41C60.75,83.48,61.33,84.37,61.64,83.81ZM7.28,88.75C6.89,87.42,7,85.58,5.84,85A8.37,8.37,0,0,0,7.28,88.75ZM73,87.52c-.67.25-.16-.67-.82-.42C72,87.56,72.9,88,73,87.52ZM67.4,91.84a3.52,3.52,0,0,0,.41-2.06c-.91-1-2.49-1.35-3.7-2.06C63.27,89.57,65.31,91.59,67.4,91.84ZM63.28,97.6c1.71.68,2.37,2.44,4.33,2.68a7.19,7.19,0,0,0,7.61-6.38A69.38,69.38,0,0,1,69.05,90c.31,2.36-2.06,2.94-3.5,2.89C68.37,94.52,65.76,98.91,63.28,97.6Zm2.06-1c-.33-1.86-1.84-3.64-3.5-3.5C62.81,94.44,63.26,96.32,65.34,96.57ZM7.07,95.34C7,94.6,7,93.74,6.46,93.49,6.59,94.18,6.6,95,7.07,95.34Zm96.78,15c1.55-1.19,3.88-1.61,5.55-2.68a4,4,0,0,1-1.44-4.53c1.22-3.6,7.82-5,10.09-1.64-1.76-2.84-3.81-5.39-5.76-8A108.12,108.12,0,0,0,103.85,110.37ZM7.69,97.81c0-.16.17-.24.41-.21-.51-.51-.35-1.7-1-2.06A5.56,5.56,0,0,0,7.69,97.81Zm14.21,4.53c3.61,6,6.73,12.48,10.29,18.53.85-.09.77,1.83,1.44,1.24-3.76-6.19-6.65-13.26-9.47-20.39-.63-.15-.39.57-1,.41-1.92-1.78-2.59-4.81-4.53-6.59A17.22,17.22,0,0,0,21.9,102.34Zm45.91-.62c1.4,4.12,4.93,7,7,10.3.24.38.74.86.41,1.44-1.15.15-1.91-1.07-2.67-1.85s-1.71-1.88-2.47-2.68c-.79-2.65-3.18-3.69-3.09-7.21a6.28,6.28,0,0,1-3.3-1.23c1.56,4.34,4.53,7.28,7.21,10.5a8.2,8.2,0,0,0,4.32,3.91c.34-5,8.62-7.84,11.12-2.88.47.57-.2,1,.21,1.64,2.52-.62,5-3.9,8-2,.3,1.88,2.1,4.68,1.44,6.58-.55,1.58-2.69.75-4.53,1.44,4.56,3.89,1.72,13.61-4.94,12.77,1.22,2.42,2.61,4.66,3.91,7,.33-.83.55-1.78.82-2.68a5,5,0,0,1-2.88-3.29c.48.06.23-.6.62-.62,1,.81,1.66,2,2.68,2.88,2.29-7.69,5.6-13.86,7.61-21.41a2.44,2.44,0,0,1-.82-2.26c-7.16-5.47-14.28-11-21.62-16.27A10.37,10.37,0,0,1,67.81,101.72Zm-5.35-.62c-.36.06-.64-1-.82-.41C62.23,101.53,62.9,103.55,62.46,101.1ZM119.08,118c4.24-4.11.61-13.21-2.88-15,2.76,1.73,5.25,8.65,1.65,11.32.13-.69.14-1.5.61-1.85.3-3.82-1.43-6.59-3.29-8.86-1.08-.61-1.79-.38-2.27-1.44-.15-.77.79-.45.83-1-2.82-.46-5.8,3.31-2.88,4.74-.28-1,1.2-1.55,2.26-1.85.64.73,1.71,1,2.06,2.06-1.93,3.77-6.85,4.54-9.88,7.2.24,0,.22.33.2.62,3.45-.68,6.45-3.57,10.5-4.32.19,1.31.88,2.14,1.24,3.29-1,1-1.38,2.6-2.68,3.29-.06-.42-.55-.41-.82-.61C114.49,117.36,116.32,118.14,119.08,118ZM75,119.22c1-3.55-3-4.25-4.94-6.17-1.61-1.65-2.82-4.41-4.33-6.39-1.08-1.42-2.34-2.41-2.88-3.91C65.18,110,70.52,114.18,75,119.22Zm-63-9.47c-.53-1.46-.7-3.28-1.64-4.32C10.88,106.9,11.18,108.59,12,109.75Zm92.66,1.65c.69-.07,1.89-.7,1.65-1C105.88,110.82,104.9,110.74,104.67,111.4ZM82,111c-3.23-.28-4.24,1.66-5.35,3.5.23,1.19-.14,2.31,0,3.5.27,2.42,3.31,7.5,4.73,9.06a11.29,11.29,0,0,0,7.83,3.7c2.79-1.16,4.32-7.72.61-9.06.06,3.52-4.74,3.6-4.94.83-.12-1.65,1.72-1.87,2.27-3.3-3.12.53-2.28-1.86.41-1.23a9.47,9.47,0,0,1,5.15-1.65c.12,2.53-4.65,1.25-4.74,2.88,2.08-.53,3.92-1.29,6.18-1.65-.31-1.61-.23-3.61-1.44-4.32-5-.57-6.82,4.82-11.74,4.32-1.63-2.38.9-4.47,2.88-5.14C82.82,112.38,82.58,111.52,82,111Zm23.88,4.53c4.68,4.31,10,8,14.83,12.14,3-2.13,10.48-.73,12.35,2.06-4.42-4.57-6.27-11.7-10.29-16.67.09,5.71-6.07,8.71-10.3,4.73-.62-1.48-1.2-3.26-.41-4.73C109.64,113.49,108.05,114.79,105.9,115.52Zm-23.06-1.24c-.14.46-.61,1-.2,1.44,1-.09,1.36-.83,2.06-1.23A2.14,2.14,0,0,0,82.84,114.28Zm21.21,7c9.6,18.48,16.72,40.66,24.5,59.71,7.4,5.64,12.31,13.77,24.5,14.62.79-.44.59-1.88,1.65-2.06.5-.08-.11.94.62.62,1.53-8-1.26-15.29-3.3-23.06-2.54-9.7-6.51-18.27-12.35-24.3-1.68,3-3.62,3.6-7.62,3.5-9.63-.22-17.38-12.47-11.94-21-6-5.06-12-10-18.53-14.62C102.06,117.24,103.85,118.46,104.05,121.28Zm-12.77,22c.84,1.09,1.57,2.28,2.48,3.3-.32-3.4-1.29-7.52,1-9.68a11.28,11.28,0,0,1,5.56-2.27c4.13-.06,8.3,1.66,10.29,5-2.28-7.68-6.84-13.07-9.06-20.8-.62-.13-.57-.93-1-1.24,0-.12,0-.24-.2-.2C97.34,126,93.61,134,91.28,143.31Zm-73.91-22a2,2,0,0,0-.62-1.23C16.91,120.5,16.87,121.16,17.37,121.28Zm69.39.83c.37.31.63.74,1.44.61-.08-.61-.12-1.25-.62-1.44C87.45,121.7,86.54,121.34,86.76,122.11Zm-68.57.41c-.2-.19-.93-1.42-.62-.83C17.63,122,17.84,123.18,18.19,122.52ZM39,132.19c5.21,10.1,12.41,18.2,17.5,28.42a146.31,146.31,0,0,1,14,17.91c2,.54,2.54,2.36,3.71,3.71,1.88,2.18,3.78,4,5.56,6.17.5.63.69,1.45,1.23,2.06s1.21.74,1.65,1.24c.72.83,1.1,2,1.85,2.88,2.68,3,6.31,5.71,8.44,8.85,2.59,2.25,5.38,4.18,8,6.39.65.54,1,1.51,1.65,2.06,2,1.77,5.13,2.52,6.38,5.14,1.37.28,2,1.29,3.3,1.65,2.11,2.61,5.09,3.78,8.23,6,2.29,1.59,4.91,2.62,7.42,4.12,3.95,2.37,8.2,5.64,12.35,6.79,1.84.52,4.08.52,6.18,1,3.32.82,6.49,2.24,9.67,1-2.63.17-4.63-1.05-6.59-1.64-4-1.2-7.2-1.87-10.5-3.09-2.44-.91-5-1.49-7.2-2.47-2-.9-3.78-2.57-5.77-3.71-1-.6-2.13-1-3.09-1.65s-1.64-1.56-2.67-2.26-2.18-.77-3.09-1.44c-1.52-1.11-2.61-2.79-4.12-3.91-3.43-2.56-6.75-5.1-9.88-7.62a23.75,23.75,0,0,0-3.5-2.47c-.44-1.33-1.66-2.08-2.68-3.09s-1.7-2.24-2.68-3.09c-.6-.53-1.46-.72-2.06-1.24-1-.9-1.64-2.21-2.67-3.08-.61-.52-1.45-.69-2.06-1.24-2.28-2-4.45-5.31-6.38-7.41a34.35,34.35,0,0,1-6-8A178.13,178.13,0,0,1,60,161c-.69-1-1-2.32-1.65-3.29-1.59-2.22-3.84-4.06-5.35-6.39-2.21-3.4-4.11-7.24-6.18-10.5-1.52-2.39-3-4.19-4.53-6.18-2.65-3.51-5.54-8-8-10.7C35.77,126.67,36.56,130,39,132.19Zm83.8-3.08c.64-.24.5.32.82.41.1-.93,1.06-.56,1.24,0,1.74-1.57,4.25.83,3.09,2.26a6.4,6.4,0,0,1,3.7-1C129.19,129,125,126.68,122.79,129.11ZM123,133c-.44-1.07-.59-2.43-1.85-2.68-4,8.3,3.87,19.94,15,18.33a5.56,5.56,0,0,0,2.06-3.5C132.87,141.44,129,135.46,123,133Zm3.3-.83c.52-.55-.13-1.08,0-1.85-.63.13-1.78-.26-2.06.21C125.25,130.76,125.27,132,126.29,132.19ZM87.78,139c.54.7,1.4,1.82,2.06,1.65-1.46-1.9-4.67-5.59-4.11-8.86a12.48,12.48,0,0,1-2.89-1C84.51,133.18,86,136.66,87.78,139Zm39.13-5.77c1,.07,1.3,2,2.26,1.44-.1-1.59-1.12-1-1-2.67A1.53,1.53,0,0,0,126.91,133.22Zm6.17,3.09c.29-1.52-1.35-3.8-2.88-3.5C130.88,134.26,131.38,135.89,133.08,136.31Zm-.2,2.27c1.18,1.07,1.71-.68,2.88-.83a7.07,7.07,0,0,1,2.06,2.68c0,.89-1,.76-1,1.65.7.26.78,1.14,1.65,1.23a13.84,13.84,0,0,0-4.12-10.09C135.2,135.26,134.87,137.85,132.88,138.58Zm-37.68.82c-.29,8.85,3.55,14.66,8.85,18.53,1.81-.31,1.69.76,3.09.82a7.31,7.31,0,0,0,3.91-1.23c5.65-4.34-1.79-17.7-5.15-20C102.19,135.87,96.86,135.34,95.2,139.4Zm45.09,4.32c-.64,1.24.76,1,0,0Zm17.5,2.47a15.24,15.24,0,0,0,.62,2.48c2.94.48,6.08-.69,8.44-.21-1.54,1.77-4.49,1.76-7.82,1.65.11,1.32.81,2.06,1.23,3.09,1.49-.12,2.91-.09,4.32-.21.77-.07,2.43-1.05,2.68.41-1.81.55-5,.43-6.59,1.24,1.45,4,7.74,1.28,11.33,1,.12.49.89.34.61,1.23-2.66.95-6.76.15-10.5.83,1.1,3.12,2.1,7.32,3.09,9.88a20.73,20.73,0,0,1,4.53.41c-.19.56-2.73,1.26-4.32.82a40,40,0,0,1,1,3.92c2.18.39,6.87-1.27,8.44.61-2.72.94-5.4.32-8.24.62a20.62,20.62,0,0,0,.42,4.33c3.62.92,7-1.63,8.85.82-.24,0-.59,0-.62.2,1-.3,1.68.79,2.27.21-2.52-12.84-4.13-25-9.06-35.21C164.34,144.55,161.2,145.72,157.79,146.19Zm-21.21,58.27a2.17,2.17,0,0,0-2.47.83,87.11,87.11,0,0,0,15.65,9.47,25,25,0,0,0,5.56,2.06,9.24,9.24,0,0,0,8.44-3.5c1.67-2.12,1.81-4.89,2.06-8.24.09-1.22.64-2.64.62-3.91-.07-4.45-1.1-8.34-1.24-12.15-.2-5.77.63-11.69-1.23-15.85.78-1.61-.25-2.88-.62-4.33a72.51,72.51,0,0,0-6.59-17.29c-2.68-4.75-8-6.75-13-3.09,3.84,5.5,6.34,12.33,10.71,17.3-1.27-4.09-3.47-7.24-4.95-11.12.51-.11.74-.5,1-.83a61.08,61.08,0,0,1,9.68,30.27c.15.93-.56-.31-.41.62.26,3.5,1.94,9.69-.21,12.35-1-1.67.26-4.81-1-6.38-1.08,4.55-1.15,10.1-6.17,10.71-3.85-2.6-9.57-2.2-13.8-4.53C139.35,200,137.34,202.11,136.58,204.46ZM83.67,157.11c.84,2.86,4.88,4.13,6.79,6.59,1.1,1.41,1.72,3.26,2.68,4.73,4.68,7.16,11.91,13.86,18.32,19.36,2.83,2.42,5.13,5.26,7.83,7.41,3.16,2.52,6.71,4,10.09,6.38,2.59,1.86,4.21,3.32,6.59.83.33-2.1.94-5.7-.21-7.62-.41-.69-1.65-1.41-2.47-2.27a100.48,100.48,0,0,0-10.09-9.06c-3.77-2.94-7.68-5.77-11.12-8.44s-5.33-5.66-7.41-9.68a65,65,0,0,0-6.59-9.88c-1.66-2.13-3.09-5.23-5.35-6.59A9.25,9.25,0,0,1,83.67,157.11Zm30.68,14.41c4.24,3.31,8.94,6.09,12.35,10.09,0,.61-1,.26-1.24.62-1.39-2.2-3.78-2.78-5.76-4.12-2.86-1.94-5.37-4.7-8-6,5.71,4.59,12.1,9.59,17.71,13.59-6-10.69-9.32-24-14.62-35.42.23,5-1.43,8.18-4.94,9.47,2.42,7.1,7.23,11.26,12.14,15.45,0,.53-.76.33-1,.61-5.65-3.61-10.29-8.23-12.35-15.44-.75,0-1.62-.11-1.85.41C108.67,165.37,110.85,168.8,114.35,171.52Zm-8-8c-.39-1.06-.78-2.1-1.24-3.09-.37.13-.85-.6-1,0C105,161.09,105.63,163.21,106.32,163.49Zm46.94,5.15c.33,1.49.24-2.16-.62-2.06C152.64,167.48,153.21,167.79,153.26,168.64ZM108,167a7.56,7.56,0,0,0,2.68,4.12A41.61,41.61,0,0,0,108,167Zm48.39,4.74c.42-.15-.46-2.38-.83-3.09C155.58,169.89,156.19,170.58,156.35,171.73Zm1.23,14.2c-.1-5.93-2.4-11.16-3.91-15.85C154.82,175.52,156.48,180.45,157.58,185.93Zm9.48-5.76c.57,2-.18,3.37.2,5.15,2.86,1.33,8.11.34,11.53,1.44a29.13,29.13,0,0,0-1.23-6.59C172.83,179.82,172.06,179.24,167.06,180.17Zm-35.83,7.41c1.76,2.15,3.83,3.24,5.76,4.94a23.79,23.79,0,0,0,2.89,2.68c3.49,2.14,9.94,1.91,13.17,4.32,1.59-1.15,2.14-3.64,2.27-5.14-.94,3.25-4,3.23-7.41,2.47-6.84-1.53-14.26-8.23-17.5-12.77a.21.21,0,0,0-.42,0A21,21,0,0,1,131.23,187.58Zm36,2.27a19.16,19.16,0,0,1,6,1.44c1.92.6,4.13.63,5.77,2.06-2.79,1.3-7.27-1.8-11.53-1.65-.1,2.88,2.3,2,3.5,3.5,3.26.39,5.81,2,9.06,2.88A62,62,0,0,0,179.2,188c-3.54-.64-8.06-.31-11.94-.62Zm-8.65.61H159c0-.26.26-.28.2-.61h-.62Zm9.47,6.59c4,1.67,7.56,3.67,11.74,5.56a17.13,17.13,0,0,0,0-2.68c-4.16-1.12-7.44-3.12-11.74-4.11Zm.21,4.12c3.79,1.7,7.33,3.65,10.91,5.56.39-.44.14-1.51.21-2.27-3.43-2-7.36-4.58-11.33-5.35C168.55,199.4,168.16,200.54,168.29,201.17Zm-.21,3.71c3.55,2.22,7.07,4.46,10.71,6.58.09-.78.3-1.47.41-2.67a40.6,40.6,0,0,0-10.91-5.56C168,203.53,168.11,204.28,168.08,204.88Zm-.2,3.29c3.74,2.77,6.75,5.15,10.5,8-.16-1.19.3-1.76.21-2.88-.63.15-.75-.21-1.24-.21-2.48-2.73-6.25-4.18-9.47-6.18Zm-.82,2.27c3,3.85,7,6.74,10.7,9.88a25.24,25.24,0,0,0,.41-2.68c-3.72-2.52-7.27-5.22-10.91-7.82C167.23,210.06,167.3,210.4,167.06,210.44Zm9.88,13.79c1.34-2.71-1.35-2.93-2.27-4.12-.61-.79-.47-1.42-1.23-1.85-2.34-1.33-4.88-4-7.21-4.94C169.66,217.09,173.21,220.76,176.94,224.23Zm-12.56-9.06c3.4,4.56,6.55,9.37,10.29,13.59.52-1.06,1.35-1.81,1.65-3.09A108.93,108.93,0,0,1,165,214.35C165.18,215,164.32,214.63,164.38,215.17Zm-4.12,22.44c-.69-.25-2.26-.24-2.06,0C158.65,237.73,159.89,238.11,160.26,237.61Z"/><path class="cls-1" d="M113.11,158.75c.6,3.43,2.76,4.66,4.53,7.21.09.85-1.37-.11-.82.41C115.93,165.72,109,160,113.11,158.75Z"/><path class="cls-1" d="M91.08,55.81c-.61.18.48.3.2.82a49.9,49.9,0,0,1-6.38-6.38c.66-.38,1.39.94,2.06,1.23.19-.22.76-.06.62-.62,3.67,3,6.9,6,9.06,10.09-.8.09-.73.23-1.24-.2-.13,1.78-2.67,3.06-4.12,1.65,1.6-.16,2.15-2.35,3.71-1.86-.23-1.14-1.18-1.56-1.65-2.47-.53,1-.81,2.2-1.85,2.68a18.31,18.31,0,0,0-2.06-.41c-.17-.59.29-.54.21-1,1.57.68,1.42-1.78,2.88-1.86A12.52,12.52,0,0,0,91.08,55.81Zm-.41-.62c-.42-.06-.41-.56-.83-.62C89.74,55,90.36,55.81,90.67,55.19Z"/><path class="cls-1" d="M68.43,65.69c-.31,1.91-2,1.13-2.68,0-.68,1.33-2.75,2-3.91.82,1.08-1.92-.84-2.7-1.23-4.32a.58.58,0,0,0,.41-.62c2.19-.06,2.09,2.16,3.5,2.88-1.13-2-2.64-3.67-3.71-5.76a5,5,0,0,1,.62-1C64.59,59.51,65.52,63.59,68.43,65.69Z"/><path class="cls-1" d="M69.67,85.25c-2,0-2.71-1.14-3.71-2.06C66.44,78.26,73.64,82.6,69.67,85.25Z"/><path class="cls-1" d="M130.61,142.08c1.8-.44,2.57.07,2.68,1.44.22,2.75-5.36,4.23-5.15.82C128.22,143.11,129.51,142.34,130.61,142.08Zm1,1.85c-.3-.11-.52-.3-.82-.41C130.6,144,131.51,144.43,131.64,143.93Z"/><path class="cls-1" d="M138.64,186.35c4.39,2.09,7.68,5.79,14,5.35-.55,1.51-2.56,1.74-3.91,1.65-4.19-.29-8-4.16-11.12-5.56-.34-.41,0-.26,0-.83-2.14-1-3.5-2.67-5.76-3.5-2.73-3.49-7.79-11.94.61-13-.65-2.64-2.05-4.53-2.88-7-.41-.45-1.49.39-1.85-.41A11.32,11.32,0,0,1,137,160.2c1.48,3.05,1.89,7.17,3.09,10.5,3.2-1.7,6.92-1.33,8.86,1.23,3.08,4.08,2.1,11.35-2.06,13.59,1.48.65,3.33.93,4.53,1.85,0,.62-.54.71-.62,1.24-1.38-.4-4.5-.67-4.94-2.68C144.18,188,140.66,186.6,138.64,186.35Zm-1-17.3c-.28-2.66-1.73-5-1.64-7.41a10.25,10.25,0,0,0-4.54.62,6.77,6.77,0,0,0,1.65,4.11c-.22-1.12-.54-1.77.62-2.26.72.31.56,1.49,1.24,1.85a7.16,7.16,0,0,0-.42-2.68c.31-.1.52-.3.83-.41C136.32,164.45,137.12,168.36,137.61,169.05Zm-2.06-.82c0-.85,0-1.76-.61-2.06C134.7,166.61,135.38,167.55,135.55,168.23Zm-1.85-.41a1,1,0,0,0-.41-1A1,1,0,0,0,133.7,167.82Zm1,2.88c1.34,1.79,1.89,5.39-.62,5.56-2.1.13-3.2-2.66-3.5-3.92a3.83,3.83,0,0,0-1.44,2.06c.54.9.63,2.26,1.44,2.89,0-.26.06-.49.41-.42,1.9,1.38,2.25,4.32,4.53,5.15a14.71,14.71,0,0,0,6.39.41c3.2-.72,5.41-4.83,4.53-7.61.39-.36,1.26-.25,1.23-1-1.09-1.63-5.56-4.42-6.79-1,4.7-1.34,3.05,4.28-.62,3.5,0-.52-.32-.65-.62-.83.08,1.78,2.51,4.8.41,5.56-.66-4.55-3.17-7.26-3.91-11.73a1,1,0,0,1-.62-.21C135.87,170.19,134.64,169.78,134.73,170.7Zm-.62,3.7c-.22-1.15-.56-2.18-1.65-2.47C132.68,173.09,133,174.12,134.11,174.4Zm1.65,9.27c2.1,1.06,5.11,1.21,7.62,1.85,3.81-1.05,6.84-4.52,4.94-9.47C147.49,182.14,142.38,184.53,135.76,183.67Z"/></g></g></svg>