<svg xmlns="http://www.w3.org/2000/svg" viewBox="0 0 262.24 262.57"><defs><style>.cls-1{fill:#231f20;fill-rule:evenodd;}</style></defs><g id="Layer_2" data-name="Layer 2"><g id="Graphics"><g id="PIZZA"><path class="cls-1" d="M163.23,12.8c0-.45.87-.09,1.23-.21C164.28,13.32,164,12.62,163.23,12.8Z"/><path class="cls-1" d="M164.66,12.8a18.94,18.94,0,0,0,5.72,1.43,8.26,8.26,0,0,1,3.06,1.22c5.85,1.05,10.61,3.62,15.31,5.72,1.91.85,4,1.19,5.92,2,4.24,1.91,7.79,5.11,12,7.35,1,1.61,3,2.25,3.68,4.28-1.81-.21-3.15-1.79-4.49-2.85-9.83-7.77-23.82-12.33-36.75-17.36a2.56,2.56,0,0,1-2-.61c-.91.3-1.05-.14-2-.2C165.22,13.19,164.51,13.43,164.66,12.8Z"/><path class="cls-1" d="M97.7,18.72a5.27,5.27,0,0,1,1.63-.62c.36.39.15,1.35.21,2,.12,2.81,3.29,6.16,1,8.37-.33.05-.35-.2-.62-.21C99.64,25,98,22.58,97.7,18.72Z"/><path class="cls-1" d="M118.11,25.66c-.62-.15-.39-.15-1,0-.12-.78-.66-3.77.41-4.49C118.72,21.77,118.4,24.45,118.11,25.66Z"/><path class="cls-1" d="M112.81,21.58h.61c.64.91.64,2.48,1,3.67-.62-.15-.6.35-1.23.2C112.49,24.38,111.91,22.65,112.81,21.58Z"/><path class="cls-1" d="M121.79,21.78c1.25.67.39,3.31.41,4.29-.65.22-.46,0-1.23,0C120.89,24.43,120.45,22.94,121.79,21.78Z"/><path class="cls-1" d="M124.65,22.19c.66.93,1.38,4.74-.82,4.49C123.88,25.1,123.74,23.75,124.65,22.19Z"/><path class="cls-1" d="M133.83,22.39c.33-.06.36.19.62.21-.46,2.12-.15,5-2.66,5.1A13.11,13.11,0,0,1,133.83,22.39Z"/><path class="cls-1" d="M129.55,22.6c-.26,2.17.7,4.47-1.43,4.9C128.29,25.56,127.51,22.67,129.55,22.6Z"/><path class="cls-1" d="M110,23.21h.61a7,7,0,0,1,.61,3.26,4.08,4.08,0,0,1-1.22.41A4.63,4.63,0,0,1,110,23.21Z"/><path class="cls-1" d="M137.51,23.62c.47,1.3.33,5.48-1.84,5.51C136,27.75,135.72,24.16,137.51,23.62Z"/><path class="cls-1" d="M141,24.23c-1.12,2-.18,6.08-2.86,6.53C138.72,29.16,138.26,23.71,141,24.23Z"/><path class="cls-1" d="M143.84,24c.23,0,.36.05.41.21-.51,2.94-.2,7.64-3.07,7.55C142.52,29.65,141.81,25.47,143.84,24Z"/><path class="cls-1" d="M145.67,25.66c1.05,1.68-.23,5.87-1.42,6.73C143.56,30.2,144.27,26.79,145.67,25.66Z"/><path class="cls-1" d="M95.05,26.07c1.21,1.37,1.74,3.42,3.26,4.49-.12.5-.88,1.41-1.22,1a12.58,12.58,0,0,1-3.27-5.11A4.44,4.44,0,0,1,95.05,26.07Z"/><path class="cls-1" d="M88.72,27.9h.61c.85,2.42,1.29,6.26,3.06,8.78-.4.35-.47,1-1.43.82C90.12,34.4,88.25,31.08,88.72,27.9Z"/><path class="cls-1" d="M95.25,32.6c-.48.06-.38.71-1,.61-1.15-.82-1.48-2.47-2-3.88C94.29,28.68,95.11,30.66,95.25,32.6Z"/><path class="cls-1" d="M149.14,29.54c-.43,2.39.42,4.83-1.83,5.3C147.51,33.28,146.23,28.53,149.14,29.54Z"/><path class="cls-1" d="M165.68,29.54c.44,3.4-1.48,11.78-3.47,5.92.47-.49.66-.31,1.43-.21C164.43,33.52,163.24,29,165.68,29.54Z"/><path class="cls-1" d="M149.14,34.84c-.2-1.19.86-2.78.62-4.69C152.35,28.65,151.52,35.28,149.14,34.84Z"/><path class="cls-1" d="M154.66,29.94c-.53,2.23-.33,6.16-2.66,5.92-.67-.49.26-1.08.41-1.42C152.71,32.19,152.14,29.36,154.66,29.94Z"/><path class="cls-1" d="M167.72,29.94h.82c.13,2.69.1,6.4-3.06,7.76A58.11,58.11,0,0,0,167.72,29.94Z"/><path class="cls-1" d="M157.11,30.76c-.43,2-.19,5.61-2.45,5.1C155,34.66,154.48,29,157.11,30.76Z"/><path class="cls-1" d="M163,30.56c-.66,2.07-.62,5.91-2.45,6.12-.93.11-.48-1.15-.82-1.63C161.61,34.31,160.2,30.32,163,30.56Z"/><path class="cls-1" d="M159.56,31.37c-.64,2-.43,4.75-2.66,5.11C157.24,35,156.64,30.92,159.56,31.37Z"/><path class="cls-1" d="M86.47,32.6c1.58.34,3.32,3.28,1.84,4.69C87.19,36.24,86.72,34.53,86.47,32.6Z"/><path class="cls-1" d="M84.23,33.42c2.26.64,3.39,3.62,2.45,5.3C84.88,37.42,84.35,35,84.23,33.42Z"/><path class="cls-1" d="M170.38,35.05c-.39,1.82-.49,3.66-2.66,4.08C168.11,37.36,168.21,33.14,170.38,35.05Z"/><path class="cls-1" d="M76.88,34.64c.33-.06.35.19.61.2.52,3.43,4.78,4.19,4.9,7.35a13.28,13.28,0,0,1-4.29-3.88A7.14,7.14,0,0,1,76.88,34.64Z"/><path class="cls-1" d="M174.46,35.46c-.53,2-1.13,5-3.47,4.49C171.89,38.3,172.11,35,174.46,35.46Z"/><path class="cls-1" d="M82.8,35.86c0,2.45,2.71,3.08,2,5.52-1.78-1-2.56-2.89-3.47-4.7C81.58,35.85,81.93,35.61,82.8,35.86Z"/><path class="cls-1" d="M177.52,36.48c-1.2,1.51-1.83,5.1-4.08,4.28C174.05,38.67,175.48,35.86,177.52,36.48Z"/><path class="cls-1" d="M74.63,36.89c1.75.09,2.29,2.23,2.45,3.26.78.56,1.78,1.83,1.63,2.66C76.84,41.44,74.88,39.22,74.63,36.89Z"/><path class="cls-1" d="M180,37.7c-.89,2-1,4.69-3.67,4.9C177.36,40.91,177.23,37.05,180,37.7Z"/><path class="cls-1" d="M211.82,44.85c-.66-2.28-3-3.88-3.27-5.92,2.26.12,3.27,3.66,4.29,5.1C212.58,44.38,212.42,44.83,211.82,44.85Z"/><path class="cls-1" d="M75,43c-1.55-.56-2.22-2-2.86-3.47C74.27,38.7,76.06,41.34,75,43Z"/><path class="cls-1" d="M182.62,40.56c-.37,1.73-1.9,3.81-3.47,3.06C180.16,42.56,180.62,39.32,182.62,40.56Z"/><path class="cls-1" d="M69.32,41.17A6,6,0,0,1,72.79,43c.24,1.05-.56,1.07-1,1.43C71,43.37,69,42.65,69.32,41.17Z"/><path class="cls-1" d="M62.79,43.42c.33-.06.35.19.61.2-1.57,3.38,1,6.05,3.27,7.35-.66,1.7-2.17,0-3.06-.2C62.18,48.63,61,45.88,62.79,43.42Z"/><path class="cls-1" d="M71.16,46.48c0,.6-.47.76-.82,1-1.18-.88-2.65-2.49-2.65-3.88A4.26,4.26,0,0,1,71.16,46.48Z"/><path class="cls-1" d="M187.52,43.62c-.65,1.51-.16,5.07-2.45,4.29a12.61,12.61,0,0,1,1.23-4.08C186.92,44,186.9,43.47,187.52,43.62Z"/><path class="cls-1" d="M67.89,48.52c-.39.09-.37.59-1,.41-1-1-2.83-2.17-2.65-3.67C66.21,44.79,67.49,46.73,67.89,48.52Z"/><path class="cls-1" d="M192,45.46c.09,1.21-.8,2.25-.62,3.88,1.39-.66.33-3.76,2.66-3.47-.5,2.29-.84,4.74-2.25,6.12-.3-.31-1-.18-1.63-.2C189.49,49.53,189.5,45.73,192,45.46Z"/><path class="cls-1" d="M189.36,45.66c-.68,1.87.71,4.55-1.63,4.7C187.16,48.56,187.05,45.68,189.36,45.66Z"/><path class="cls-1" d="M175.48,52c-.91,1.64-4.21,1.85-5.51.41-.05-1.68-.93-1.67-.61-3.47C170.18,44.17,175.66,47.48,175.48,52Zm-1.43,0c-.33-1.92-1.07-3.42-2.65-4.08C170,49.51,171.91,53.35,174.05,52Z"/><path class="cls-1" d="M165.89,47.71c.37,2.38.24,5.7-2.66,5.92-1.51-1.25-5-1.35-4.9-3.68S163.78,46.32,165.89,47.71Zm-5.72,1.42a3.75,3.75,0,0,0,4.08,2.66,3.91,3.91,0,0,0-.2-2.86A6.07,6.07,0,0,0,160.17,49.13Z"/><path class="cls-1" d="M203,46.89c-.86,4.79-4.88,6.41-7.35,9.59-.48.07-.77.33-1.43.21,2.19-3.73,6-5.89,8-9.8Z"/><path class="cls-1" d="M61,47.5A20.68,20.68,0,0,0,66.26,54a3.57,3.57,0,0,0-.61.82C62.93,53.7,59.78,51.23,61,47.5Z"/><path class="cls-1" d="M196.3,48.11c.15,2-2,3.2-2.45,5.31-.48,0-.6.35-1.22.21C193,51.75,194.1,48.86,196.3,48.11Z"/><path class="cls-1" d="M155.07,49.75c.17,1.32,1.76,1.35,2,2.65.5,2.38-1.54,4.42-3.88,4.7-.56.12-.32,1-1,1-1.23-.07-1.28-1.31-1.84-2C152.17,53.86,152.08,50.38,155.07,49.75ZM152,55.46c1.09,1,2.59.2,3.47-.61a7,7,0,0,1-.2-2.45C153.4,50.74,152.93,54.31,152,55.46Z"/><path class="cls-1" d="M60.14,51c.94,1.44,2,2.76,2.85,4.29a5.23,5.23,0,0,1-.81.82c-1.59-.8-2.41-2.36-2.86-4.29C60.2,51.77,59.69,51.53,60.14,51Z"/><path class="cls-1" d="M106.89,51.58c-1.65,2.3-3,4.94-5.72,6.13-2.29-.37-3.81-1.5-4.29-3.68C98.57,52.49,103.44,50.05,106.89,51.58Zm-7.76,2.25c.25,1.31.66,2.47,2.45,2.25.67-1.23,2-1.77,2.24-3.48A8.45,8.45,0,0,0,99.13,53.83Z"/><path class="cls-1" d="M163.64,56.08c-.49,2.17-2.63,2.32-4.9,2.24a4.45,4.45,0,0,1-1.43-2c.57-1,1.5-1.63,1.84-2.86A7.61,7.61,0,0,1,163.64,56.08Zm-1.63.81a2.09,2.09,0,0,0-2.66-1.43C160.16,56,160.64,56.89,162,56.89Z"/><path class="cls-1" d="M90.35,58.73c-1.1-3.79,2.27-4.6,5.1-5.1.93,2.6,1.41,6.54-1.63,6.53C92.2,60.15,92.34,58.7,90.35,58.73Zm1.43-2.86a3.24,3.24,0,0,0,2.65,2.86C95.4,56.6,94,54.71,91.78,55.87Z"/><path class="cls-1" d="M54.42,54c1,.37-.27.94,0,1.84a9.35,9.35,0,0,0,4.49,4.7c-.95,1.12-2.86-.38-3.67-1.23a4.41,4.41,0,0,1-2-2.65C53.67,55.87,53.94,54.85,54.42,54Z"/><path class="cls-1" d="M176.3,54c3.13.29,1.84,4.93-.21,5.31C173.4,59.85,173.13,54.54,176.3,54Zm-.62,1.84c.13.69.59,1.05.41,2,1-.35.75-1.54.41-2.24A1.13,1.13,0,0,0,175.68,55.87Z"/><path class="cls-1" d="M57.48,54.24c.91.86,2.56,1,2.45,2.86-.12.28-.78,0-.81.4A2.51,2.51,0,0,1,57.48,54.24Z"/><path class="cls-1" d="M171.6,56.48c.17,2.22-1.9,2.19-3.27,2.86-1.29-.68-2.81-1.77-2.85-2.65C165.3,53,170.26,54.29,171.6,56.48Zm-3.06,1.43a3.24,3.24,0,0,0,.41-1.63c-.34-.34-1.2-.16-1.84-.2A3.26,3.26,0,0,0,168.54,57.91Z"/><path class="cls-1" d="M49.11,55.87c1.72,2.3,2.81,5.22,6.13,5.92.09.77-.41,1-.62,1.43C52,61.66,48,59.27,49.11,55.87Z"/><path class="cls-1" d="M204.26,56.08c0,.94-.95,1-1.43,1.42-1.56,1.55-2.5,3.79-4.49,4.9.11-2.89,3.28-4.47,4.9-6.53C203.54,56,204.3,55.63,204.26,56.08Z"/><path class="cls-1" d="M150.16,61c-1.16.22-1-.93-1.83-1-.57.27.64.43.41,1-.61.14-1.35.81-1.84.41.12-1.35-.42-2.15,0-3.26C148.69,56.46,150.4,59.42,150.16,61Z"/><path class="cls-1" d="M98.31,62.61c.7-1.23-.42-2.61-.2-3.27.76-1.65,1.71.07,3.26.61,1.33.47,2.51.45,2.66,1.84a3,3,0,0,1-2.45,3.06C99.83,65,99.5,63.44,98.31,62.61Zm1.63-1.43c-.2,1,.34,1.16.62,1.63.73-.42,1-.36,2-.2C103,61,100.42,61.31,99.94,61.18Z"/><path class="cls-1" d="M154,63.43a4,4,0,0,1-2.85-2.25c.67-2.29,5.72-3.24,5.92-.82C157.23,61.87,154.84,62.31,154,63.43Zm-1-2.86a1.46,1.46,0,0,0,1.43,1.22C156.36,61,154.6,59.58,153,60.57Z"/><path class="cls-1" d="M168.13,64.65A16.11,16.11,0,0,0,169,62.4c1.92-.39,2.38-2.24,3.88-3.06,3.26.61,2.44,8.08-.62,8.17C170.26,67.56,170.11,65,168.13,64.65Zm2.25-1.84a2.34,2.34,0,0,0,.61,2c.83-.06,1.19-.71,2-.2.93-.78,0-2,0-3.06C171.93,61.15,171.26,62.41,170.38,62.81Z"/><path class="cls-1" d="M203.65,59.55c-1.23,1.14-1.16,3.6-3.26,3.88C200.62,62.2,201.85,59.19,203.65,59.55Z"/><path class="cls-1" d="M47.68,59.55C49.52,61,50.67,63.09,53,64c-.32,1.68-1.92.48-3.06.2C49.25,62.71,46,61.57,47.68,59.55Z"/><path class="cls-1" d="M94,70.16c-4.11-.71-4.47-5.09-5.1-8.78C93,60.61,99.07,66.6,94,70.16Zm-.2-1.22c.27-.65.17-2.07,1-1,.14-3.07-1.74-4.11-4.08-4.7A6.62,6.62,0,0,0,93.82,68.94Z"/><path class="cls-1" d="M205.49,61.79c-.21,1.7-2.13,1.69-2.45,3.27C201.16,64.1,203.86,61.83,205.49,61.79Z"/><path class="cls-1" d="M154.66,71.39a2.19,2.19,0,0,1-1.84.61c-2-2.15-5.16-3.15-4.7-7.76C152.09,61.89,153.16,68.64,154.66,71.39ZM152,68.94c-.8-1.17-1.13-3.9-2.65-3.68C149.6,67,150.76,68.88,152,68.94Z"/><path class="cls-1" d="M156.29,63.43c.63,0,.16,1,.82,1.42a4.26,4.26,0,0,1,3.06.62c.06,5.18-6.93,5.6-6.13.2C154.87,65,155.13,63.76,156.29,63.43Zm2.25,3.06c-1.4-.43-2.32-.09-3.27-.82C155.1,68,158.33,69.59,158.54,66.49Z"/><path class="cls-1" d="M47.07,63.83c1.24.74,2.72,1.23,3.27,2.66a5.47,5.47,0,0,1-3.47-1C46.89,64.88,46.76,64.13,47.07,63.83Z"/><path class="cls-1" d="M208.55,64c-1,1.63-2.75,2.55-4.29,3.67C204.56,65.49,206.88,64.2,208.55,64Z"/><path class="cls-1" d="M97.7,65.06c3,0,5.35,3.91,2,5.31C98.62,69.22,96.54,67.16,97.7,65.06Zm2,3.06c.22-.54.15-1.16-.61-1.22C99.29,67.35,99.25,68,99.74,68.12Z"/><path class="cls-1" d="M167.52,65.67c.34,1.28,1.19,1.43,1,2.65-.36,2.48-4.88,2.51-5.1-.4C164.17,66.55,165.7,66,167.52,65.67Zm-2.45,2.25c.63.25.82,1,1.84.81C167.29,67,165.49,66.74,165.07,67.92Z"/><path class="cls-1" d="M209,65.67c.18.09.37.18.41.41-1,.91-2.15,2.58-3.68,2.24C205.85,66.51,207.94,66.62,209,65.67Z"/><path class="cls-1" d="M44.62,66.28c1.11.73,2.43,1.25,2.66,2.86C45.74,69,43,68.19,44.62,66.28Z"/><path class="cls-1" d="M46.66,71.59c-1.3,2.86-6.91-1.83-7.55-3.88C41.91,67.91,43.62,71,46.66,71.59Z"/><path class="cls-1" d="M212,67.71c-.49,1.89-2.72,2.05-3.88,3.27C207.76,69,210.24,68.19,212,67.71Z"/><path class="cls-1" d="M107.7,70.37a3.21,3.21,0,0,1-5.51-.41C102.7,67,107.5,67.59,107.7,70.37Zm-2.45,0c-.34-.09,0-.27,0-.62-.72,0-.74-.75-1.63-.61C103.75,69.83,104.7,70.77,105.25,70.37Z"/><path class="cls-1" d="M176.5,68.53c.44,3.52-2.48,5.39-5.1,6.53-1.15-.57-.6-1.57-2-1.84C167.37,68.55,172.75,67,176.5,68.53Zm-5.31,3.26c.49.09.45-.37,1-.2a7.68,7.68,0,0,1,.41,1.43A3.94,3.94,0,0,0,174.87,70C173.24,68.49,169.25,69.41,171.19,71.79Z"/><path class="cls-1" d="M167.11,73c-1,3.89-8.7,3.09-10,0,1.06-1.75,2.1-4.51,4.08-4.49C163.41,68.55,165,72.35,167.11,73ZM160.37,70a5.17,5.17,0,0,0-1.43,2.65c1.14,1.36,3.69,2.63,5.92,1.63C164.05,72.13,162.15,71.11,160.37,70Z"/><path class="cls-1" d="M114.85,73c-.64.8-.1,1.52-.41,2.65-1.64,2-3.85.8-5.1-1-.51,2.12-1.77,4-3.68,3.88-1.08-.08-3.31-2.12-4.08-3.06,1.38-1.83,5-4.17,6.94-1.43C108.31,71.29,113.72,69.15,114.85,73Zm-4.7,0A5.33,5.33,0,0,0,113,75.47C113.37,73.23,111.21,70.83,110.15,73Zm-6.73,2.25c1.1.66,2.16,2.22,3.87,1.63a4,4,0,0,1,.21-1.63A2.29,2.29,0,0,0,103.42,75.27Z"/><path class="cls-1" d="M92,72.61c.06-.76.5-1.14.62-1.84,2.4,0,7.58,1.7,7.55,4.7,0,1.7-2,2.65-3.68,2C94.55,76.82,93.1,74.2,92,72.61Zm6.74,3.47c-.35-2.84-2.82-3.57-5.51-4.08C94.47,73.81,95.89,76.52,98.72,76.08Z"/><path class="cls-1" d="M215.9,71.18c-.77,1.35-2.28,1.94-4.29,2C212.13,71.74,214.63,71.24,215.9,71.18Z"/><path class="cls-1" d="M44.83,73.84a4.25,4.25,0,0,1-.62,1.22,5.81,5.81,0,0,1-4.69-2.65C41.27,72.11,43.09,73.44,44.83,73.84Z"/><path class="cls-1" d="M218.15,74.24a4.12,4.12,0,0,1-3.68,2.45A3.8,3.8,0,0,1,218.15,74.24Z"/><path class="cls-1" d="M221.82,74.65c-1,2-3.81,4.08-5.92,3.68A18.36,18.36,0,0,1,221.82,74.65Z"/><path class="cls-1" d="M37.89,75.27c2.1.48,4.17,1,6.32,1.42,0,.63-.43.8-.61,1.23a22.74,22.74,0,0,1-6.12-1.63C37.32,75.66,38,75.89,37.89,75.27Z"/><path class="cls-1" d="M252,100a4.86,4.86,0,0,1-.41,1.22,46.51,46.51,0,0,1,4.08,14.09c0,.38.69.12.82.41-.71,1.47.47,2.41.4,3.88a41.64,41.64,0,0,1-2.65-9.8c-4-9.87-6.1-20.67-11.43-29.4.38-1.77-1.69-3.31-1.43-4.9,1-.28.8.7,1.43.82.11,2.47,1.62,3.54,1.84,5.92.17.29.16.79.81.61-.23.64,0,.46,0,1.22,2.76,3.61,3.37,8.23,5.51,12.25,0,.51-.32.63-.4,1,.37.59,1,1.79.4,2.66C251.4,100.35,251.53,100,252,100Z"/><path class="cls-1" d="M42.78,79.76c.21.95-.33,1.16-.61,1.63-2-.73-5-1.5-5.71-2.86C38.89,77.82,40.53,79.62,42.78,79.76Z"/><path class="cls-1" d="M221.21,79.76c-.46,1.38-2.63,3.11-3.88,1.83C218.43,80.85,219.94,79.68,221.21,79.76Z"/><path class="cls-1" d="M39.72,82c-.4,2.55-4.29.79-4.69-.81C36.33,81,38.47,82.08,39.72,82Z"/><path class="cls-1" d="M223.45,82.61c-.35,1.73-1.64,3.25-3.47,2.86A5.73,5.73,0,0,1,223.45,82.61Z"/><path class="cls-1" d="M38.7,84.86a1.38,1.38,0,0,1-.61,1.43c-1.75-.5-2.84-1.66-4.7-2v-.82C35.08,83.2,36.93,84.5,38.7,84.86Z"/><path class="cls-1" d="M28.9,86.09c.18,0,.2.08.21.2.73.87,1.07,1.88,1.83,2.65,1.48,1.49,4,1.84,4.9,3.88-1.51.31-4.42-1.83-6.12-3.26a5.13,5.13,0,0,1-1.43-2.86Z"/><path class="cls-1" d="M31.56,86.09c2.44,1,3.95,3,6.53,3.87-1.78,2.1-4.69-2.09-6.33-2.65C31.81,86.7,31,86.62,31.56,86.09Z"/><path class="cls-1" d="M225.5,86.29a5.13,5.13,0,0,1-3.27,2.65C222,87.61,224.15,86,225.5,86.29Z"/><path class="cls-1" d="M113.42,91a39.33,39.33,0,0,1,4.49,8.58,11.11,11.11,0,0,1,.2,8.17c-1.74,4.56-5.56,8.74-11.43,9-6.3.25-11.06-3.28-14.29-6.33-.41-5.45,7.78-2.29,8.37-6.74a37.88,37.88,0,0,1-8.16-5.51,18.29,18.29,0,0,1-4.7-5.51c1.43-1.79,3.63-1.16,5.1-2.25s1.71-3.56,4.5-2.65c1.71.56,4.34,4.7,5.92,6.33.33.34.67.65,1,1,.62.67,1.86,2.23,3.26,2.24C111.44,97.35,110.34,92,113.42,91Zm-12,7.15c1.56.91,2.21,3.07,3.88,3.47,3.67.88,6.17-2.41,9-3.06-1.31,2.23-4,3.1-6.13,4.49,1.62.93,4.51,0,5.92.2-.44,1.67-2.71,1.51-4.49,1.84a10.43,10.43,0,0,1,2.86,1.23c-.74,2.27-3.19-.52-4.49,0a8.56,8.56,0,0,1,2,3.06,1.55,1.55,0,0,1-1.63,1.22c0-2.16-1.85-3.54-3.07-5.1.5,2.16,1,4.27,1.43,6.53-.63,0-.58.64-1.43.41a54.67,54.67,0,0,0-1.83-6.12c-.87,1.58-1.19,3.71-3.27,4.08.71-2.62,2.16-4.51,3.47-6.53.6-.25,1.35.09,1.63-.82-.16,0-.23-.17-.2-.41a3.82,3.82,0,0,1-2.25-.61c0,5-4.11,5.82-8.16,6.74,3.76,6,15.37,8.69,20,2.24,1.13-1.57,2.58-4.58,2.45-7.14-.16-3.26-3-7.78-4.28-9.8a9.73,9.73,0,0,1-6.13,5.51c-4-2.25-6.43-7.72-10.82-10.21-1.4,1.52-2.83,3-5.31,3.47,2.15,3.84,6.12,5.86,9.6,8.37.38.4.75.06,1.22,0s1.19.83,1.43.41c-2.89-3.22-7.28-4.35-9.8-7.55a3.9,3.9,0,0,1,1.23-.82,37.69,37.69,0,0,0,6.53,4.29C99.65,96,98,95.1,96.68,93.84c-.82-.13-1.53-.38-1.63-1.22a6.66,6.66,0,0,1,1.83-.82c2.42,2.83,5.67,4.81,8.17,7.55C103.3,100.24,102.59,98.45,101.37,98.13Z"/><path class="cls-1" d="M226.11,88.74c.18.09.36.18.41.41-.62,1.38-2.05,2.95-3.88,2.45C223.32,90.17,224.74,89.48,226.11,88.74Z"/><path class="cls-1" d="M178.34,95.48c-.92,2-2.72,2.44-3.47,4.28a23.46,23.46,0,0,0-.82,10.82c1.73,6.51,7.15,10.75,13.47,13.48,2.46,1,4.68,2,7.76,1a15.14,15.14,0,0,0,8.58-8.58c2.31-6.8.12-18-6.13-21.84-2.9-1.81-8.63-3.73-13.06-3.06-2.55.38-6,2.18-8.37,3.88-1.22.87-1.88,2.52-3.47,2.85,4-9.27,20.44-10.83,28.37-3.47,3.35,4.57,6,10.26,5.31,17.36-.41,4-2.35,8.34-5.31,10.82-2.44,2-6.18,4.56-10.61,4.08-2.18-.24-5.4-2.15-8.17-3.47a18.52,18.52,0,0,1-9-8.78c-2.33-4.7-1.7-10.16.2-15.92C175.25,97.83,175.93,95.79,178.34,95.48Z"/><path class="cls-1" d="M33.19,94.05c.17.65-.32.63-.41,1a8.83,8.83,0,0,1-4.08-2.45V92C30.15,91.94,32,93.21,33.19,94.05Z"/><path class="cls-1" d="M228.56,92.82c-.7,1.69-2.92,3.79-4.49,3.27C224.58,94.81,226.56,93.29,228.56,92.82Z"/><path class="cls-1" d="M189.77,100.58c-.47-1.83-2.91-2.22-2.45-4.49.62-3.06,6.7-2.08,7.15.81C194.87,99.55,192.15,100.23,189.77,100.58Zm-.2-3.47c.28,1.14,1.55,1.31,2.45,1.84.59-.23.79-.84,1-1.43-1-.62-1.28-2-2.86-2C190.6,96.12,190.84,97.2,189.57,97.11Z"/><path class="cls-1" d="M26.86,95.07a37,37,0,0,1,4.29,2.24c.21.83-.32.91-.61,1.23C28.82,98,26.61,96.91,26.86,95.07Z"/><path class="cls-1" d="M62.59,95.07h.61a71.26,71.26,0,0,1,1.43,7.35c-.31,0-.86.87-1,.41C62.47,101.27,61.66,97.13,62.59,95.07Z"/><path class="cls-1" d="M230,95.88c-.82,1.26-2.36,3.41-4.09,2.45C227,97.24,227.55,95.62,230,95.88Z"/><path class="cls-1" d="M186.71,98.54c.06,4.75-6.06,7.85-8.58,3.67-.41-3.87,1.82-6.35,6.13-6.12A24.64,24.64,0,0,1,186.71,98.54Zm-6.54-.21c-1,3.15.93,5.77,3.48,4.29a13,13,0,0,0,1.22-3.27A2.8,2.8,0,0,0,180.17,98.33Z"/><path class="cls-1" d="M232,97.72c-.58,1.92-3.09,4.31-4.9,3.06C228.92,99.92,229.76,98.11,232,97.72Z"/><path class="cls-1" d="M198.14,105.07c-1.79-.59-2.28-2.48-3.88-3.27.57-4.23,6.67-3,5.92,1.64A6.8,6.8,0,0,1,198.14,105.07Zm-2-4.29c.15,1.07,1.52,1.7,1.63.21C197.33,100.75,196.59,100.32,196.1,100.78Z"/><path class="cls-1" d="M138.53,103.44c3-3.09,8-1.2,10.21,1.43-1,3.42-5,3.88-8.17,4.49-1.74-.51-2-2.5-2.24-4.49-1,1.41-2,2.87-3.68,2.65s-2.56-3.09-1.63-4.69S138.58,99.91,138.53,103.44Zm-4.08-.41a2.77,2.77,0,0,0,1,3.27C137.21,105.39,137.36,101.55,134.45,103Zm5.71,2.24c.4,2.35,5.49,3.26,6.53.62C145.91,103.33,139.55,101.68,140.16,105.27Z"/><path class="cls-1" d="M233.46,101.4c-.89,1.45-3.3,3.25-4.7,2.85A4.89,4.89,0,0,1,233.46,101.4Z"/><path class="cls-1" d="M191.4,102.21c.65,1.63,2.39,4.4,1,6.13-2.17-.43-4.33.14-6.33-.21.28-2.44-.49-3-.2-5.3C187,101.27,189.39,102,191.4,102.21Zm-4.08,4.09c.73.86,2.16.94,3.67.61-.07-2.38-1.2-3.7-3.47-3.88C187.71,104.12,187.93,105.52,187.32,106.3Z"/><path class="cls-1" d="M126.48,106.3c-.26-2.51,1.54-3,2.66-4.09C133.18,103.1,129,109.18,126.48,106.3Zm1.64-2c-.07.88,0,1.65.81,1.64.21-.59.75-1.55.41-2C128.7,103.75,128.54,104.14,128.12,104.25Z"/><path class="cls-1" d="M182,106.3c-.38,2.22-2.2,3.32-2.65,4.9-1.49.23-2.71-.76-3.88-1.43a7.49,7.49,0,0,1,.61-5.31C178.54,103.89,180.21,105.58,182,106.3Zm-3.26,3.47c2.51-2.1.94-3.77-1.64-4.29C176.1,107.11,176.53,109.71,178.75,109.77Z"/><path class="cls-1" d="M234.27,104.66c-.62,1.27-2.57,3.21-4.28,2C231.23,106,232.91,103.93,234.27,104.66Z"/><path class="cls-1" d="M182.83,111c-1.81-2.1,1.39-4.75-.61-5.92C185.13,102.48,186.13,111.09,182.83,111Zm.61-2.45c.12-.12.48-1,0-1C183.32,107.64,183,108.49,183.44,108.54Z"/><path class="cls-1" d="M200.79,114.87c-.73-.38-1.33-.83-1.42-1.63-.07-.53.4-.52.61-1a19.36,19.36,0,0,0,.2-5.72c-.1-.42-1.06-.48-.61-1.23C203.63,104.53,204.06,114,200.79,114.87Z"/><path class="cls-1" d="M198.75,107.52c-.09,1.14-1.12,1.33-1.84,1.84-1.28-.55-2.37-1.31-2.44-3.06C196.15,104.25,197.31,106.38,198.75,107.52Z"/><path class="cls-1" d="M29.72,106.91c0,.48-.35.6-.21,1.22-2.62-1.18-7.09-.53-9-2.45C23.66,105.75,26.79,105.37,29.72,106.91Z"/><path class="cls-1" d="M132.4,109.36c-1.09.61.06,2.3,0,3.67a5,5,0,0,1-1.83,1.23c-2.7-.89-3-4.89-1.64-6.74C130.91,106.7,131.63,108.36,132.4,109.36Zm-1.63,3.06a5.84,5.84,0,0,0-1-3.67C129.62,109.67,129.65,112.07,130.77,112.42Z"/><path class="cls-1" d="M236.93,107.52c-1.58,1-3.55,3.62-5.72,2.65C232.77,109.06,234.52,107.11,236.93,107.52Z"/><path class="cls-1" d="M28.09,110.58c-1.34.08-3.09-1.11-5.11-1,1.08-1.86,3-.54,4.7-.81C28.4,109.19,28.19,109.62,28.09,110.58Z"/><path class="cls-1" d="M238.36,110.17c-.94,1.42-4,2.81-5.72,2,1.12-1.33,3.62-1.28,4.9-2.45A.9.9,0,0,1,238.36,110.17Z"/><path class="cls-1" d="M184.46,119.77c-3.12,1.44-6.59-4.49-8-6.53C179.61,108.83,187.68,114.73,184.46,119.77Zm-1-1.43c.71-3-2.11-5.49-5.51-5.72A10.28,10.28,0,0,0,183.44,118.34Z"/><path class="cls-1" d="M241.21,112.22c-.15.74-1.1.8-1.63.61-2,.68-4.36,2.78-6.53,2C235.15,113.67,238.46,110.76,241.21,112.22Z"/><path class="cls-1" d="M153.64,112.42c.29,2.67.07,8.75-3.48,8.17-1.23-.21-3-3.28-2.65-4.9S151.41,111.79,153.64,112.42Zm-3.07,6.94c1.5-.51,1.82-3.79,1-5.31C148.33,114.38,149.27,117.53,150.57,119.36Z"/><path class="cls-1" d="M193.24,116.09c.78-1.6,2.5-2.26,3.27-3.87a5.3,5.3,0,0,0,2,1C199.16,116.73,194.64,118.85,193.24,116.09Zm1.84-.61c0,.64.52.7,1,.82.33-.36,1.68-1.61.61-2C196.61,115.11,195.86,115.31,195.08,115.48Z"/><path class="cls-1" d="M27.88,113.44a2.61,2.61,0,0,1-.61,1.84c-1.48-.9-4-.78-5.72-1.43C22.47,112.18,26.48,113.11,27.88,113.44Z"/><path class="cls-1" d="M240.4,115.69c-1.76.81-4.41,2.74-6.74,1.63C235.68,116.75,238.1,114,240.4,115.69Z"/><path class="cls-1" d="M194.26,124.46a8.57,8.57,0,0,1-1.43-2.24c.27-1.1,1.25-1.47,2.45-1.63,1.41-1.43,3.11-2.8,3.47-4.7.76,0,.58-.23,1.23,0C201.54,119.78,198,123.44,194.26,124.46Zm.82-1.63c1.61-.57,3.62-1.81,3.26-3.67C197.69,120.82,195.77,121.21,195.08,122.83Z"/><path class="cls-1" d="M28.29,117.32c.11.86-.36,1.14-.41,1.84-2-.08-3.44-.64-5.51-.62-.26-.8.67-.41.41-1.22A27.23,27.23,0,0,1,28.29,117.32Z"/><path class="cls-1" d="M238.77,119.36c-.73,1-3,1.17-4.09.61C235.28,118.74,238,118.15,238.77,119.36Z"/><path class="cls-1" d="M50.54,120.59a18.25,18.25,0,0,1-3.26,4.69c-2.29,1.82-5-.59-6.74-2.45C41.72,118.57,46.86,118.89,50.54,120.59Zm-8.16,1.22c1.1,2.44,5.47,3.9,5.71-.2C46.67,121.19,43.44,120.74,42.38,121.81Z"/><path class="cls-1" d="M257.55,119.77a8.79,8.79,0,0,0,.2,1.63c-.41-.34-.26,0-.82,0,.12-.66-.14-1-.2-1.43C257.1,120,257.16,119.72,257.55,119.77Z"/><path class="cls-1" d="M56.46,129.16c-.3.11-1.05-.24-1,.2-1.71-1.48-3.93-2.46-5.51-4.08.93-1.18,1.3-2.92,2.65-3.67a1.46,1.46,0,0,0-.61-.41C54.77,118.4,59.56,126.23,56.46,129.16Zm-2.86-6.53A2.29,2.29,0,0,0,52,124.87c1.77.27,2.22,1.87,4.08,2C55.61,125.12,55,123.5,53.6,122.63Z"/><path class="cls-1" d="M26.66,121.61a2.15,2.15,0,0,1-.62,1.83,14.85,14.85,0,0,0-4.28-1C22.14,120.37,24.9,121.29,26.66,121.61Z"/><path class="cls-1" d="M147.72,127.12c-2.26-.35-2.79-2.51-3.27-4.08,1-1,2.66-2.37,4.29-1.84C151.2,122,150,126.7,147.72,127.12Zm-1.64-3.68c.53,1,.72,2.42,2.25,2.45C149.71,124.25,147.11,120.85,146.08,123.44Z"/><path class="cls-1" d="M238.36,122.22c-.11,1.23-2.58,1.66-3.47.82C235.27,121.93,237.54,121.08,238.36,122.22Z"/><path class="cls-1" d="M255.91,123h.62c-.08,1.2.61,1.68,1,2.85-.27.29-.89.21-1.43.21C256.5,124.67,255.66,124,255.91,123Z"/><path class="cls-1" d="M37.89,124.26c2-.57,3.91,2,3.47,4.9-.25,1.65-3,3.78-4.5,3.67-1-.07-3.34-2.65-3.26-4.08C33.7,126.85,36.65,124.62,37.89,124.26Zm-2.66,4.08c.64,1.14,1.18,2.37,2.45,2.86,2.9-.69,2-4.84.61-6.53C37.41,126,36,126.84,35.23,128.34Z"/><path class="cls-1" d="M238.77,125.08c-.54.89-3.22,2-3.88.81C235.35,124.93,237.91,123.73,238.77,125.08Z"/><path class="cls-1" d="M23.39,125.08a9.53,9.53,0,0,1,2.65.4c-.23.65-.16,1.61-.81,1.84C24.65,126.54,23.14,126.69,23.39,125.08Z"/><path class="cls-1" d="M226.92,126.51c.06,2.06.6,4.1-.4,5.51.33,2.95-.77,5.57-1,8a17,17,0,0,1-.82,4.49c-.47,1.21-.39,5.66-2.65,6.13a183.37,183.37,0,0,0,3.67-23.48,1,1,0,0,0,.61-.61Z"/><path class="cls-1" d="M240,127.53c-.79.93-4.42,2-4.49.61C236.45,128,238.74,126.21,240,127.53Z"/><path class="cls-1" d="M59.12,134.67c3.76.73,2.37,8.48-1.84,6.53a9,9,0,0,0-.82-4.89c.5-.86,1-1.73,2.45-1.64-1.62-.62-2.49-2-3.47-3.26.83-1.22,2.16-1.93,2.45-3.68C60.94,127.5,62.79,133.61,59.12,134.67Zm0-2.24a1.62,1.62,0,0,0-.82-2.25A1.35,1.35,0,0,0,59.12,132.43Zm.2,7.55c.89-1,.18-3.25-.82-3.67C59,137.4,58.65,138.73,59.32,140Z"/><path class="cls-1" d="M43,128.55c1,.17-.12,1.39-.21,1.84.56.3,1.78-.19,2.86,0,1.63,2.11-.35,5.26-2,5.3C40,135.78,41.56,130,43,128.55Zm1.43,5.51c.26-.49.74-.75.61-1.63-.28-.55-2.23-.49-2.45-.41A2,2,0,0,0,44.42,134.06Z"/><path class="cls-1" d="M25.64,129.36a1.57,1.57,0,0,1-1.43,1.84c-.17-1-1.65-.81-2-1.63C22.89,128.07,24.58,129.44,25.64,129.36Z"/><path class="cls-1" d="M240.6,130.18c-.63,1.2-3.92,1.72-5.31.82C236.21,130.3,239.24,129,240.6,130.18Z"/><path class="cls-1" d="M53.81,130.79h.61c.9,2.58.33,6.19-1.43,7.35,1.22-.14,1.27-1.45,2-2,.52,2.28-2.69,5.35-4.9,3.06,1.54,2,1.72,6.8-.4,8.37-2.65-1.66-4.68-5.09-3.27-8.57-.18-.7-.88-.89-.82-1.84,1-1.25,1.62.24,2.86.41C45,133.7,52.86,133.86,53.81,130.79Zm-4.29,4.7a15.13,15.13,0,0,0,2,2c1.42-.25,2-2.29,1.64-3.67A10.71,10.71,0,0,0,49.52,135.49Zm.21,9.59c.45-1.94-.19-4.37-2-5.1A4.49,4.49,0,0,0,49.73,145.08Z"/><path class="cls-1" d="M22.37,131.41a39.1,39.1,0,0,0,5.31.81c.11.79-.52.84-.62,1.43-1.87.2-2.92-1.3-4.08-.61C22.53,132.74,22.44,132.08,22.37,131.41Z"/><path class="cls-1" d="M242,132c-1.59.79-5.64,1.92-7.35.61C237,132.34,240.15,130.81,242,132Z"/><path class="cls-1" d="M32.78,132.43c.73.22.36,1.55.82,2,.55.12.95-.93,1.22-.41,2.26,1.25,5.73,3.1,4.29,6.74a1.92,1.92,0,0,1,.2,2c-.23,0-.36,0-.4.2-3.38-1.11-4.27-4.72-6.54-6.94a9.88,9.88,0,0,0-.61-2.45C31.76,132.9,32.48,132.87,32.78,132.43Zm5.11,8.16c1.16-1.85-1.91-4-3.48-4.28A28.4,28.4,0,0,0,37.89,140.59Z"/><path class="cls-1" d="M40.54,135.9c.34.2.22.86.41,1.22,1.85-1.21,4.42-.28,4.69,1.43.2,1.26-1.24,3.25-2.45,3.27C41.39,141.84,38.22,137.35,40.54,135.9ZM44,140a2.19,2.19,0,0,0-1.43-2.25A1.53,1.53,0,0,0,44,140Z"/><path class="cls-1" d="M234.07,135.9c1.7.15,3.44-.3,4.7.61C238.1,137.83,234.74,137.24,234.07,135.9Z"/><path class="cls-1" d="M116.89,136.71c1.19,2.1.21,6.3-2.25,6.13-1.22-.09-2.86-3.22-2.65-4.7C112.32,135.86,114.34,136.07,116.89,136.71ZM115.46,141a2.73,2.73,0,0,0-.2-3.06h-1.43A3.07,3.07,0,0,0,115.46,141Z"/><path class="cls-1" d="M26.45,137.12a2.57,2.57,0,0,1-.61,1.63,10.2,10.2,0,0,0-2.45-1.22v-.82C24.34,136.19,25.4,137.09,26.45,137.12Z"/><path class="cls-1" d="M174.05,138.14c-.24,1.06-.57,3.18-1.84,3.47-1.66.39-3.74-1.82-4.69-2.86C167.68,136.07,173.14,136.16,174.05,138.14Zm-4.49.41c.84.52,1.39,1.33,2.65,1.43-.24-1-1.47-1-1.83-1.84C170.52,138.7,169.41,138,169.56,138.55Z"/><path class="cls-1" d="M238,140c-1,.2-3.67.64-4.08-.41C235.15,139.14,237.51,138,238,140Z"/><path class="cls-1" d="M110.15,139.16c.26,1.08.78,1.62.82,2.66.15,4.06-3.19,5.72-4.49,8-1.21-.58-2.15.08-3.27-.61-1.64-1-2.38-4.49-1.43-6.54C103,140,107.16,138.69,110.15,139.16Zm-2.86,8.17a6.61,6.61,0,0,0,1.84-6.13c-1.94-1.76-5.13.19-6.12,1.84a5.35,5.35,0,0,0,1.84,4.9C105.59,147.67,106.49,147.55,107.29,147.33Z"/><path class="cls-1" d="M29.31,140.59c.21.89-.42.94-.61,1.43A12.24,12.24,0,0,0,24,140.8C23.87,138.41,28.56,139.57,29.31,140.59Z"/><path class="cls-1" d="M52.58,145.08c.3-1.72,2.17-4.18,3.88-3.26C59.85,143.62,54.19,149.56,52.58,145.08Zm1.64-.4c.63,0,.58.64,1.42.4.24-.85,0-1-.2-1.83C54.32,143,54.12,143.69,54.22,144.68Z"/><path class="cls-1" d="M237.34,142.84c-1.36.2-2.88.42-3.47-.61C234.7,141.65,237.43,141.13,237.34,142.84Z"/><path class="cls-1" d="M24,142.43c2.06.54,4,.15,5.92,1.23a10.76,10.76,0,0,1-.81,1.63c-1.82-.5-3.25-1.38-5.31-1.63C23.65,143,24.15,143.05,24,142.43Z"/><path class="cls-1" d="M45.44,147.12c-2.27,1.27-5,0-6.94-1.22a23.78,23.78,0,0,1,1.22-2.65C42.15,141.33,46.41,143.8,45.44,147.12Zm-5.31-2.65a3.19,3.19,0,0,0,3.47,1.43C43.37,144.6,41.42,144,40.13,144.47Z"/><path class="cls-1" d="M162.41,145.49a8.6,8.6,0,0,1-6.12,3.88c-1.59-.61-2.18-2.53-2.25-4.08.89-1.09,1.6-2.36,3.07-2.86C158.68,143.64,161.87,143.25,162.41,145.49Zm-6.32-1c-.88.95.13,2.08.61,2.86,1.51.09,3.41-.13,3.88-1.63A17.46,17.46,0,0,0,156.09,144.47Z"/><path class="cls-1" d="M123,145.49a6.72,6.72,0,0,1,3.47-1.83c2.52,1.67,2,7.84-1,8C123.06,151.71,122.16,148.41,123,145.49Zm1.23.61c-.28,1.94,2.22,2.75,1.43,3.88,1.3-.69,1.1-4.1-.41-4.69C125,145.64,124.29,145.54,124.24,146.1Z"/><path class="cls-1" d="M166.91,151.41a10.38,10.38,0,0,1-3.07-2.45c-.5,1.27.5,2.38.82,3.47-1.62,4.34-6.6.74-7.55-2a65.78,65.78,0,0,0,6.33-1.84c.33-.33-.19-.85,0-1.63,1.26-3.87,7.65-3.09,7.34,1C170.62,150.17,168.51,150.25,166.91,151.41Zm-1.84-4.69a5,5,0,0,0,2.24,3.26C171.53,149.17,166.65,143,165.07,146.72Zm-4.7,4.69a4.78,4.78,0,0,0,2,1.43,4.61,4.61,0,0,0-.4-2C161.2,150.74,160.59,150.88,160.37,151.41Z"/><path class="cls-1" d="M237.34,144.68c-.28.92-4.17,1.16-3.88-.41C235,144.5,236.6,143.53,237.34,144.68Z"/><path class="cls-1" d="M257.55,146.1c.68,0,.18,2-.41,2.05C257,147.15,257.81,147.19,257.55,146.1Z"/><path class="cls-1" d="M30.33,147.94c-.19.62-.24,1.39-.82,1.63-1.63-.95-3.62-1.55-5.3-2.45C25.43,145.24,28.73,147.57,30.33,147.94Z"/><path class="cls-1" d="M236.93,147.53c-1.46.23-4.25,1.4-4.7-.61C234,147.09,236.37,145.57,236.93,147.53Z"/><path class="cls-1" d="M174.25,147.12a3.78,3.78,0,0,1-1,4.5c-1.41-.29-1.64-1.76-2.24-2.86C171.49,147.62,172.76,147.27,174.25,147.12Z"/><path class="cls-1" d="M99.94,147.74c.68,1.47,2.94,1.38,3.07,2.86s-1.78,1.88-2.66,3.06a6,6,0,0,1,1.43,1,4.29,4.29,0,0,1-2.24,3.47c-1.51-.47-3-2.41-2-4.08a4.27,4.27,0,0,1,1.83-.21C98,152.38,97.87,148.44,99.94,147.74Zm0,4.28a1.35,1.35,0,0,0,1.43-.61,1.74,1.74,0,0,0-1.63-1.63C99.81,150.53,99.57,151.59,99.94,152Zm-1.83,3.07c.7.52.8,1.64,1.83,1.83.07-.68.6-.9.41-1.83A1.71,1.71,0,0,0,98.11,155.09Z"/><path class="cls-1" d="M236.32,149.17c-1.49.24-4.16,1.2-4.9-.21C232.39,148.52,235.91,147.63,236.32,149.17Z"/><path class="cls-1" d="M23.39,150.6a18.83,18.83,0,0,1,7.15.81c.1.86-.36,1.14-.41,1.84C28,152.17,24.42,152.24,23.39,150.6Z"/><path class="cls-1" d="M237.34,150.6c-.63,1.5-6.16,1.09-7.56.81C230.19,149.78,235.83,150.92,237.34,150.6Z"/><path class="cls-1" d="M104.85,157.33c-.41-1.26-1.39-2.33-1.23-3.67.26-2.25,5-4.71,5.92-1.84C110.33,154.38,107.72,157.83,104.85,157.33Zm.4-4.69a4,4,0,0,0,.41,2.86c.57-.11,1.06-.31,1.63-.41C108.9,153.31,107,150.57,105.25,152.64Z"/><path class="cls-1" d="M169.15,154.68a25.6,25.6,0,0,0,5.92-3.47c2.11,3.09,1.91,7.55-1,9.8-.75-.07-.82-.81-1.84-.61C171.74,158.62,169.57,157.15,169.15,154.68Zm4.7-1.23a3.33,3.33,0,0,1-2.45,1.43c.62,1.63,1.24,3.25,2.85,3.88C175.34,157.51,175.33,154.31,173.85,153.45Z"/><path class="cls-1" d="M154.25,151.41c2.75,1.61,4.63,4.09,6.53,6.53-.33,1.1-1.3,1.56-1.84,2.46C154.18,160.59,153.38,155.45,154.25,151.41Zm3.06,7.35a2,2,0,0,0,1.63-.41c-1.2-1.18-1.87-2.89-3.47-3.67A6.56,6.56,0,0,0,157.31,158.76Z"/><path class="cls-1" d="M166.91,161.62c-.48,1-.76,2-1.64,2.25-3.52.9-5.41-4.92-1.83-6.13a12.16,12.16,0,0,0,1.83,1.43c-.05-1.14-2.39-2.28-2-3.88,1.41-1.45,3.47-2.25,5.31-3.27.35,2.41.62,4-.61,5.72,4.2-.49,5.63,5.75,2.24,6.33C168.3,164.39,167.43,162.45,166.91,161.62Zm-.21-7.35c-.55.47-1.45.59-1.84,1.23.53.7.8,1.65,1.84,1.83C167.32,156.86,167.75,154.62,166.7,154.27Zm-.81,5.1a12.24,12.24,0,0,0,1,2c0-.68.56-1.14.61-2.25C166.75,159,166.54,159.42,165.89,159.37Zm4.49,3.47a2.67,2.67,0,0,0-1.64-3.26C168,161.33,169.52,162.05,170.38,162.84Zm-5.92-.4c.06-.42.55-.4.61-.82-.56-.6-1-1.36-2-1.43C163.22,161.22,163.46,162.21,164.46,162.44Z"/><path class="cls-1" d="M127.3,154.68c-.71,2.17-2.2,4.72-4.69,3.88C120.09,154.89,125.61,150.46,127.3,154.68Zm-2.86,2.86c.87-.44,1.16-2.41.41-3.27h-1C123.41,155.24,123.57,157.2,124.44,157.54Z"/><path class="cls-1" d="M30.74,155.29c.15.63-.35.6-.2,1.23-1.59-.1-4.82-1.27-4.9-2.86C27.47,153.28,28.87,155,30.74,155.29Z"/><path class="cls-1" d="M233.46,154.27c0,1.87-2.36,1.12-3.47.82C230,153.4,232.27,154.27,233.46,154.27Z"/><path class="cls-1" d="M41,155.7c.17,0,.19.08.2.2-.45,9.73,2.32,19.17,7.55,24.5,3.65,1,8.39-.66,12.25-.2a7.68,7.68,0,0,1,6.94,8.16c-.4.75-1.13,1.18-1.42,2-2.57.56-5.25,2-8.37,1-2.48-.75-6-3.5-7.76-5.51-1.49-1.66-2.39-2.35-2.45-4.69-6.55-4.28-8.72-14-8-24.91C40.35,156.19,40.59,155.88,41,155.7Zm12.25,27c.57.72,1.41,1.17,1.42,2.45,3.54.93,8.13-1.25,10.82.4-1.51-1.55-3.65-3.56-6.12-3.47a10.18,10.18,0,0,1,.61,1.84c-.3.11-.51.3-.81.41-1-.45-1.16-1.7-2.25-2,.11,1.11,1.3,1.15,1.43,2.24C56.31,187.21,55.2,181.16,53.2,182.65Zm2.44,5.3c-.09-.64.56-.53.62-1a8,8,0,0,1-5.11-4.49h-1C51.8,184.45,53.31,186.61,55.64,188Zm.82.41a8.93,8.93,0,0,0,2.45,1.23c-.11-1.61.84-2.16,1.23-3.27A6.64,6.64,0,0,0,56.46,188.36Zm3.06,1.43c.18.19,1.31.44,1.43,0-.14-1.09,1.75-1.92,2-3.26C60.66,185.69,60.6,188.7,59.52,189.79Zm2.25.21c1.6,0,2.51-.62,3.88-.82C65.07,186.23,62.37,188.44,61.77,190Z"/><path class="cls-1" d="M82.59,162.23c-1.32,3.3-5.23,4-7.55,6.33,1.78,4.69,5.57,7.36,7.76,11.64a1.16,1.16,0,0,0-.62,1.22c-3,.29-4.11,3.48-6.94,3.47-3.49,0-3.75-5.07-5.51-8.16-.47-.83-1.82-1.54-1.63-2.66-.84,1.07-1.69,1.25-3.06,2-2.64,1.53-3,4.95-5.92,1.64a8.62,8.62,0,0,0-.62-.82c-1.07-1.24-1.28-3.79-2.24-5.51.21-4.48,1.08-8.2,3.26-11,2-2.58,7.39-5.45,11.64-4.5.94.22,2.07,1.08,3.47.62C77.32,158.39,80.23,160,82.59,162.23Zm-9.8,5.92c2.28-1.94,5.27-3.17,7.35-5.31-3.32-2.75-7.23-5.6-12.45-5.1a10.87,10.87,0,0,0-9.39,9c-.7,3.82,1,9.2,3.67,10.41,1.35-2.25,5.09-2.12,5.31-5.51,1-.08,1.22-.81,2.25-.41.1.65-.29.8-.41,1.23,3.21,2.37,3,8.15,6.33,10.41,1.77-.75,3.85-1.18,4.69-2.86C77.87,175.87,73.83,173.51,72.79,168.15Z"/><path class="cls-1" d="M232.44,156.72a1.29,1.29,0,0,1,0,1c-1.57.55-2.64-.16-4.09-.61C228.57,154.55,230.69,156.81,232.44,156.72Z"/><path class="cls-1" d="M25.43,157.33a8.14,8.14,0,0,1,5.31.82,2.39,2.39,0,0,1-.82,1.84,9.1,9.1,0,0,0-4.9-1.84C25.15,158,26.17,157.7,25.43,157.33Z"/><path class="cls-1" d="M231.82,160.4c.09.49-.37.44-.2,1-1.87-.14-3.93-1.06-4.08-2C227,156.06,230.68,160.39,231.82,160.4Z"/><path class="cls-1" d="M123.42,160c-.15,1.34-2,1-2.65,1.83,0,.64-.14,1.5.2,1.84,2-.23,1.84-3.72,4.09-3.06-1.19,2.28-3.9,6.47-7,4.29C118.93,162.53,120.62,159,123.42,160Z"/><path class="cls-1" d="M79.12,180.61c-.62-.15-.74.2-1.22.2-2.82-3.45-5-7.55-8-10.82-.11.64-.9.6-1.23,1-2.72-1.15-4.34,1.58-6.33,2.45-.73-.74,0-1.57.82-1.84-.39-.38-1,.73-2,.41.4-1.91,2.75-1.88,3.88-3.06-1.24-1-2.77-1.73-2.86-3.88,1.52-.46,2.1,1.49,3.26,2-.62-1.37-2.19-7.29,1.23-6.73a6.85,6.85,0,0,0,.61,5.91c1.11-2.18,0-6.12,2.45-6.53.69,2.07-.88,4-.41,6.74,1.36-1.94,2.39-5.2,5.11-5.1-1.09,1.77-2.75,3-3.47,5.1,2.15-.92,3.33-3.86,5.71-3.88-1.15,2.53-4,3.31-5.31,5.72C73.65,172.42,77.85,176.34,79.12,180.61Z"/><path class="cls-1" d="M30.13,160.8a2.16,2.16,0,0,1-.62,1.84c-1.19-.58-3.05-.48-4.49-.82C25.83,160.14,28.58,160.31,30.13,160.8Z"/><path class="cls-1" d="M226.92,160.4c1.76.41,2.66,1.7,4.7,1.83-.9,2.47-4-.11-5.1-.61C226.42,161,227.14,161.16,226.92,160.4Z"/><path class="cls-1" d="M111,162c.11-.36,1.65-.44,1.22.41,3.24-1.31,5.43,1.17,4.9,4.9-2.1,3.51-8.51,1.81-8.16-2.25A4.39,4.39,0,0,1,111,162Zm4.29,2.86c-.66-.53-.86-1.44-1.43-1.64-1.31-.44-1.55.92-3.27.82a4,4,0,0,0,1.23,3.67h3.26C115.46,167.13,115.17,165.82,115.26,164.89Z"/><path class="cls-1" d="M31.15,165.29c-.31.58-.37,1.4-.82,1.84-1.17-.59-2.79-.75-3.88-1.43C27.26,163.88,29.22,165,31.15,165.29Z"/><path class="cls-1" d="M45.44,165.29c.17,0,.19.08.2.21.88,3.67,1.26,7.24,3.06,10,.75,1.14,2.11,1.93,1.84,3.47-3.63-2.16-5.75-7.32-5.92-12.66C44.92,166,45.3,165.77,45.44,165.29Z"/><path class="cls-1" d="M204.26,168.56c1.87-1.22,4.76.31,4.29,2.25a3.27,3.27,0,0,1-2.86,2c-1.9-.24-1-2.29-1.63-3.68-1.34,1.17-2.9,2.79-5.1,2.45-1.84-3.3,2.08-4.26,2.85-5.71a3.64,3.64,0,0,1,2.66,1.63A1.32,1.32,0,0,1,204.26,168.56Zm-4.08.82c.79-.11,1,.36,1.84.2.21-.47.7-.66.61-1.43C202,168,200.22,168.27,200.18,169.38Zm6.53,1.63c-.34-.08,0-.26,0-.61-.26,0-.28-.26-.61-.21C205.88,170.78,206.32,171.71,206.71,171Z"/><path class="cls-1" d="M228.76,169.38c-1.08.71-2.62-.67-4.29-1C224.87,165.89,228.05,168.41,228.76,169.38Z"/><path class="cls-1" d="M31.35,167.34c0,.84-.46,1.16-.81,1.63-1.16-.41-3.34.21-4.09-.61C26.93,166.87,29.69,167.65,31.35,167.34Z"/><path class="cls-1" d="M197.32,167.74c-.2,3.14-2.47,4.2-3.67,6.33a9.6,9.6,0,0,0-2.66-.2c0,1.18-.62,2.91-1.63,2.45-1.33-.64-.49-3.46-1.22-4.7C189.56,168.71,193.16,167.29,197.32,167.74Zm-6.94,2.66c.34.68-.2,1.15-.2,2,2.85.86,4.52-1.18,5.1-3.27C193.51,168.71,191.71,169.75,190.38,170.4Z"/><path class="cls-1" d="M225.7,170.19c1,1,3,1,3.47,2.45-.35-.07-.38.16-.41.41C227,173,224.58,171.83,225.7,170.19Z"/><path class="cls-1" d="M32,170.81c.16,1-.5,1.26-.81,1.83-1-.7-3.13-.27-4.09-1C27.4,169.84,30,171.22,32,170.81Z"/><path class="cls-1" d="M223.66,171.62c2.06.67,3,2.43,4.69,3.47C227.91,177.08,222.56,173.52,223.66,171.62Z"/><path class="cls-1" d="M211.61,177.54c-2.7-.26-2-3.37-3.26-4.69,1.07-1.71,4.38-.35,5.31.61C213.85,175,213.17,177.08,211.61,177.54Zm.21-1.83a1.62,1.62,0,0,0-.82-2.05A1.38,1.38,0,0,0,211.82,175.71Z"/><path class="cls-1" d="M33.39,173.05c.11.93-.41,1.22-.61,1.84-1.27-.51-2.1.24-3.47.2C29.74,173.5,31.89,172.93,33.39,173.05Z"/><path class="cls-1" d="M201.61,173.26c.13,1.08-1.07.83-1.22,1.63,2.43,5.44-7.3,6.2-9,3.06-.28-1.65,1.89-2.31,2.86-1.43C195.61,173.68,198.19,173.4,201.61,173.26Zm-7.55,4.9c1.95,1.45,6.71.05,4.49-3.27C196,174.91,196.39,177.91,194.06,178.16Z"/><path class="cls-1" d="M202.43,173.66c2.55-.71,7.18.13,6.12,3.27-.38,1.13-2.52,3.13-3.88,2.86C202.5,179.35,203.62,175.68,202.43,173.66Zm2.24,1.64c.23.74.11,2.29.82,3.06C207.62,178.15,207.12,174.08,204.67,175.3Z"/><path class="cls-1" d="M222.43,174.69c2,.53,3.15,2,4.7,3.06.08.69-.35.87-.61,1.22C224.72,178,222.73,177.18,222.43,174.69Z"/><path class="cls-1" d="M35,176.73a4.18,4.18,0,0,1-.82,1.63,8.94,8.94,0,0,0-5.1.41C28.89,176.57,33.06,176.21,35,176.73Z"/><path class="cls-1" d="M187.93,176.93c.39.39,0,.51,0,1,4.46-.88,4.3,5.81.21,5.31C186.85,181.75,184.51,177.45,187.93,176.93Zm1.64,5.1a3.06,3.06,0,0,0-.41-2.85,3.43,3.43,0,0,1-1.43-.21C187.93,180.41,188.21,181.76,189.57,182Z"/><path class="cls-1" d="M223.05,178.77a4.75,4.75,0,0,1,2.85,2c0,.41-.55.26-.4.82-1.81.44-1.51-1.22-2.66-1.43C222.85,179.31,222.54,179.26,223.05,178.77Z"/><path class="cls-1" d="M34.82,179.18c.09.79.23.72-.2,1.22a3.86,3.86,0,0,0,1.63-.2,10.16,10.16,0,0,0,.82,1c-1.62.56-3.49.87-4.29,2.24-1.05-.23-.83-1.69,0-2-.51-.62-1.24.25-2,0a3.51,3.51,0,0,0-.61-.81C31.68,180.19,33.33,179,34.82,179.18Z"/><path class="cls-1" d="M212.23,179.38c1.21,3.56-.52,8.3-5.52,7.55a8.18,8.18,0,0,1-1-5.51C207.47,180.24,209.54,179.07,212.23,179.38Zm-4.9,2.45c.35,1.45-.28,3.61,1.22,3.88s2.7-2.86,2.25-4.9A7.25,7.25,0,0,0,207.33,181.83Z"/><path class="cls-1" d="M194.87,180.81c.11,2.16,1.06,6.49-1.22,8.17a5.46,5.46,0,0,1-4.29-3.48c.26-1,1.41-1.17,2-1.83C191.9,182.13,192.65,180,194.87,180.81Zm-3.67,4.49c.47.55.72,1.32,1.43,1.63,1.2-.25,1.52-3.25.2-3.67C192.61,184.26,191.59,184.47,191.2,185.3Z"/><path class="cls-1" d="M198.34,181.42c2.53-1,5-.5,4.9,1.64-.06,1.38-1.39,3.18-3.06,2.85C198.81,185.65,197.6,183,198.34,181.42Zm2.66,3.47c.58-.24.68-.95.81-1.63a4,4,0,0,0-2.24-.82A2.8,2.8,0,0,0,201,184.89Z"/><path class="cls-1" d="M221.21,181c1.59,0,1.54,1.73,2.65,2.25C223.09,185.7,220,183,221.21,181Z"/><path class="cls-1" d="M38.09,184.48c-1.51,1.5-3.71,3.36-5.92,3.47.52-2.47,3.51-2.47,4.9-4.08C37.31,184.17,37.84,184.19,38.09,184.48Z"/><path class="cls-1" d="M219.37,184.69c.66,0,.9.46.82,1.22C219.52,185.89,219,185.09,219.37,184.69Z"/><path class="cls-1" d="M196.51,188.57c1.65-.52,3.7-2.75,6.12-2.25a3.73,3.73,0,0,1,2.66,3.68C204.86,193.92,195.69,194,196.51,188.57Zm6.73,2.45c1-2-2.31-4.89-2.65-2.45a8.51,8.51,0,0,0-2.45.2C198.24,191.14,201.26,192.38,203.24,191Z"/><path class="cls-1" d="M40.13,186.93c-.67,2-2.54,2.77-4.49,3.47-.49-2.12,2.76-2.09,3.27-3.87C39.73,186.24,39.55,187,40.13,186.93Z"/><path class="cls-1" d="M218.35,186.53c2.11.07,1.35,2.31,3.68,2.45-.15.77.83,1,.2,1.63C220.65,189.54,218.92,188.61,218.35,186.53Z"/><path class="cls-1" d="M42.38,189.38c-2.21,1.4-3,4.23-5.52,5.31-.09-1.15,1.09-3.13,2-4.29C39.6,189.57,41.14,188.34,42.38,189.38Z"/><path class="cls-1" d="M218.35,189.38c.89,1,2.53,2.49,1.63,4.09-1.25-.73-1.73-2.21-2.45-3.47C217.47,189.46,218,189.47,218.35,189.38Z"/><path class="cls-1" d="M44.83,192.45c-3.11.43-3.26,3.82-5.52,5.1-.17-3.18,2.53-4.58,3.88-6.53C44.18,191.05,44.81,191.44,44.83,192.45Z"/><path class="cls-1" d="M216.11,193.26c1.45-.55,2.69,1,3.47,2.66-.24,0-.18.37-.21.61C217.45,196.28,217.28,194.26,216.11,193.26Z"/><path class="cls-1" d="M59.52,193.47c3.7,1.27,6.56,3.38,10.42,4.49-2,2.08-8.51-1.54-9.19-3.27a11.21,11.21,0,0,0-1.23-.41C59.18,193.88,59.54,194,59.52,193.47Z"/><path class="cls-1" d="M214.88,194.28c.39.92,1.11,2,.41,2.86-1-.25-1.21-1.38-1.43-2.45C214.49,194.84,214.11,194,214.88,194.28Z"/><path class="cls-1" d="M49.73,196.94c-1,1.55-2.59,2.44-3.48,4.08-.4,0-.25-.56-.81-.41C46.14,198.72,48,195.93,49.73,196.94Z"/><path class="cls-1" d="M211.61,196.53c1.62,0,3.59,2.07,2,3.27C213,198.73,211.33,197.88,211.61,196.53Z"/><path class="cls-1" d="M51.77,198.57c.18.09.36.18.4.41.07,2.26-2.11,3.3-4.08,2.86C49,200.38,50.69,199.81,51.77,198.57Z"/><path class="cls-1" d="M210.39,198.57h1C212,199.7,213,200.38,213,202a3.51,3.51,0,0,0-.81.61C211.51,201.47,210,200.21,210.39,198.57Z"/><path class="cls-1" d="M55.24,200.61A9.39,9.39,0,0,1,52,204.29c-.18-.23-.46,0-.82-.41C52,202.39,53.25,199.63,55.24,200.61Z"/><path class="cls-1" d="M57.48,201.63c-1.87,1.42-2.14,5.45-4.69,5.51C53.27,205,54.59,200.65,57.48,201.63Z"/><path class="cls-1" d="M209.57,201.22c-.08,1.8,1.79,3.08.82,4.49C208.69,205.64,207.3,201.58,209.57,201.22Z"/><path class="cls-1" d="M140.57,206.74c-.2.34.71,1.32.82,2-1.89,5.31-7.79,1.55-10.41-.82.11-2-.11-4,1-5.31,3-1.27,6.94,1,8.16,3.88.15-1,1.11-2.7,2.86-2-.07,2.16,3.37,3.59,1.23,5.31C141.94,209.86,141.59,208,140.57,206.74Zm-7.35-2.86a4.33,4.33,0,0,0-.82,3.47c2.21.92,3.67,2.59,6.33,3.06C139.9,207.43,136.92,204,133.22,203.88Z"/><path class="cls-1" d="M129.14,202.45c-.23,2.43-1,6.63-3.68,6.74-2.12.08-3.57-2.55-2.65-4.5C123.61,203,126.64,202.89,129.14,202.45Zm-4.7,2.24c-.29,1.59.24,2.85,1.84,3.07.16-1.48,1.29-2,1.22-3.68A4.4,4.4,0,0,0,124.44,204.69Z"/><path class="cls-1" d="M60.34,203.27c-1.51,2.43-3.11,4.78-5.51,6.32a1.08,1.08,0,0,0-.61-.61,4.46,4.46,0,0,1,2.24-2.45C57.19,205.05,58.47,202.27,60.34,203.27Z"/><path class="cls-1" d="M209.37,207.55a1,1,0,0,1-.82,1,9.44,9.44,0,0,1-3.06-3.88C206.76,202.75,208.26,206.71,209.37,207.55Z"/><path class="cls-1" d="M62,205.31c-.53,2-1.21,4-3.26,4.49C59.35,207.76,60.4,205.23,62,205.31Z"/><path class="cls-1" d="M204.47,207.14a9.93,9.93,0,0,1,2.24,3.07c-.73-.06-.74.61-1.42.61-.58-.92-1.37-1.63-1.23-3.27C204.41,207.63,204.45,207.39,204.47,207.14Z"/><path class="cls-1" d="M122.81,208.78c1,2.22.57,6.85-1.63,7.14s-5-4.33-3.27-6.33C119.35,207.88,121.36,207,122.81,208.78Zm-3.88,1.63c.5,1.61.57,3.65,2.45,3.88C123,211.92,121,207.11,118.93,210.41Z"/><path class="cls-1" d="M201.61,210c1.58.33,2.21,1.6,3.06,2.66-.45.16-.26,1-.81,1C202.56,213.1,201.1,211.7,201.61,210Z"/><path class="cls-1" d="M127.71,210.61c1.66,2.32-.81,6.46-3.47,3.88C123.63,212.07,125.35,210,127.71,210.61Zm-.82,3.47c-.34-.74-.38-1.79-1-2.24A1.53,1.53,0,0,0,126.89,214.08Z"/><path class="cls-1" d="M68.91,211c.19,1.68-1.38,1.61-1.42,3.06-1.86.73-1.56,3.62-3.68,4.09,0-2.92,2.38-5.07,4.08-7.35C68.47,210.65,68.42,211.11,68.91,211Z"/><path class="cls-1" d="M135.47,212.66c-.65,1.63-.22,4.22-2.66,4.49-1.65-1-3.44-1.87-3.26-4.7C130.62,211.23,135,210.4,135.47,212.66Zm-4.49.2a3.39,3.39,0,0,0,2.44,2.86c.36-.88-.68-2.27.41-2.86C133.36,212.22,131.79,212.64,131,212.86Z"/><path class="cls-1" d="M145.06,211.43c1.42,3.19-.48,7.58-4.9,6.53-.66-1.51-2.12-3.58-1-5.92C140.63,211.35,143.17,211.72,145.06,211.43Zm-4.49,1.63c-.16.05-.24.18-.2.41.06,1.94,1.09,3.82,3.06,2.66,1-1.31-.44-2.17-.21-3.07C142.25,213.2,141,212.85,140.57,213.06Z"/><path class="cls-1" d="M199.37,212h.81a26.55,26.55,0,0,1,2.65,4.09c-.52,0-.29.79-.81.81C200.61,216,199,214.17,199.37,212Z"/><path class="cls-1" d="M72.18,213.27c-.45,1.66-2.06,2.15-2.86,3.47a3.39,3.39,0,0,1-1.43-.41C69,215.16,70.2,212.23,72.18,213.27Z"/><path class="cls-1" d="M199,213.47c.12,2.88,3,4,3.06,6.33-2.28-.1-5.52-4-3.68-6.33Z"/><path class="cls-1" d="M75.65,214.08c-1.3,1.49-2.28,3.31-3.47,4.9C69.93,217.82,73.45,212.74,75.65,214.08Z"/><path class="cls-1" d="M200,223.07c-2.58-1.65-4.74-3.7-5.11-7.56.25-.3.77-.31,1-.61.24,0,.37,0,.41.21C196.28,218.79,200.61,220.11,200,223.07Z"/><path class="cls-1" d="M118.93,215.11c1.87,2.2,2.27,7.85-1.22,8.57-1.95-1.12-1.56-4.57-3.47-5.72C115.14,216.32,115.44,214.51,118.93,215.11Zm-2.24,1a7.43,7.43,0,0,0,1.63,6.12c.47-1.35,1-5.55-.82-6.33C117.23,216,117.11,216.21,116.69,216.13Z"/><path class="cls-1" d="M78.51,215.51c-.67,2.4-1.37,4.76-3.47,5.72C75.15,219.13,75.6,215.15,78.51,215.51Z"/><path class="cls-1" d="M133.83,218.37a5.71,5.71,0,0,0,.82,4.49c.42-.05.19-.76.61-.81.64-.1.54.55,1,.61a9.87,9.87,0,0,0,1.43-1.23c.23-1.92-1.27-2.12-1.63-3.47,1.67-1.27,2.56.89,3.27,1.84.84,3.12-3.06,5.4-5.52,4.49-2-.74-1.59-3.22-1.83-5.31.85-1.5,3.25-3,5.1-2.24C136.83,218.11,134.63,217.53,133.83,218.37Z"/><path class="cls-1" d="M129.14,217.35c1.48,3.77-1.41,7.28-5.11,6.53-1.36-1.34-1.69-3.41-2.45-4.9C123,217.38,126.36,217,129.14,217.35Zm-5.72,1.43c.43,2,1,4,3.68,3.67.79-.72,1.08-2.72.61-4.08C126,218.2,125.21,219,123.42,218.78Z"/><path class="cls-1" d="M82.59,217.76c-.63,1.33-2.36,3.56-3.26,5.51-.39.83-.29,2.86-1.84,2,.75-3.26,1.8-6.23,4.08-8C81.94,217.46,82.42,217.46,82.59,217.76Z"/><path class="cls-1" d="M194.26,218.17c.24,0,.36,0,.41.2.23,3.65,3.92,5.43,5.31,8.58-1.69.44-2.57-1.44-3.88-2.86-1.58-1.72-2.57-2.32-2.45-5.31A1,1,0,0,0,194.26,218.17Z"/><path class="cls-1" d="M85.66,219c-.71,1.69-2,2.77-3.07,4.09.06,1-.41,1.49-1.43,1.43C81.4,222.35,83,218.07,85.66,219Z"/><path class="cls-1" d="M146.69,219.39c-.56,1.69-.89,4.06-2.65,4.09C140.29,223.53,142.91,216.72,146.69,219.39Zm-2.24,2.25c.06-.47,0-.77-.41-.82C144.09,221.18,143.83,221.85,144.45,221.64Z"/><path class="cls-1" d="M191.4,219.19c.24,0,.37,0,.41.2-.69,2.48,2.67,3.51,2,5.92a5.48,5.48,0,0,1-3.47-5.3C190.69,219.7,191.24,219.64,191.4,219.19Z"/><path class="cls-1" d="M187.73,220c.82,1.77,2.24,4,2.24,5.92-1.41-.13-3-2.82-3.06-4.29A1.64,1.64,0,0,1,187.73,220Z"/><path class="cls-1" d="M88.92,221.43a7.39,7.39,0,0,0-3.67,5.31c-.64.1-.8-.29-1.23-.41C84.12,223.51,86.44,219.23,88.92,221.43Z"/><path class="cls-1" d="M185.07,221.84c1.62.53,3.58,4.28,1.23,5.11C186,225.25,184.07,223.56,185.07,221.84Z"/><path class="cls-1" d="M183,227.76c-1.36-.6-1.1-2.84-2-3.88C182.07,220.91,185,227.11,183,227.76Z"/><path class="cls-1" d="M120.36,224.09c4.28-3,6.32,5.31,2.45,5.71C120.33,230.07,119,226.39,120.36,224.09Zm2.65,4.49c.74-1,.54-3.68-.81-3.88C120.48,225.52,121.5,228.19,123,228.58Z"/><path class="cls-1" d="M179.15,223.88c1,1,2.59,3.67,1.43,4.9-1.49-.61-1.53-2.68-2-4.28C178.75,224.3,179,224.09,179.15,223.88Z"/><path class="cls-1" d="M91.37,224.29c-1.07,1.42-2.72,4.94-4.49,3.68C88.21,226.68,88.53,223.4,91.37,224.29Z"/><path class="cls-1" d="M176.3,225.31a5.48,5.48,0,0,1,1.63,4.09C175.81,229.42,174.94,226.39,176.3,225.31Z"/><path class="cls-1" d="M95.05,227c-2.12,0-2.42,1.8-3.27,3.06-.6.05-.63-.46-1.23-.41C90.54,227.36,93.64,224.6,95.05,227Z"/><path class="cls-1" d="M172.83,226.33c1.46,1,1.91,3,2.45,4.9a3.4,3.4,0,0,0-.82.62C173.38,230.46,172,227.87,172.83,226.33Z"/><path class="cls-1" d="M169.76,227.56c1.28.8,2.85,3.77,1.64,5.1C170.09,231.89,169,229.13,169.76,227.56Z"/><path class="cls-1" d="M97.7,228.17c-1.5,1.3-2.45,3.13-3.68,4.7-.26-.21-.75-.2-1-.41C93.82,230.37,95.45,226.93,97.7,228.17Z"/><path class="cls-1" d="M99.94,228.78c-.42,2.09-2,3.08-3.87,3.68-.33-1.59,2.07-2.13,2.24-3.88C98.9,228.6,99.65,228.47,99.94,228.78Z"/><path class="cls-1" d="M168.13,229.4c.84,1.09,1.5,4.21.82,5.51C167.28,234.52,167.21,230.48,168.13,229.4Z"/><path class="cls-1" d="M102.6,230c-.55,1.42-1.41,2.54-2,3.88-.75,0-.79-.28-1.43,0C99.61,232.1,100.52,228.88,102.6,230Z"/><path class="cls-1" d="M164.46,230.21a2.81,2.81,0,0,1,1.22,3.47C164.66,233,163.59,231.57,164.46,230.21Z"/><path class="cls-1" d="M105.46,230.83c-1.33.92-2.6,1.89-2.86,3.87a11.73,11.73,0,0,1-1.43-.2C101.29,232.08,103.09,229.71,105.46,230.83Z"/><path class="cls-1" d="M163.64,230.62c.29,3.78,1.09,7.3,1.43,10.82-1.54-.5-1.61-2.47-1.84-4.29-1.12-1.53-.56-3.9-1.22-6.12C162.55,230.89,163.09,230.13,163.64,230.62Z"/><path class="cls-1" d="M106.89,231c-.43,2.09-1.91,3.13-2.25,5.31-.48.06-.77.32-1.43.2C103.84,234.88,104.05,231.55,106.89,231Z"/><path class="cls-1" d="M111,232.05c0,2-1.76,3.53-4.08,3.88.27-1.9,2.27-2.08,2.65-3.88C110.39,232.11,110.34,231.78,111,232.05Z"/><path class="cls-1" d="M155.88,232.25c1.27,3.12,2.92,6.82,2.45,10-1.05-.17-1-1.52-1.22-2.25a65.9,65.9,0,0,0-2.66-7.35C154.6,231.74,155.09,232.35,155.88,232.25Z"/><path class="cls-1" d="M152.41,232.25c-.9,2.07.22,5.09.2,6.95-.56.25-1,.5-1.63.2C151,237.25,148.75,232.09,152.41,232.25Z"/><path class="cls-1" d="M114.24,232.66a10,10,0,0,0-2,3.88c-.74-.18-1.08.36-1.42,0C111.2,234.65,111.75,231.84,114.24,232.66Z"/><path class="cls-1" d="M152.61,232.66h.82c.26,2,2,4.77.82,6.33A9.45,9.45,0,0,1,152.61,232.66Z"/><path class="cls-1" d="M146.29,233.28c-1.12,2.76.63,5.31-1,6.94-1.13-1-.79-4.69-.62-6.54C145.08,233.42,145.79,232.84,146.29,233.28Z"/><path class="cls-1" d="M147.31,233.07c.66-.12.95.14,1.43.21-.42,1.23,1.38,4.91-.82,5.51C146.87,237.47,147,235.45,147.31,233.07Z"/><path class="cls-1" d="M143,233.48c-.83,2.13.58,5.65-.61,6.74C140.78,239.22,140.61,233,143,233.48Z"/><path class="cls-1" d="M120.77,233.68c-1.63,1.86-2.51,5.52-4.7,6.13.26-3,2.31-4.23,3.47-6.33C120.17,233.33,120.29,233.69,120.77,233.68Z"/><path class="cls-1" d="M117.3,233.89c-1.67,1.25-2,3.88-4.49,4.28C113.62,236.16,114.44,233.19,117.3,233.89Z"/><path class="cls-1" d="M137.51,234.3c-.66,1.06,0,5.1-1.84,5.71-.9-1.32-.36-4.52.41-5.51C136.79,234.66,136.86,234.2,137.51,234.3Z"/><path class="cls-1" d="M125.87,234.7c.31,1.75.4,6.22-1.84,6.33C124.21,238.48,124,235.57,125.87,234.7Z"/><path class="cls-1" d="M132.81,234.91c.66,1.65,0,3.61-1.63,3.67-.38-1.14.49-1.85.2-3.47C132,235.14,132.3,234.39,132.81,234.91Z"/><path class="cls-1" d="M140.57,234.91c-.19,1.84.57,6.33-1.43,6.53C138.79,240.14,137.6,234.24,140.57,234.91Z"/><path class="cls-1" d="M123.83,235.52c-.14,1.72-1.16,3.57-2.65,3.27C121.81,237.45,121.44,235.1,123.83,235.52Z"/><path class="cls-1" d="M129.14,235.72c-.39.88-.91,2.21-.21,3.07-.59.49-.92,1.25-1.83,1.43C126.73,238.49,126.62,235.25,129.14,235.72Z"/><path class="cls-1" d="M25.43,196.12c-2.52-4.62-5.06-9.22-7.55-13.88-.68-5.24-2.76-10.06-3.68-15.72a83.94,83.94,0,0,1-.81-12.25C13.33,147,13.74,138.81,12,132c-.32-1.2-.71-2.46-1-3.68-1.61-6.38.35-13,0-19.8a144.89,144.89,0,0,0-1,24.09c.22,4.67,1.61,9.19,1.83,13.68.24,4.72.35,9.07.41,13.27-1.29-2.46-.51-6.83-1.63-10.41-.13-4.55-1.77-9.72-2.25-15.93-.25-3.34-.14-7.07-.2-10.61-.1-6.11.37-12.15,2-17.36.88-.67,1-1.22,1.63-1.83.52,1.17-.51,3.06-.81,4.9,1.89-3,3.47-6.33,6.12-8.58a17.24,17.24,0,0,1-.61-6.33c-1.1,1.76-.13,4.45-1.23,6.13-1.34-.89-1.15-3.68-1-5.1.56-5.75,3.62-12.2,6.13-16.54.55-1,1.23-2,1.84-2.86s1.1-2.27,2.24-2c-1.6,5.48-5.91,10-6.94,16.74,1.62-5.24,5.55-9.16,7.76-14.09.74-1.66,1-3.55,1.63-5.3.66-1.93,2.14-3.78,3.27-5.72.55-1,.66-2.09,1.22-2.86,2-2.73,5.37-4.55,7.76-6.94a154.5,154.5,0,0,0,10.41-12c2.17-1,2.61-3.2,4.7-3.88.2,1-1.77,1.46-1.84,2.86C59.29,35.56,64.22,27.36,73,23c9.1-1.45,15.75-5.31,22.86-9.18,2.82.07,4.71-.18,6.94.41,3.54-2.61,7.18-4.88,11.23-4.7,1.28,1.18,2.91.73,3.88,1.23.7.15.26-.83,1-.62,5.09.56,8.07,2.09,13.27,2.66.23.64-.32.49-.41.81,1.25.15,2.42,1,3.47.21,7.31,1.77,14.51,2.81,21.85,3.88,1.14.16,2.9,1.2,3.88.61,7.83.54,14.12,3.18,19.8,6.12,1.49.78,3.11,1,4.49,1.64,1.15.56,2.38,1.69,3.67,2.45s2.92,1.28,4.09,2c1,.65,1.67,1.82,2.65,2.45.72.46,1.83.54,2.65,1,1,.6,2,1.82,3.88,1.83,3,2.36,6.34,5.36,6.54,9.8,2.11.82,3.71,2.14,5.71,3.07,2,2.76,3.65,4.69,4.7,8.37,2.78,4.16,5.14,8.74,8.16,12.65,1.14.48,1.45,2.1,2,2.86.74.94,1.59,1.7,2.45,2.86,4,5.39,7.34,12.72,11.23,18.58-4.41-11.77-12.49-21-18.78-31.65-2.07-3.5-3.64-7.45-5.92-10.82-.76-1.12-2.14-2-2-3.67,1.41,0,2.43,1.67,2.86,3.27,3.42,3.18,4.4,8.79,7.55,12.25-.1.64.37.72.2,1.42A14.56,14.56,0,0,1,231,71.18c5.31,6.32,9,12.94,13.06,20.62-.35.7.28,1.45,0,1.84.9.38,1.09,1.27.82,2.45,1.57,1,2,3.5,2.24,5.51.18,1.57,2,3.16,1,4.7.8,1-.1,1.33.81,2.24a18.31,18.31,0,0,1-.2,2c.78.24.54.89,1,1-.2,7.43,1.71,20.21.2,30.42,2.3-.85,1.57-4.79,1.84-7.55a85.27,85.27,0,0,0-.2-21.64c-1-4.1-2.43-6.91-2.86-10.62,2.16-.32,1,2.66,2.45,3.06.36,1,0,2.17.41,3.27.1.29.54.49.61.82.23,1.17.11,2.45.41,3.67.52,2.12.63,3.91,1.22,6.54a14.07,14.07,0,0,1,.61,2.24c0,.82-.64,1.4-.81,2.25-.57,2.79.1,5.27-.41,9.18-.06.49-.55,1-.61,1.43-.38,3-.14,6.08-.41,9-.19,2-1.17,3.64-1.63,5.51-.14.52.09,1.2,0,1.63-.23,1-.93,1.81-1.23,2.86-1,3.62-1.76,7.35-3.67,10.41a1.62,1.62,0,0,1-2.05,2.45c1.83-8.18,6.47-13.55,6.54-23.48-1.35,2.13-1,4.71-1.64,6.94-1.6,6-5.11,11-6.53,17-.85.17-1.34.69-2.45.61,0,6.86-2.68,13.73-5.31,18.78-1.26,2.44-2.84,4.35-4.08,6.53-2,3.58-2.66,7.68-5.51,10.62.12.66-.14.95-.21,1.43-.46.35-.54,1.09-1.22,1.22-.24,2.32-2.41,3.33-3.67,4.9-2.14,2.65-3.89,5.73-6.13,8.58,7.74-7.5,13.34-17.15,19.6-26.13.63-.55-.54-.78,0-1.23a1.73,1.73,0,0,0,1.22-.2c1.6-5.76,6.16-11.68,7.35-19.19.32-2-.48-6.17,2.25-5.92a49.43,49.43,0,0,1-2.66,13.68c-.37,1-.49,2.32-.81,3.06-.12.26-.68.37-.82.61-1.17,2-1.72,4.46-2.86,6.53-.38.7-1.06,1.16-1.43,1.84-4.91,9-11,16.91-16.94,24.91-.42.44-.66-.18-1,.2a7.69,7.69,0,0,0-.61,1.43c-.72.22-2.1.85-2.25,2.24-1.57.48-2.24,1.84-3.06,3.07-2.23.66-3.19,3.57-5.31,3.67-.25-.67,1-1.51,1.23-1.84.66,0-.09.52.61.62,0-1,.87-2.19,1.63-3.47-1,1.49-3,2.32-4.28,3.87a23.9,23.9,0,0,1-2.66,2.45c-2.29,2.11-3.34,3.84-6.12,5.52-1.33.8-1.93,1.7-4.09,1.63a5.09,5.09,0,0,0-1.43,1,21.49,21.49,0,0,0-8.77,4.08c-1.69,1.18-3.92,2.68-6.33,4.09-3.19,1.86-5.68,3.39-11,2.65a6.23,6.23,0,0,1-1.63-.61c-5.11,4-12.22,5.59-21,4.9-3.62-.29-6.88-1-10.2-.82-5.25.27-12.3.89-18.38.21-5.44-2.35-13.21-3.87-18-7.56-1.92,0-2.47-1.34-4.29-1.43a1.11,1.11,0,0,1-.2-.81c-7.43-2.37-13.25-6.36-20.21-9.19-2.5-1.87-5.85-3.64-8.37-5.92a17.93,17.93,0,0,1-5.31-9,9.44,9.44,0,0,1-6.94-1.64c-1.73-1.29-2.66-3.67-4.29-4.9-2.07-1.56-4.53-1.54-7.76-1.83-2.84-3.08-6-5.84-8.78-9,.66,2,2.49,2.83,3.27,4.7,1.12,0,1,1.14,2,1.22,3,4.78,9,6.48,12.86,10.42-1.33,1.42-2.61-.78-3.67-1.43-1.26-.78-2.87-1.47-4.08-2.25-2.62-1.68-4.79-3.92-6.94-5.51-.21-.27-.2-.75-.41-1-1.89-1-2.65-2.82-3.88-4.7-1.34-2-3.27-3.55-4.9-5.51-2.89-3.48-4.93-8.68-6.94-13.06.32.64,1.91,2.25,1.63,1.83.75,1.14.32,2.38,1.84,3.27,0-.17-.08-.19-.21-.2.12-1.09.5.93.82,1.42C21.82,191.77,24.23,195.24,25.43,196.12Zm175-143.52c.56-.85,1.64-2.26,2.65-3.47s2.71-2.34,2.86-3.47c.25-1.92-2.87-5.28-4.7-6.73a56.93,56.93,0,0,0-9.59-5.72c-6.72-3.35-13.2-8.14-21-10-3.94-.94-8.05-1.67-12.25-2.45-2.46-.46-5,0-7.55-.21-5.08-.32-10.72-2.77-16.54-4.08a144.48,144.48,0,0,0-17.35-3.27c-5.44-.51-10.92,0-12.86,3.27-.26.44-.2,1.52-.41,2-.43,1.09-1,1.15-1,1.64-.06.78.77,1.72,1,2.85.63,2.9.1,6.13,2.45,7.35a45.86,45.86,0,0,1,8.57-1.22,37.59,37.59,0,0,1,10.82.2c4,.81,8.52,1.49,12.46,2.86.91.32,1.88,1,2.85,1.43s2.31.6,3.27,1,1.45,1.27,2.25,1.63,2.18.59,3.26,1c3.66,1.46,6.66.91,11.84,1.43,10.67,1.07,17.58,8.19,25.52,11.84,2.72,2.93,4.66,6.64,8,9A79.91,79.91,0,0,0,200.39,52.6Zm-99.22-22c0-.13,0-.24.2-.21,1.86-1.34.2-6.64-.2-8.77-.34-1.84.09-3.48-.2-4.7-5.68.37-8.08,3-13.07,4.29-4.62,3.37-11,2.78-16.13,5.3-2.52,1.24-6.16,4.63-8,6.54-1.3,1.38-2,3.29-3.27,4.69-.81.9-2.06,1.65-3.06,2.66C51.86,46,45.43,50.75,40.33,57.1c-2.71,3.38-6.49,5.95-8.37,9-1.66,2.69-2.38,5.86-4.08,8.57v1.64c-1.27,1.42-1.34,3.32-2.45,5.1s-3.19,3.5-4.29,5.51c-1.93,3.55-2.3,9.57,0,13.07,2.87,1.94,6.8,3.64,11.23,2.86,0-1.42.46-1.75.41-2.86,1.84-1.92,2-4.5,3.47-6.54.71-1,1.91-1.66,2.66-2.65,1.48-2,2.17-4.48,4.08-6.12A138.13,138.13,0,0,1,53,66.28c3.41-3.64,8-4.75,11.43-8,1.33-1.23,2.22-3.06,3.47-4.49,3.09-3.52,5.22-6.7,9.8-8.78,7.67-3.48,16.14-6.12,21.85-11,0-1.14,1.37-2,1-2.86,0,.52-.76.48-1,.2-1-2.38-4-4.86-3.07-7.75C99.09,24.88,99.14,28.71,101.17,30.56ZM107.29,32c2.67,0,5.77-.53,8.78-.82a41.25,41.25,0,0,1,14.29,1.43c.17.95,1.24.49,1.64,0C124.71,29.83,114.48,30.17,107.29,32ZM71.57,59.75c-4.51,9-14.19,14.14-20.42,22,.06.6-.46.63-.4,1.22-.38.38-1.1.86-1.43.21.41-3.17,2.93-5.08,4.69-6.74,1.56-1.48,2.85-3.23,4.49-4.7,5.32-4.74,10.33-9.24,14.29-15.1a1.34,1.34,0,0,0,1-.21c8.06-8.95,22.55-11.48,31.24-19.8a8.1,8.1,0,0,0-2.25-4.29c-1.56,1-1.72,2.77-3.06,3.88-4.61,3.82-12.37,6.16-18,9-2.13,1.07-4.54,1.66-6.13,2.85-3.49,2.62-5.69,6.93-8.37,10-2.83,3.25-7,4.76-10.61,7.35-3.52,3.43-6.12,8.85-8.17,13.06,3.11-2.86,4.27-7.08,7.55-9.8,1.69-1.39,3.61-2.62,5.31-4.08a54.75,54.75,0,0,0,5.11-4.49c.91-1.08,1.41-2.45,2.24-3.47,2.65-3.27,5.07-6.34,8.78-8.58,2.8-1.68,5.83-2.38,8.78-4.08,4.35-2.51,9.82-4,13.47-6.94.64-.51,1.19-1.69,2.25-1.63-.29,1.27-.88,1.35-1,2.45A37.33,37.33,0,0,1,95.25,42a28.54,28.54,0,0,1-3.47,1c-1.86.69-3.59,2.41-5.72,3.47s-4.83,1.42-6.73,2.45S75.9,52,74,52.81c-4.63,6.53-9.68,12.64-16.54,16.94-3.88,5.65-9.49,10.65-11,18,.44-.85,1.21-2.46,2.24-2-.43,3.31-3.43,5.81-4.08,9.59-1.75,2-2.71,5.18-3.67,7.35-.05,1,.26,2.3-.62,2.45-2.38-2.54.08-6.19,1.23-8.37,1.43-2.72,3-5.39,4.08-7.76a45.89,45.89,0,0,0-8.16,15.11c-.75-.13-1-.75-1.43-1.22C37.84,94.71,44,90.09,45.85,83c-1.51,3.9-4.81,7-6.13,10.41-2.32.82-3.24,4.79-4.69,7.15-.21.65.61,2,0,3.06,9.43,6.14,24.33,5.84,35.11,10.82a46.64,46.64,0,0,1,13.47,4.08c5.68.64,10.5,3.36,16.13,4.29a10.28,10.28,0,0,0,2.66,1.43c8.47,2.47,18.27,4.6,28,7.35-.59-1-2-1.12-3.06-1.63-3.78-3-5.74-7.74-6.94-13.27.68-3.44.44-7,1.63-10.41.37-1,1.28-1.86,1.23-2.86,0-.73-.75-1.39-1-2-2.88-6.93-3-16.41-5.51-24.09-4.25,3.06-9.3,6-15.32,5.51-9.47-.77-15.31-7.64-16.53-16.54C84,60.35,87.8,54.41,91.37,51c3-2.92,7.65-4.26,12.25-4.9.51-.17.43-.93,1.23-.81.82-.44,1.39.28,2.44.2-.54-2.79-1.77-4.9-2-8-2.15,1.93-3.85,4.31-6.33,5.92-3.5,1-7,4.81-11.43,4.9-2.12,2.23-5.47,3.23-7.55,5.51.18.91.5,1.67.61,2.65,3.11-2.71,6.63-6.36,10.62-8.37,1.16-.58,3.28-2.15,4.49-.4a14.44,14.44,0,0,0-3.27,1.22c-4.21,2.5-6.84,5.43-11.43,8,.23,1.17,1,2.78.82,3.68,4.57,3.93,2.75,14.5-2.86,16.53a1.46,1.46,0,0,1-.82,2.25c-1.37-1.86-5.06-3.91-6.33-7.15C69.91,67.46,70.24,60.36,75,58.93a4.47,4.47,0,0,1,.2-1.83C74,58,73.46,59.53,71.57,59.75ZM106.68,34c1.67,4.75.81,13,7.35,13.88,7.88,4,10.53,16.4,5.92,24.7-.52,1-1.73,1.67-1.84,2.66s.94,3.22,1.43,5.1c2,7.64,2.74,15.94,5.11,22,4.35-4.28,12-6,18.37-4.7.19-3,.71-7.28-1.84-9-2.49-.12-4.47,1.65-7.35,1-2.71-9.55,5.85-18.34,14.91-16.13-2.58-3.55-5.74-7.41-5.11-13.68.71-7,5.5-11.5,9.39-15.1-2.29-.22-5.08,0-5.71-1.84,3.65-1,8.2,1.55,11.63-.41-4.93.52-9.85.15-13.06-1.63a14.87,14.87,0,0,0,.41,2.24c-1.31,4.41-2.64,8.8-5.52,11.64-1.74-1.66-4.08-2.72-6.12-4.08-2.84,1.1-2,5.88-4.08,7.76-1.72-.94-2.92-2.4-4.7-3.27-.64-.32-1.91,0-2-.82,1.23-2.58,3.56-4.06,4.49-6.94-1.35-2.44-6.8-1.9-7.35-4.69-.48-2.45,2-4.66,3.47-6.33a28.68,28.68,0,0,0-8.57-.62c-1.7.1-3.49,1.06-4.29,0,3.19-2.53,11.51-2.64,14.29-.2.26-.83,1.49-.69,1.84-1.43C121.05,31.71,113.26,33.91,106.68,34Zm29,.2C130.26,33.6,124,37.63,123,42c1.49,1.13,4.5,2.81,5.92,2.65a4.73,4.73,0,0,1-2.65-4.08c.76-.2.53-.44,1.43-.2.57,2.69,2.34,4.19,4.29,5.51-.17-.92-1.26-1.85-1.64-3.06-.3-1-.59-.92-1-1.64-.77-1.29-1.54-3.36.41-3.67.42,2.23,1.62,3.69,2.45,5.51-.14-2.59-.74-6.67,2.25-6.53-.84,1.33-1.83,4.25-.82,6.12,1.06-1.82,1.56-6.06,4.29-4.9a8.48,8.48,0,0,0-2.25,3.68c1.29-.36,2.38-3.43,3.68-1.84-1,1.21-2.08,2.28-3.07,3.47,1.18-.09,2.74-2.46,3.68-.82-.9.74-2.14,1.13-2.86,2,1.27-.15,3.48-.46,4.69,0-1.43,1.74-5.38.5-7.34,2.05a37.92,37.92,0,0,0,5.92,1.43c-2.74,1.48-5.1-1.35-7.56-.82-.41-.06-.4-.55-.81-.61-2.49,1.8-4,4.58-5.72,7.14.72.1.72.92,1.63.82,1.31-2.37,2-6.47,4.7-6.74-1.89,2-2.48,5.28-4.49,7.15.87.09,1.32,1.42,2.24.81.43-.77-.1-.72-.4-1.22.8-1.85,1.79-3.52,2.44-5.51a18.37,18.37,0,0,0,2.86-.41c1.57,1.63,3.79,2.61,5.92,3.67C146.37,45.75,144,35.2,135.67,34.23Zm12.25,5.51a19.54,19.54,0,0,0,10.82,1c.58.05,3.2,0,1.63-.2a27.66,27.66,0,0,1-15.92-3.27C144.85,38.24,146.55,39.17,147.92,39.74ZM167.11,42c-.84-.11-1.32-.59-2.25-.61C164.8,42.27,166.8,42.15,167.11,42ZM133,44.85A5.54,5.54,0,0,0,132.4,43,1.85,1.85,0,0,0,133,44.85Zm19.19,2.86c-3.2,2.75-6.53,7.73-6.74,13.26A15.82,15.82,0,0,0,150,72c5.52,5.52,17.78,8,25.32,2.86,2.89-2,5.41-6.4,6.12-9.39.78-3.27.51-9.29-1.23-12.66-.58-1.14-2.13-2.57-3.87-4.29-2.88-2.83-5.47-4.65-10-4.69C159.62,43.76,155.28,45.05,152.21,47.71ZM91,53.42c-1.59,2-4.13,6.1-4.49,9-.38,3.08,1.28,8.22,2.86,11,2.92,5.2,10.41,8.7,17.15,7.55a17.14,17.14,0,0,0,5.31-2.45c1.17-.71,3.76-2.07,4.08-3.67.37-1.87-2.73-6.6-2.86-8.78,1.16,4.3-5.72,3.76-6.74,1.22,0-.36-1,.33-1.22-.2a2.68,2.68,0,0,1,.2-2.25c2-.19,4.56-.82,5.92-2.24.27,0,1.23.67,1.23,0a9.66,9.66,0,0,1-.82-2.45c-1,.66-1.12,2.28-2.65,2.45-3.87-.11-5.77-7.48-1.23-7.55-.1.91-1.13.91-1.43,1.63,0,1.94.64,3.17,2,3.67.61-.59,0-1.21.61-1.63.85-.24.36.86.81,1,0-2.06-1.12-3.1-1.83-4.49,1-1.06,2.36,1,2.45.2a70,70,0,0,1-2.25-8.16C101.32,47.54,94.39,49.12,91,53.42ZM232.64,165.09c3.4.88,4.9.82,6.74-1.22s2-6.25,3.06-9c.61-1.63,1.69-2.94,2.25-4.49.68-1.92,1.12-3.58,1.83-5.1.23-3.73,1.66-7.69,1.84-11.23.47-9.55-1.58-17.77-3.06-25.11-2.26-11.18-8-20.45-13.68-28.79-1.94-2.84-3.8-5.7-5.92-8.37s-4.69-5.33-6.33-8.16c-1.87-3.23-3-6.89-5.31-9.39-1.09-3.51-3.47-6.45-8.16-5.72a94.39,94.39,0,0,0-8.37,11.64c-.24,1.19.17,2.49-.21,3.47,6.79,7.1,15.53,14.31,21.23,22.66a16.63,16.63,0,0,1,2.66,8,4.88,4.88,0,0,1,1,2.86,69.38,69.38,0,0,1,8.37,14.09,23.27,23.27,0,0,1,1.84,4.89c.33,1.91-.06,4.23.2,6.54.13,1.1.55,2.18.61,3.26.46,7.45-1.49,14-1.83,20-2.76,5-4.17,11.43-5.92,16.94C227.53,164.23,229.75,164.34,232.64,165.09ZM111.58,52.6c-.12,0-.24,0-.2-.2,3.34-3.65,8.33,5,4.28,6.94.62-.2.37.46.41.82-1.23.57-2.36-1.15-2.86-.61.08,1.21,1.17,1.42,1,2.85.77-.58,2.08-.63,3.26-.81.42.87,1.18,1.41,1.23,2.65-.68.75-1.2,1.66-2.45,1.84-.59.25-.93-1.23-1-.2.94,2.25,1,5.41,2.45,7.14,5.7-8.34,1.86-22-6.94-24.5C111.21,50.12,110.93,52.19,111.58,52.6Zm71-1.42c3.6,1.44,5.34,4.73,7.76,7.35.07,1.49,2.2,2.65,1.23,3.87-2.81-3.92-5.73-7.74-9.8-10.41,1,4.37,2.25,7,1.63,11.64-.86,6.42-6.63,13.46-13.06,14.9a28.45,28.45,0,0,1-14.29-.2c2.52,2.77,5.75,10.52,1.83,13.68-3,0-3.88-2.29-6.94-2.66a16.81,16.81,0,0,0,1.84,8.37c-.33.42-.44,1.06-1,1.23-1.4-.63-3.24,0-4.9.2,2.69,1.32,5.2,2.83,6.74,5.31,3.14-4.48,7.34-7.24,11.43-10.82,2.38-2.09,4-4.83,6.33-7.35,1.93-2.09,4.6-4.19,6.94-6.53s5.1-4.16,7.14-6.33c.81-.87,1.48-2.27,2.45-3.47s2.55-2.51,2.66-3.47c.13-1.13-2.65-5.16-4.09-6.54-1-1-3.31-1.55-2.65-3.06,3.32,1.79,6.08,4.13,7.35,8,1.61-.77,1.5-3.94.82-5.1a50.2,50.2,0,0,0-6.33-8c-1.67-1.37-4.16-1.85-4.9-2.66C181.39,49.83,182.53,50,182.62,51.18Zm-67,6.94c.15-1.87-.68-4.47-2.65-4.9C112.8,55.15,113.15,58.23,115.66,58.12ZM78.51,63.43c-.56.26-1.36,1.61-.2,1.83,1.64-2.38,2.15-6.81,0-9C76.2,58.31,76.71,61.4,78.51,63.43Zm-2,.2c-.47-.78-.6-2.34-1.43-3.27C73.88,61.06,75.39,64,76.47,63.63Zm1,4.69C76.73,65.54,74,64.78,73,62.2,72.85,65.75,75.94,67.15,77.49,68.32Zm1-1.63A28.35,28.35,0,0,1,79.12,70c1.87-1.06,1.11-4.75,2.66-6.13-.47-.28-.48-1-1-1.22C80.56,64.52,79.44,65.52,78.51,66.69Zm38.58-1.84c.11-1.15-.45-.88-.81-1.83-.31,0-.76-.08-.82.2C116,63.77,116.14,64.72,117.09,64.85Zm-10,.82c1,1.44,2.61,2.78,4.29,1.84-.17-1.13,0-2.54-.82-3.06C110.15,65.6,107.74,64.76,107.09,65.67Zm50,52.47c-2.25,7.5-8.46,15.12-17.76,14.9-2.68-.06-4.1-1.34-6.74-1,2.6,1.29,6.51,2.08,8.16,3.67,4.89.5,8.76,1.68,13.48,2.66,4.5-4.47,12.52-6.41,20.62-4.09,5.25,2.38,7.82,7.42,10,12.86-.06.52-.88,1.16,0,1.43.41-.21.42.22.82.41,3.66,1.82,8.11,1.79,10.61,4.09,3.5.55,5.42,1.52,8.58,2.85,1.9.81,4,1.62,5.71,2.45s4,1.68,5.52,2.45c1,.51,4.37,1.81,5.51,1.64,1.38-.21,1.83-2.05,3.06-2.66,1-6.6,5.21-12,5.1-18.37a60.8,60.8,0,0,0,1-24.5,11.77,11.77,0,0,0-.41-1.63,65.34,65.34,0,0,0-4.49-9.39c-1.7-3.21-4-6-5.3-8.78s-1.52-5.8-2.86-8.37a22.15,22.15,0,0,0-2.25-3.27c-.73-1-1.2-2.33-2.45-2.86a17.06,17.06,0,0,1,3.68,9.4c.35.33,1,.33,1.22.81.35,1.25,1.22,3,1,4.08,4.66,6.46,9.88,13.37,11.43,22.26-2.16,2.45.09,8.65-.81,10.82a49.15,49.15,0,0,1-5.31,27.15c-1,1.86-2.22,4.23-4.69,4.29,0-1.5,1.52-2,2.24-3.07,1.3-2,2-5.16,3.27-8.57a48.41,48.41,0,0,0,2.86-14.7,115.06,115.06,0,0,0-1.23-22.46c-1.88-5.28-6.74-9.71-8.57-14.69-.39-1.06-.36-2.26-.82-3.27-.35-.76-1.12-1.28-1.43-2-.63-1.58-.65-3.36-1.43-4.9a34.14,34.14,0,0,0-3.06-4.29c-1.07-1.43-2-3.21-3.06-4.29s-2.72-2.06-3.88-3.26c-2.54-2.62-4.88-4.94-7.35-7.35-1.11-1.08-2.53-3.18-3.88-2.65a18.57,18.57,0,0,0,2.65,2.44c.92.82,1.69,1.7,2.66,2.45A18,18,0,0,0,201.2,74c1.48,3.3,5,6.59,4.09,11.43-.56,3-2.39,5.45-4.09,7.76A14.71,14.71,0,0,0,196.91,90c-2.69-3.44-6.63-6.68-6.12-12.65.94-.39.84-1.65,1.43-2.66.33-.57,1-.84,1.22-1.43.29-.9-.55-1.41,0-2,.44-.8,1.94-.64,2.45-.81-1.22-1-2.08-2.27-3.67-2.86-1.68,2.74-4,4.86-5.51,7.76-4.51,3.9-9.6,7.5-13.48,12-2.07,2.43-3.64,4.75-5.92,6.74-4.31,3.76-9.24,7.3-12,12.45a22.29,22.29,0,0,1,2.45,9c1.85-4.14,6.4-5.57,9.39-8.57.08-1.62,0-3.36,2-3.06-.35,4.28,2.47,7.23,1.84,11.22-.91,5.7-6.66,8.88-12.86,9.39C156.79,123.65,157.59,117.4,157.11,118.14ZM73,69.55c1.46-.63,1.64,1.38,2.45,2,0-.25.06-.48.41-.41a9.4,9.4,0,0,0,2.65,2.45c.16-4.78-4.53-4.73-6.12-7.75C72.2,67.49,73,68.1,73,69.55Zm6.53,2c.89,1.25-.08,2.53,0,3.47a9.48,9.48,0,0,0,2.86-9A12.24,12.24,0,0,1,79.53,71.59Zm121.47-2c-.38,0-.69-1-1-.41C200.35,69.13,200.67,70.19,201,69.55ZM76.88,75.27c-.34-1.24-1.52-2.7-2.45-2.66A26.91,26.91,0,0,1,76.88,75.27ZM199,77.51c-.31-2.34-1.82-4.58-3.68-4.7C196.57,74.32,197.7,76,199,77.51Zm-4.9-2c2,1.5,3.45,5.37,6.12,4.9-.66-.57-.15-2.29-1.22-2.45-.55-.06.54.79-.41.61a21.29,21.29,0,0,1-4.29-4.08C194.34,74.94,193.89,74.89,194.06,75.47Zm-40,3.06c-3-1.74-7-4.65-11.22-3.47-4.46,1.23-9.69,7.73-6.95,13.07,1.77.18,3.27-.94,4.9-1,2.38-.13,4.24,1.3,6.33,1.22-.06.69.16,2.14.41,1.84-.68-2.24,2.27-3.11,4.08-2.86,2.19.3,4.14,2.84,6.13,2.45C159,84.88,155.64,81.85,154,78.53Zm53.9-1.63c-.26-.68-1.58-2.3-1.84-1.63C207,75.55,207.07,76.61,207.94,76.9ZM77.28,75.67c.58.21,1.42-.31.82-.61C78.19,75.62,77.34,75.25,77.28,75.67ZM200,86.29c-.73-.11-.51.72-1.23.61-1.29-.41-2.35-2.13-3.67-1.84,2.08,1.12,3.33,5.17,5.92,3.88.13.49.27,1,.81,1,1.92-3.15,2.58-8.95-.2-11.63.19,3.06,2.21,7.68-.82,9.19.77-2.33-.18-4.64-.4-6.33-2.62,2.06-4.66-2-6.54-3.27.81,2.93,3.34,4.15,6.13,5.1-2.13,2.67-5.2-1.81-6.74-2.24C194.77,83.33,197.73,84.45,200,86.29Zm12.86-4.49c-.41-.41-.67-1-1.23-1.23C211.71,81.17,212.58,82,212.84,81.8ZM17.27,91.19c-.07-.39.47-1.49,0-1C17.39,90.53,16.67,91,17.27,91.19ZM145.06,96.7c1,1,3.55,1,5.31.61.13-.81-.54-.82-.41-1.63-.62-.56-.64.72-1.43.61-.31-1.22-.87-3.16-.61-4.28-.65,0-.68.54-1.43.4-.38-.36-.24-1.25-.82-1.43C145,92.39,145,94.56,145.06,96.7Zm-20,7.15c1.37,8.59,4.63,16.8,6.73,25.31,4.27-4.91,9.64-8.74,13.27-14.29-1.43.45-3.67.79-4.08-.82-.6-2.31,2.45-3.77,4.9-4.08,1,.21.57,1.88,1.43,2.25,1.42-2.25,3.81-3.54,5.1-5.92C148,98,131.13,96.38,125.06,103.85ZM60.54,212.66c.28-.47.85.5,1.23.61.66-2.34,3.69-3,3.88-5.31.23-2.83-4-4.09-5.92-5.92-1.76-2.46-4.67-3.39-6.94-5.1-.88-.67-1.5-1.84-2.45-2.45-.77-.49-1.86-.52-2.66-1a22.62,22.62,0,0,1-2.24-2.25A26.25,26.25,0,0,1,41,185.71a48.73,48.73,0,0,1-5.92-11c-1.08-3.06-2.43-6.29-2.86-8.78-1-5.65,0-10.07-.61-15.72-.45-4-1.76-8.19-2.45-12.25a71.4,71.4,0,0,1-.62-7.35,46.94,46.94,0,0,1,.62-13.48c.51-2.56.54-5.47,1.43-7.34.47-1,1.74-1.68,1.83-2.66.27-2.9-4.34-2.61-6.73-3.26-2.55-.7-4.51-1.53-6.33-1.84-3.62,2.26-4.91,9.42-5.31,14.49-.65,8.2,3,15.3,2.65,22.87-.29,6.13-.87,12.41-.4,18.78a94.53,94.53,0,0,0,2.65,14.9c2.16,9.1,7.44,16.35,11.84,23.48,1.93,3.12,5.3,7.94,8,9.8,2.11,1.47,4.86,1.34,7.35,2,4.07,1.15,6,7.11,10.62,6.74,2.29-2.91,5-5.89,6.32-9.19C65.43,208.23,60.75,211,60.54,212.66Zm69-83.91c-.61-3.45-1.35-5.56-2.05-9-2.36,2.61-4.25-.92-4.69-3.27a3.4,3.4,0,0,1,2.86-2,33,33,0,0,0-2-6.94C120.64,115.86,123.87,125.37,129.55,128.75ZM59.32,199.18c2.45,2.52,5.68,4.26,8.37,6.53,9.12-5.3,14-14.86,21.64-21.63,3.5-6.1,9-10.2,12.66-16.13-2.2-1.35-2.83-3.34-4.29-5.31-.86-1.16-1.81-1.79-2.25-2.86-4.46-10.82,2.33-20.45,9.8-24.5a29.75,29.75,0,0,1,5.52-2.65c3.27-.76,6.77.36,9.18-.41,2,1.71,4.78,2.71,6.13,5.11,1.07-1.31,2.3-2.46,2.85-4.29a48.25,48.25,0,0,1-4.69-1.23c-14.88-4.44-29.81-8.09-44.51-13.06-6.11-2.07-12.21-3.59-18.16-5.31-7.87-2.27-15.35-3-22.66-5.51a2.82,2.82,0,0,1-2.25,0c-3,2.29-5.19,7.79-3.47,12.86,0-3.05-.11-6.86,1-9.39.45-1,1.62-3.18,3.27-2.45-2.32,2.49-3.56,7.94-2,12,.87-.42,1.23-1.36,1-2.85,1.26-1.63,0-6.75,2.85-6.13-.26,2.42-1.24,4.3-1,6.74,3.35-2.81,9.71-3.43,13.88-2.86,3.21.43,4.74,2.39,6.95,4.29,5.83,5,6.91,16.45,3.06,24.9-4.32,7.84-22.22,11.49-28.38,3.27-.33-.82-.2-2.12-1-2.45,1.35,4.07.65,8.26.82,12.45.31,7.85,2.27,13.36,4.9,19.19,2.43,5.4,6,12,10.61,14.91.83.52,1.84.55,2.66,1,2.26,1.3,4.11,4.17,6.73,4.9-9.89-8-20.71-17.37-22.86-32.67-.43-3-.18-7.32-.41-11-.08-1.28-1.18-3.15.61-3.88,1.59,3.44.17,10.75,1.84,15.11-.4-3.46-.24-7.47-.41-10-.09-1.35-1.21-3.21.21-3.88,2.43,6.72,1.4,14.83,3.26,21,.79,2.61,3.5,4.87,3.88,7.15,0,.84-.69.6-.82.81,4.64,6.33,10.71,11.21,16.54,16.34,1.94.5,3.61,1.93,5.31,2.85s4,1.41,4.9,3.27C67,204.21,62.37,200.28,59.32,199.18ZM31.76,112.83c.32-1.68,2.58-3.52,2-4.7C32.67,109.11,31.29,110.93,31.76,112.83Zm121.67-4.7a95.17,95.17,0,0,0-9,10.41c2.16,2.58-1.07,3.92-2.45,5.31a26.29,26.29,0,0,1,2.45,6.33C152.5,128,158.73,116.91,153.43,108.13Zm5.92,14.09c6.86.38,11.7-5.75,9-12-.92,2.35-1.52,6.09-3.47,6.74.44-2.38,2.44-5.28,1.64-7.55C162.76,112.27,157.47,114.31,159.35,122.22ZM142.82,113c.31.58,1,.75,1.63,1,.26-.62.75-1,.82-1.83-.67-.09-.59-.91-1.43-.82A1.66,1.66,0,0,0,142.82,113Zm-18.38,2.66c-.43,1.55.15,3.58,1.64,3.88-.4-2.21.58-3.48-.41-4.5C125.48,116,125,115.38,124.44,115.69ZM30.13,126.3c3.42-2.08,1.19-5.64.61-9.39A33.64,33.64,0,0,0,30.13,126.3ZM43.6,151c6.26.22,12.66-1.06,16.33-5.71,3.32-4.21,3.62-14.71.82-20.21-1.46-2.86-5.7-6.4-8.78-7.15-8.49-2.05-13.49,2.27-18.37,6.33.07.74.31,1,0,1.63a4.66,4.66,0,0,0-2.66,3.27c-.2,1.24.51,2.76.41,4.29-.3,4.52,1,9,3.47,11.43C34.89,148.75,39.94,150.88,43.6,151Zm98.6-29.19c.84.2,1.76-1.38.82-1.63C142.76,120.73,142.11,120.9,142.2,121.81Zm-2.65,7.35c1.16,0,1-1.26,2.24-1.22a2.84,2.84,0,0,1-.61,1.42c.45.24.68.69,1.23.82.39-3.19-2.85-5.2-1.23-7.14-.33,0-.11-.57-.41-.62C138.88,123.65,137,127.22,139.55,129.16Zm-5.72.82a2.63,2.63,0,0,0,1.84.2c.3.48.43.38.2,1,1.51.13,3.87.48,5.31,0a7.34,7.34,0,0,1-4.9-4.49C135.4,127.73,134.25,128.49,133.83,130Zm-20.41,23.27c-.7,0-3.26-3.68-3.27-5.1a3,3,0,0,1,3.68-3.07c1.8.46,1.72,3.46,2,5.52.94-1.11,1.81-2.28,2.65-3.48-1.72.16-1.75-1.37-2.24-2.44.13-.62.65-.85.81-1.43a8.59,8.59,0,0,1,.62-2.66c1-.81,4.25-3.22,5.3-.81-.07.74-.69.93-1.22,1.22a2.08,2.08,0,0,0-2-.61c-1.86.85-.63,3.77-1,5.31,2,.11,3-2.42,3.47-4.5,1.51-.1,2.12-1.12,2.86-2.45-3.56-1.37-5.33-4.92-9.8-4.89-.63,0-1.18.52-1.84.61-.5.07-1.09-.26-1.63-.21-2.91.3-6.56,2.85-8.78,4.29a20.92,20.92,0,0,0-6.13,7.55c-3.29,7.52,1.48,15.59,6.54,19.81,1.23-.41,1.49-1.78,2.24-2.66-1.09.34-1,1.84-2.65,1.64-1.62-.95-1.6-4.23-1.23-6.54,1.67-1.51,5.28-.31,6.94.62-.51.7-.57,1.87-2,1.63-.35-.76.12-.33.21-1a11.69,11.69,0,0,0-3.88-.82c-.34,1.79-.77,3.69.61,4.9.74.26,1.24-1.48,2.25-1.63.71.05-.37.9.2.81A105.42,105.42,0,0,0,113.42,153.25Zm-25.32,60c-2.24-2.26-5.61-5.91-5.92-10.41-.23-3.42-.16-7.64,2.86-8.37,2.44,1.3,5.23,3.12,8.17,3.26,2.91-3.94,3.17-10.39,4.49-16.33,2.55-1.34,6.44.24,8.57.61.19,6.35-2.31,12-3.67,18,2.69,1.42,6,1.16,9,2.45-2,7.67-7.27,12.05-15.72,13.27a32.35,32.35,0,0,0,16.74,6.73c-1-4.19-.17-12.21,3.27-15.92a41.26,41.26,0,0,1,5.71-4.9c5.28-3.81,11.21-4.49,18.79-2.86,8.94,2.84,13.74,16.1,8.77,26.14,1.88-.38,2.84-1.66,4.7-2-.38,3.36-5,2.54-6.53,4.7a20,20,0,0,0,9.8-1.84c-2-14-6.18-24.64-9.19-37.56-2.3.35-3.77,1.53-6.33,1.63a24.44,24.44,0,0,1-3.47-5.71c-.5-1.32-.65-3.06-1.63-3.68-2.37-1.49-4.51,1.55-6.13,2.45a27.14,27.14,0,0,1-2.65.82c-4.63-9.15-.35-22.75,11.23-22.46-2.26-9.38-5.32-18-7.76-27.15a21.69,21.69,0,0,0-3.68,4.9c4.95,4.75,5.57,17.7,1.64,24.09-3,3.27-8,7.7-13.88,8.78-5.19.95-7.94-1.37-11.64-2.66-8.48,10.28-18.55,22.31-28.17,32.46-1.25,1.31-3.54,3.65-3.68,5.11-.27,3,2.48,4,4.7,4.9-1.53-1.75-3.94-2.6-3.88-5.93.53-.28.65-1,1.43-1C74.26,211.07,83.57,211.19,88.1,213.27Zm111.67-11.64c-4.86,6.07-11.77,9.31-19.19,12.25-5.59,2.22-10.53,5.46-15.1,8.37-1.43.91-3.22,2.42-5.11,2,7.9-9.31,22.49-11.95,32.87-18.78,2.11-2.93,6.2-5,6.74-8.78-1.39-.23-1.59,1.19-2.25,2s-1.67,1.6-2.45,2.45c-1.45,1.6-2.57,4.29-5.1,4.09A4.75,4.75,0,0,1,193,202c.73-2.26,2.58-3.41,3.67-5.31-4.87-1.93-9.85-3.76-11.23-9.18a20.69,20.69,0,0,0-6.94,8A15.53,15.53,0,0,0,189,202c-3.1,4.71-9,11.29-16.33,11.43-.59,0-1.33-.38-2-.41-1.57-.06-3.24.46-4.69.21a7.85,7.85,0,0,1-5.72-3.68,26.58,26.58,0,0,1-3.06-10c-.48-5.42,2.75-10,3.47-14.49,3.13-1.38,6.68,4,9.8,3.67,2-.22,2.81-3,3.87-4.29a34.21,34.21,0,0,0,2.86-3.26c.76-1.22,1.28-3.61,3.27-3.06-.46,2.18,1.75,5.38,3.06,5.1-.45-3.73-.88-7.92.41-11.23,3.24-8.28,18.25-11.78,26.33-6.53a18.93,18.93,0,0,1,5.93,5.92c.43-2.15.72-4.44,1-6.74,1,0,1.14.9,1.63,1.43-.18-1.34.51-1.44,1-1.43,1.55,0,.63,3,1.22,3.47-.21-1,.47-1.17.41-2-1.12-3.05-4.29-2.7-7.35-4.08-.81-.37-1.43-.89-2.24-1.23-5.85-2.45-11.61-4.84-16.74-6.94a82.42,82.42,0,0,0-11-3.67c-1.62,9.79-7.73,17.39-17.55,18.17-7.09.55-14.15-4.75-16.54-10.62-2.64-6.5.5-13.78,3.06-18.17-6.55-1.61-13.05-3.28-19.6-4.9,2.62,9.24,5.17,17.29,7.76,26.54,7.25.65,10.09,5.7,12.25,11.43-1.61,2-4.6,2.06-7.14,3.88.75,3.61,2.93,6.09,5.1,8.78-.21,1.08-1.32,1.27-1.63,2.25-.37,1.8,1.43,2.15,1,4.9,1.78,2.79,2.43,7.76,2.86,11.22,2.85,7,3.87,14.46,6.32,22.46,4.45-1.55,6.74-5.24,12-5.92,5.91-4,14.5-5.23,19.39-10.21,1.09-.07,1.33-1,2.25-1.22,3.68-4.22,8.47-8.41,11.23-12.86C201.79,196.63,201.45,199.54,199.77,201.63ZM179,141c-2.89-6.85-18-7.67-22.66-2,2.14.56,3.06,1.15,5.1,1.63.52-.9-.3-1.38-.2-2.45,1.75-3.21,6.72.08,5.92,3.06.36.12,1.2-.24,1.22.21.18.77-.67,1-.2,1.43,2.41.31,4.52,2,6.74,1.84a4.15,4.15,0,0,1-1.23-3.07c3.3-3.79,7.27,3,5.72,5.31,1.34-.25,1.57.61,2.65.61C182.25,144.9,180.49,142.54,179,141Zm-15.72-1c.75.27,1.47.57,2.25.82-.26-1.25-1.23-2.86-2.66-2.25C163.24,138.75,163.26,139.33,163.23,140Zm-8.37.2c-4.15,3.88-5.14,14.33-1.43,19.4,3.78,4,7.75,7.57,13.88,6.94,8.41-.87,14.46-8.59,14.91-17.15-1-.26-1.78-.81-2.86-1,1.64,1.2,1.08,6.17-1.84,6.33-.67-1.47-2.46-5.65,0-6.53.59-.47.72.94,1.43,0C170.74,145.22,163.52,142.47,154.86,140.18Zm-40.22,30c3.27-.32,7.25-2.51,9.8-4.69,6.66-5.69,7.22-17.25,2.25-24.91h-.61c-2.14,3-4.75,5.6-6.74,8.78A2.42,2.42,0,0,1,121,150c1.49,2.69-2.77,4.63-4.49,2.45a19.31,19.31,0,0,1-1.84,2.66c1.93-.56,5.53-.88,6.33.2-.16,2.67-2.21,5.64-4.69,5.31-1.55-.21-2.47-2.17-2.86-4.08-2.64,3.68-5.69,7-8.17,10.82C108.38,168.47,110.38,170.61,114.64,170.19Zm63.49-25.31c-.81-1.16-1-3-2.85-3.06C175.53,143.37,176.65,145.87,178.13,144.88Zm-64.51,6.53c1.28-1.09.48-4.76-1.63-4.9A4.63,4.63,0,0,0,113.62,151.41Zm64.92.82c.84-.76.29-2.6-.81-2.66C177.79,151,177.68,151.48,178.54,152.23Zm-59-.21c.3-.92-.78-1.51-1.22-1C118.67,151.41,119,151.87,119.54,152Zm-4.49,5.11c1.2.43,1,2.28,2.45,2.24,1,0,1.84-1.21,1.64-3.06C118.22,155.91,114.78,155.14,115.05,157.13ZM140,178.56c-2.43-.63-5.42-.7-7.76-1.43-.71.22-1.85,1.09-2.45.21,1.34-1.67,5.48-.73,7.35-.82a19,19,0,0,1-7.35-4.49c3.28-1.53,5.72,3.87,9.39,3.27-3.09-2.49-6.37-4.79-8.37-8.37a2.24,2.24,0,0,1,1.63-.41,31.13,31.13,0,0,0,6.33,6.33c-1.12-2.42-2.82-4.26-3.67-6.94.33-.42,1-.48,1.84-.41a46.8,46.8,0,0,0,3.87,6.53c-.38-2.21-1-3.75-1.63-6.53a3.14,3.14,0,0,0,1.43,0,14,14,0,0,0-1-2.66c-3,.67-5.94.42-8.17,2.25-3.84,3.16-4.69,10.8-2.45,16.13,2.95-1.31,6-4.14,9.6-2.45,1.48,2,2,8.43,4.69,9,1.3.27,3-1,4.09-1.84-.91-1.6-.89-3.26-1.64-4.69-.86-1.65-2.7-2.78-2.85-4.9,0-.66,1.21-.15,1-1a15.17,15.17,0,0,0-4.7,1.63,3,3,0,0,1,1.84.41c.29.77-.56.39-.41,1a16.1,16.1,0,0,1,4.49,7.14c-.83-.15-.7.66-1.63.41C142.49,183.37,139.79,180.29,140,178.56Zm3.88-9.8c.49-.93.22-2.63,1.43-2.85,1.61,1.33-.13,4-.82,5.51.4.61.31,1.73,1,2,1.41-1.26,1.34-5,3.06-5.31a9.33,9.33,0,0,0-6.53-4.9C142.7,165,142.87,167.28,143.84,168.76Zm67-.4a19.28,19.28,0,0,0-8.58-3.68c-3-.42-5.76.51-8.57,1.23-3.91,1-7.35,3.6-8.37,6.73-.86,2.64-.35,9.11.41,11.23a31.6,31.6,0,0,0,1.83,2.86c2.23,4.1,6.09,7.48,10.42,8.17,7.68,1.22,10.79-3.79,14.9-7.56.6-2.22,1.57-3.53,1.22-5.92.37-.79,1.26-.14,1.43-.81C215.19,175.5,214,171.07,210.8,168.36ZM179.36,239.6c2-1.14,3.63-2.89,5.51-3.88,1.59-.83,3.4-1.53,5.1-2.24s3.92-.81,5.72-1.63a26.42,26.42,0,0,0,5.92-4.5c2.15-2.09,3.88-5,6.33-7.34s5.25-4.37,7.14-6.74c2.68-3.36,4.18-7.63,6.33-11,1.69-.84,2.1-2.39,3.06-4.08,1.28-2.22,2.55-4.31,3.88-6.53a53.72,53.72,0,0,0,5.31-10.82c1.62-4.53,3.88-10,1.23-13.47-3-1.07-6.46-1-9.39-2.45-.41.75-.42,1.89-1.84,1.63.43,1.59-.7,1.62-1.23,2.24-.83,3.16-.6,6.5-1.63,10-6,9.78-11.12,20.46-19.19,28.17-2.87,5.46-9.11,8.3-14.09,11.23-7.77,4.58-19.12,6.76-25.51,12.45-.71.16-.79-.3-1.43-.2.35,4.65,2,9,2.86,13.67C169.63,245.46,174.79,242.24,179.36,239.6ZM219,167.13c.06-.46-.05-.77-.41-.82C218.6,166.68,218.35,167.34,219,167.13Zm-1.43,9.19c1-2.26,1.86-6.78,1-9C218.83,170.21,215.67,173.13,217.53,176.32Zm-70.63-2.25a7.13,7.13,0,0,0,3.88-1.83c-.76-1.08-1.09-2.59-1.84-3.68C148.76,170.9,147.68,172.34,146.9,174.07Zm70.63,4.29a3,3,0,0,0,.21,2c.39-.74,1.6-2.69,1.22-2.86C218.78,178.11,218.14,178.22,217.53,178.36Zm-42.05,7.76c1.12-1.4,3-2.09,4.49-3.06-.58-.38-.6-1.31-1.22-1.64C178,183.15,175.89,184.69,175.48,186.12ZM100.35,199.8c2.12-4.75,4.13-10.37,4.09-16.13-1.39-.67-4.13-1.51-5.31-.61h1.43c.67,5.76-2,9.44-3.27,14.9-.64-.1-.46.62-1.22.41-.65.09-.16-.94-.62-1-.2.75-.89,1-1.22,1.63.66.09,1.77-.27,1.84.41-.19.63-.69,1-.82,1.63.42-.12,1.34.25,1.43-.2.42-2,2.86,1,3.88.81A4.46,4.46,0,0,1,100.35,199.8Zm74.72-4.7c-.42-.33-.47-1-.41-1.84,2.42-1,3.3-3.64,5.31-5.1-.5-1.07-.68-2.45-1.63-3.06-2,1.69-2.89,4.46-5.31,5.71-.95.2-.28-1.22-1.22-1-.67.63-1.1,1.49-2.05,1.84a30.91,30.91,0,0,0-7.55-4.49c-1.15,3.58-3.38,7.52-2.86,12.45a31.7,31.7,0,0,0,2.66,8.78c1.56,3.22,6.36,3.44,10.2,3.27,4.74-.22,7.69-2.57,10.41-4.5a103.65,103.65,0,0,0-6.12-8.57c.69,2.58,1.18,6.93,3.06,9-.24.58-.87.76-1.22,1.23-2.66-.95-1.83-5.39-3.47-7.35-.44,2.76-1.35,5.81-1.43,8.78-.71.08-1.42.75-1.84,0,.35-3.37,1.7-7.44,1.43-10.41a62.08,62.08,0,0,1-2.86,5.71c-.95,1.9-1.63,4.25-3.67,5.1-.06-.41-.56-.4-.61-.81,2.06-3.25,4.46-7.24,5.51-10.82-2.49,2.82-4.45,6.17-8.17,7.76-.09-.39-.44-.52-.41-1,2.36-1.38,4-3.49,5.72-5.51-2.4.08-4.76,2.43-6.53,1.23,2.64-1.84,7-2,9-4.49-.91-.37-2.16.07-3.47.2-1.94.2-4.36,1-5.11-.2,1.61-1.33,5.05-.61,7.35-1.64-1.39-.23-2-1.28-3.47-1.43-1-1.56-3.83-1.34-4.28-3.47,1.53-1.66,2.28.24,3.47,1,2.13,1.41,5.62,2.44,7.35,3.07-1,.77-.45,1.28-.21,2,.86-.31,2.17.69,3.06,1a18.16,18.16,0,0,0,1.43-4.08c2.4-1.69,3.78-4.39,6.13-6.13.07-2.05-2.68-4-3.27-3.06s1.27,1.78,2.65,1.84A33.3,33.3,0,0,1,175.07,195.1Zm-77-6.12c.27-.87,1.09-3,.41-3.48C98.65,186.8,97.91,188.29,98.11,189Zm-.61,3.87c.14-1.11.93-2.69.4-3.26C97.68,190.53,96.61,192.07,97.5,192.85Zm-68.6,4.5C27.41,196,26.47,193,25.23,192,26.07,193.28,27.45,196.73,28.9,197.35Zm179.45-2.45c-2.71,3.45-5.41,7-8.37,10.2-1.58,1.73-4.08,3.93-6.13,5.72-4.07,3.56-9.18,5.47-14.7,8-3.56,1.61-9,3.77-12,5.72,1.91-.41,4.74-1.8,7.14-2.66a99.67,99.67,0,0,0,19.19-9.18,35.32,35.32,0,0,0,7.35-7.35c3.53-4.49,7.51-8.75,10.42-13.48C209.86,192.38,209.18,193.83,208.35,194.9ZM90.15,209.8c.38-1.87,1.51-4.07,1.63-5.51-1.19.44-2.66,2.08-3.88,1.22,1.36-1.7,4.33-1.79,5.31-3.88-2.1-.93-6.52.86-8.17-1.22,2.06-1.06,5.46.2,7.76-.41a67.57,67.57,0,0,0-8.17-3.06,13.41,13.41,0,0,0,2.05,11.63c2.77,3.66,6.94,7,12.24,5.11s9.23-4.54,10.21-10.21c-2-.92-4.93-1-6.73-1.23,1.34,1,3,1.75,4.08,3.07-2.11,1.72-3.84-1.56-5.51-2.25.82,2.38,3,3.4,3.88,5.72a3,3,0,0,1-1.43.61c-1.71-1.83-2.88-4.2-4.5-6.12.77,2.61,1.92,5.3,2,8-.37.18-.52.57-1.23.41,0-.16-.17-.24-.41-.21a9.61,9.61,0,0,0-1-4.49c-.2,2.4.69,5.86-1.63,5.72-.18-2.46.23-6.57-.41-9.6-.69,2.3-.19,5.8-1.43,7.55-.77.11-1,.29-1.43-.2.84-2.11,1-6.43,1-7.55C92.56,204.6,93.42,210.14,90.15,209.8ZM143,202.45c-2.68-2.2-10.16-3.28-14.29-2.65s-9.33,4.82-11.43,7.14-3.18,6.57-3.47,10.62c-.25,3.44,1.79,7.12,3.47,9.18,2.5,3.08,6.61,6.31,12.25,5.31-1.56-.72-3.73-8.75.61-8,3.11.57,5.37,4.82,3.06,7.76,1.67-.3,4-.33,4.7-1-.63-1.37-1.46-3.14-1-4.7s3.23-3.25,4.28-3.27c2.27,0,2.85,2.39,2.86,5.11C151.91,222.59,149.87,208.08,143,202.45Zm41.24,3.06a6.59,6.59,0,0,0,2-2.65c-2.82.34-5.08-2.66-7.15-3.06C181.14,201.41,182.13,204,184.26,205.51ZM151,230.83c-2.07.34-5.83,1.59-7.76,1.83-1.35.17-3.88-.28-5.3,0-1.15.23-1.84,1.2-3.07,1.43a36.7,36.7,0,0,1-6.12.21,29.5,29.5,0,0,1-8.78-1.23c-1.59-.51-2.84-1.7-4.29-2.24-2.78-1.06-5.74-1.09-8.77-1.64-7-1.27-14.78-4.27-18-9.18-2.5-1.19-4.72-3.27-7.76-4.5-4.13-1.67-9.12-2.6-10.61-6.32-1,.64-1.2-.49-2-.62-1.28.46-1.34,2-2.45,3.07-.48.46-1.19.44-1.64.81-1.38,1.14-2.39,3.27-1.63,4.9-.68.67-1.1,1-1.84.21.44,1.46,1.29,2.52,1.43,4.28,3.1,2.13,5.88,5.49,9.39,6.54.74,1,1.94,1.46,2.66,2.45,5,1.39,8.18,4.6,12.86,6.32,3.29,3.45,9.5,4,13.27,6.94,7.25,1.5,13.84,5,21.43,5.11,3.44.05,7,.12,10.62,0,1.44,0,2.85-.62,4.29-.61,1.76,0,3.7.89,5.51.81,5.18-.22,11,.56,15.31-1.84,1-.53,1.53-1.61,2.65-1.83,1.71-4.48-1.67-9.71-2-14.7C157.56,230.13,153.43,230.42,151,230.83ZM91.37,220v.81c6.11,5.4,17.45,6.64,26.13,8.78a5.65,5.65,0,0,1-2-2.45c-.56.12-.72.64-1.43.61-1.61-.81-5.56-.57-7.35-1.83a13.09,13.09,0,0,1-4.08-.62,32,32,0,0,1-10.21-6.53c-.5-.54-.44-1.2-1-1.63s-1.05-.16-1.63-.41c-2-.88-3.78-2.39-6.13-3.06s-4.74-.87-6.94-1.84C81.91,214.23,87.45,216.3,91.37,220ZM58.3,214.29c.63.71-.7.64-.2,1,1-.08,2.3-2,1.83-2.25C59.46,213.54,59.26,214.3,58.3,214.29ZM101,222.86c5.15.81,8.3,2.38,13.27,2.66a11.65,11.65,0,0,0-1.43-2.66c-1.56,2.41-6.23.07-9.39-1a27.17,27.17,0,0,1-9.4-5.3c0-.56-.34-.42,0-.82-.68.19-1.39-.63-1.83,0A47.58,47.58,0,0,0,101,222.86Zm39.6,2.45c-.22-.19-.06-.75-.61-.61-1.67.45-1.32,3.38-.82,4.9.51.27.85-.6,1,0a1.7,1.7,0,0,1-.61,1.23c1.29,0,1.87-.72,2.65-1.23.24-1.53.42-3.5-.41-4.49C141.3,224.59,141.36,225.54,140.57,225.31Zm-76.15,1c0-.49-.71-1.3-1-.81C63.88,225.66,64,226.2,64.42,226.33Zm66.35,4.5c1.71-.13,2.07-1.61,1.84-3.68-1.91.14-2.06-1.47-3.47-1.84A6.27,6.27,0,0,0,130.77,230.83Zm22-1.84c1.45-.26,4.39-.1,4.08-1.43A16,16,0,0,0,152.82,229Zm-9,2c1.55-.82,4.24-.52,5.51-1.63C146.5,229.09,144.91,229.29,143.84,231Z"/><path class="cls-1" d="M128.73,9.94c7,1.44,19.6,3.17,26.34,4.49,1.45-.49,3.8-.09,5.51.2,10.07,1.75,20.31,5.68,28.78,9.6,3,2.45,7.12,4.16,10.62,6.33-2.56-.72-4.84-1.48-6.33-2.86-4.49-1.61-8.84-3.91-13.48-5.92-10.21-4.43-21.39-6-34.7-7.55-4.39-.5-9.57-2-13.68-2.86C130.27,11.05,128.9,11.88,128.73,9.94Z"/><path class="cls-1" d="M160.37,12a7.68,7.68,0,0,0,1.43.41C161.76,12.61,160.29,12.56,160.37,12Z"/><path class="cls-1" d="M25.84,69.14c-1.07-.24.48-.89.61-1.22-.18-.6-.3-.23-.81-.21,3.14-7.75,9-12.86,14.29-18.58,3.2-3.48,6.47-6.77,9.39-10.61a3.15,3.15,0,0,1-.82,1.84c0,.23.21.11.2,0,.24,0,.12.2,0,.2-.84,2.22-2.94,3.18-3.67,5.51-2.83,2.52-5.07,5.52-7.55,8.37-2.67,3.06-6.79,5.15-8,9.6-1.36.2-.83,2.29-2.24,2.45A3.31,3.31,0,0,1,25.84,69.14Z"/><path class="cls-1" d="M214.68,41.79c4.38,2.08,6.45,6.47,9.59,9.79-.3.73.66,1.23.2,1.43.79,1.12,2.11,1.71,2.45,3.27,4.11,3.45,3.33,9.32,8,12.25,1.89,6,6.32,9.46,8.16,15.92a10.16,10.16,0,0,0,1,.82c.12.45-.39.29-.41.61.3.23.5.22.62-.2-.08,1.29,2.19,2.81,1.63,4.08a31.67,31.67,0,0,1-4.7-7.76c-8.44-11.63-14.64-25.5-23.47-36.74C216.61,44.32,214.69,43.16,214.68,41.79Z"/><path class="cls-1" d="M205.69,81c.09-.4.59.34.41-.61,2.5.47,3.42,2.84,4.9,4.69.67.84,1.67,1.37,2,2,.56,1,.64,2.46,1.23,3.67a27.85,27.85,0,0,1,2.24,6.33c.62,2.74,2.54,5,3.68,7.35.19.39,0,.87.2,1.22.7,1.42,1.68,2.72,2.45,4.09s1.38,2.85,2.25,4.28c.15,3.1,1.5,6.09,0,8.17-.83.08-.23-1.27-.41-1.84-1-8.3-6.15-13.26-9-20.62-1.37-3.56-2.27-7-3.68-10.2A21.17,21.17,0,0,0,205.69,81Z"/><path class="cls-1" d="M257.34,122.83c.1-.35,1.07.14.82.82C257.84,123.42,257.66,123.06,257.34,122.83Z"/><path class="cls-1" d="M70.34,141c-4.84-4.09-1.2-12.82,2.45-16.13,1.49-1.35,4.12-2.29,4.49-4.69a1.67,1.67,0,0,0,1.23-.41c5.12,6.38,2.68,18.78-4.9,21.43C72.25,140.44,71.29,141,70.34,141Zm8.17-12.25C75.43,130.63,77,138,72,137.33c-.4-1.76-2.2-3-1.23-4.5,1.45.6,1.83,2.26,2.86,3.27-.2-1.88-1.73-4.09-2.86-5.71-1.65,2.66-.92,6.77.82,8.77,1-.17,1.7.34,2.65,0,1.61-.56,4.7-4.31,5.11-7.35.46-3.44-.24-8.14-1.64-9.39C75.93,124.2,78.17,126.64,78.51,128.75ZM73,126.91c.26,1,.43,1.17,1.43,1.64a5.75,5.75,0,0,0-1-2C73.36,126.73,73.18,126.82,73,126.91Zm1.84,6.33c-.6-1.78-1.1-3.64-2.66-4.9C72.13,130.12,73.58,132.1,74.84,133.24Z"/><path class="cls-1" d="M256.32,126.51a41.4,41.4,0,0,1-.41,14.69c1.34,2.58-.74,5.89-1.22,9-.11.69.12,1.4,0,2s-.64,1.33-.82,2c-.71,2.89-1.2,6.25-2.24,9-.14.35-.7.65-.82,1-.42,1.39-.41,2.78-.82,4.09-.58,1.89-1.35,4.15-2.24,6.33-.35.85-1.05,1.54-1.43,2.44-.27.64-.14,1.46-.41,2.05-.19.42-.82.78-1,1.22-1.17,2.6-2.24,5.37-4.08,7.35-.77-1.52.94-4.35,2.24-7.14.89-1.92,2.15-4,2.86-5.72,1.7-4.16,2.79-9.28,4.7-14.29,2.56-6.75,3.27-13,4.9-20.21.05-.27-.37-.87,0-.41.73-.59.05-.5-.21-.61C255.85,134.84,255.58,131.06,256.32,126.51Z"/><path class="cls-1" d="M134.45.34c12,1.74,25.06,3,35.72,6.13,1.63.48,3.2,1.45,4.9,2,8.15,2.81,15.46,6.92,22.25,11,2.76,1.67,5.79,3.11,8.17,4.9,4.23,3.19,8.12,6.66,12.66,9.19.45,1.38,2,1.69,3.06,2.65.65.61,1.1,1.7,1.84,2.45,1.91,2,4.2,4,6.12,6.13,2.79,2.92,4.32,6.57,6.53,9.8,1.11,1.61,2.43,3,3.47,4.69,1.94,3.11,3.85,6.23,5.92,10,.48.87.92,1.68,1.43,2.66.34.64,1.48,1.59,1.84,2.24s.28,1.59.61,2.25a52.76,52.76,0,0,1,4.49,11.84c1.37,2,1.65,5,3.07,6.94.78,9,5.72,17.12,5.71,25.93,0,1.2-.35,2.27-.41,3.47-.15,3.51.2,6.71-.4,10-.28,1.5-.17,3.91-.41,6.33s-1,4.89-1.43,7.35c-.4,2.15-.78,4.1-1,6.12-.09.73.12,1.53,0,2.25s-.86,1.6-1,2.45,0,2-.21,2.86a65.53,65.53,0,0,1-2.45,7.75c-2.13,6-4.35,12.14-6.73,17.36-1.61,3.52-3.6,7-5.52,10.41a108.34,108.34,0,0,1-5.92,10c-4.47,6.36-10.11,11.47-14.29,17.56-3.31,1.79-4.54,5.67-8.16,7.14-4.09,4.69-9.51,8.06-14.5,11.84-4.69,1-6.94,4.36-11.43,5.52-8.71,4.2-19.09,8.61-30.42,10.82a122.31,122.31,0,0,1-24.09,2c-3.3,0-6.68.22-10,0s-7-.67-10.62-1-7.65-.4-10.81-1.23c-2.5-.65-5-1.68-7.56-2.45s-5.41-1.21-8-2c-6.39-2.07-12.49-4.15-17.35-7.14a39.71,39.71,0,0,0-9.19-4.29c-5.86-4.86-12.74-9.16-18.37-14.9-2.81-2.87-5.55-5.65-8.17-8.58-3.88-4.34-7.47-8.88-11-13.68-1.13-1.52-2.24-3-3.27-4.69-2-3.21-4.4-6.34-5.92-9.8S11,185.59,9.51,182a110.49,110.49,0,0,1-3.88-10.61,120.53,120.53,0,0,1-2.45-12c-.74-3.89-1.69-7.74-2.45-11.63C-.39,142,.16,136.94.32,131.81c.12-3.58-.59-7.2-.2-10.82a74.29,74.29,0,0,1,3.67-18c1.09-8.89,4.44-17.16,7.55-24.91a172.1,172.1,0,0,1,9.4-19c1.29-2.3,2.8-4.25,4.28-6.54A96,96,0,0,1,38.91,35.66c1.35-1.31,2.59-3,3.87-4.08,1.85-1.52,4.16-2.67,6.13-4.08,3.74-2.69,7.15-5.43,11.63-8.17A64.56,64.56,0,0,1,73.41,12.8c4.42-1.57,8.29-3.38,12.86-4.9C91.91,6,97.73,3.82,103.82,2c2.15.68,4.46-.64,6.33-1,3.07-.64,7.18-.43,10.62-.82C125-.33,130.27.57,134.45.34ZM258.77,112.62a189,189,0,0,0-10.41-33.27c-3.31-7.88-7.79-14.45-12.25-21-2.54-3.75-5-7.48-7.14-11.23C218.52,35.38,205.66,26,191.4,17.9,184,13.69,176.59,10,168.33,7.69c-10.3-2.83-23.61-4.62-33.88-5.3-2.67-.18-6.06-1-8.58-.82-6.77.61-14.18.21-18,2.65a6.2,6.2,0,0,0-3.68-.2c-6.58,1.17-12.89,4-19,6.12s-12,5-17.76,7.35c-1,0,.09,1-1,1A66.79,66.79,0,0,0,56.87,24c-1,.71-1.88,1.63-2.86,2.25s-1.84.6-2.65,1.23c-2,1.53-3.83,3.3-5.92,4.89A66.31,66.31,0,0,0,34.62,43.21c-1.65,2-3.6,3.92-5.11,5.92s-2.42,4.26-3.87,6.33a113.79,113.79,0,0,0-11,20A159.61,159.61,0,0,0,8.9,90.58c-1.66,5.06-3,10.69-4.5,16.33a87.8,87.8,0,0,0-2.85,16.74c-.27,5.68.79,11.19,0,16.94,2.59,12.9,4.12,26.58,8.77,38.59.6,1.53,1.46,2.95,2,4.49,1.87,4.9,3.45,9.88,5.92,14.08,1.13,1.94,3.09,3.37,3.47,5.72,8.51,8.9,14.78,19.37,24.09,27.15,1.77,1.48,3.8,2.63,5.51,4.08s3.45,3.15,5.1,4.5c4.92,4,11.83,6,16.74,9.59,11.25,4.32,24.23,8.94,37.36,10.41,4.45.5,9,1.37,13.47,1.63a140.45,140.45,0,0,0,19.4-.61c15-1.22,27.22-5.1,38.58-9.39,1-.26,0-1.23.82-1.43,6.57-1.68,13.26-5.4,18.37-8.77.8-.53,1.75-.76,2.45-1.23,1-.7,1.9-2,3.06-2.86A106,106,0,0,0,228,215.31c.84-1.12,2-2,2.85-3.06a143,143,0,0,0,12-18.38c5.49-9.51,9.57-20.93,12.45-32.25-.06.18-.41,1-.61.41C259.66,146.41,262.23,129.36,258.77,112.62Z"/><path class="cls-1" d="M93.21,249.2c-.56-.15-.41.4-.82.41C85,248,79.52,243,73,239.81c-4-3.74-9.27-6.25-13.68-9.6-2.45-3.06-6.56-5.55-7.15-9.8,2.27.52,2.82,2.77,4.09,4.29,4,4.79,9.72,7.44,14.29,11.23a4.33,4.33,0,0,1,3.26,2.24c5.6,3.12,10.74,6.69,16.54,9.6.44-.46.7.17,1.43,0,.51,1.33,1.64.8,2.86,1.43-.94.55.63,1.15,1.43,1.22.06-.53-.29-.67-.82-.61.22-.47,1.28-.08,1,.61C95.4,250.63,93.46,250.28,93.21,249.2Z"/><path class="cls-1" d="M184.26,42c.84,0,1.73-2.29,3.47-1.43-1.18,1.81-3.15,2.84-2.86,6.13-.67,0-.78.58-1.63.4a5,5,0,0,1,.41-3.67c-.54-.15-1.32,2.16-2.66,1.22.64-2,2.22-3.09,3.06-4.9.27.21.76.2,1,.41A3.08,3.08,0,0,1,184.26,42Z"/><path class="cls-1" d="M179.56,59.14c2,2.57,1.2,6.82-2,7.76-.64-.79-1.94-.92-1.84-2.45.65-.1.72.36,1.43.2C177.85,63.14,176.31,58.89,179.56,59.14Z"/><path class="cls-1" d="M165.48,58.73c2,2.49.17,5.67-1.64,7.55a6.19,6.19,0,0,1-5.3-5.51C159.85,58.56,163.14,59,165.48,58.73ZM163,64.65c-.42-.53-.49-1.38.2-1.63.55.12.51.85,1.23.81a3.82,3.82,0,0,0,.2-3.06,6,6,0,0,0-4.49-.2C160.21,62.71,162.05,64.13,163,64.65Z"/><path class="cls-1" d="M77.28,95.07c-2.83-.55-5.91-1.78-9-1.43a32.37,32.37,0,0,0,2.25,10.21c-1,3-4.68,2.57-8,1.83-.67-.51-.55,1.12-1.64.82-1.91-2.72-2.38-6.87-3.26-10.62-3.26-1.76-5.39,3.11-8.37,2.25S48,89.23,48.91,86.7c2.33-6.24,8.19-10,16.94-9.8A15.31,15.31,0,0,1,73,79.35c0,.84.91.38.41,1.22C77.49,82.53,81.48,90.41,77.28,95.07ZM63.2,78.94c.41.06,2.12,0,1-.2-.45,0-2-.11-1.23.4C63,79,63,78.9,63.2,78.94Zm3.88,0c-.14-.16-1.14-.45-1.23,0C66.21,78.88,66.87,79.52,67.08,78.94Zm6.73,4.7c.35,1.08,1.92,2,.62,3.06-2.7-2.33-5.12-6.08-9.6-6.54-1.8-.18-3.07.32-4.69.21.21-1,1.66-.79,2.24-1.43-9.88-.54-14.76,9.65-12.25,17.15a25.23,25.23,0,0,0,5.51-2.25c-.87.15-2.26.08-2.65-.81.95-2,4.09.42,5.31-.41-1.91-1.09-4.22-1.77-4.9-4.09.47-.2.66-.7,1.43-.61,1.14,1.52,3.11,3.28,5.1,3.27-2.41-1.81-4.87-3.57-5.31-7.35.48-.48.66-1.25,1.84-1-.55,2.82,1.8,5,3.27,5.71-.73-1.2-2-7.88,1.43-6.94-1.14,1.77-.5,4.76.41,6.54,1-2.56,1-6,4.28-6.33C64.58,83.66,63,86.25,63,88.74c1.16-2.39,2.23-4.86,5.31-5.31-.83,2.16-3.21,2.77-3.67,5.31,2.23-.7,3.79-3.15,6.33-2.86-1.84,2.32-5.07,3.23-7.15,5.31,3.31-1.13,7.44-3.57,11-3.06-2.21,2.6-6.94,1.9-10,4.08,1.41,2.94,1.77,7.62,2.66,11-.39.09-.37.59-1,.41-1.64-2.9-1.84-8.18-2.86-11-1.64-.07-.36,1.53-1.64,1.84-.57-.48-1.27.23-2.24,0a17.15,17.15,0,0,0,2.45,9.79c1.71-1,4.43.81,6.12,0,0-3.62-3.64-8.43-1.43-11.84,1.67-2.57,7.45.3,10.21.41C78,88.48,75.59,85.93,73.81,83.64Zm-5.3-4.09c-.18-.3-.66-.29-1-.41C67.26,80.13,69.07,79.54,68.51,79.55ZM73.61,83c-1.11-1-3.06-3.18-4.08-2.86A40.63,40.63,0,0,0,73.61,83Z"/><path class="cls-1" d="M146.49,85.88c0,.79,1,.62,1.43,1-.35,1.14-1.54.85-2.45,1-1.85-2.23-5.42-2.74-8-4.28.27-1.36,2.81-.82,3.47-.21-.61-1-3.74-4.61-.41-5.51-.49,2.48,1.68,3.65,2.45,5.51-.11-1.66-2.47-7.2,1.63-6.94-1.57,1.82-.74,4.6.21,6.53,1.06-2.48,1.14-5.93,4.49-6.12A10.46,10.46,0,0,0,146.49,83c2.18-1,3.26-4.21,6.12-3.88a2.94,2.94,0,0,1-.81,1.64c-1.93,0-3.28,2.12-4.49,3.47,1.8-.39,4.15-3,6.73-2.66-1.21,1.92-3.86,2.4-5.92,3.47,2.48.71,6-.44,7.35,1,.2.87-1,.35-1,1C152.41,86.09,148.26,87.17,146.49,85.88Zm-.41-1.43c0,.16-.17.24-.41.21.07.47.21.88.62,1,.05-.31.87-.86.4-1C146.5,85.33,146.29,84.43,146.08,84.45Z"/><path class="cls-1" d="M137.51,116.71c-.82-.14-1.17.19-1.84.2a1.9,1.9,0,0,0,1.84,1.43c-.38,1.86-1.09,6.34-3.88,5.92-.68-.1-1.12-1.27-1.84-2-2-2.17-1.78-5.91,3.27-5.72-3.2-1.38-2-8.48,2.86-7.14a3.9,3.9,0,0,1,1.83,3.47C139.59,114.54,138.13,115.26,137.51,116.71Zm-2.66-3.07c.84.39,1.78.68,2.66,1a4,4,0,0,0,0-3.47c-1,.12-1.31-.47-2-.62C134.87,111.31,134.86,112.89,134.85,113.64ZM132,119.57c1.46.51,1.14,2.79,2.65,3.26.09-1.34,1.52-2.42,1-3.67,0,.44-.72.09-1,.2-.26-.49-.26-1.23-.61-1.63-.63.15-.75-.21-1.23-.21C132.48,118.14,131.91,118.53,132,119.57Z"/><path class="cls-1" d="M193.65,116.91c-.11,1.39-1.46,1.54-2,2.45,1.91,6.63-8.72,3.74-5.52-1.22a18.49,18.49,0,0,1,2.66-1.23,1.79,1.79,0,0,1,.41-1.63c-.94-.19-1,.51-1.84.41-.92-.51-.9-2-1.63-2.66.3-4.25,7.4-3.61,9.59-1.63-.89,1.89-4.05,1.53-5.1,3.27.24.37,1.06.16,1.43.4.64,1,.16,1.69-.21,2.66,1.28.32,1-.93,1.64-1.23A.56.56,0,0,1,193.65,116.91Zm-6.13-5.31c-.41,4.86,3.89,1.32,4.9,0C190.71,111.72,188.89,110.59,187.52,111.6Zm0,7.15c-1.35,1.56.42,3.29,2.45,3.27C191.08,120.3,189.65,118.8,187.52,118.75Z"/><path class="cls-1" d="M48.5,127.53c1.85-1.11,3.75-.36,4.08,1.63-.67,3.45-5.81,2.2-6.73-.2C46,127.85,47.9,125.57,48.5,127.53Zm2.25,2.24c.29-1.53-1.8-.78-2.25-1C48.74,129.61,49.86,129.57,50.75,129.77Z"/><path class="cls-1" d="M219.17,142.43c-1.62-.9-2.82-2.22-5.72-1.84-.59,4.44,1,8.71.21,12.86a15.44,15.44,0,0,1-8.17-1.22c-.76-4.25.36-8.47-.41-12-2.27-1.85-4.06.55-5.92-.2-1.31-.53-2.15-3.41-1.84-5.72.46-3.37,5-7.77,8-8.78,6.7-2.29,13,2,15.92,6.54C222.64,134.87,222.53,140.73,219.17,142.43Zm-15.31-8c-.36-.67-1.21-1.22-.82-2,1.87,0,2.48,2.38,4.29,3.06-.8-1.93-2.15-3.3-3.07-5.1a1.55,1.55,0,0,1,1.84-.62,23.14,23.14,0,0,0,3.68,6.74,18.79,18.79,0,0,0-2-7.55c2.81-1,2.64,2.64,3.26,4.49,1.73-.93-.35-3.25-.2-3.88a2.79,2.79,0,0,1,1.63-.41c1.09,1.17.81,3.18.2,4.7,1.11-.41,1.06-2,1.84-2.86.89.15,1.27-.08,1.64.81-.79,2.28-3.1,3-4.29,4.9,2.1-.21,3.24-2.47,5.51-1.83-1.07,1.72-3.23,2.34-5.51,2.85.22.77-.51.59-.41,1.23a16.75,16.75,0,0,1,8,1.22c3.33-8.54-6.61-15.77-13.88-13.27-3.24,1.12-8.56,7.1-5.31,11.23,2.19-1.11,4.49.46,6.53.41-1.14-2.12-4.29-2.24-5.51-4.29.29,0,.35-.33.61-.4C202.55,133.88,203.38,134.87,203.86,134.47Zm3.47,4.69c.49,4.15-1.05,8.79.81,12.46a15.9,15.9,0,0,1,3.47.2c.61-.63-.2-2,.21-2.45-.76,0-1.34.81-1.84.41.16-3.6-1-7-.41-9.8-.89.14-.43-1.06-1-1.23C208.36,139.11,207.91,139.21,207.33,139.16Zm2.45.82a1.32,1.32,0,0,1,1,.2c-.13-.36.6-.84,0-1C210.64,139.61,209.84,139.43,209.78,140ZM211,143c-.16,2.18.84,1.81,0,0Z"/><path class="cls-1" d="M47.68,195.51c-.55.39-.78,1.12-1.43,1.43-.41.07-.63,0-.61-.41a27.58,27.58,0,0,0-2.86,2.86c-1.83-1.32,1.67-3.56,2.45-4.9.68,0,1-.35,1.84-.21C47.25,194.71,47.69,194.89,47.68,195.51Z"/></g></g></g></svg>