<svg xmlns="http://www.w3.org/2000/svg" viewBox="0 0 229.59 293.88"><defs><style>.cls-1{fill:#231f20;fill-rule:evenodd;}</style></defs><g id="Layer_2" data-name="Layer 2"><g id="Graphics"><path class="cls-1" d="M136.25,277.14a.65.65,0,0,1,.2-.83,66.13,66.13,0,0,1,12.83,2.45c-.22.59-2.31.56-2.51-.28-.26.21-.52.42-.36.65C143,278.12,139.6,278.5,136.25,277.14Z"/><path class="cls-1" d="M107.35,209.06c-.18.16-.34-.09-.5-.19-3.55-5.5-2.58-10.73-6.45-16.6-.3-4.05-3-7.12-4-10.78-.13-.45.32-1,.24-1.5-.48-2.82-3-6.73-4.4-10.12-.52-1.27-.44-2.72-1.65-4.28.51-.37-.48-.81.23-1.17a29.65,29.65,0,0,1-3.5-7.73c7,12.47,10.44,25.55,16.18,38.24-.46.49.54,1-.24,1.5C105.52,200,106,205,107.35,209.06Z"/><path class="cls-1" d="M136.38,238.49c-.17.16-.33-.09-.49-.19-7.65-13.75-10.42-26.22-14.48-38.83,1-.07,1.75,2,1.38,2.93,1.84,3.78,3.93,7.58,4.17,11.28C130.29,222,133,230.21,136.38,238.49Z"/><path class="cls-1" d="M146.05,225.84c1.26.51,1.9,3.74,2.27,5.32,5.42,8.47,7.73,15.77,13.66,24.17.33.24.16.45,0,.67-3.68-4.74-9.24-10.56-10.68-16-.1-.38-.3-.49.2-.83-2.06-1.81-1.69-4.86-4-7.24C147.33,229.93,146.11,227.86,146.05,225.84Z"/><path class="cls-1" d="M184.69,265.47c2.71-.23,5-2.21,7.78-4.51.27-1.33-.94-2.73-.82-4.07-.42-.47-1-.94-.94-1.39-.65-5.35-4.64-10.86-5.46-16.22-.9-1.74-3-4.95-3-7.2-1.65-1-1.79-3.2-3-4.68.73-.3.17-.66.38-1-2.32-3.23-3.41-7-5.85-11.37,1.67,1.4,3,3.85,4.09,5.91,2.52,4.58,4,9,6.09,13.39,4.11,8.39,8.06,16.95,9.23,25.31,3.73-1.87,6.13-9.42,9.64-12,.71,1-.39,1.45-.78,2.31-2.61,5.85-8,14.76-15.58,16.75-.12.17-.23.08-.33,0C185.64,266.71,185.18,266,184.69,265.47Z"/><path class="cls-1" d="M87.13,156.52c-.29-1.3-1.46-1.9-1-2.91C86.66,154.59,87.81,155.6,87.13,156.52Z"/><path class="cls-1" d="M107.33,177.3c-1.87-4-3.27-8.74-6-12.21.25,0,.5-.08.35-.32-1.88-3-3.64-9.67-6.91-13.94,0-3.85-3.68-9.49-5.19-14.87,1.71,2.81,3.33,7.66,5.54,11-.06,2.07,1.51,3,1.44,5.11,2.19,3.34,3.19,6.21,5.42,9.83,1,2.76,2.49,6.69,4.06,10.11C106.87,173.78,108.46,175.58,107.33,177.3Z"/><path class="cls-1" d="M85.93,153.44c-.7.32-.23-.65-.47-.86C86.16,152.26,85.92,153.24,85.93,153.44Z"/><path class="cls-1" d="M166,216c7.39,13.31,17.41,25.94,19.8,40.09a1.17,1.17,0,0,1-.37.66c-.42,0-.32-.22-.48-.53,0-5.37-5.25-11-5.49-15.55-2.77-3.37-3.9-8.07-7.5-12.12.92-.59-.7-.24.21-.83-.92-.78-.81-1.62-1.77-1.6C170,222.82,166.05,219.33,166,216Z"/><path class="cls-1" d="M55.3,104.27c-.8-3.32-2.79-8.19,1.32-10.19C55.47,97.44,56.27,100.9,55.3,104.27Z"/><path class="cls-1" d="M196.31,254.25c.28-2.67-1.13-5.43-1.3-8.13-.26-.33-.55-.17-.81-.54a79.37,79.37,0,0,0-5.46-16.22c.15-.44-.17-.91.07-1.34-.94-1.33-1.81-2.66-1.33-3.93-2.78-1.11-2-5.09-3.92-6.07-1.39-3.91-2.36-6.83-5.21-10.66.21-.43-.36-.64.37-.66-2.51-1.78-2.08-4.62-3.71-6.89-5.3,2.35-10.4,8.34-13.7,12.46-1-3.87,3.5-7,6.85-9.76a33,33,0,0,1,6.4-3.9c.29-.73-.49-.54-.27-1.36.59-.2,1.61,1.57,1.39,2.59,3.24,5.93,7.18,12.67,10.21,18.63,1.1,2.14,1.7,5.24,3,7.54a23.06,23.06,0,0,1,2.43,5.49c.95,3.1,2.91,6.72,4,10.78C196.44,246.16,198.45,251.89,196.31,254.25Z"/><path class="cls-1" d="M168.71,219.34c-2-3.81,3.94-9.85,8-9.2A24.59,24.59,0,0,0,168.71,219.34Z"/><path class="cls-1" d="M80.15,118.88c-.91-.77-.33-1.47-.4-2.2.63-.13,1.26-.59,1.84.25C80.68,117.56,80.94,118.25,80.15,118.88Z"/><path class="cls-1" d="M139,176.43c-.31-.26-.11-.72-.48-.52a26.11,26.11,0,0,1,13.68-12.13c-.11,1.48-2.47,2.25-4.2,3.5a26.57,26.57,0,0,0-6.49,5.91C140.62,174.28,140.57,175.94,139,176.43Z"/><path class="cls-1" d="M18.39,38.33c.49-.69.92-.48,1.38-.6-.48,1.6,1.73,3.33.61,4.9C18.48,42.16,19.23,39.78,18.39,38.33Z"/><path class="cls-1" d="M135.62,168.88c.69-3.56,8.17-13.85,12.72-13.18,0,1.29-1.64,1.29-2.44,1.9-4.13,3.12-6.27,7.52-9.63,11.65C136.06,169,135.85,168.72,135.62,168.88Z"/><path class="cls-1" d="M22.29,34.15c0,1.57.44,3.16.11,4.71C20.2,39.69,20,34.18,22.29,34.15Z"/><path class="cls-1" d="M133.91,162.41l-.32-.35c.5-5.23,5.75-9.32,10.27-11.28-.06,2.13-3,2.82-4.58,4.49C137.23,157.41,136,160.38,133.91,162.41Z"/><path class="cls-1" d="M130.23,158.38c-.23-.41,0-.79-.45-1.2,1.61-2.67,3.75-4.31,6.67-6.07,1.92-1.16,3.88-3.14,5.66-2.26-.71,1.32-3.63,2-6.07,3.92a24.43,24.43,0,0,0-5.12,5.3C130.68,158.38,130.46,158.18,130.23,158.38Z"/><path class="cls-1" d="M127.51,155.39c-.33-.87,0-.66-.76-1.55a19.32,19.32,0,0,1,4.51-6.68c1.9-1.92,4.37-4.48,6.13-5.25.46-.2,1.5-.66,2,.09-.18.1-.1.22,0,.34-3.32,3.59-10.08,8.16-11.35,12.57C128,155.33,127.83,155.23,127.51,155.39Z"/><path class="cls-1" d="M73,78.55c3.25,3.17,5.41,7.64,7.85,11.79s5.29,8.42,7.13,12.77c1.39,3.27,2.65,8.32,5,11.83-.11.17,0,.34-.19.5-.54.5-1.6-1.69-1.07-2.24a31.07,31.07,0,0,1-3.45-5.2c-.59-1.12-.47-2.46-1-3.58-.46-1-1.55-1.69-2.06-2.61-1.87-3.41-3.11-7.5-5-10.83-.91-1.58-2.79-2.42-2.48-4.48-1-.14-.82-1.4-1.77-1.6C76.35,82.64,72.94,80.31,73,78.55Z"/><path class="cls-1" d="M123.37,143.43c-1.32-3.67,2.84-5.36,5.28-8.66-.15.64,0,.67.62,1A60.92,60.92,0,0,1,123.37,143.43Z"/><path class="cls-1" d="M128.31,145.68c-.63-.42.17-.78-.45-1.2,1.06-1,1.72-2.37,2.86-3.56s2.76-3.24,4.15-2.49c.13,1-2,3.16-3.77,5A10.71,10.71,0,0,1,128.31,145.68Z"/><path class="cls-1" d="M28,24.16c-1.31,3,.36,6-.57,8.55C25.09,31.25,24.39,24.8,28,24.16Z"/><path class="cls-1" d="M64.3,73.6c-.8-1.44,0-2.8,1-4.15-.16-.23-.33-.28-.5-.19.66-1,1.68-5.62,4.28-5.18A38.1,38.1,0,0,0,64.3,73.6Z"/><path class="cls-1" d="M69.61,78.72c-1,.38.22-1.93-1-1,0-1.81,1.13-3.82,1.75-5.13.41-.47.76.56,1.18-.11C71.29,74.54,70,76.61,69.61,78.72Z"/><path class="cls-1" d="M55.46,61.42c.29-4.39-1-10,5.47-12.68C57.64,52.3,56.72,57.22,55.46,61.42Z"/><path class="cls-1" d="M32,20.15a46.25,46.25,0,0,0-.73,8.37C27.24,28.71,29.64,21.26,32,20.15Z"/><path class="cls-1" d="M90.76,90l-.48-.53c.53-4.8,6.52-8.12,10.82-12.09,0,.25.16.72.48.52.38.78-.92.56-.23,1.17C97.49,81.71,94.79,85.25,90.76,90Z"/><path class="cls-1" d="M35.15,18c.26.47.56-.06.83.2-.52,2.67-1.68,5.3-1,8C31,26,33.41,20.45,35.15,18Z"/><path class="cls-1" d="M88.45,85.32c-2-1.23.94-6.3,3.64-9.41A10.32,10.32,0,0,1,97,72.45c-2.22,4-7.11,8.16-8,12.39Z"/><path class="cls-1" d="M79.1,66.23c2.11-1.92,5.19-6,7.29-5-1,1.76-4,3.25-5.12,5.31-.66,1.19.17,2.39-1,2.81C79.44,68.87,79.35,67.18,79.1,66.23Z"/><path class="cls-1" d="M40.28,16.17c-.77,2-.9,5.58-2.83,6.42C36,20.5,38,16.47,40.28,16.17Z"/><path class="cls-1" d="M73.38,59.24l-.48-.53c.66-2.71,2.55-4.58,4.83-6.33,1.17-.89,2.21-3.22,3.64-2.35A51.63,51.63,0,0,0,73.38,59.24Z"/><path class="cls-1" d="M77.77,62.3l-.48-.53c1.62-2.39,4-4.2,6.16-5.92C83.18,57.52,80.41,60.8,77.77,62.3Z"/><path class="cls-1" d="M83.25,67.26c0-.92,2.24-1.55,3-2.38C86.17,66.35,84.54,66.28,83.25,67.26Z"/><path class="cls-1" d="M66.14,23.77c-.7-.44-.51-1.69.24-1.5C67.1,20.18,66.85,18,68,16,69.68,17.94,68.9,22.58,66.14,23.77Z"/><path class="cls-1" d="M68.29,24.38c.57-2.28,1.16-5.69,2.58-8.45,0,.35.63,1.39.47.86.65,2.16-.69,4.95-1,7.35C69.62,24.73,69,24.43,68.29,24.38Z"/><path class="cls-1" d="M115.53,249.45c5.38,2.34,10.75,4.84,16.22,5.47-1-2.32-3.8-5.39-4.51-7.78-3.92-1.14-8.64-.75-11.86-5.26,3.63,1.51,7.28,2.6,10.9,4.21-.22-1.3-1.7-2.66-2-4-5-.55-11.88-4.7-16.74-8.52,4.91,1.19,10,5.21,15.62,7.29-.19-1.75-1.71-3.55-1.94-5.3-3.89.67-7.68-1.08-11.37-4.74,3.61.66,7.06,4.73,10.77,3.36-3.58-7.44-4.63-13.87-7.63-20,.44-1.54-1.39-3.2-.79-4.74-.42-.63-.88-.33-1.29-1.07.53-1.26-1.37-2.64-.66-3.89-2-1.78-1.19-3.42-2.45-5.16-.69-1.46-1.38-5.55-2.17-7.33-.24-.53-.86-.67-1-1-.22-.85.51-1.32-.77-1.55-.26-4.51-3.06-7.54-4.5-11.64-.16-.47.32-.66.23-1.17-.17-.9-1.07-1.7-1.39-2.58-.68-1.86-.84-3.93-1.75-5.8-.66-1.37-1.77-2.32-1.5-3.77-2.41-5.22-4.17-10.29-7.36-15.13-1.37-3.8-2.91-6.4-5.83-11.71-.24,2.07.66,4.18-.46,6.2.07-.84-1.13-2.44.12-2.68-1-1.19-.59-3,0-4.2-2.52-3.57-3.37-6.55-5.9-10.36-1.2,2.52,1,5.2-.36,7.71-1.21-2.81-2.06-6.89-.87-10.12-1.31-2.66-2.59-4.47-4-6.92-1,2.52-.13,6.46-.62,9.55-1-.66-.75-3.13-1.28-4.93a11.16,11.16,0,0,0-.13-4.38c.41-.66.29-1.23,1.24-1.45-.74-2.47-2.75-4.46-3.87-7.07-1.84,4.28-1.27,8.68-1.62,13-1.75-1.18-.55-5.17-1.31-7.79.93-2.18,1.13-4.41,2.45-5.77-1.21-2.41-1.34-3.53-3.4-6.21-1.7,3.11-.94,7.8-2.05,11.5a18.63,18.63,0,0,1,1.44-12.87c-3.72-5.2-5.32-9.28-8.23-14.34-1.59,3.85-1.34,7.78-1.9,11.68-2.37-1.45-.94-5.35-.3-7.75-.2-1.35.47-2.67.52-4,.63-.42.33-.88,1.07-1.29-1.32-2.08-2-4.13-3.41-6.21-2.16,4.6-1.21,9.35-1.66,14C45.43,88.62,45,82,48.63,77.91a55.13,55.13,0,0,0-1.56-6c-2.16,3.71-2.71,9-2.31,13.34-2.43-1.32-1.09-3.85-1.59-5.62,1.74-2.56.93-6.11,3.24-8.09.27-2.45-2.33-5-1.66-7.47-1.74,1.34-2.86,4.9-3,7.25-.11,1.47,1,3.48-.56,4.68A14.58,14.58,0,0,1,41.25,67c.54-1.37,2.11-2.11,2.68-3.4,1.13-2.55-1.72-4.77-1-7.44-3.19,2.83-1.47,7.31-3.37,10.76-1.16-.73-.28-2.44-.16-3.7.3-3,.63-6.44,3-9.11-1,.66,0-1,.16.18,1.26-2.16,0-4.9,1-7.68-3.26,2.64-5.28,7.08-6.07,11.31-.37,2,.08,4.09-1.1,5.49a21.24,21.24,0,0,1,6.9-18.16,14.28,14.28,0,0,0,.35-3.85c.89.38.14,2.13.19,3,2.13,0,.56-2.93,0-4.2.8-1.29.2-2.66-.46-4.39,1.67,1.25,2.66,6.25,3.77,9.09,3-2.39,4-5.92,7.23-7.23.18-.63-1.11.17-1.47-.91,5.14-1.1,8.43-6.49,12.36-9,.67,1.14,1.48-.65,2.15.61-.05,1.21-1,.79-1.9,1.09a31.3,31.3,0,0,0-9,9.49c-.83.13-1,.61-1.55.77-.65.73-.4-.45-.64-.71-3.12,2.84-8.42,7-5.38,10.68,2.3-3.6,4.13-10.72,9.53-9.64,1.57-4,6.6-9,10.9-10.24,1,1.73-1.27.82-1.58,1.43-4,3.65-6.68,5.5-8.5,9.35.05.67,1.22.45,1.83.26-4,3.62-8.38,8.83-9.54,13.5-.49,2,4.06,8.91,5.52,11.35,2.14,3.6,4.55,7.21,6.25,10s3.56,7.57,5.87,11C75.16,95.68,80.05,104,84.51,112c.39-2.17-2.35-4.48-1.54-6.63,3.21,11,11,22.25,15.24,33.32-.61-3.9-1.68-6.09-3.88-10.26-.4-7.17-6.72-14.5-8.72-21.93C82.34,101.85,80.8,97.93,79,94A44.91,44.91,0,0,1,72.58,83.4c1.35.3,1.44,1.65,2.06,2.62,2,3.22,4.91,6.42,6.44,9.54,5.23,10.65,12,22.33,14.89,33.64,3.33,6.27,4.83,12.44,7,18.65-.42.16-.31-.29-.48-.52.29,1.19,0,2.66.85,3.4-2.31-1.24-1.91-5.09-3.52-7.39a6.42,6.42,0,0,1-1.61-1.42C97.68,139.33,96,138,94.86,135c-.1,2.14,2.66,5.38,2.81,8,2,2.29,1.41,4.34,2.75,5.84a51.87,51.87,0,0,0,4.15,8.43c0,2.85,2.74,5.84,2.78,8.7-3.58-6.54-6.31-13-9.18-19.25-1-2.06-1.27-4.61-2.21-6.66-.26-.58-.9-1-1.1-1.57s.13-1.31-.08-1.85c-.07-.18-.8-.51-.82-.54-1.2-2-1.3-4.39-2.2-6.66-1.22-3.06-3.48-6-5.3-9-.95-1.56-1.42-3.37-2.28-5-1.81-3.36-4.63-6.26-6.09-9.86-2.2.62-3.58,4.34-4.3,5.51-1.53-1.53,1.11-6.06,3.83-6.38-1.68-1.59-1.56-3.1-3-4.67-3,.17-3.63,4.27-5.33,6.13-1.11-2.35,1.43-7.46,4.53-7-1.34-2.14-1.75-3.8-2.78-5.17-2.4-.12-4,4.47-4.63,5.49C64.3,97.3,68,93.86,70.28,92.87c-.41-1.59-1.84-3.22-2.46-4.82-3.11-.27-3.4,3.81-5.15,6-1.37-1.52,1.33-6.65,4-6.87-.24-1.64-1.58-3.33-2.62-5-2,2.21-2.8,5.34-5.21,7,.13-2.56,2.67-6.25,4.57-7.68C63.1,80.32,62,79.15,61.24,78c-.65,1.18-1.66,2-2.33,3.09-1.09,1.79-1.06,4-2.09,5.11C55,83.63,59,79.91,60.61,77A20.9,20.9,0,0,0,58,72.29c-1.61,1.38-1.45,2.78-2.69,3.74-1.26-1.74.75-3.32,1.91-5a12.38,12.38,0,0,0-2-3.29c-1.32,1.51-.89,3.1-1.9,4.62-2.55-2.69,2.9-5.86-.77-8.61-1.68,1.94-1.31,4-2.63,5.93-1-.59-.24-4.06.6-5.69.13-.24.84-.6.88-.8.69-3.12-3.19-5.49-2.94-8.87-1.64-1.82-.86-3.52-2.27-5.32.21-.43-.36-.64.36-.66-1.67-.67-.32-2-1.56-2.42.23-.13.43.24.67,0,.06-.52-.48-.59-1.15-.56C43.3,54.31,45.9,64.22,50,73.77c2.18,5.07,3.77,9.78,7,15.45,7.59,13.3,15.62,27,23.3,40.76,3,5.49,5.45,11.43,8.28,16.86,5.72,11,10.88,21.87,13.42,32.73,3.7,7.23,5.21,14.36,8.4,21.57-.18.64,0,.67-.72,1,8.14,17.73,13,38.8,27.25,56.74,3.1,3.9,10.49,5.2,14,5.19,1.75,0,4.57-1.68,5.51.77a22.2,22.2,0,0,1-15.73-1.41c.42,1.31,2.31,2.42,2.88,3.16,3.24,1.34,6.54,1.34,9.82,2,1.21,0,3.27-1.32,3.88-.32-2.25,3.07-7.94,2.2-11.29.64,1.21,3.84,5.49,4.15,8.56,3.77,2.38-.3,5.51.33,7.55.19.23,1.83-2.17,1.47-3.43,1.51a33.09,33.09,0,0,1-7.89-.2c2.75,5,5.17,3.78,9.75,3.65,2.88-.08,5,.32,7.73,0,.31-1.37-1.1-1.49-1.75-2.27-1.69-2-2.9-4.68-4.55-6.77-.37-.45-1.13-.75-1.46-1.24-.5-.74-.6-1.84-1.05-2.57-1.64-2.64-4-4.72-5.55-7.15-2.05-3.14-2.58-6.79-4.92-9.64-.67-.43.12-.78-.12-1.19-3.42-3.54-3.29-6.85-5.53-11-.67-1.25-1.89-2.29-2-4-1.12-1.28-2.34-2.52-1.66-3.95-.76-1.28-1.77-2.41-1.81-4.45-.32-.21-.69.35-1-.38-.1-.62-.26-1.25-.41-1.87-2.64-2.81-1.87-5.47-4.32-8.27-.79-4.09-3.63-8.51-5.95-12.89-3-5.59-5.13-11.75-7.29-16.47-1.3-1.85-2-4-3.76-5.89l.53-.48c-1.26-.66-.69-2.12-2.23-2.8.49-2.13-2.86-3.52-2.09-5.47-1.8.06-1.43-3.53-2.53-3.48.09-.72.24-.13.69-.31-1.41-2.69-2.36-5.33-3.81-8.41-.38-.19-.5.26-.19.5-1.16-.07-.6-1.48-.57-2a40.36,40.36,0,0,1,6.31,12.23c20.72,33,29.18,66.8,51.25,100.39.43.32.93-.72,1.39-.94,1.76.73,3.58.09,5.37.25.91-.76,2.75-.9,4.1-1.49s2.46-2.33,3.19,0c-4.09,3.92-8.88,3.81-13.23,2.74-.26.77.52,1.6,1.23,2.41.29.12.56-.72,1.21-.78,4.79,1.84,9.7.91,14.63-.15-.12-2.75-1.95-5.59-3.14-8.39-.13-5.35-4.61-9.5-6.41-13.74-.62-1.48-.54-3.27-1.12-4.76-.67-1.73-1.72-3.47-2.61-5.33a58.94,58.94,0,0,0-3.23-6.37c.57-1.32-1.59-2.77-1.15-4.09-.31-.63-.66-.23-1-.72a31.49,31.49,0,0,0-3-6.86c-1.89-3.31-3.45-6.9-5.41-10.17-.83-1.4-2.15-2.57-3-4s-1.26-3.08-2.15-4.47c-1.17-1.86-2.6-3.65-3.77-5.56-1.38-2.25-2-4.92-3.36-7.21-1.11-1.93-2.48-3.54-3.61-5.38-1-1.61-1.27-3.63-2.27-5.32-3.34-5.62-7.44-11.61-11.11-17.49-1.85-3-2.74-6.19-4.29-9-1.88-3.36-5.4-6.07-6.26-9.7-2.78-2.93-2.31-5.11-5-8.3-.11-2.38-2.69-5.16-3.34-7.55-.65-.65.08-.2.36-.66a6.78,6.78,0,0,1-2-4c-1.93-2.35-2.34-5.08-3.67-7.57-1.45-2.69-3.54-5-4.85-7.79a169,169,0,0,0-9.43-17.42c-3.19-5.14-5.38-10.71-7.82-16-5.07-8-7.82-15-13.73-22.5.07-1.35-1-1.8-1.36-3.25-1.58-.37-1.21-1.76-3-3.34.64-.55,1.24-.06,1.82.59C64.19,39.34,66.44,31.78,72.59,33c-4.12,1.24-7.69,7-10.1,11.12A18.84,18.84,0,0,1,65,47.58c2.45-4.55,5.91-12.46,12.16-12A31.8,31.8,0,0,0,66,48.64c1,1.22,1.52,2.42,2.35,3.64,2.42-3.82,5.64-10,9.79-11.81a4.45,4.45,0,0,1,2.86,0c.15,1.14-1.1.84-1.74,1.26-3.89,2.53-7.33,7.77-10,12C73.05,61,78.59,68.45,82.35,75.79c2-2.56,4.24-5.17,6.43-8.1.73-.33.71,1,1.69-.26-1.71,3-5.42,7.07-7,10.6,2.44,5.27,5.7,10.57,8.66,15.87,1.28-2.2,6.23-8.1,9.33-8.81-1.18,3.39-7.36,6.87-8.11,11.55A20.88,20.88,0,0,1,95,99.92c3.32-3.31,6.31-7.7,10.4-10.1.62.47.62.92.94,1.39-4,3.38-8.51,7.09-9.43,11.15l-.64-.71c.14,1.47,1.57,3,2.14,4.48,2.68-3.44,5.75-8,10.25-10.62.72.66-.26,1.22.08,1.86-3.18,2.46-7.92,7.17-8.78,11.52,1.21,1.62,1.51,3.21,2.8,4.84,1.11-3.5,3.3-6.11,6.65-9.27,1.17,1.74-1.48,3.5-2,3.77.41-.21-.94,1-.7.64-.29.46-.44,1.73-1,2.81-.78,1.56-2,2.77-1.88,4.28a11.47,11.47,0,0,1,1.87,3.11c1.11-1.18,1.5-2.63,2.87-3.9s3.64-3.43,4.43-1.13c-2.91,2.2-5.33,4.61-6.23,7.27A489.54,489.54,0,0,0,141,180.06c3.44-3.57,9.43-10.72,14.57-13.27a3.19,3.19,0,0,1,3.18.32c-6.41,2.27-11.86,8.93-16.51,15,.72,1.44,1.83,2.89,2.66,4.33a65.56,65.56,0,0,1,7.8-8.71c3.22-2.82,7.22-5.38,10.3-4.56.43.92-1.75.47-2.4.9a15.32,15.32,0,0,1-5.55,3.77c-1.67,2.57-7.07,6.76-8.91,10.67a13.79,13.79,0,0,0,1.24,2.41c7.32-7.18,14.47-12.52,22.22-11.56-2.58.68-5.93,2.24-7.51,2.34-4.43,2.85-11.8,6.89-13.34,12.15,1.37,2.09,1.79,3.32,3.12,5.18.91-1,1.7-3.5,2.09-5.11,5-6.28,11.63-9.78,17.13-10.45.22,1.08-2.24.78-2.61,1.72A31.66,31.66,0,0,0,158.23,192c-2.92,3.07-3.84,6.57-5.15,9.51a13.07,13.07,0,0,1,2,3.28c.47-4.62,4.44-7.82,7.4-10.91,3.37-2.42,6.68-5.05,11-5.53-.11.77-1.75,2.1-2.76,1.55-5.08,3.48-12.89,10.16-14.86,15.77,8.9,17.14,17.5,35,23.78,51.87.23.62,1.33,4.18,2.06,6.15s.68,3.9,1.25,5.61c.94,2.78,2.5,5.47,1.8,8.32.4.65.82.24.8.87-2.56.19-.14,4-2.76,5.08-1.11-1.36.41-4,.11-5.87-1.29-2.08-.41-4.06-1.4-6.12-5.47.71-11,3.45-16.3.07.21,1.47,2.28,3,3.48,4.54,3.43-.29,6.85-.42,10.21,1-1.52,2.11-5.26.27-7.78,1a26.24,26.24,0,0,0,7.16,5c-3,1-4.85-2.64-7.69-4.56-4.71,1.33-9.36,1.31-14,1.19,2.21,1.32,3.63,2.92,5.35,4.12,2.65,1.85,5,1.46,7.92,3.06-3.56,1.7-7-1.11-10.25-3.51-1.82-1.35-4.05-2.11-5.72-3.46-2.3-1.85-3.66-4.15-6.28-5.84-.27-.19-.57.25-.86.46-4.39-1.61-9-1.92-14-3.34-2.48-.71-4.85-1.39-6.55-3.67a28.85,28.85,0,0,1,6.32,1.3c4.64,1.54,9.26,3,13.9,4.69-1.2-1.72-2.16-4.17-3.79-5.22-.92-.59-5.79-1.12-7.51-1.19a8.16,8.16,0,0,1-3.32-.83c-2.9-1.22-6.69-1.87-9.39-4-.84-.65-1.91-.59-3.1-2,7.13.86,14,6.3,21.21,6.37-.28-1.17-2.31-1.77-1.53-3.1-.91.22-2.43-1.84-2.74-2.65-1.79,0-3.6.36-5.35-.58-3.4.85-6.62-2.08-10-2.49.45-.48-.6-1-.43-1.53,4.87,1.19,9.85,2.82,14.28,3.69.36-1.74-1.67-4.25-3.5-4.19-.19,0-1,.49-1.19.44-1.24-.22-2.78-2.16-3-1.14-.85-.33-2.88-1.52-4.32-.88-.94-1.32-2.27-1.15-3.79-1.69C118.17,251.12,116.27,251,115.53,249.45Zm47.51-24c.39.22.15,1.2.8.88C163.85,226.14,163.5,225.13,163,225.46Zm-60.68-78.31c-.16-.36-.18-1.56-1-1.39C102.33,146.3,101.2,147.6,102.36,147.15Zm-3.57-6.38c.51,1.12,2.67,5,2.51,3.81a12.15,12.15,0,0,1-1.66-3.94c-.83-.45-.58-1.69-1.44-1.58C98.64,139.32,98.52,140.17,98.79,140.77Zm-40-99.7c-4.88-.46-7.26,7.14-9.06,10.5.66.6.44,2,1.58,2.09C52.34,48.37,55.74,44.64,58.77,41.07Z"/><path class="cls-1" d="M155,260.71c-1.17.83-1.82-1-2.28-1.45a85.35,85.35,0,0,1-6.38-7.36c-3.19-4.14-4.16-9.21-6.25-13.57-1-2-2.68-3.53-2.42-5.82-3.12-5.94-4.95-12.75-7.69-18.68s-5.43-12.05-9.21-18.59c-2.29-4-4.06-7.26-6.17-11.72-1.31-2.74-3.54-5.53-4.66-8.28,4.67,6.32,8.28,14.59,12.59,21.93,4.92,8.41,9.64,17.48,12.55,26.14,1,2.9,2.54,5.41,3.49,8.06,1.52,4.27,2.43,8.69,5.11,12.68a.88.88,0,0,1-.06,1.34c1.56,1.58,2.13,4,3.58,6.05C149.52,254.72,152.79,257.31,155,260.71Z"/><path class="cls-1" d="M170.54,262.62c-3.37-2-2.26-6-5.15-8.48-.78-3.44-3.6-6-3.63-8.57-2.87-4.39-2.61-7.9-4.81-12,.23-.16.28-.32.19-.5C161.38,241.54,167.25,253.62,170.54,262.62Z"/><path class="cls-1" d="M156.38,220.61c3.2,2.66,4.12,7.35,5.85,11.37,1.48,3.42,3.3,6.39,4.59,9.63.91,4.8,5,10.65,6.47,16.27.47,1.75,1.14,4,.24,5.55-1.06-1.8-.33-4.93-2.51-7.34a1.15,1.15,0,0,1,.36-.66c-4.35-7.31-7.28-18-10.46-24.18a7.21,7.21,0,0,0-1-2.58A81,81,0,0,0,156.38,220.61Z"/><path class="cls-1" d="M158.91,134.51c-1.12,4.6-2,8-6,12.83a16.69,16.69,0,0,0,1.89,2.78c2.14-.94,2.47-5.12,4.29-5.51-.24-1.33,1.06-3.39,2-4.11.58,2.1-1,3.95-1.78,5.8s-1.11,4-3,5.58a3.18,3.18,0,0,0,.92,1.72c4.37-4.52,4.64-9.53,7.85-13.24,1.23,1.69-.23,3.39-1.09,5.49-1.18,2.86-2.63,6.53-5.32,9.33a4.49,4.49,0,0,1,1.11,1.56c4.4-4.55,4.18-10,8.36-13.38-1.17,5.1-2.74,10.18-6.77,15.14l2.24,2.46c3.45-3.65,3.73-8.34,6.59-11.46.07-1.31.43-4.63,2.22-4.26-.08,3.3-3,7.36-3.33,10.09-1.36,2.4-2,4.84-4,7.21a18.15,18.15,0,0,0,2.7,3.32c4.23-4.46,3.78-10.71,7.77-15.1.65,2.83-2.18,5.5-1.74,8.32-1.63,3-2.07,6-4.43,8.53a27.24,27.24,0,0,0,1.9,2.45c3.13-3.33,3.63-8.24,6.29-12.14.64,4.06-2,9.42-5,13.88a9.56,9.56,0,0,0,2.09,1.94c2.61-3.47,4.19-8.8,6-12.83.53-1.19.64-2.82,1.83-3.27.34-.43-1-.94.07-1.34,1.17.6.18,2.51-.18,3.69a17.27,17.27,0,0,1-1.34,3.46,26.76,26.76,0,0,1-5.1,12,10.84,10.84,0,0,1,1.9,2.45c3.21-3.68,4.44-8.79,6.81-12.63,1.31,1.76-1.42,4.44-1,6.68-1.38,2.68-2.28,5.38-4.58,8,1.11.95,1.17,1.85,2.22,2.79,5.55-5.66,5.52-12.65,8.89-17.39a14.28,14.28,0,0,1-.4,4.85,32,32,0,0,1-7.05,14.12c.65,1.67,2,2.78,3,4.68,5.36-4.44,5.91-8.86,9.24-14.19.08-1.07.62-3.29,2.17-3.25A39.93,39.93,0,0,1,187,190.79a26.28,26.28,0,0,0,2.31,4.31c5.69-5.35,5.3-12.44,10.28-18.34,1.15.26-.45,1.59.22,2.37-.66.41-.71.86-1.07,1.29a48.83,48.83,0,0,1-8,16.93,22.86,22.86,0,0,1,3,4.34,50.6,50.6,0,0,0,6.44-12c.89-2.23.73-5,3.15-6.07-2.05,6.57-2.84,13.2-8.49,19.6a24.24,24.24,0,0,0,1.71,2.94c5.74-6.16,7.38-14.3,12.56-20.42a54.7,54.7,0,0,1-11.45,22c.17,1.3,1.09,2.63,1.66,4,5.76-5.74,7.3-12.58,11.15-19.15-.75,6.31-4,14.3-10.24,21.2-.08.84.76,1.72,1.06,2.58,4.83-3.78,7.26-9,9.22-13.86.73.3.45-.39,1.2-.45-.49,5.57-4.17,11.55-9.18,16.38a8.57,8.57,0,0,0,1.09,5.43c6.1-5,8.61-12,11.81-18.77.53-1.13.48-2.53,1.83-3.28-1.18,8.52-5,16.62-12.74,24.45-.32,1.55,1.28,3.19,1.79,4.78,6-4.87,6.38-12.35,10.9-17.3-.81,6.85-4.32,13.58-10.19,20.19.28,2,.61,4.07,1,6.1,5.88-4.64,7.36-11.69,11.37-16.44-1.5,6.48-4.73,13.77-11,18.65.08,2.64-.32,5.25-.2,7.89,5.14-6.13,7.73-13.85,11.39-20.64a36.37,36.37,0,0,1-3.6,12.26,30.37,30.37,0,0,1-5.42,8.15c-.84.85-2.11,1.49-2.64,2.4s0,1.32-.11,2.35c-.66,4.42-3.61,9-4.32,13.24-1.85,1.9-3,4.88-4.45,5.34-.42-1.77,3.36-4.76,2.85-7.1,3.75-7.21,3.06-14.64,3.06-22-.78-.45-2.15-.69-1.94-1.77.59-.57,1.1.41,1.68.08.09-5.6-2.81-11.34-3.91-17-3.81-3.8-4.22-8.47-6.12-12.72-2-4.49-5-8.62-7.8-12.81s-5.3-9-8.41-14.17c-3.11-2.81-6.57-8.84-9.35-12-5.05-3.82-9-11.51-14.18-16.63-.53-.59,0-1.12-.59-1.71a5,5,0,0,0-2.11-1.61c.08-1.86-2-3.89-3.47-4.87-2-3.7-4.94-5.66-6.79-9.23-4.93-4.27-8.23-10.44-12.37-15.7-3.84-4.89-8.09-9.61-11.24-14.82-1.44-2.39-2.09-5.44-3.49-8.06-1.86-3.5-4.29-6.81-5.74-10.18-1-2.31-1.59-4.59-2.7-6.86s-2.53-4.24-2.88-6.68C96.69,66.49,92.76,53.49,83.91,42.59c-.42-.44-.07-.33.19-.5-4.56-4.86-8.63-10.7-14.32-13.61-.24-1.43-.53-1.18-1.74-2.27.75-.4,1.44.27,2.16.61,3.38-2.75.84-7.09,3-10.45,1.81,2.85.62,7,0,10.26.58.85,1.22.19,1.8.92,0-.89.6-1.76.13-2.68,1.89-2.21-1.14-6.26,2-7.3,1.48,4-.86,7.91.95,12,1.47-2.22.65-6,1.93-8.81,2.91,3.33-1,7.79,1.3,11.66,1.15-2.3.76-4.67,1.67-7,.17.16.34-.06.51-.15,1.22,1.11,1,3.64.74,5.75-.17,1.39-1.26,3-.36,4.18,1.53-1,.15-5.53,2.77-5.41,1.78,3.28-2,6.2-.42,9,1.48-2.2,1.07-5.28,3-6.91,2.51,4.15-3.61,7.9.11,12.1,1.19-3.16.88-5.52,2.26-8.8,2.84,3-1,8.28-.07,12.27,1.45-2.12.84-5.79,2.58-8.45,2.25,2.7-.39,6.27-.11,9.4-.46.71-1.31,1.4-.6,2.16,2.46-1.88,1.36-6.16,3.91-8.05,1,2.82-.27,8.1-2.84,10.29,0,.67.85,1.38.91,2,2.55-1.9,1.81-6.06,4.5-6.34-.37,2.68-.55,6.24-3.41,8.25,0,.78.93,1.61,1.23,2.41,2.83-3.4,2.1-6,5.12-8.84,2.74,3.69-5.68,9.23-2.67,14,2.26-2.51,2.41-5.88,4.73-7.84.27.26.53.74.82.54-1,3.15-2.11,7.18-4.66,9.7a4.49,4.49,0,0,0,.91,2.06c2.16-1.54,2-5.5,4.53-7,.56,2.8-.77,7.22-3.6,8.74A4.2,4.2,0,0,0,104,72.78c2.81-2.16,3-7.22,6.11-8.46.41.69-.53,1.05.61,1.38-1.94,2.88-3.12,6.68-5.63,9a7.32,7.32,0,0,0,1.07,2.23c2.36-2.59,2.48-5.56,5.07-7.83,1.29,1.48-.39,3.6-1.25,5.32a32.18,32.18,0,0,0-2.44,5.43c.48.92.63,1.82,1.21,2.75a76.21,76.21,0,0,0,3.33-10.1c3,3.4-1,6.89-.84,10.72-.59.87-2.12,1.69-.79,2.65,2.85-2.62,3.18-5.7,5.07-7.83.62,3.22-1.1,8-4.5,9.88.8.76.72,1.49,1.41,2.25,1.86-2.39,2.68-7.15,4.82-9.53,1.46,3-1.49,7.33-2.7,10.8-.53.53-1,.1-1.5-.24a19.38,19.38,0,0,0,1.7,3.28c2.42-2.19,2.19-5.95,4.61-8.69,1.14,3-.82,7.35-3.37,10.76a7.88,7.88,0,0,0,1.4,2.59c1.88-2,2.18-4,4.14-6,1.65.92.06,2.71-.52,4s-.88,3-2.54,3.92a12.84,12.84,0,0,0,1.68,3.61c2.68-3.14,2.51-7,4.63-9,1.43.81.12,2.65-.37,4.18-.75,2.36-.6,5-3.17,6.75a5.36,5.36,0,0,0,1.25,2.07c2.26-1.26,2.44-3.22,4.59-4.82.15.87-.55,1.21.61,1.37-1.21,2.63-4,5.19-2.06,8a10.8,10.8,0,0,0,2.46-2.24c1.53-1.89,2.36-4.69,3.67-6.55.4-.56,1.22-2,2.25-1.41a26.8,26.8,0,0,1-6.94,11.78c-.36.93,1.23,2,1.38,2.92,3.91-1.89,3.88-6.89,7-8.58.88,1.61-1.71,3.06-1.23,4.65a30,30,0,0,0-2.73,4.41c-1.11.34-.7,1.09-1.4,1.28-.2.66.85,1.38.91,2.06,3.8-1.32,3.71-6.93,6.68-9.94.5,1.7-.29,4.17-.95,6A11.3,11.3,0,0,1,132.4,123c.14,1.26,1.4,2.18,1.87,3.11,1.69-1.19,2.54-2.85,3.59-4.87.89-1.74,1.11-4.74,3.25-4.89-.6,3.95-3,7.81-5.08,11.69.85.56.74.73,1.43,1.58,4-3.51,3.78-8.11,6.58-11.12,1.36.34.14,1.65-.11,2.35-.9,2.48-1.91,6.28-2.92,8.43-.26.21-.53.43-.37.66-.48.69-.91.35-1.39.94-.31.83,1.16,2.06,1.57,2.43,3.1-3.23,4.88-7.94,6.94-11.78.58,0,.37,1,1.15.56-1.79,4.34-3.19,8.7-6.49,13,.66,1,1.37.89,1.6,1.76,2.67-2.66,2.46-3.44,5.5-6.3,1.44,2.1-2,5.55-3.73,7.9.82,1.08,1.13,1.51,2.38,3,3.65-2.56,5.32-7.67,8.08-10.88A27.64,27.64,0,0,1,149.61,143c.36,1.23,1,1.48,1.89,2.78,3.39-3.86,4.14-7.76,6.58-11.45C158.49,134.26,158.27,134.67,158.91,134.51Z"/><path class="cls-1" d="M105.19,154.85c-1,.07-1-1.22-1.46-1.25.14-.66.24-1-.6-1.37a1.1,1.1,0,0,1,.36-.66c.17.12.08.23,0,.34A11,11,0,0,1,105.19,154.85Z"/><path class="cls-1" d="M182.19,200.65c.94-.35-.05-.79.23-1.17-.32-.22-.17.44-.51.15-.13-1.62-1-3-2-5,1,.74,1.22,2.28,2.85,3.83,6.56,14.1,15.57,29.74,16.41,44.13.34,1,.95,2.07.2,3-4.48-15.43-8.43-28.68-16.59-44C183.75,202.44,183.4,200.52,182.19,200.65Z"/><path class="cls-1" d="M41.77,52.37c.24.21,0,1.19.46.87C42.41,54.08,41,52.85,41.77,52.37Z"/><path class="cls-1" d="M28.3,42.16c-.15,1-.77-.6-1,.62-3,7.71-2.28,15.58-3.45,23.37C25.41,71.89,24.36,78,26,84.4c.41,1.63,1.79,4.87.56,5.91s-3.68-.87-5.14-1.42a49.61,49.61,0,0,0-9.79-2.64c-2.06-2.62-2.17-5.14-2.17-7.66C5.87,77.67.1,72.69,0,68.56c3-2.22,6.55-.81,7.81-5.18-.08-3.33.9-6.91,1-10.87,0-1.2-.5-2.48-.5-3.72s.66-2.7.7-4.17-.6-2.82-.48-4.06a50.8,50.8,0,0,1,1.28-5.65c1.27-5.39,1.37-11.29,5.32-16.73.61-.84,1.66-1.81,2.49-2.91a26.12,26.12,0,0,1,2-2.76c2.54-2.31,6.77-3.56,8.9-7.15a23.45,23.45,0,0,0,6.37-3.22C40.44.89,46.88-.42,53,.13a36.63,36.63,0,0,1,4.36.2c3.56.91,5.88,4,6.84,8.22,4.38,2.12,8.86,2.19,13.26,4C81,16.2,84.63,18.48,88.5,23.65c6.72,9,14.16,18,18.59,26.41,2,3.77,4.2,7.37,6.2,11,1.91,3.52,3,7.52,4.68,11.15,1.79,3.84,4.33,7.23,5.89,10.69,1,2.27,1.1,4.21,2.57,6,2.38,2.9,5.55,5.69,8.33,8.79a119.43,119.43,0,0,0,9.29,9.85c1.6,1.41,3.24,2.37,4.68,4.08s2.21,3.79,3.61,5.38c.78.89,2,1.44,2.75,2.32,1.08,1.19,1.59,2.64,2.67,4,9,11.32,22.79,19.76,34,31,1.75,1.75,3.61,3.6,5.29,5.45,7.91,8.72,17.31,18.78,21.48,29.25,2.95,4.74,6.79,10,7.9,14.32.23.88,0,1.85.21,2.7,1.16,4.65,2.89,8.8,2.55,13.73-.09,1.31-.92,2.65-.86,4s1,2.73,1.15,4.09c.37,2.81-.31,6.89-1,9.87a93.28,93.28,0,0,1-4.38,14.58c-2.17,5-6,9.77-8.09,14.75-.26.65-.89,1.1-.09,2-.8.4-1.57,0-2.36.23-1.81,1.93-2.5,4.77-4.36,6.85-1.38,1.55-4,2.16-3.73,4.37-2.19,1.58-5.09,4.74-7.71,6.69-2.23,1.66-5.07,2.28-6.76,4.22-1-.89-2.42.33-3.86,0-1.2.54-2.69,1.62-3.94,1.66-1.81.06-3.35.38-5.24.6-3.22.36-6.54-.2-9.74-.13-3.46.08-6.87.75-10.58-.32-1-.31-1.93-1.14-2.95-1.49-2.35-.81-4.59-.76-6.65-1.65-2.22-1-4.07-2.3-6.39-3.5-1.41-.73-3.37-.86-4.79-1.74-1-.61-1.72-1.8-2.73-2.64-4-3.39-9.46-6.68-13.46-10.55-.35-.34-.46-1.32-.92-1.73-.17-.15-1.18,0-1.49-.57-2.35-4.14-4.35-6.91-6.86-11.42s-4.57-7.24-6.33-11.89c-2-5.42-2.59-9.67-3.83-15.14-1.08-4.81-3.82-9.12-2.88-13.75-2.23-5.17-3.24-11-4.26-16.67s-2-11.26-2.74-16.76c-2.39-5.29-4.65-10.51-7.48-16-1.67-3.23-4.25-7.07-6.86-11.42-1.39-2.31-2.15-5-3.52-7.39-.78-1.36-1.91-2.63-2.67-4s-1.08-2.83-1.82-4.12c-3-5.1-7-9.66-10.07-14.59-3.52-5.67-5.8-10.69-10-16.27A88.86,88.86,0,0,1,38.44,91c-.86-2.12-2.14-4.28-2.74-6.18-.36-1.16-.12-2.53-.49-3.72-1-3.09-2.57-6-3.11-9-.57-3.24-1.29-6.23-1.74-9.33a32.17,32.17,0,0,1,0-10.59c.06-.37.35-.84.4-1.32.29-2.72,1.76-4.92,2.92-8.44.54-1.68,2.42-6.12,1.33-7C33.42,34.15,28.35,40.27,28.3,42.16ZM96,192.4c.48,5.77,3,11.92,4.18,18.35.36,1.92,0,4,.56,5.9.32,1.19,1.2,2.22,1.52,3.44.66,2.49.16,5.12.82,7.6s1.13,5.17,1.83,7.65,2.27,5,3.16,7.71c4,12.21,11,24.33,23.31,33.36,3.92,2.87,7.41,6.11,11.88,8.12,2.64,1.19,5.77,2.1,8.6,3.1,1.36.48,2.81.78,4.31,1.21s2.84,1.23,4.3,1.54c1.17.25,2.7-.26,4.37-.13,1.48.12,3.09,1,4.49,1.05,1,.06,2.27-.2,3.37-.17a25.79,25.79,0,0,0,3.36.15c.9-.13,1.68-.84,2.57-1,2-.5,3.87-.42,5.94-1.24,6.38-2.51,14.65-7.13,19.44-13.2,7.05-3.44,10.07-13.36,13-18.88a62,62,0,0,0,2.82-6.43c1.13-2.85,2.45-5.72,3.25-8.41.86-2.88.91-6.19,1.26-8.85.2-1.5.82-2.72.84-3.66,0-1.11-.46-2.39-.49-3.72a90.19,90.19,0,0,0-4.25-24.07c0-.84-.69-.51-1.15-.55-2.18-9-7.31-18-13.72-26.36-3.43-4.47-8.25-10.46-12.77-14.38-12.24-10.64-25.25-21-35.75-33.28-5.07-6-10.86-11.8-16.33-17.24-2.88-2.86-4.89-6.34-7.46-9.25-2.36-2.68-5.77-5.23-7.87-7.94C120.19,86,118.19,79.12,115,72.11,105.6,51.85,92.36,25.8,72,13.63a43.8,43.8,0,0,0-5.51-.77c-1.51,0-4.52,0-5.75.74-1.4.87-3.29,4.06-4,5.87-.52,1.37-.2,2.58-1,3.48-.59.65-1.77,1.59-2.7.21-.69,1.39-.74,3.63-2.06,4.44-1.52-4.08,2.21-7.93,3.39-11.44-2.78,2.27-4.3,6.93-5.36,10.34.77,1.25.65-.86,1.33.4,0,1.91-2.06,1.54-3.48,2.52-3,2.07-5.48,6-6.8,8.76-.44-.15-.89,0-1.37.6-1.21,1.61-1.49,3.84-3.26,4.89-7,22.87,6.56,45.85,19.13,68.63a87.45,87.45,0,0,0,5.79,9.18c2.41,3.28,5,6.41,7.27,9.75,2.34,3.49,4,7.58,6.36,11.23s4.88,7.33,6.72,10.9c1.06,2.06,1.53,4.27,2.56,6.34,3.71,7.46,8.1,14,10.94,21.18,2.24,5.69,4.64,11.17,6.44,16.61,2.22,6.7,3.15,13.52,5.27,20.25-1.85,5.33,4,9.66,8.71,11.33,1,.13,2.86,0,3.31,1.16-3.8,2.07-7.29-2.32-10.9-4.21.65,1.38,2.11,3.69,1.14,4.43-.41-.75-.83-.36-.51.14C101.32,219.76,102.3,203.74,96,192.4ZM13.55,84.16c1.22.44,2.06-.59,3.23-.69,2.26-.21,4.38,1.37,6.66,1.32-1.34-2.52-5.6-1.57-8.08-3.24.21-.27,0-.56.2-.83,2.94-.62,5,.77,7.69,1-.5-3.18-4.27-2.25-6.41-3.15,1.3-2.19,3.82-.6,5.57-.58-1.33-2.11-4.88-1.67-5.7-3.8A8,8,0,0,1,22.17,76c1.45-3-2.57-3.35-4.47-4.92.26-.38.09-.78.55-1.15,1.52,0,2,1.07,3.47,1.34.21-.49-.67-1-.1-1.51-1.42-1-4.36-.84-4.25-2.56,1.68-.55,2.4.47,3.87,0-.62-3.27-3.92-2.46-5.67-4.47l1.05-1a23.66,23.66,0,0,0,4.3,1.55c-1.38-1.28-5-2.09-4.49-4.58a11.48,11.48,0,0,1,4.06,3c.5-1,.21-2.11.65-3.16-.87-.68-1.82.44-2.65-.8.35-4.49.41-8.24,3.12-12.79-.12-2.94,3.37-5.1,3.22-7.75-3-1.34-1.33-5-.83-7.26.32.14.69-.59,1-.29.13,2.13-.68,4.22,0,6.39,4.11-4.59,9.9-11.66,16-11.35.4-2.06,1.53-4.08,1.13-6.17,2.47-2.44,3.86-5.72,6.93-4.38.1,1.21-1.27.91-2.1,1.58-2.06,2.82-4.91,7-3.12,9.27,1.48-4.15,2.83-8.42,7.44-11.58-1.24-1.21-2.54-.83-3.79-1.69-9.67-.44-19,6.14-24.39,14.82a55,55,0,0,0-3.31,5.89C17.63,37.43,17.28,42.91,15,46.58c-.42-2-.59-3.79-2.43-5.49C11.34,46.41,12,53.27,11.7,59.2c.23-.16.44.1.66.36,2-2.37.71-7,2-10.16.58,1.13.36,3-.33,3.52,1.76,5.81.24,12.89.45,19.18a3.51,3.51,0,0,0-.18,3.69C12.48,78,13.39,81.37,13.55,84.16ZM8.08,68.27c.09.4-.33.77-.56,1.15-1.84-.5-4.16-1.16-4,2a41.47,41.47,0,0,0,7,4.53c.07-.44,0-.9.39-1.33-1.38-1.6-3.68-2.5-4.53-3.57.17-.16.08-.33.19-.5a8.3,8.3,0,0,1,4.28,1.89c.75-.47.33-1,.91-1.47C11,69.71,8.34,69.55,8.08,68.27ZM22.34,86.75c-.29-.32-1.4-.78-1.17-.22C21.58,86.25,21.92,87.27,22.34,86.75Zm-10.25-18c-.48-.69-1.83-1.43-.91-2.06.46-.39.87.46,1.34.07-.34-.63.64-1.2-.08-1.85-.36-.67-.79.1-1.15-.56a4.21,4.21,0,0,1,.43-2c.38.27.75.7,1.16.22a1.83,1.83,0,0,0-1.27-1.4,15.42,15.42,0,0,1-3,6.58C9.81,67.33,10.9,69,12.09,68.79Zm31,27.34a5.3,5.3,0,0,1,.61,1.37C44.2,97.18,43.54,96,43.07,96.13Zm-4-8.25c.89,2.45,2.4,4.93,3.52,7.39C42.2,93,40.24,89.67,39.09,87.88ZM21.42,56.12c.08-.39-.08-.78.23-1.16-.37-.46-.77-.3-1.15-.56-.9.69-.67,1.43-.61,2.16C20.41,56.26,20.88,56.89,21.42,56.12Zm.15-3c.62-.41.22-.88-.28-1.35A.7.7,0,0,0,21.57,53.1Zm1.49-6.82c-.5,1.38-1.76,2.72-1,4.16C22.68,49.74,22.59,47.55,23.06,46.28ZM12.44,36.37c-.66,1.6.42,4.17,2.6,5.34C15.81,39.74,13.64,37.73,12.44,36.37Zm3.64,1.18c0-.45.43-.87.4-1.32-1.22-.76-2.48-3.64-3-4.34.31,1.19-.89,2.31-.34,3.51C14.9,34.18,14.4,37.38,16.08,37.55ZM24.23,43c0,.9-1.59,2.61-.81,3C23.26,45.06,25,43.36,24.23,43Zm-8.45-17c.51,0,1-.36,1.52-.09a12.23,12.23,0,0,0,1.31,4.26L19.84,29c-1.34-1.78-3.27-6.55-.48-7.58.62,1.59.32,3.15,1.12,4.75,3-2.71-.66-5.74.23-8.56.56,0,1.14-.33,1.7-.25a4.75,4.75,0,0,0,1,4.24c.76-.58.69-1.2,1.6-1.77a13.72,13.72,0,0,1-.88-6.26c-5.93,5.27-8.25,10.71-10,16.17,2.11.37.95,3.66,3.15,4.52C18.72,31.57,14.86,28.65,15.78,25.94Zm19.11,4.77a2.18,2.18,0,0,0-1,2.47C35.32,33.37,34.47,31.57,34.89,30.71Zm3-.2c.14-.3.61-1.15.25-1.83C36.41,30.24,37,32.52,37.92,30.51Zm-9.57-14.4c-.86-1.82-.82-5,1.27-5.65,1.54.95-.13,2.95.47,4.39.69-.53,1.41-1.56,2.09-1.58-.43-1.53,0-3-.29-4.55-2.18,1-5.22,1.38-6.92,4a7.76,7.76,0,0,0,1.52-.09,5.38,5.38,0,0,0,.42,5.39C26.9,17.05,27.92,17,28.35,16.11ZM43.3,26.9c-1.95-1-3.21,2.68-3.21,3.88C42.09,29.81,41.76,28.32,43.3,26.9Zm-4,.15c-.68-.05-.75.67-.56,1.15A1.16,1.16,0,0,0,39.26,27.05Zm6.64-1.88c.36.66.78.24,1.14.9a61.93,61.93,0,0,1,5.4-11.34A19.68,19.68,0,0,0,45.9,25.17Zm-9-15.55c0-.89.54-1.76.12-2.68-.88.82-1.7.41-2.57,1.06,0,1.06-1,2.08,0,3.19A7.4,7.4,0,0,0,36.89,9.62ZM41,8.47A4,4,0,0,1,42.27,6c.35.71.79-.28,1.16.22-.31.78-.45,2.16.91,2.06.54-1.35,1.6-4.68,3.53-3.53-.88,2.06-2.32,4,.64,4.23,0-1.51,2-3.44,3.48-2.52-.1.16-.07.33.15.51a2.14,2.14,0,0,0-1.31,2.8c.62-.1,1.2.62,1.83.25.38-1.55,2.45-3.43,4-2-1.62.87-1.5,2-2.17,3.26a11.06,11.06,0,0,0,2.43,2c1.34-1.25,1.81-3.35,3-4.06-6.68-6.48-15-6.89-22.7-3.42.52.94,1.12,0,1.65.75.29.92-.55,1.77.21,2.7C39.74,8.55,40.32,9.26,41,8.47Z"/><path class="cls-1" d="M184.65,273.54c.24-.63.63-.42.54-.82,7.07-3.16,14-11.08,17.45-17.16.2,2.36-1.28,4.64-2.68,6.93-.33.6.89-.09.64.7-.54.54-.41,1.1-1.09,1.63-.22,5.19-7,13-12.92,14a1.54,1.54,0,0,0-.63-1c.53-1.54,2-.78,3.26-1.36,1.74-.84,4.05-3.54,5.46-5.29a37.72,37.72,0,0,0,3.44-5.38,68.9,68.9,0,0,1-12.67,8.64Z"/><path class="cls-1" d="M60.64,69.23c-.68-1.26.46-2.78-.34-3.55,1.17-1.62,1.48-6.35,5-5.48C62.28,62.69,62.33,66.18,60.64,69.23Z"/></g></g></svg>