<svg xmlns="http://www.w3.org/2000/svg" viewBox="0 0 236.11 326.47"><defs><style>.cls-1{fill:#231f20;fill-rule:evenodd;}</style></defs><g id="Layer_2" data-name="Layer 2"><g id="Graphics"><path class="cls-1" d="M130.38,41.31c.11,5.32,1.64,16.62,2.14,24.69.12,2.07,0,4.43-1.19,5.7-1.27-1-.83-2.69-1-5.46-.19-4.37-.72-10.39-.95-15.67-.12-2.67-.94-6.64-.47-8.78v-.72C129.68,40.9,129.82,41.32,130.38,41.31Z"/><path class="cls-1" d="M114.24,42c-.15.89-.84,1.23-1.19,1.9a95.3,95.3,0,0,0,1.66,14.48c-1.14,2.21,1.18,6.88-.47,8.79-1.33-1.54-.82-3.8-1.19-5.94-1-6.08-2.54-13.56-.24-19.23Z"/><path class="cls-1" d="M124.21,42.26c1.81,7.58,1.31,16.5,1.66,26.12-1.09.22-.25.9-1,1.42-1.41-4.88-1.12-10.36-1.43-16.38-.2-4-1.39-8,0-11.16Z"/><path class="cls-1" d="M126.82,42.26a1.08,1.08,0,0,0,.71.24,13.49,13.49,0,0,1,.71,8.54,87.42,87.42,0,0,1,1.19,15.2c-.05,2.1,0,4.67-1.19,6.88-1.52-2.13-.44-5-.47-7.59-.09-7.11-1.34-15.23-1.43-22.56C126.43,42.66,126.76,42.6,126.82,42.26Z"/><path class="cls-1" d="M104.74,76.45c-.42,1.25-2,1.13-2.85,1.42-10,3.31-18.92,9.45-26.35,15.67-1.68-1.79,1-3.38,2.13-4.51,1.42-1.37,3.15-2.57,4.28-3.56.72.07.92-.76,1.42-.24C88,81.71,94.78,76.92,101.65,76,102.74,75.82,104,75.47,104.74,76.45Z"/><path class="cls-1" d="M103.31,78.82c.33.08.2.6.24,1-6.64,3-13,7.57-18,11.4-.78.06-.69-.74-1.19-1A36.09,36.09,0,0,1,103.31,78.82Z"/><path class="cls-1" d="M112.81,98.53a8.76,8.76,0,0,1-1.42,4.51c-.86-.19-1-2.06-.72-2.61a70.69,70.69,0,0,0-16.14-3.09,49.42,49.42,0,0,0-8.07,0c-4.65.54-9.19,2.17-13.3,1.42-.27-1.37.64-1.58,1.19-2.13,6.06.65,12.41-1.16,18.52-1.19C99.4,95.41,106.2,97.23,112.81,98.53Z"/><path class="cls-1" d="M152.46,101.85c1.19-.46.93,1.61,1.19,1.9.45.51,1.67.78,1.66,2.37.71.19,1-.43,1.42.72,1.11,0-.26.34,0,1,.71.34.81-.2,1.43.23,2.41,4.2,6.32,6.37,7.36,12.35a11,11,0,0,1,2.85,6.65c.23.32.8.3.95.71,3.33,10.21,6.9,21.29,8.07,32.29.13.74.72,1,1,1.66.82,5.15,1,10,1.66,14.72.77,5.59,2,11,1.9,16.38,1.37,1.69.81,4.83.24,5.7-.78.77-.51-1.16,0-1.19-1.76-5.13-2.33-11.39-3.33-17.33-.51-3-.31-6.32-.95-9-3.37-14.29-4.83-29.29-10.21-42.26-2.87-9.93-9.7-19-15.66-26.35C152.39,102.41,152.43,102.14,152.46,101.85Z"/><path class="cls-1" d="M88.83,106.6c1,1.52.84,4.45.24,6.88.15.25.55.25.47.72-.13,3.27.19,5.82,0,8.07-.13,1.54,0,3.32-1,4.51C88.45,119.46,87.56,113.72,88.83,106.6Z"/><path class="cls-1" d="M96.19,108.74c.39-.07.41.22.71.23-1,3.8-1.36,6.81-2.37,10.45C93.92,116.17,95.44,111.87,96.19,108.74Z"/><path class="cls-1" d="M83.13,109c1.67,3.44,1.57,7.63,1.67,11.87C83.38,117.8,82.33,112.05,83.13,109Z"/><path class="cls-1" d="M69.84,126.78c-1.13-.14-1.58-1-1.66-2.14-3.29-4.23-6.62-8.42-8.79-13.77.46-.44.43.14,1.19,0,1.6,3.13,4.22,6.3,5.46,9.5.5.29.69.89,1.42.95C67.59,123.67,69.84,125.09,69.84,126.78Z"/><path class="cls-1" d="M92.39,112.06c1,1.94.06,4-.47,7.12C90.5,117.51,92.15,114.26,92.39,112.06Z"/><path class="cls-1" d="M56.78,114.2h.48a50,50,0,0,1,7.59,10.44c-3.66-2.38-5.53-5.86-8.31-9.49C56.51,114.72,56.83,114.65,56.78,114.2Z"/><path class="cls-1" d="M53.22,117.52c3.94,1.2,5.46,4.83,7.6,7.83-.34.49-.82-.23-1.43.24C58,122.34,53.86,120.71,53.22,117.52Z"/><path class="cls-1" d="M121.83,123c-.39.4-.19,1.4-1.18,1.19-1.76,1.68-3.31,4.72-6.18,4.51,1.76-2.36,4.38-3.85,6.18-6.17C121.4,122.3,121.38,122.88,121.83,123Z"/><path class="cls-1" d="M125.39,126.3c-1.74,3.33-4.72,5.41-7.12,8.08-.77.14-1.1-.16-1.66-.24,2.46-2.69,5.36-4.93,7.36-8.07A2,2,0,0,1,125.39,126.3Z"/><path class="cls-1" d="M129.19,127c.23,1.58-1.68,2-2.61,2.85-2.28,2.08-4.39,4.89-6.41,7.12-1.78.23-2.43,2.75-4.51,1.9C120,135,124.1,131,128,126.78,128.35,126.91,129.23,126.5,129.19,127Z"/><path class="cls-1" d="M144.86,139.84c0,.63-.09,1.35.24,1.66,3,5.51,4.91,13.47,5.46,19.94.47,1,1.54,4.45-.24,4.75-2-8.2-3.89-18.39-7.12-26.12C143.51,139.75,144.23,139.84,144.86,139.84Z"/><path class="cls-1" d="M42.3,141c2.05-.08,5.56.44,6.17,2.61C46.5,143.56,44.08,142.07,42.3,141Z"/><path class="cls-1" d="M35.18,142.45c1.77,0,1.75,1.24,3.32,1,3.26,2.55,9,2.54,11.16,6.65-2.82-.82-5.66-2.82-8.79-4.28C38.49,144.66,36.22,144.4,35.18,142.45Z"/><path class="cls-1" d="M149.85,146.25h.71c1.33,2.8,3,9.51,1.19,11.16C151.1,153.5,149.31,149.34,149.85,146.25Z"/><path class="cls-1" d="M62.72,147.67h.47c1.19,2.58-.48,5.94-.71,9.5-.19,3,.52,8-2.14,9.26C60.58,159.54,61.74,154.83,62.72,147.67Z"/><path class="cls-1" d="M130.85,148.15c.26.06.17.47.48.47a23,23,0,0,1-4.51,2.85C126.62,149.76,129.86,149.45,130.85,148.15Z"/><path class="cls-1" d="M52.27,155.27c-3.52.28-6.29-2.25-9-3.56-2.13.2-3.91-1.93-6.41-2.14a10.07,10.07,0,0,1,6.41,1.66C47.21,151.63,49.65,153.54,52.27,155.27Z"/><path class="cls-1" d="M135.84,152.18c.2.67-.33.62-.24,1.19-2.56.41-5.09,3.24-7.59,2.14A64.67,64.67,0,0,1,135.84,152.18Z"/><path class="cls-1" d="M137,155.74c-2.13,3.41-6.65,4.44-9.74,6.89-.6-.42-1.15.26-1.66-.48C129.79,160.38,132.73,157.39,137,155.74Z"/><path class="cls-1" d="M40.16,156.22c2.94.42,6.45.86,9.5,2.61-2.72,2-6.37-1.55-9.26-1.66C40.43,156.74,40.11,156.67,40.16,156.22Z"/><path class="cls-1" d="M199,157.88a4.7,4.7,0,0,1,.48,2.14C198.86,159.76,199,158.74,199,157.88Z"/><path class="cls-1" d="M189,173.08c.42,0,.54.4.48.95C189.08,174,189,173.62,189,173.08Z"/><path class="cls-1" d="M58,175.92h.71A74.77,74.77,0,0,1,58,196.34c-1.64-.82-.57-3.6-.48-5.46a137.75,137.75,0,0,0,0-14.24A.68.68,0,0,0,58,175.92Z"/><path class="cls-1" d="M31.14,176.87c6.53,1.44,12.44,2.14,16.38,5-5.59-.66-10.78-2.34-16.14-4A1.29,1.29,0,0,1,31.14,176.87Z"/><path class="cls-1" d="M61.53,178.3c.38-.07.41.22.71.24,0,2.71-.08,5.65-.24,8.31-.06,1,.62,2.69-.71,3.32-1-1.22-.08-3.45-.24-4.51C60.06,183.23,60.78,180.34,61.53,178.3Z"/><path class="cls-1" d="M47.28,185.42c-.85,1.49-2.38,0-3.79-.47-2.36-.75-5.29-.78-6.89-1.9v-.71A21.25,21.25,0,0,1,47.28,185.42Z"/><path class="cls-1" d="M131.33,182.1c4,.49,6.15-.5,10.21.71-2.94,1.07-6.34.09-10,.24A1.3,1.3,0,0,1,131.33,182.1Z"/><path class="cls-1" d="M44.43,186.85c-2.19,1.15-5.64-.25-8.54-.48C37.63,185.42,43.39,184.93,44.43,186.85Z"/><path class="cls-1" d="M144.62,187.32c-2,1.36-8,2-9.73.71.36-1.19,1.78-.4,2.85-.47C140.05,187.41,143,186.31,144.62,187.32Z"/><path class="cls-1" d="M169.32,188c.89-.1.34,1.24,1,1.43C169.7,190.16,169.47,188.53,169.32,188Z"/><path class="cls-1" d="M133.23,192.31h.47c3.36,3.32,10.46-1.33,13.3.95C143.13,193.93,135.7,196.2,133.23,192.31Z"/><path class="cls-1" d="M204.45,195.63c.54.25.09,1.49.24,2.14C204.05,196.87,204.39,196.76,204.45,195.63Z"/><path class="cls-1" d="M182.37,200.14c.55.86.26,1.14.48,2.14.57.09-.13-1.08.71-.71a5,5,0,0,0,0,1.89c-.91.21-.57.56-.47,1.43-.25-.16-.25-.55-.72-.48a3.05,3.05,0,0,0-.47-3.32C182,200.72,182.65,200.89,182.37,200.14Z"/><path class="cls-1" d="M58.44,230.77c-1.51-2-.27-5.15-.47-8.55a118.42,118.42,0,0,0-1.66-15.67c.19-.2.65-.14.71-.47.38-.07.41.22.71.23C59.19,215.21,60.24,223.24,58.44,230.77Z"/><path class="cls-1" d="M33,208.45c4.44.62,9.38.75,12.58,2.61-4.91.34-7.9-.73-12.34-1.66A1.3,1.3,0,0,1,33,208.45Z"/><path class="cls-1" d="M61.05,209.64c.28,0,.43.05.48.24.06,2.63,1.33,7.93,0,10.2C61.28,216.77,60.31,213.55,61.05,209.64Z"/><path class="cls-1" d="M174.06,211.54c.55-.68,1.27.46,1.19,1.18C174.43,212.76,174.87,211.52,174.06,211.54Z"/><path class="cls-1" d="M143.44,216.05c-1.88.88-5.33-2.33-8.07-2.14C137.44,212.19,141.84,214.37,143.44,216.05Z"/><path class="cls-1" d="M37.08,215.1c3.5,0,5.88,0,8.07,1-2.58,1-4.34-.43-8.07,0Z"/><path class="cls-1" d="M158.39,218.19c2,4.74,1.58,8.85,1,14.48-1.92-.7-.65-3.34-.71-5-.1-2.65-1.18-5.62-.24-7.6.3-.76-.76-.18-.47-1C158.36,219.1,158.07,218.33,158.39,218.19Z"/><path class="cls-1" d="M144.86,220.56c-2.53.17-5.87,1.33-8.55,1.19a16.2,16.2,0,0,1,5-2.14C142.63,219.35,144.12,219.49,144.86,220.56Z"/><path class="cls-1" d="M45.62,219.85c-.3,1.19-2.11.89-2.61,1.9-1.08-1-2.59-.13-3.56-1.19C40.36,219.7,43.65,220.3,45.62,219.85Z"/><path class="cls-1" d="M145.81,228.63c-3,.92-7.19-1-10.21-1.66a1.1,1.1,0,0,0,.24-.71C138.39,226.89,143.75,226.72,145.81,228.63Z"/><path class="cls-1" d="M178.34,226.49c.3.42.8.63.71,1.43C178.33,227.93,178.46,227.09,178.34,226.49Z"/><path class="cls-1" d="M179.53,228.87c.76-.21.32.78.94.71C180.24,230.18,179.42,229.39,179.53,228.87Z"/><path class="cls-1" d="M135.13,231.72c4.21,1.62,9.43.24,13.06.95-2.93,2.12-9.1,1.15-13.06.23Z"/><path class="cls-1" d="M133.47,234.33a28.12,28.12,0,0,0,5.46,2.14,34.62,34.62,0,0,0,6.64.95c1.48-.06,3.43-1.5,4.52.23-4.81,2.4-12.05-.42-16.62-1.9Z"/><path class="cls-1" d="M63.19,241.93h.71c2.26,6,1.46,14.3.95,19.46a17.41,17.41,0,0,1-.71,9.5c-1.19-.94-.32-2.43-.24-4,.38-7.65-.67-17.09-.71-24.21C62.91,242.33,63.1,242.27,63.19,241.93Z"/><path class="cls-1" d="M50.61,249.76c-2.59,1.57-8,.22-12.58-.24a1.08,1.08,0,0,1-.24-.71A50.57,50.57,0,0,1,50.61,249.76Z"/><path class="cls-1" d="M48.23,256.17c-1.15,2-5.82,1.28-6.88-.24C43.41,255.21,45.83,256.56,48.23,256.17Z"/><path class="cls-1" d="M146.52,260c-4.74.34-8.5-1.42-13.05-1.66-.07-.39.22-.41.23-.71C137.32,257.44,143.2,258.34,146.52,260Z"/><path class="cls-1" d="M159.82,257.6h.71a88.72,88.72,0,0,1,.48,16.61c-1.21-.52-.85-2.08-.95-3.32-.22-2.55-1-5.84,0-8.55C159.45,260.19,159.25,259.87,159.82,257.6Z"/><path class="cls-1" d="M178.34,261.87c.21-.64,1,.11.71.71C178.5,262.65,178.79,261.9,178.34,261.87Z"/><path class="cls-1" d="M145.57,266.14c-2.84,1.1-6-1.41-9-1.66-.06-.38.23-.41.24-.71C139.77,263.58,143.09,265.05,145.57,266.14Z"/><path class="cls-1" d="M218.46,274.21c-1.49-.6-.81-2.37-1.19-3.56a7.5,7.5,0,0,0-4-4.27v-.71C217.64,264.82,220.39,270.15,218.46,274.21Z"/><path class="cls-1" d="M29,266.85c3.38,9.53,11.47,14.33,19.47,19.24A14.18,14.18,0,0,1,43,284.42c-6.63-3.59-14.92-10.39-15-17.09C28.87,268,28.92,267.86,29,266.85Z"/><path class="cls-1" d="M217.75,278.25c-1.62-.13-1.46-2.1-1.9-3.09-1.2-2.68-3.36-4.67-5.46-6.64,2-1.91,3,1.42,4.75,1.9C216.3,273,219,275.28,217.75,278.25Z"/><path class="cls-1" d="M145.1,270.18c-1.53.26-3.57,1.12-5.22.47C140.73,269.43,144,268.83,145.1,270.18Z"/><path class="cls-1" d="M213.24,280.15c-1.44-3.15-2.79-6.39-5.7-8.07,1.91-2.9,5.86,2.46,6.41,5.22C214.18,278.43,214.6,280.14,213.24,280.15Z"/><path class="cls-1" d="M208.25,274.45c.81,2.24,3.74,5.49,1.9,8.07-1.44-2.83-2.44-6.1-5-7.83C205.82,273.75,207.05,274.2,208.25,274.45Z"/><path class="cls-1" d="M146.05,277.06a8.34,8.34,0,0,1-7.12-1.42c-.18-.65.47-.48.47-.95C141,276.06,144.67,275.43,146.05,277.06Z"/><path class="cls-1" d="M203,275.88c2.82.07,5.12,3.77,3.56,5.93C205.62,279.73,203.2,278,203,275.88Z"/><path class="cls-1" d="M201.13,290.36c-1.57-.13-1.66-2.57-2.37-4s-1.9-2.75-2.62-4c-1.2-.39-2-1.21-3.08-1.67a1.2,1.2,0,0,0,.24-.71C198.31,279.89,201,285.53,201.13,290.36Z"/><path class="cls-1" d="M30.9,280.39c-.15.72-.37,1.37-1.18,1.42-1.75,2.13-1.54,6.22-3.33,8.31C23.88,286.92,27.22,280.31,30.9,280.39Z"/><path class="cls-1" d="M135.84,280.62c2.35,2.78,5.63,4.32,9.26,1.9-1.11,3.93-7.57,2.12-9.26,0C136.17,281.81,135.73,281.68,135.84,280.62Z"/><path class="cls-1" d="M192.58,283c.28,0,.43.05.48.24,1.16.26,1.4,1.44,2.37,1.9.36,2.9,4.4,6.17,1.9,8.3-.92-4-3.27-6.54-5.22-9.49C191.93,283.3,192.58,283.47,192.58,283Z"/><path class="cls-1" d="M32.56,284c-1.19,3.08-2.06,6.36-3.08,9.73-2.95-2.67.8-7.53,1.9-10C32.05,283.52,32,284.05,32.56,284Z"/><path class="cls-1" d="M194.72,296.77c-.34-.27-.58-.26-.71.24-1.6-4.42-2.71-9.32-6.18-11.87.11-.22.21-.43.48-.48,1.13-.49,2.43.67,3.32,1.19C192.66,289.3,195.6,292.94,194.72,296.77Z"/><path class="cls-1" d="M37.31,285.37c-.23,1.34-1.34,1.3-2.13,2.38-1.87,2.53-1.57,7-2.85,8.54-.89-.4-1-2.62-.95-3.79C31.39,289.27,34,285.4,37.31,285.37Z"/><path class="cls-1" d="M41.11,286.8a65.57,65.57,0,0,1-5.93,10c-1.31-1.34.12-3.53,1-5,1-1.86,2.64-3.28,3.32-5.22C40,286.64,40.34,286.94,41.11,286.8Z"/><path class="cls-1" d="M190.92,299.38c-1.73-4-2.62-8.78-5.93-11.16,3.3-2.65,5.89,5.21,5.93,7.36,0,.6.37.75.71.95C191,297.66,192,298.92,190.92,299.38Z"/><path class="cls-1" d="M184,287.75c1.41.68,1.55,3,2.13,5.22.7,2.69,2.6,5.3.71,7.12-1.74-3.56-2.58-9.28-4.74-11.63C182.18,287.64,183.45,288,184,287.75Z"/><path class="cls-1" d="M180.24,289.88c1.23,1.2,1.62,3.24,2.61,5.47,1.5,3.38,4.75,8.17,2.14,10.68-1.17-5.51-3.93-11.2-6.65-15.91C178.68,289.75,179.55,289.91,180.24,289.88Z"/><path class="cls-1" d="M51.8,293.68c1.07.7-.17,3.1-1.19,3.8-.48.91-1.64,4.12-3.56,3.56.8-2.75,2.68-4.44,3.56-7.12C51,293.79,51.84,294.2,51.8,293.68Z"/><path class="cls-1" d="M57.73,295.58c-.39.88-1.69.84-2.37,1.43-1.53,2.84.75,7.86-1.67,9.26-.71-2.14-1.9-7.3.24-10.21C54.8,295.65,56.54,294.87,57.73,295.58Z"/><path class="cls-1" d="M166,308.64c-1.34-2.49-1.49-6.36-2.85-9.5-.48-1.12-1.49-1.48-1.42-3.08,1.25-.33,1.88.54,3.09,1.18.07,1.15.2.86.23,2.14a27.78,27.78,0,0,1,1.19,4.75C166.58,305.57,167.87,307.9,166,308.64Z"/><path class="cls-1" d="M62.72,296.77c-.66,1.25-1.93,1.33-2.62,2.37-1.94,3-.6,7.55-1.66,11.4C55.37,306.27,56.53,296.23,62.72,296.77Z"/><path class="cls-1" d="M73.64,298c-3.59,3-2.36,7.46-3.56,11.63C68.25,305.84,68.11,297.67,73.64,298Z"/><path class="cls-1" d="M156.73,297.72a8.35,8.35,0,0,1,2.38.24c1.57,3.5,4.21,8.69,4.27,12.82,0,1.1.16,4-1.9,4C161.53,308.41,158.79,302.8,156.73,297.72Z"/><path class="cls-1" d="M77,298.91A45.54,45.54,0,0,0,74.82,306c-.31,2.18.77,4.62-.94,5.46-1.43-3.94-.85-9.56,1.66-12.58Z"/><path class="cls-1" d="M66.28,299.38c-2.3,1.85-.77,8.14-1.9,10.45C63,307.79,61.05,298.37,66.28,299.38Z"/><path class="cls-1" d="M153.41,299.14c3,4,4.28,8.45,4.75,14.25-.76.35-.74,1.47-1.66,1.66.2-5.34-2.78-11.33-3.8-15.67C153,299.4,153.37,299.42,153.41,299.14Z"/><path class="cls-1" d="M117.32,301.75a1.3,1.3,0,0,0,1,.24,78.51,78.51,0,0,0-.24,13.53c-2.06-.62-2.52-4.81-2.37-7.59.1-1.86,1.07-4,1.42-5.46C117,302.08,117.31,302.06,117.32,301.75Z"/><path class="cls-1" d="M91.21,302c0,2.9.53,7.13-.24,10C89.06,309.69,88.27,303.63,91.21,302Z"/><path class="cls-1" d="M96.19,302.47a34.33,34.33,0,0,1,.48,9.49C94.66,310.62,93.15,303.18,96.19,302.47Z"/><path class="cls-1" d="M146.52,302.47H147c5,1.59,3.57,8.4,2.85,12.58-1.42-1-.67-3.85-.95-5.93C148.55,306.51,147.31,304.53,146.52,302.47Z"/><path class="cls-1" d="M123,303.65c.1,2.88-.52,6.48-.48,9.26.27.73,1.56,2.84-.23,3.33-2.26-3-1.19-9.05-.24-12.59Z"/><path class="cls-1" d="M104,304.84c-.12,1-.76,2-1,3.33-.36,2.51.61,6.37-1.19,6.88C101,311.33,99.81,304.61,104,304.84Z"/><path class="cls-1" d="M113.29,305.79c-.62,3.7.14,6.09.23,9,0,1,1,2.68-.47,3.56-1.12-.06-.67-1.31-1-2.37C111.12,312.36,108.87,305.58,113.29,305.79Z"/><path class="cls-1" d="M142,306.5c.47,1.4,1.32,4.27-.47,5a18.11,18.11,0,0,1-1.19-4.75C140.66,306.41,141.38,306.51,142,306.5Z"/><path class="cls-1" d="M107.35,307.69c-1,3.64.74,6.91.24,9C104.62,316.33,103.32,305.93,107.35,307.69Z"/><path class="cls-1" d="M140.35,21.37a1.14,1.14,0,0,0-.24.71c1.55-.83,1.53-3.22,4-3.09a150.46,150.46,0,0,0-8.55,14.72c.67,7,1.28,19,1.43,28.73.95.57,1.85-.64,3.08-.71,2-.12,4.2,1.23,6.41,1.66,6.32,1.23,11.61,4.39,16.86,7.36a13.82,13.82,0,0,1,4.51,3.32c.77-.13,1.11.17,1.66.24C176,82,184.35,86.68,189.5,95.44c1.65,1.21,2.49,3.22,3.8,5a14.43,14.43,0,0,1,2.13,3.32c2,4.36,4.86,9,7.12,14,1.57,3.45,2.8,6.64,4.28,10.92.44,1.28,1.35,2.45,1.66,3.56,1,3.73,1.21,7.89,2.14,11.87a75.56,75.56,0,0,1,1.66,10.69c.63,7.07,3,14.32,4,21.84.6,4.32.4,9.09,1,13.05.21,1.47,1.2,2.74.24,3.8,1.2,7.9,1.4,13.15,2.14,19.95,1.56.42,2.54,1.43,3.8,2.37a22.1,22.1,0,0,1,6.41,7.6,17.12,17.12,0,0,1,2.13,5.22c.67,2.35,2.25,4.67,2.85,7.36.78,3.46,2,7.68.71,10.21,1.79,11.26-2.26,21.74-7.83,29.44-.8,4.23-3.34,8.7-5.22,12.11s-4.31,6.82-7.6,7.6c-.61-.59.16-.85.48-1.19-3.94,3.58-7.67,7.37-11.4,11.16a26.17,26.17,0,0,0-10.68,6.41c-2.78.59-6.69,3.25-10,3.32-3.37,2-6,2.33-9,4.27,0-.42-.29-.5-.24-.95-6.46,2.64-16.24,3.68-25.4,5.23-3.38.57-6.61,1.6-9.73,1.9-3.82.35-7.75.14-11.64.47-15.38,1.33-30.13-.33-45.82-1-15.94-.62-29.7-6.35-42-10.92a4.16,4.16,0,0,1-2.37,0c-.33-.31-.24-1-.24-1.66-5.74-3.38-13-6.78-17.57-12.11-.87.16-.91-.51-1.66-.47-1.33-1.83-3-3-4.28-5s-2.92-2.51-5-4c-2.63-1.94-3.58-5.64-5.94-7.36-.73-2.27-1.19-4.82-2.37-6.64-.25-1.05.8-.78.71-1.67-1.23-9.47,3.13-18.42,4.51-25.87.28-1.48.07-2.85.71-4,.54-1,2-2.69,2.85-4a40.91,40.91,0,0,1,5.94-7.83,55.22,55.22,0,0,1,10.68-8.07c.19-8.51-2.86-19.11.48-25.17,1.91-.58,3-.49,4.75-1.19-2.14-1.88-6.59-1.64-7.13-5.22-1.12-7.47.46-21.31,2.38-28,1.59-.55,3.93-.34,5.46-.95,0-1.44-1.24-1.62-2.14-2.14-1.45-1.84-1.64-4.12-1.19-6.89,1.66-10.09,2.58-24.3,7.13-31.57,2.34-.26,3.54,1.72,4.51-.24.14-1.78-2.75-2.89-2.85-4.51-.23-3.61,5.71-5.54,7.59-7.84,1.32-1.59,1.57-4,2.38-6.17a47.15,47.15,0,0,1,5.46-9.49A99.19,99.19,0,0,1,65.57,81.2a50.83,50.83,0,0,1,7.83-5.46c3.06-1.92,5.86-4.24,9-6.18s7-3,9.74-5.46c4.31-1.07,8.43-1.52,13-2.61.83.12.27-1.16,1-1.19s.82.93,1.67,1c.45-2.62-.71-6.18-1.19-9.73a66.7,66.7,0,0,1-1-10,7.53,7.53,0,0,1-.71-5.46c.88-.87,1.51-.65,2.85-1.19A95.57,95.57,0,0,0,96,23.5c0-.68.06-1.2.48-1.42-.68-.43-1.8-.41-1.66-1.66a2.76,2.76,0,0,1,1.9-1c-.06-.93.51-1.23.71-1.9,6.3-6,13-11.71,19.47-17.57,2.33,1.06,4.77,2,5.93,4.27,7.61,3.55,13,9.36,19.95,13.54C142.65,19.72,139.21,19.69,140.35,21.37ZM116.61,3.09c-1.62,1.47-3.52,2.65-5,4.27,1.73,0,3.8-.31,3.8,1.42a14.53,14.53,0,0,1-4.75-.47,15.29,15.29,0,0,0-3.79,3.56c1.72.79,4.14.53,5.93.71-.94,2.47-5.72.76-6.65-.47-.91,1.15-1.9,2.21-2.85,3.32,4,2.89,12-.93,15.44,2.38-5.91-.34-11.79.85-16.15-1.67a15.67,15.67,0,0,0-3.32,3.57,150.32,150.32,0,0,0,28.25.94c-.15-1.11-1.08-1.45-1.19-2.61-1.19.09-2.21,0-2.37-.95.24-.39,1-.25,1.42-.47C122.75,12.09,120.42,7,116.61,3.09Zm8.78,9.26c1.32-.11,1.42-1.44,3.09-1.19.06.34.39.4.48.71-.43,1.24-1.93,1.4-2.62,2.38.36.2.35.76.48,1.18,1.94,0,3.43-3.06,5-1.18a14.43,14.43,0,0,0-3.56,3.08c2.2.47,4.36-3.21,6.89-1.66-1.28,1.88-4.54,1.79-5.23,4.27,2.88-.84,6.13-1.31,9-2.13-6-3.57-11.25-9.18-17.34-11.87C123.42,7.82,123.93,10.63,125.39,12.35Zm4.51,10a10.35,10.35,0,0,0,4.28-1.67A8.62,8.62,0,0,0,129.9,22.32ZM99,23.5c-.25-.88.5-.76.71-1.18-.87.15-.91-.52-1.66-.48C98.12,22.68,98.33,23.35,99,23.5Zm31.58.48c-1.21,2.67-2.81,4.95-2.85,8.78,1.14-.12,2.13-.17,3.8-.23,1.34-4.2,4.39-6.69,6.17-10.45C135.22,21.64,133.06,23.56,130.62,24Zm-15.91.47c2.72-2.28,9-.08,11.4-1.66-5.65.62-14-.44-21.37-.24C108.14,23.38,111.65,23,114.71,24.45Zm9,12.59c-.4.39-1.06.51-1.42,1a2.18,2.18,0,0,0,2.13-.72s1-2.49,1-2.37c1.1-3.66,1.54-9.17,3.33-11.63-1.1.14-1.37-.54-2.38-.48C125.73,26.72,124.16,32.92,123.73,37Zm7.6-.24c3.29-4.07,5.4-9.32,8.31-13.77.25,0,.19-.3-.24-.24C136.05,26.8,133.63,31.74,131.33,36.8ZM112.1,33.24c2.28-1.9,8-2.14,10.92-1.9,0-2.72,1.19-4.06,1-6.89-.63,1.56-2.15,1.61-3.8,1.67-6.25.21-12.34-1.41-17.09-1.9A68.64,68.64,0,0,0,112.1,33.24Zm-2.61.47c.1-1.52-1.7-1.15-1.43-2.85-2.08.66-2.71-3.24-4.51-2.84C105.22,30.23,107.69,31.64,109.49,33.71Zm9.73,0c.3,0,.33.31.71.24a.64.64,0,0,0-.47-.71C119.46,33.48,119.27,33.52,119.22,33.71ZM120.41,38c-.15-1.28-1.7-1.15-1.66-2.62-1.49.15-1.47-1.22-2.38-1.66C116.44,35.49,119.19,36.58,120.41,38Zm-4-.72A11.42,11.42,0,0,0,112.81,34C113.69,35.37,115.12,36.23,116.37,37.27Zm10.92-2.13c.1-.46.92-.19.72-1C127.27,33.88,126.66,34.86,127.29,35.14Zm-19.94,4c1,11.83,2.46,20.16,3.8,29.44.44.23.79-.71.95,0a6.73,6.73,0,0,1-1.43,2.85,4.49,4.49,0,0,0,1.9,2.38c-.24-.72.53-.42,1-.48,6.49,2.33,16.59,2.45,20.66-2.61,1.52-1.89.72-6.35.71-9,0-7-.8-16.55-1.19-23.51-1.41.17-1.22,2-3.08,1.67-.57.09.13-1.09-.72-.72-4.38.23-12.08,2.2-16.85-.23-.25-1,.37-1.06.71-1.43-.89-.71-1.09.85-2.14.71a7,7,0,0,0-2.85-2.37,1.19,1.19,0,0,1-.71.71c1.07,2.81,4.7,3.06,7.36,4.28C111.9,42,109.92,40.89,107.35,39.17Zm-.71,24.7c.72-.18.86.24,1.42.23v-.71C107.65,63.61,106.88,63.47,106.64,63.87ZM225.58,275.4c-.64-.06-1.06-.53-1.42-1.42.35-5.75-.65-15.44-8.31-15.91a78.85,78.85,0,0,1-19.23,17.09c1.55-.2,2.2.49,3.56.48,3,4.39,7.25,8.84,7.6,15,.12,2.13-.46,3.77,0,5.69-.68.43-1.06,1.17-2.38.95,0-.59-.37-.73-.47-1.18,3-7.79-2.84-13.76-6.17-18.76-1.4-.26-2.62-.71-4-.95-4.58,2.27-9.06,5.52-14.72,5,13.31-4.68,25.47-12.5,33.24-23.51.45,0-.28-.79,0-1.42,6.7-3.05,8.95-13,7.12-20.66-.06,1.13-.69,1.69-1.9,1.67.35.94,1.19,2,1.19,3.08a17.58,17.58,0,0,1-1.66,5c-.44.82-1.47,1.24-1.9,1.9-1.81,2.77-2.86,6.86-5.23,9.73-1.9,2.31-3.86,3.7-5,5.7-3.75,2.38-7.73,5.06-11.87,7.6A113.48,113.48,0,0,1,181,276.83c-4.54,2-8.57,4.79-14.72,3.79,0-.73-.75-.67-.47-1.66,6.07.65,11.22-2.87,16.38-5a66.23,66.23,0,0,0,11.39-5.7c3.64-2.44,7.66-4.48,10.45-6.89,6.53-5.64,10.61-13.65,12.82-23,.41-.53.68-1.21,1.42-1.42-1.34-14.54-1.26-26.55-2.61-41.31-1.6-17.44-6-34.57-8.78-51.52A144.67,144.67,0,0,0,201.6,123a190.32,190.32,0,0,0-10.2-19.7c-5.23-5.22-8.67-12.23-13.77-17.57-4.08-3.21-7.91-6.66-12.11-9.74-8.46-2.77-13.93-9.81-23.74-10.44,2.58.81,3,3.32,3.56,5.93,2-.22,3.95,1.59,6.41,1.66.65,1,2.08,1.24,2.61,2.38,7,3,12.72,8.69,17.57,14.24,2.38,2.74,4.87,5.73,6.17,9.26.28.15.62.12,1,.71-1,1.18.93,2.06.95,3.57a117.89,117.89,0,0,0-11.87-15A88.5,88.5,0,0,0,161,81.2c-3.32-2.69-7.39-4.38-11.16-6.41-1.56-.84-2.88-2-5.23-1.67,0-.37,0-.82-.47-.71-1.68,7.62-10.07,11.88-19.23,12.11-6.36.16-12.87-1.59-15.91-5.22-2.87-.53-3.55-3.26-4-6.18-12.18,2.6-20.74,8.72-28.49,15.44-2.65,2.29-4.69,5.1-7.6,7.12.17-.65-.47-.48-.48-1,1-2.43,3.19-4.9,5.23-6.89C77,84.6,81.87,81.27,86.7,78.11c4.68-3.06,12.94-6.73,18.51-6.41-.32-1.92,2-3,3.56-3.8a11.58,11.58,0,0,1-.23-1.9,29,29,0,0,0-14.25,1.43c-15.42,5.92-27.09,17-37,28.25-2.8,3.15-5.49,6.43-6.89,10.21,2.94-1.66,4.46-4.73,7.6-6.18,4.15.28,9-1.94,12.82-1.42-.8,3.16-4.26,2-7.12,2.37-6,.68-9.54,3.89-12.35,7.36a60.65,60.65,0,0,1,15-6.41c.93.91,1.41,1.79,2.85,1.67,1.61-4.08,8.74-2.84,13.77-2.85a142.35,142.35,0,0,1,23,1.9c1.62,1.7,2.18,4.46,4.27,5.69,1.13-1.77-1.49-3-1.66-5a13.81,13.81,0,0,1,1.66-.71,27.67,27.67,0,0,0,1.66,3.56c2.23-.58,4.63,2,6.65,1,3,1.25,5.65,4.14,8.55,6.17.3.21.89,0,1.18.24,1.26,1,2,1.87,3.33,2.85a30.29,30.29,0,0,1,4.74,4.51c.73.76,2.33,1.65,1.43,2.85-4.86-5.35-11-9.39-17.09-13.54,6.69,5.89,13,12.14,17.8,20,2.08-.23,3.45.29,5-.48-.61-3.48-3.51-6.37-5.94-9s-5-5.38-7.36-7.6a37.15,37.15,0,0,0-8.78-6.17c-1.46-2.45-4.56-.4-6.65-1.42.22-1.81,1.69-1.83,3.32-1.67,6.54.65,13.22,7.22,17.81,12.11,2.24,2.39,5.49,6.07,7.83,8.55.47,1.75,2.05,2.6,2.14,4.51.14,3.08-2.1,6-3.32,8.07,3.85-.23,5.22,3.23,8.07,1.43,1.88,1.4,1.57,3.63,2.37,5.46.45,1,1.37,1.53,1.67,2.61a17.19,17.19,0,0,0,.23,1.9c.9,2.39,3.53,5.52,4,7.59a3.89,3.89,0,0,0,.71,1.67,3.64,3.64,0,0,1,.48,2.37c.38,3.09,4,6.89,3.8,10.45.67-.1,1.29.77.47,1.66-2.46-5.62-6.18-13.38-9.5-20.18.8,2.94.13,4.72.95,6.88.56,1.47,2.78,2.52,2.38,5,2.63,2.15,3.42,7.29,4.75,10,.58.13,1,.19,1.18,1.19-.41.09-.61-.35-.71,0,.51.52.61,1.6,1.19,1.42,0,3,2.52,4.69,2.13,6.65-3.84-5.41-6.12-12.39-9.73-18,.33,1.35-.54,1.51-.71,2.37,1.4,1.56,2.78,3.48,2.85,5.7,1.33,2,3.28,3.37,3.32,6.65,1.63,1.62,3.16,3.32,3.33,6.41,3.61,6.71,6.58,13.49,9.73,20.18-6.14-10-10.67-20.31-16.62-30.63.11,7.89,5.76,12.55,7.36,19,0-.29.07-.56.47-.47,1,1.93,1.44,5.58,3.09,6.65-.94-.45-.18.31.24.47.05.45-.27.52-.24.95a30.59,30.59,0,0,1,3.56,7.12c.48.35,1.68,1.57.71,1.9-1.72-3.5-4.14-6.3-5.46-10.21-1-.46-1.34-1.51-1.42-2.85-3.13-3.87-5.21-9.68-8.31-14.24a30,30,0,0,1-.24,3.09c5.44,10.86,11,21.66,16.62,32.28-.28,0-.54-.42-.71,0,1.18,2.23,3.09,5,3.56,7.13-7.14-10.27-12.68-22.15-18.76-33-.39,5.26,1.56,7.77,3.33,11.15,1.31,2.51,2.22,5,3.8,6.41,2.84,6.42,6.23,12.29,9.49,18.29-.65,2,1.78,4.62,2.85,6.41,0-.34.06-.91.24-.48a1.29,1.29,0,0,0,.24,1c-.15-.14-1.13-.55-1.19,0,1.77,1,2.68,3.89,3.32,5.7-5.32-9-10.51-18.27-15.19-27.3-1.43-1-2-4.22-3.32-4.51-.32,7.65,5,12.72,7.59,19.46,5.4,7.66,9.3,16.82,14.25,24.93-1.08.7.57,1,0,1.66-7.23-11-13.71-22.69-20.66-34-.71,5.48,2.08,8.56,3.8,11.64,2.84,5.07,4.11,9.5,6.65,13.77-.72,0-.23-1.2-.95-1.19-.22.75.73,2.43,1.66,2.14-1.34.23,0,1.22.48,1.66.2-.56-.83-1-.24-1.19.71.64,0,3.15,1.42,2.61-.32,0-.92-.92-.47-.95,1.69,1.92,1.92,4.2,2.37,5.94-1.9-3.16-3.92-6.21-5.93-9.26.29,0,.56-.07.47-.48-3.89-3.8-5.92-10.66-9-14.48-1.81,5.74,4.06,10.31,5.46,15.43,2.26.72,2.68,5.09,3.8,5.46.73,2.31,3.62,5.49,4.27,7.84-.34-.06-.4-.39-.71-.48a14,14,0,0,0,2.61,4.28c.29-.93-1.2-1.31-.47-1.9.18,1.08,1.79,2,1.42,2.85-.71-.48-.27-1-1.42-.24-4.52-8.23-10.15-15.34-14.72-23.5-2.58,2.49-5.58,5.8-10.69,5a7,7,0,0,1-4,1.66c-.62-.25-.71-1-1.43-1.18-5.63-1.77-13.92-1.73-19-4.51,0,1-1.05,1-1.42,1.66,9.43,2.19,17.89,6.2,28.72,5.22a12.18,12.18,0,0,1,1.9-1.19c.35-.52,0-1.77.71-1.9,1.36-.47,1.8,1.2,2.62.48-1-1,.77-2.43,1.42-1.9,2,5.63,5.76,9.59,7.83,15.19.5.41,1.83.77,1.19,2.14a2,2,0,0,1,1.43,1.19c1.21,3.53,3.85,5.64,5,9.26a2,2,0,0,0-1.66-1.43c.43,0,.56-.23.48-.71a3.4,3.4,0,0,0-1.67-.71c-4-5.53-7.36-11.63-11.39-17.1a21.5,21.5,0,0,1,.24,6.42c3.11,4.32,7.14,9,8.54,14.24-2.93-2.54-5.33-7.21-8.31-10.45.29,4.83.39,14.32.24,20.9-1.63,2-3.75,3.52-5.46,5.46,3.53-.83,5.61-3.1,8.78-4.28.82,2.59-2.6,2.91-3.79,4.28a3.31,3.31,0,0,1,2.37,1.66c4.44,5.84,5.8,17,4.51,24.45C195.53,308.19,214.24,295.48,225.58,275.4ZM181.9,250.47c.29.05.15.27,0,.48h.71C182.82,250.46,182,249.88,181.9,250.47ZM137.26,67H138v-.47h-.72Zm5.23,2.14c-1-.74-1.4-2.08-2.85-2.38-.11,2-2.38,1.9-2.14,4.28-.87.23-1.34.87-2.37,1-2.83,5.79-14.68,5.92-20.66,3.8.7.65,1.86.83,2.14,1.9-2.27.29-9.3-2.86-7.6-7.37a2.17,2.17,0,0,0-2.13.72c-.27,2.88,1,4.26,1.66,6.17,3.78,2.39,7.8,4.54,13.77,4.75,1.42-.21-.49-.19-.72-.24-1.26-.28-3-.92-3.56-1,7.13-.52,18.39-.65,19.95-7.36.67-.2,1-.77,1.9-.71.24,5.08-5,6.71-8.79,8.55,3.94-.42,9.14-2.65,10.21-6.41.33-1.16-.36-2.32.24-3.57-.5-.84-2-.67-1.9-2.13C140.32,68.27,142.33,69.38,142.49,69.09ZM127.77,82.15c.41-.22,1.18-.09,1.42-.48C128.56,81.67,127.8,81.54,127.77,82.15Zm-59.59,52.7a35.38,35.38,0,0,0-5,6.89c4.12,1.74,7.28-3,9.5-4.75,2-1.59,4-2.23,5.22-3.8-.42-1.18-.29-1.71-.71-3.09a6.47,6.47,0,0,1,1.9-.71c1.88,7.07,13.87,5,19.7,3.33a46.54,46.54,0,0,0,3.33-7.84c-1,.38-1.74-.61-1.9-.24a12.7,12.7,0,0,1-4.51,7.84c3-7.72,4.91-16.46,8.54-23.51-.53-.17-.09-1.33-.23-1.9,1.53.31,1-1.62,1.18-2.37-1-.07-1,.7-1.9.24v-1c-10.49-.76-20.84-2.84-32-1.43,1.46,6,4.2,12.64,5.7,18.76.66,2.7,1.63,5.55,1.19,7.83-.5-.65-.41-1-1-1.18-1,1.37-.88,2.45-2.14,3.56-1.77-.7-3.7,1.8-5.46,2.61.49.13.5.37.24.71-1.51,1.42-2.14,3.72-4.51,4.27C65.69,137.4,68.61,135.79,68.18,134.85Zm.71-23.5c-1.07-3.06-1.68-6.32-3.8-7.36-7.4,2.08-12.6,5.76-18,9.26-2.33,1.5-4.84,3.08-6.41,5.22,5.83,8.41,14.65,13.84,22.08,20.65,1.5-4.19,6-5.41,8.54-8.54,1.86.28,2.25-.92,3.8-1C73.39,123.57,70.85,117,68.89,111.35Zm1.66-4a2.1,2.1,0,0,0-1.66-1.9C69.23,106.26,69.37,107.31,70.55,107.31Zm37.75,4.27c1.15-1.72-.53-3.82-1.66-4.74C106,109.11,107.32,110.27,108.3,111.58Zm15.67,4a42.83,42.83,0,0,0-10.68-7.6c-.05-.28-.27-.14-.48,0-5.1,7.09-7.44,16.93-11.87,24.7,2,6.43,8.15,8.63,13.53,11.63,3.64-1.75,7.36-3.41,9.74-6.41.64-.5.59.54,1.42,0,3.28-2.74,7.62-4.41,9.74-8.31A86.2,86.2,0,0,0,124,115.62Zm-50.33,3.56c.55.08.53.74,1,.95-.12-1.93-1.17-2.95-1.19-5-1.84-.78-.61-4.62-2.61-5.23C70.73,113.36,73.56,115.18,73.64,119.18Zm30.62-6.41c1.59.15,1.36,2.13,2.38,2.85A4,4,0,0,0,105,110.4C105,111.44,104.32,111.8,104.26,112.77Zm.48,6.18c1.5-.86-.37-3.49-1.43-4C103.51,116.54,104.77,117.09,104.74,119Zm-1.9,4.51c.39-1,1-1.66,1.42-2.62-1.58-.24-.43-2.21-1.9-2.84C101.26,119.89,102,121.77,102.84,123.46Zm-60.54,4c.59.2.93.65,1.66.71-.18-.89.91-.51.95-1.18-.63-.4-.83-1.23-1.9-1.19C43,126.62,42.24,126.64,42.3,127.49ZM31.61,149.1c-.65,4.79-1.24,8.2,1,12.11,6.67,1.29,12,6,19.24,5.22.45.09,0,1.09,1,.71.94,0,1.42-.47,2.37-.47,1.47-6.74,3.37-14.52,3.56-22.32-6.77-6.51-12.55-13.43-22.08-17.57C34.36,132.61,32.63,141.61,31.61,149.1Zm13.54-19.95c.87.39,1.23,1.31,2.61,1.19C47.87,128.92,45.58,127.19,45.15,129.15Zm8.31,5c-1.83-.79-2.82-2.41-4.51-3.32C49.65,132.46,51.72,135.09,53.46,134.14Zm81.67,3.56c1.68-.13,2.92-.71,4.51-.95.76-1.58.17-3.13.24-5.22-.56,0-.7-.41-1.43-.24-.54,1.57,1,4.89-1.19,5-.87-1.55,0-3.5-.71-5C135.2,132.55,135.25,135.21,135.13,137.7Zm6.17-6.17c.08,1.34-.27,3.12.48,3.8a8.91,8.91,0,0,0,1.18-4C142.21,131.17,142.12,131.72,141.3,131.53Zm-61.49,3.56c-4.26,3.1-8.59,6.13-12.58,9.5,2.12,0,3.14-2,4.51-3.09a40.88,40.88,0,0,1,9.49-5.7c0-.75-1.38-1.45-1.66-1.19C79.76,134.67,79.85,134.81,79.81,135.09Zm18.76-.71a103.94,103.94,0,0,0-28.49,15.9c-.4-.09-1.07-1.11-1.43-.47.26.12-.17,1.55,0,2.37,9.88-6,20.94-12.39,30.87-16.85C99,135.25,99.38,134.2,98.57,134.38Zm32.52,4.74a4.47,4.47,0,0,0,2.38-.71c-.54-1.3.74-2.48,0-3.8C132.1,135.76,130.15,136.29,131.09,139.12ZM59.87,142a4.75,4.75,0,0,0,1.66-.95c-3-1.62-4.49-4.7-7.84-5.94C54.9,138.24,57.62,139.87,59.87,142Zm24.69-5.7c-5.79,3.31-11.84,6.36-15.67,11.63a164.48,164.48,0,0,1,19.23-11.4A13.32,13.32,0,0,0,84.56,136.28Zm13.77,1.9A196,196,0,0,0,74.82,151c-2.65,1.66-5.34,3.28-6.88,5.46,10.53-6.41,20.94-12.93,33.71-17.1C101.36,137.35,99.52,137.66,98.33,138.18Zm30.15-.24c-2.2,1.92-5,3.26-7.12,5.22,2.32-1.31,5.54-1.74,7.83-3.09C129.1,139.22,129.28,138.09,128.48,137.94Zm15.67.95c-5.76-.88-10.27,1.7-15.19,3.32a35.33,35.33,0,0,0-12.59,7.12,2,2,0,0,0-1.42.24c1.72,7.26,4,15.39,6.17,21.61,6.82-.83,12.66-1.35,18-3.56,1.91,1,4.82-.58,7.13-.72.64-7.27-1.52-15.42-4.28-21.13-.7-1.44-2.42-2.82-1.66-4.51,2.74,1.1,3.82,4,4.75,6.65,2.11,6,4.45,12.38,3.32,19.94,2.71-.22,4.28-1.58,6.41-2.37-1.51-7.78-2.06-18.07-5.22-25.41-1,0-.73,1.17-1.9,1A26.86,26.86,0,0,0,144.15,138.89ZM102.6,141c-9.31,3.25-19.49,9-27.54,14-2.71,1.67-6.69,3.19-7.83,6.18,10.88-7.18,25.23-14.17,37.51-20A2.63,2.63,0,0,0,102.6,141ZM57.49,166.9c0,.67-1.13.3-1,1.19,1.66.76,5.16,1.31,7.36,0,.18-4.43,1.88-9.53,1.43-13.06,1.5-1.88,1.61-7.18,1.18-9.73-1.79-1.35-3.29-1.53-5.22-2.61C60.85,151.73,58.94,158.27,57.49,166.9Zm39.65-19.46c3.56-1.43,7.79-2.19,11.16-3.8C104.43,142.17,100.69,146.29,97.14,147.44ZM114,146.25c-.21.16.19,1.36-.71,1.42-3.34,1.1-6.82,3.3-10,3.8-6.19,3.67-13.09,6.61-19.46,10.21-4.72,2.67-9.9,5.2-13.77,8.31-1.35,1.08-3.3,2.07-3.8,3.8,13.34-8.66,28.6-17.46,46.06-22.79.14-4.05,5.73-3.92,6.41-6.65A9.87,9.87,0,0,1,114,146.25ZM33.28,199.9c.23,0,.28-.19.47-.23,2.57.52,5.3.19,7.84.23s6.23-.11,6.88,2.14c-1.7.64-4.06-.32-6.17-.47a76.68,76.68,0,0,0-14.25.47c-1.63,9.47-.11,18.12,1.9,25.64,5.14,5.22,17.34,3.61,24.93,5.22-.37-10.42-1.6-23.12-2.61-32.28,3.23,1.75,5.86-1.21,7.12-3.56a2,2,0,0,1,1.66,2.13c2-.93.12-1.49-.23-3.09,2.36-1.08,3.2-4.19,2.13-6.88,1.53-1.24,1.21-4.33,1.43-6.88-.89-.31-.89-1.49-1.43-2.14.78-.41,1.69-1.15,1.67-1.66-.76-2.18-.22-3-.72-5-.41-.38-1.46-.11-1.66-.71-.06-.94.09-1.65.71-1.9a5.85,5.85,0,0,1,2.38.24c3.7-4.06,8.23-6.15,13.29-9a329.64,329.64,0,0,1,33.48-16.61c-17.46,2.9-31.92,12.85-44.16,22.55-.55-.16-.64-.79-1.19-1-1.2,3-3.91,3.62-6.88,3.56-3.21-.07-6.13-3.13-8.55-.71,1,.49,2.77.24,3.32,1.19-.07.48-.64.46-.71.95.88.06,1.63.26,1.9,1,.33,5.26,1,10.15,1,15.43-.05,3.47-1.25,6.72-.71,10.21-.49,1-1.66.11-2.61.47-.68.26-.87,1.07-1.66,1.19-1.55.24-3.24-.71-5.23-.95-4.76-.59-9.34-.36-13.06-1.66C34.11,198.76,33.29,199.76,33.28,199.9Zm79.06-46.77a149,149,0,0,0-24.69,10.69c-5.72,3-11.44,6-16.39,9.49-1.63,1.16-3.87,2.31-4.51,4.28a169.76,169.76,0,0,1,33.72-18.52c4.16-1.73,8.55-2.92,12.82-4.75-.48-.16.14-1.41-.72-1.19Zm-42.26,9.26c-1.24,1-3.16,1.78-3.33,3.56,4.41-3.38,11.66-8.77,16.15-11.15A61.79,61.79,0,0,0,70.08,162.39Zm-2.85,18.52C81.69,172.26,97,164.49,115,159.31a6.9,6.9,0,0,0-.71-2.62C95.85,161.9,79.63,170.52,67.23,180.91Zm42.26-17.57c-11.62,4.22-21.81,8.45-32,14.25-3.62,2-11.56,5.4-10.93,9a171.69,171.69,0,0,1,24-13.77c6.39-3.11,12.39-6.11,19.71-8.07,1.94-.52,6.25-.52,5.7-3.09C113.66,161,111.58,162.58,109.49,163.34Zm-74.31,2.85c.9-.21,1.51.39,1.9,0,0-.89-.27-.68,0-1.42a2.65,2.65,0,0,0-1.9-.48Zm40.59,17.09c-3.82,2.35-9.08,4.27-10.2,9,6.12-3.9,12.4-7.23,18.75-10.92,8.61-5,18-9,27.3-13.06,1.68-.73,4.72-.64,5.23-3.09h-.72A158.29,158.29,0,0,0,75.77,183.28ZM39,166.9a3.68,3.68,0,0,0,1.9.48c-.18-.82.27-1,.48-1.43-1,0-1.43-.47-2.38-.47C39,166.37,39.24,166.15,39,166.9Zm6.89,1.43c-.53-.9-1.93-.92-2.85-1.43C43.08,168.26,44.64,168.12,45.86,168.33Zm7.36,30.15A66.64,66.64,0,0,0,53,172.36c-8.4-1.93-16.72-4.19-24.21-4.74-1.26,8.93-1.8,19.29.23,27.77C37.28,196.06,45.49,198.06,53.22,198.48Zm95-27.54c2.35,1.67,3.07,5,3.32,8.55.42,5.92,1.62,13.48,1.19,20.18-.08,1.12-1.51,3.47.71,3.79.65-8.29-1-19.43-1.66-28-.07-.89-1.3-2.5.24-3.09.76.74,1.6,3.41.94,4,2.08,7.6,1.62,17.41,1.9,26.83,1.34.22,1.74-.48,2.61-.71.59-2.66-.46-4-1.18-6.89-.19-1,1.13-.45,1-1.42-1.48-7.45.79-14.3-1.43-22.8-2.61-.45-4.73-.07-6.41-.71.91-2.52,4.22-.72,7.13-.95-.45-.82-.42-2.12-1.43-2.37C152.88,168.67,149.45,168.72,148.19,170.94Zm-31.11-2.61c-4.19,2-10,4.2-14.72,6.17-9,3.78-17.14,9.23-25.4,13.77-4.23,2.33-8.85,4.26-11.87,8.07,15.29-9.61,31.42-18.87,49.38-25.64,1-.38,3.08-.5,3.09-2.13C117.32,168.57,117.28,168.37,117.08,168.33Zm-67.42.95c.24-.82-1.78-.57-1.9-.24C48.64,168.87,48.78,169.45,49.66,169.28Zm94,0c-.32,1.35,1.16,2.05,1.67,1.18-.67,0,.19-1.46-.48-1.42C144.9,169.55,144,169.15,143.67,169.28ZM147,170c0-.37.6-.19.47-.71C147,169.07,146.41,169.89,147,170Zm-8.07,1.66c.92-.26,2.21-.16,3.08-.47.12-.75-.34-.93-.47-1.43C139.7,169.41,139.78,171,138.93,171.65Zm-3.09-1.19a2.63,2.63,0,0,1-.47,1.9c1.36.1,2-.49,3.08-.71-.86.23-.33-.93-.47-1.42C137.06,170.1,136.82,170.65,135.84,170.46Zm-3.8.48a5.18,5.18,0,0,1,.24,2.14c.88.16,1-.41,1.9-.24-.41-.54.09-2-.71-2.14C133.44,171.23,132.46,170.8,132,170.94Zm-14,.47a225.3,225.3,0,0,0-52.7,28.26c2.46.17,3.68-2,5.46-3.09a263.51,263.51,0,0,1,48.91-23.5C118.75,172.91,119.13,171.42,118,171.41Zm10,.48c.15.87-.52.91-.48,1.66a7,7,0,0,1,2.61-.24c.4-.31.08-1.34.48-1.66C129.64,171.62,129.13,172.06,128,171.89Zm-7.13,1.19c.77-.05.58.84,1,1.18,1.65-.64,3.37.1,4.51-1.18C125.66,172,122.12,172.55,120.88,173.08Zm20.42.23c-5.74,1.1-11.89,1.86-18.52,2.85-.28,3.88,1.46,7.35,2.14,10.69.94,4.58,1,9.05,2.14,13.77,2.23,1.83,5.36,1.5,9.73,2.13,3.49.51,6.7,1.63,8.78.71.68,1.56,2.83.69,3.8.72-1.45-.79.47-1.13.72-1.66.39-9.6.48-20.7-2.62-29.68C145.19,171.89,143.31,172.93,141.3,173.31Zm-41.07,10.21C93.7,186.92,86.79,189.8,81,193a120,120,0,0,0-11.64,7.6c-1.22.89-3.19,1.67-2.13,4,16.62-9.41,33-21.16,53.18-27.78-.48-1.12,1.21-1.3.47-1.89A129,129,0,0,0,100.23,183.52Zm18.52-4c-2.19,1.1-4.74,1.77-7.13,2.85-13.53,6.08-26.61,14.2-38.69,21.6-1.79,1.09-5.12,2.26-4.75,5,8.38-5.34,17.12-10.36,25.64-15.67,7.39-4.61,15-9.37,23.74-12.35,1-.34,2.61-.48,3.09-1.66C119.66,178.53,119.19,179.26,118.75,179.49ZM98.09,193.73a109.23,109.23,0,0,1,23.27-10.21c.19-.82-.36-.91-.24-1.66A72.39,72.39,0,0,0,98.09,193.73Zm23.5-8.31c0,.19-.19.28-.47.24-13.2,4.49-24.9,11.34-35.37,18.28-1.66,1.1-3.65,1.63-5.23,2.61-3.74,2.32-7.08,5.37-10.68,7.84-.73.17-.46-.66-1.19-.48.47.72,0,2.41.48,3.09,4.08-2.85,7.74-6.1,12.1-8.79,10.63-6.54,22-13.66,33.72-18.75,2.35-1,5.38-1.28,7.12-3.56C122,185.63,121.81,185.53,121.59,185.42Zm-52.46,34.9c.38.88.19,2.34.23,3.56,2.26-1,4-4.54,7.13-5.46,8.27-8.58,19.72-14,29.67-20.89,4.1-2.11,8.48-4.52,12.59-6.41,1.34-.62,3.35-.8,4-2.37h-.47C102.6,197.29,84.15,207.09,69.13,220.32Zm53.65-28.73a146.69,146.69,0,0,0-13.53,6.89c-12.84,7.76-27,16.4-37.75,26.59-1,1-2.86,2.16-2.37,4,1.22-.61,1.75-1.74,2.84-2.62,1.6-1.26,3.59-2.29,5.23-3.56s3.23-3.25,5-4.74A186.92,186.92,0,0,1,99,205.84c5.77-3.9,12.27-8,18.76-10.45,2-.73,6.2-1.14,5.22-3.56C123,191.69,123,191.55,122.78,191.59ZM89.07,199a28.74,28.74,0,0,0,6.17-3.79A40.57,40.57,0,0,0,89.07,199Zm34.42-3.79c-15.84,6.7-29.08,16-41.54,26.11,1.74-.55,3.51-1.07,5.22-1.66,10.59-9.51,23.69-16.51,37-23.27C123.67,196.24,124.24,195,123.49,195.16ZM124,199a153.38,153.38,0,0,0-32,19.71,8.33,8.33,0,0,1,2.85-.47c.44-.37-.34-.93.23-1.43,9.45-5.75,18.32-12.08,29.68-15.91C124.63,200,124.77,199,124,199Zm-64.58,1.19c-1.41,1.28-2.74,2.64-5.22,2.85,1.65,7.51,3.21,20.47,1.9,30.63,3.38,2.39,8.07-1.31,10.68-3.33-.09-3.38.53-4.2.24-7.36-1.15.61-1.85-.46-1.9-1.66a2.63,2.63,0,0,1,1.42-1.42c-.07-4.08.29-6.6-1.66-9.26.45-.27,1.15-.28,1-1.19a40.36,40.36,0,0,0-2.13-8.31C62.41,201.53,60.89,200.72,59.39,200.14Zm23,2.85A9.53,9.53,0,0,0,85,201.33,5.93,5.93,0,0,0,82.42,203Zm45.82.71c-1.16-.33-1.44-1.24-2.37-1.18A106.36,106.36,0,0,0,98.8,217.47a9.39,9.39,0,0,0,2.85-.24,115.64,115.64,0,0,1,23-12.58c2,.55,4.54.32,7.36.95C132.58,203.13,129.69,204.12,128.24,203.7Zm21.85,1.43v2.13c.79.42,1.21-.16,2.37,0,0-.72.21-1.21.71-1.42,2.32-.46,5.91.37,7.36-1-.67,0,.2-1.46-.47-1.43A18.92,18.92,0,0,1,150.09,205.13Zm-16.15-.72c-.22.17.15,1.12-.47,1.43,1.14,0,3.05,1.14,3.56.24-.46-.33-.36-1.23-.72-1.67C135.52,205,134.55,204,133.94,204.41Zm4.51,2.14c.74,0,1.55.56,2.14,0-.06-1.21-.79-1.74-2.14-1.66Zm3.8.24a8.24,8.24,0,0,0,2.37.24c.06-1.63-1.65-1.13-2.37-1.43Zm4.27-.48v.95c1.09-.12,1.35.42,2.14,0C148.67,205.69,147.84,206.4,146.52,206.31Zm15,35.38c.58-1.5.36-5.22.48-7.84.34-8-.64-21-2.38-27.06,0-.15,0-.28-.24-.24-1.52.61-3.69.58-5,1.43,1.21,7.58.15,13,1.19,19.94,1-4.34-.29-12.14.71-17.1,2.13,4.38.87,11.44,1,17.57.08,6.44-.73,12-1.19,17.1C157.91,244.77,160.59,244,161.48,241.69ZM126.82,207c-.4,3.24-.49,8.24,1,10.44a11.72,11.72,0,0,0-1.19,1.43c1.19,7.19-.82,16.38,2.14,21.13,5.72,4,15.65,4.65,23,5.46-.18-.84.62-1.07.95-.71a182.19,182.19,0,0,0-.71-35.62C143.54,209.63,133.17,207.49,126.82,207Zm-20.18,9.73H110a71.22,71.22,0,0,1,14.25-6.88,13.46,13.46,0,0,0,0-2.62C117.82,209.9,111.75,212.85,106.64,216.76Zm-36.56-5.94c1.41-.64,3.6-1.77,3.8-2.84C72.7,209,71.21,209.74,70.08,210.82Zm44.87,5.7c2.74,0,4.64-1.77,6.64-2.61,1-.42,2.37-.16,2.85-1.42A25,25,0,0,0,115,216.52Zm7.12-.23h2.37c.31-.56,0-.45.24-1.19A6.34,6.34,0,0,0,122.07,216.29Zm110.87,27.77c.14-12.56-7.29-20.61-13.77-26.59.2,4.79.84,8.09.72,13.77.72-.1,2-.35,2.61.72,0-.61.79-.48,1.42-.48,1.57,1.46,5.64,4.31,3.33,6.65-1.31-1.94-2.08-4.41-4.52-5.23-2,1.53.05,4-.47,5.94,5.62,0,7.31,3.93,10.68,6.17.09-.86-1.48-1.56-.23-2.13C232.35,243.37,232.94,243.77,232.94,244.06ZM70.79,245.73c12.75,9.34,33.43,13.2,52.94,11.87-2.49-2-6.87-.92-9.26-1-4.71-.06-8.68-1.3-12.11-1.43-2-.07-4.3.77-5.93-.47a11.27,11.27,0,0,1-6.89-1.67c-3.05.29-5.6-2-8.78-2.37a5,5,0,0,0-1.9-1.42,16.94,16.94,0,0,1-5.7-4c-1.44-1.48-4-3.7-2.85-5.7,3.81,3.76,7.88,7.91,14,10.21,9.15,3.43,24.25,4.84,35.61,5.22,1,0,2.84.36,3.33-.95-2.58-.39-5.27-1.26-7.84-1.42-16.43-1-30.87-2.19-40.83-11.63-1.07-2-3.25-4.18-3.33-6.41,5.41,7.69,16.17,12.85,26.83,14.72,6.84,1.19,14,1.14,20.18,1.9,1.89.22,3.61,1,5-.24-9.15-1.31-18.2-3-27.07-4-6.4-2.27-15.1-5.15-19.23-11.16-.92.13-1-.6-1.66-.71-.18-1.68-2.6-2.25-1.66-4.27C83,244,105.07,247.32,123,248.57c.3-.57.31-1.43.71-1.9a6.71,6.71,0,0,1-2.85-.94C108.57,245.24,95,241,84.56,236c-.3-1-1.77-.77-1.9-1.9-1.92-.35-6.2-2.3-5.94-5.46,1.15-.07,2.23,1.85,3.33,2.61,2.79.82,4.46,2.19,6.65,3.33,10.83,5.65,23.6,8.24,37.51,10.44.29-1.21,2.2-.8,2.61-1.9-6.4-1.78-13-3-18.76-5-2-.7-4.28-1.34-6.41-1.9-6.26-1.64-11.61-3.43-16.14-6.65-1.1-.78-4-1.85-2.61-4,11.37,8.55,27.91,11.54,43.44,15.2a37.29,37.29,0,0,0-1.18-4c-10.11-1.93-24-3.53-32-8.07-2-1.14-6-3.78-5-5.93a41.27,41.27,0,0,0,16.62,7.83c6.37,1.46,13.33,3.86,19.94,3.56.42-2.6-3.81-1.84-5.46-2.13-6-1.08-12.07-3.78-16.86-5.94-2.44-1.11-6.92-1.86-5.69-5,8.1,4.41,16.71,8.3,28,9.5.94-2.68-2.16-2.31-3.8-2.61-1.86-.34-4-1-5.69-1.43-3.92-1-7.68-2-9.5-4.51,1.3-1.28,2.68.45,4,1,3,1.14,7,1.89,10.69,3.09,1.19-.91,3.6,1.13,4.51-.24-1.5-1.27-7.35-1.07-7.36-3.8,1.9-.82,4.49,1.22,7.12,1.19-.09-2,0-3.3-.47-4.51-6-.18-13.65.61-20.66,1-2.86.14-6.3.25-9,.47-5,.42-11,2.8-15.91,5.23-1.16.57-2.52.66-3.56,1.18-3.82,1.94-5.33,5.55-7.6,8.08-1.14.19-.46-1.44-1.42-1.43a17.51,17.51,0,0,1-7.6,2.61c-6.6-2-17.86-1.7-25.16-3.79-.67,0-.56.71-1.19.71A11.66,11.66,0,0,0,29.24,231c-.94-.47-2.28-1.38-3.32-1.43-1.38-.06-5.18,1.5-5.94,2.14-4,3.36-8.57,10.81-10.44,14.95,3.21-4.47,15.15-7.56,19.23-1.66-2.94.55-4.63-1.68-8.55-1.42-13.12.86-17.06,19.22-15.91,31.57.07.63-.92.19-.71.95.31,4.47,3,8.55,5.7,11.4.75-.36,1-.08,1.9,0,.72,1.17.91,2.89,2.37,3.32-.92-12.64,3.46-31.56,17.57-28-2.17-8.49-1.7-17.49-1.66-25.88a37.3,37.3,0,0,1,3.32-3.56c3.56-.85,7,1.23,10.45,1.9,4,.78,8.09.27,10.92,2.14-.59,1-1.67,1.06-2.85.94-5.43-.52-12.14-3.2-17.57-3.08-.77.49-1,1.49-1.9,1.9a108.71,108.71,0,0,0-.24,11.39c.31,6.79.29,14.53,3.09,18.76,1.73,2.62,6,2.84,9.5,3.8,3.62,1,7,3,10.44,2.37.59-.61-.23-1.16,0-2.13.73-.18.7.41,1.43.23-.37-3.31.11-6.39,0-9.49-.27-7.92-1.67-15.1-1.43-22.32,2.6.25,2.1,3.68,2.38,5.46,1.25,8,.87,17.71,1.42,25.64-.4.65-1.13,3.2.48,3.09-.11-8.46,1.2-15.52,0-26.83-.16-1.47-1.14-4-.48-5.22,2.33-.08,2.24,3.25,2.38,5.46A219.85,219.85,0,0,1,60.34,273c.08.48-1.7.8-.47,1a17.88,17.88,0,0,0,9.49-5.7c.54-8.47.41-21.73-3.08-29-2.06-1.11-4.67,2.14-6.18,0,1.16-1.92,4.29-1.88,6.89-2.37C69.18,238.94,70.2,242.12,70.79,245.73Zm84.76-4.28c0-.39.12-2.15-.24-1.42C155.34,240.42,155.18,242.18,155.55,241.45ZM224.63,250c1.66-1.73,3.86.66,4.51,2.14.33-.15,0-.92.48-.95a17.12,17.12,0,0,0-5.22-6.41c3.25-1.24,5.7,2.34,6.17,5.46.78-.49,1.92-.62,2.37-1.43A18.9,18.9,0,0,0,222.73,240c-.26,2.66,0,5.79-.95,8.54,0,.05-.63.31-.71.48-.57,1.37-.63,3.2-1.42,4.51-.68,1.12-2.13,1.38-2.14,2.85,8.46,1.11,8,10.51,9.26,16.86,2.49-3.15,2-7.17,2.14-11.4-1.35-.63-.32-2.1-.48-3.32-.72.07-.85.73-1.9.47.06-2.31-2.93-3.71-1.9-5.46,1.62.41,3.17,2.59,3.8,4.75C229.8,255.06,227.11,252.41,224.63,250Zm-69.8-4.51h.48c.18-.06.47,0,.47-.24-1-.41.36-1.88-.71-2.37A8.86,8.86,0,0,1,154.83,245.49Zm-28,.95c-2,1.23-2.19,10.35,0,12.34-1.23,2.54-.3,5.6,0,9,.6,6.94,1.15,14.17,1.66,19.95,5.35,3.61,14.71,4.59,22.32,3.32.82-1.58,1.52-2.57,1.66-4.51.79-11,.28-25-.47-35.14C141.73,252,135.89,247.81,126.82,246.44Zm27.06,5c1.93,12.09.62,25.1.48,38.23,1.58.07,2.76-.25,3.32-1.19-.36-7.15-.88-13.53-1.42-19.94-.41-4.78-1.64-9.66-.48-14,1.36,1.54,1.2,3.77,1.43,5.7a257.23,257.23,0,0,1,2.13,26.59c3.58-1.45,3.69-4.78,3.8-9.26.23-8.81-.84-23.41-1.42-29.68C160.08,250.37,157.3,251.2,153.88,251.42ZM72,251c12.47,8.25,32.72,12,52,9.26-8-1.36-17.67-.33-25.88-2.14-10-2.2-20.21-3.64-26.35-9.73h-.48c-.14,0-.28,0-.23.23C71.18,249.53,71.94,249.87,72,251Zm-.23,5.22c13,7.86,35.15,10.51,52.7,9,.08-.95-.42-1.31-.23-2.37-18.47.45-39.35-.31-52.71-10A12.73,12.73,0,0,1,71.74,256.17Zm.71,7.12c.07-1.35.46-2.39.48-3.79-.45.05-.53-.27-1-.24C71.94,260.54,72.17,263.9,72.45,263.29Zm2.14,6.18c2.09,1.07,4.41,3.18,6.88,3.08-1.17-3.16-.24-6.06-1-10-.69.06-.73-.54-1.42-.47-.45,3,1.6,6.9-.24,9h-1c-.48-3.13-1.81-7.1-.47-10-1-.07-1.65-.41-2.62-.48C74.81,263.67,74.45,265.9,74.59,269.47Zm52,19c-.9-3.32-.12-5.31-1-7.84-17.75-1.15-39-.8-51.52-9-.7,1.43-2.37.85-3.8,1.19-4.43,1-9.78,4.7-14,1.9C51.93,277,48,274.26,44,273c-7.33-2.26-12.3-2.25-12.82-9.74-.88.15-.94,1.12-1.9,1.19-8-1.36-10.81,5.79-12.11,12.58-.77,4-1.65,6.48-1.42,10.92a55.23,55.23,0,0,0,.47,6.18c.4.83,1.28.83,2.14,1.42,1.54,1.06,3.3,3.08,4.27,3.8,2.12,1.56,4.61,2.72,6.89,4.27a22.37,22.37,0,0,0,7.6,3.33c-.35-8.66,2.5-16,8.07-18.76,1.35-.67,4.59-1.93,6.17-.24-9.41,1.28-12,9.33-12.11,19.95,2.07.76,4.76,1.14,5.7,2.37-2.46.1-3.93-1.4-5.7-.71-.5,2,1.95,2.36,3.09,2.85,11.17,4.78,25.5,8.95,38.46,9.73-1.05-.62-3.85-.07-3.32-1.9.44,1.06,3.08-.07,3.56,1-1-7.22-3.54-19.94,1.66-25.64-9.26-1.06-17.1-4.46-25.4-6.88-1.24-2-4.9-1.59-5.46-4.28,4.6,1.33,9.76,3.72,15,5.23a166.56,166.56,0,0,0,40.36,6.64,168.55,168.55,0,0,0,27.31-1.18c4.55-.51,9.2-.71,13.05-2.38C140.81,294,131.49,291.84,126.58,288.46Zm-43.45-15c.88,0,1.77.91,2.38.48-.23-3.65-1-6.77-1.19-10.45-.67.2-.61-.33-1.19-.24C83.05,265.75,83.22,271,83.13,273.5Zm3.8,1.19a5.59,5.59,0,0,1,2.14.47c.51-4-1.65-7.1-1.42-10.68h-1C86.62,267.91,88.7,271.8,86.93,274.69Zm4.28.95h1.66c-.15-3.74-1.12-6.6-1.66-10.45H90C90.18,268.91,91.54,271.43,91.21,275.64Zm2.84.47a5.85,5.85,0,0,0,2.38.24c.83-3.29-1.79-7.17-1-10.21-.73-.34-.74.09-1.66-.24C94.05,269.2,95.33,273.43,94.05,276.11Zm3.33-9.73c-.3,3.73,2.07,7,.71,10.21a4.56,4.56,0,0,0,1.9.24c.13-3.86-1.85-6.84-1.19-10.45a1.1,1.1,0,0,1-.71-.24C98.05,266.42,97.72,266.4,97.38,266.38Zm3.56.47c-.3,3.16,1.88,7.59,1.19,10.45,1-.16,1.35.23,2.13.24.25-4.57-1.4-7-1.42-10.69C102.36,267.62,101.36,266.21,100.94,266.85Zm4,.48c.26,3.33,1.73,6.61,1,10.21a3.73,3.73,0,0,0,2.37.24c-.36-3.63-.8-8.48-1.19-10.93C106.69,267.65,105.82,266.77,105,267.33Zm4.27.95c.22,1.77,0,3.82.24,5.93.11,1.05.12,3.47,1.66,3.57.93-3.19-.25-6.67-1.19-10.45h-.47C109.54,267.78,109.22,267.85,109.25,268.28Zm3.32-.71c-.11,2.59,2,7.71.24,10.44,1.36-.32,2.6.72,3.56,0-.86-4-.66-6.74-1.18-10.44C114.19,267.24,114.06,267.55,112.57,267.57Zm12.59,10.92c.33-3.5-.07-8.78-1-11.16C125.23,271.75,123.06,276,125.16,278.49ZM117.08,268c-.25,2.63,1.7,7.86.24,10.21.94-.09,2.28.22,2.85-.24a83.07,83.07,0,0,1-.71-10.44C118.24,267.74,117.42,267.4,117.08,268Zm4,.48a25.24,25.24,0,0,0,.24,4.75c.14,1.91-.47,4.67,1,5.22.21-2.84,1.31-7.22-.72-10.69h-.47Zm-50.57,2.61c.66-.22,1.67-.07,2.14-.48-.76.21-.74-.37-1.19-.47C71.62,270.93,70.32,270.27,70.55,271.13ZM217,291.55c.84-.37.14.8.71.71.17-.52,1.11-.79.47-1.43.92.49,1.37-1.24,2.14-1.66-.12-.89-.33-1.11.24-1.66C219,288,218.12,289.94,217,291.55Zm-64.34.23a5.06,5.06,0,0,0,2.61-.71C154.21,290.72,153.07,290.82,152.7,291.78Zm12.34,0c-1.35-.61-2.63-1-3.56-.47-1.4.75-3.23.87-5,1.42-.92.29-1.72,1-2.38,1.19s-1.51-.13-2.13,0-1.42.77-2.14.95C143,296.58,135.46,296.51,129,298c-1.1,8.05-.71,17.75,2.13,24.69,12-1.09,25.58-2,36.09-6.18,1,.3,1.57.6,2.61,0C170.89,308.54,169.31,297.15,165,291.78Zm-79.53,4.28c-6.26,4.48-3.27,16.51-2.38,25.16,14,2,30.68,3.16,45.35,1.67-2.42-7.62-2.55-16.6-1.9-24.93C113.56,299.8,98.27,298.07,85.51,296.06ZM34.23,308.4a24.19,24.19,0,0,1,2.61,1.43C36.86,308.62,34.61,307.68,34.23,308.4Zm142.68-55.79c.45,0,.17.78.72.71C177.88,252.72,177.13,252,176.91,252.61Z"/><path class="cls-1" d="M190.68,137.23c-.21.49-.55-.85-.47-1.43-1.11,2.62,1.48,4.93,1.42,7.84,0,.78-.54-.88-.47-.72a14.78,14.78,0,0,1-1.19-4.51A138.11,138.11,0,0,0,165,90.22c-3.43-4.2-8.5-6.76-12.82-10.21-2.51-.18-3.28-2.1-5.93-2.14-1.16-.28-.65,1.1-1.9.71-.15-4.17,5.57-.9,8.07-.71,6.39,4.77,13.45,8.87,17.09,16.38,4.6,4.2,7.22,10.35,10.45,15.91,3.78,5.4,5.78,11.77,8.31,18.76.23,1.05,0,.62-.24,1.42a11.21,11.21,0,0,0,.71,1.19A14.74,14.74,0,0,1,190.68,137.23Zm-1-2.62c-.57-.3.09-1.82-.95-1.66C189.31,133.64,188.77,135.16,189.73,134.61Z"/><path class="cls-1" d="M186.88,143.64c.39.17.39-1.12,0-.95a4.49,4.49,0,0,1,1.43,3.32,10.07,10.07,0,0,0,.47,4.75c.7,1.63,1.52,1.46,1.43,2.85a.6.6,0,0,1-.48.47c0,.55,1.13,0,.24.95-.11.51.34.45.71.48.51,1.93,1.45,7.14,0,1.66-.24,1,.11,3.53,1.19,4-.38.06-.41-.23-.71-.24-.07.29.68.82.71.24-.38.69-.07.83.71,1.89-.21.65-.53-.54-1-.47.54,2.2,1.52,2.51,1.67,5-.38.65-.07-1.34-.72-1.19-.7.49.32,1.25,0,2.14-.6-.28-.35-3.45-1.42-4-5.91-24.64-11.51-49.59-24.93-66.72-.06-.72-.52-1.06-.71-1.66-6.15-7-11.77-14.5-23.51-15.9.88-2.45,5.24.16,7.6,0,3.06,2.67,7.18,4,10.21,6.64,1.15,1,1.82,2.61,2.85,3.8,1.26,1.45,3.32,2.45,3.56,4.51,2.64,2.91,5,7.4,7.12,11.16a14.38,14.38,0,0,1,1.66,2.85c.13.51-.59,1.42,1,1.43.33,1.78,2,3.06,2.85,5.22,1.25,3.07,2.1,7,3.33,10.44s3,6.46,2.61,9.5c.85.49.86,1.83,1.42,2.61C184.67,138,187.5,142.53,186.88,143.64Z"/><path class="cls-1" d="M188.31,165.24h-.48a44.51,44.51,0,0,0,1.43,6.17c-2.43-3.42-2.44-9.27-4-13.53-.56.15,0,1.46-.47,1.66,1.12.77.85,1.63,1.18,3.33.75,3.72,2.27,7.62,2.62,12.11.58,7.51,1.55,17.17,2.61,24.92.39,2.89,1,5.53,1,8.08.67-.24-.07-1,0-1.43,1.06,1.33-.18,3,.95,3.8,0,.84-.79-.5-.71.24.65,1.14.41.37.47,1.9.28,0,.2-.44.24-.72.72,2.36-.43,6,.47,8.55a42.54,42.54,0,0,1-1.9-12.11c-.23-.24-.47-.48-.71-.71-2.39-12.42-2.77-24.66-4.75-36.32a167.51,167.51,0,0,0-9.26-32.06c-2.44-6.35-5.73-12.36-8.78-18.28-4.65-10.31-9.9-20-17.81-27.06-.18-1.17-1.3-1.39-1.42-2.61,2.25.72,2.69,3.38,4.51,4.51.4.25,1.08.18,1.42.47,2.3,2,5.42,6.63,7.6,9.5a4.05,4.05,0,0,1,.48,1.9c.66.17,1.39,2.07,2.13,3.56,3.72,7.46,9.54,17.59,13.3,27.07.48,1.21,1.31,2.33,1.66,3.32.12.35-.36.87-.24,1.19,1,2.54,2.83,5.32,2.38,8.07,1.77,1.88,1.77,4.19,2.85,6.88-3.08-16.87-9.87-33.39-16.15-48.67-2.32-5.64-6.77-9.82-10-14.48-3.19-3-6.28-6.06-9.5-9-1.57-.09-2.27-1-3.08-1.9-1.46-.57-3.18-.53-4.28-1.9,1.74-1.1,3.23.87,5.23,1,14.43,9.41,24.41,24,29.2,41.79.23.32.8.3.95.71A252.51,252.51,0,0,1,187.6,161a1.65,1.65,0,0,1-.72.47c1,.48.36,2.05.72,3.56C188.68,164.47,188.57,166.46,188.31,165.24Zm3.32,38c-.71,0,.34-1.76-.71-1.43C191.09,202.21,191.19,203.88,191.63,203.23Z"/><path class="cls-1" d="M180.47,103.75c.45.66,1.13,1.09,1.43,1.9A2.36,2.36,0,0,1,180.47,103.75Z"/><path class="cls-1" d="M195.19,138.18c-1.14-8.32-3.57-18.52-7.59-25.88,3.76,4.38,6,12.51,6.88,17.57.55-2.36.41.54,1.19,1.18-.92,1.35.5,4.75,1.42,6.41-.35,2,.68,2.85.48,5,1.06.7.73,1.52,1,3.32.44,3.73,2.95,7.45,2.37,11.87,2.75,7.25.93,14.81,3.09,21.37-.35,2.87-.54,6.46.71,8.79-.84,1.55.26,5.47,0,7.36-.71.64-1.23-3.06-.24-3.33a.24.24,0,0,0-.47,0c-1.17-7.79-2.65-19.54-3.33-27.06-.13-.54-.37.28-.71-.24.18-.43.36.28.48-.48.5-3.23-1.81-8.51-2.14-11.63-.07,1.21.46,2.5.48,4.51-1.87-6.53-2.71-15.06-5-20.42-.2-.67.33-.61.24-1.18a34.94,34.94,0,0,1-3.33-9.5C192.18,130,194,133.73,195.19,138.18Zm.48.47c-1,.68.31,1.71,0,0Z"/><path class="cls-1" d="M199.47,162.15c.65-1,.25,1,.71.95C199.72,163.92,199.85,162.2,199.47,162.15Z"/><path class="cls-1" d="M166.7,184c.08-.33.6-.2,1-.24.31,1.67,1.26,2.7,1.9,4-.21-.15-.42-.29-.47,0C168.34,186.94,167.79,185.15,166.7,184Z"/><path class="cls-1" d="M200.65,254.51c.62.42.5,1.56.72,2.37C200.72,256.55,201,255.59,200.65,254.51Z"/><path class="cls-1" d="M180.24,266.38c.14-.43,1,.41.95.95C180.58,267.31,180.85,266.4,180.24,266.38Z"/><path class="cls-1" d="M174.3,290.6c1.4-1.21,3.42.59,3.8,1.9,1.17,4,3.18,10.93,2.85,14-1.4-1.79-2.46-5.79-3.09-9C176.56,295.31,175.52,292.86,174.3,290.6Z"/><path class="cls-1" d="M196.38,169.52c3,5.52,5.23,14.19,4.75,20.89,2.19,7,2.61,14.62,3.56,22.55a206.93,206.93,0,0,1,1.66,22.56c.05,1.86,1.2,3.63-.23,5.46-.35.9,1.06,0,.71,1-1.05,2.38-.36,5.24-1,8.31A545.25,545.25,0,0,0,196.38,169.52Z"/><path class="cls-1" d="M192.11,178.06c.58,3.15,2.94,6.86,2.37,9.5,1.83,2.39,2.41,9.35,2.85,12.82,1.32,10.32,2.06,20.72,3.09,30.63.58,5.65.66,10.59,1,17.56.07,1.71.91,3.68-.24,5.23-3.24-17.89-3.12-36.73-5.7-55.56C194.52,191.55,192.72,184.86,192.11,178.06Z"/><path class="cls-1" d="M220.36,270.42c-1.71-2.48-1.64-6.75-5.46-7.13-.2-1.71,2.22-1.4,3.09-1C220,263.43,221.34,268.35,220.36,270.42Z"/></g></g></svg>