<svg xmlns="http://www.w3.org/2000/svg" viewBox="0 0 331.26 188.49"><defs><style>.cls-1{fill:#231f20;fill-rule:evenodd;}</style></defs><g id="Layer_2" data-name="Layer 2"><g id="Graphics"><path class="cls-1" d="M315.68,25.6c-1.22.21-4-4-2.76-5.36C314.53,20.52,315.6,23.56,315.68,25.6Z"/><path class="cls-1" d="M313.46,39.59A52.06,52.06,0,0,1,299,44.87c-4.94,1.94-9.27,4.23-14.92,6.1-5.25,1.74-12.49,4.69-18.56,7-2.4.9-5,1.13-7.22,1.94-4.65,1.7-7.8,3.54-13.49,4.76-2.14.45-4.62,1.17-6.8,1.81-1.92.57-3.91,2.24-5.81,1.29,1.2-2.26,6.18-1.13,7.34-3.81,10.49-2.37,19.49-5.82,29.7-9.64-2.42-.26-3.65,1.69-6.5,1.27,2.8-2.49,7.24-3.58,11.49-5.3,10.56-4.26,22.06-9.71,32.6-13.72.53,2.09-3,2.5-5.26,3.88C292.27,44.56,281.13,49,272,52.77c10.53-2.78,22.95-7.94,34.92-12.12,2-.7,4.44-2.19,6.31-1.91C313.3,39,313.38,39.3,313.46,39.59ZM271,53.3c-2.17.49.29.6.63-.19C271.3,53.12,271.19,53,271,53.3Z"/><path class="cls-1" d="M302,27.43c.8.09.2.59.59,1.2,1.29,2.07,6.24,5.78,7.14,7.72a3.56,3.56,0,0,1,.15,2c-.81.8-5.37-4.67-6.09-5.74C302.85,31.23,301.26,28.64,302,27.43Z"/><path class="cls-1" d="M299,29.5c.64,0,.45-.47,1-.53.63,1.42,4.32,4.16,2.16,4.86C300.6,34.31,298.8,31.4,299,29.5Z"/><path class="cls-1" d="M296.06,13.83c-.49,3.38,1.69,8.76,3.07,11.71-.56.29-1,.64-1.56.93-1.61-3.58-3.81-8.39-3.19-12.13C295.05,13.68,295.33,14.61,296.06,13.83Z"/><path class="cls-1" d="M288.58,20.22c-.59,4.15,1.9,9.19,2.07,12.23-1.72.45-2.46-2.87-3.12-5C286.39,23.67,286.4,20.87,288.58,20.22Z"/><path class="cls-1" d="M285.86,34.82c-2.18,0-2-3.79-2.6-6.34-.92-3.91-2.29-7.87,1.25-9.56C283.56,23.82,284.61,29,285.86,34.82Z"/><path class="cls-1" d="M279.93,25.81c.9,2.49,1.6,6.74,2.3,9.18a4.17,4.17,0,0,1-1.74.3c-.41-3.15-2.15-6.06-1.76-8.89C279.31,26.4,279.79,26.42,279.93,25.81Z"/><path class="cls-1" d="M278.49,37c-.68.38-.91-.07-1.54.23-1.39-2.57-3.06-6.73-2.77-10a6,6,0,0,1,2.06-1.54C275.71,29.15,276.86,33,278.49,37Z"/><path class="cls-1" d="M274.43,38c-4.17.73-4.06-7.47-4.1-9.79.77-.65.71-1.18,1.64-1.41C272.2,29.56,272.51,34.35,274.43,38Z"/><path class="cls-1" d="M268.37,28.6c-.74,3.4,1.37,8.83,2,13.42-.67.38-.9-.07-1.53.23C267.57,38.07,264.43,31.54,268.37,28.6Z"/><path class="cls-1" d="M265.48,44.17c-2.06-.17-1.54-3.32-2-5.14-.6-2.32-1.72-4.67,0-6.19.23-.11.39-.06.48.09C264.36,37,266.75,41.17,265.48,44.17Z"/><path class="cls-1" d="M260.29,36.09c0,1.88.64,7.6,1.8,9.79-.73-.18-1,.39-1.53.23a17,17,0,0,1-2-8.82C259.08,36.85,259.84,36.55,260.29,36.09Z"/><path class="cls-1" d="M250.11,39.62c-.06,3.44.91,8.7,1.06,11.15-2.25-.22-3.35-8.69-1.84-10.69A1.2,1.2,0,0,1,250.11,39.62Z"/><path class="cls-1" d="M246.8,53c-1.32-2.55-4.19-7.44-.69-9.89C246,45.71,246.69,49.51,246.8,53Z"/><path class="cls-1" d="M242.47,46.28c.76,3.11-.38,5.21-.09,8.06C240.89,52.72,239.59,47.59,242.47,46.28Z"/><path class="cls-1" d="M238,58.88c-2.09-3-3.21-9.34-.45-10.66C236.82,50.6,238.18,55.61,238,58.88Z"/><path class="cls-1" d="M233,50.52c.11,2.42.61,6.08.37,8.84C231.27,57.11,230.76,52.42,233,50.52Z"/><path class="cls-1" d="M227.45,55.85c.56,2.13.47,3.9-1.6,4.62C226.14,58.63,225.77,56.53,227.45,55.85Z"/><path class="cls-1" d="M140.16,118.19c-1-.6-.2,1.62-.84,2.55-.76.43-.9-.29-1.45-.25.95-6,.15-12.85.69-19,.68-.39,1,0,1.39,0C141.14,107.41,139,112.38,140.16,118.19Z"/><path class="cls-1" d="M126.8,106.61c.25,0,.29.33.4.57-.23.64-.13,1.46-.55,2,.22.79-.05.67.38,1.26-1.1,3.47,0,8.1-1.37,11.44-2.1-.33-1.22-1.64-1-3.16.59-3.4-.65-10.4,1.76-12.47C126.41,106.74,126.56,107.25,126.8,106.61Z"/><path class="cls-1" d="M118.51,97.4c.16.32-.09.42,0,.69l-.42.13c0-.26-.16-.36-.34-.36C117.71,97.55,118.21,97.53,118.51,97.4Z"/><path class="cls-1" d="M109.94,93.32c.16-.09.22,0,.27.15.16,13.88-3.36,27.22-3.85,41.33-1.93-1.64-.54-7.84-.92-11.43,1.1-1.17.54-2.65.61-4.08.39-8.27,2.52-18,2.9-25.44C109.38,93.32,109.76,93.87,109.94,93.32Z"/><path class="cls-1" d="M113.89,127a4.31,4.31,0,0,1,.4-4c-.69-.89,0-2.09.23-3,.62.57.34,0,1-.32A44.4,44.4,0,0,1,113.89,127Z"/><path class="cls-1" d="M57.84,167.33c-2.25-.77-.29-4.67-.21-6.82-.55-1.41.16-2.78.47-4.51,0-.65-.42-2.12.57-2.7a4.94,4.94,0,0,1,.4-4c-.31-1.43-.46-3.43,1-4.42-.82-4.25,1.66-9.66,2.91-14,.23.13.61-.05.76.23.69,2-.91,4.2-.54,6.59-2.38,2.48-1.06,6.95-2.79,9.79C60.05,154.4,58.58,160.66,57.84,167.33Z"/><path class="cls-1" d="M57.27,139.49c-.07,3.06-1.42,5.79-2.21,8.7-1.67,6.19-1.83,12.83-4.5,18.58-.06-1.82-.4-4.22,1-5.81-.06-.21-.31-.09-.48-.09a3.46,3.46,0,0,1,.65-.88c.17-6.37,2.41-13.28,4.34-19.91C56.74,140.46,56.38,139.5,57.27,139.49Z"/><path class="cls-1" d="M138.2,82.74c3.78-.89,5.63-4.09,8-6.31,4.21.26,8.1,2.69,12.92,3.23,10.91,1.23,23.15-2.39,32.75-7.11,2.66-1.31,5.65-2.31,7.41-3.61.7-.51.86-1.4,1.45-2A34.54,34.54,0,0,1,204,64.28c1.12-.92,2.06-2.21,3.41-2.4,2.68-6,10.36-9.94,17.23-13.69,4.42-2.41,8.7-5.18,13.09-7.61,8.82-4.88,17.5-10,26-15.66,6.88-4.54,14.33-8.1,21.29-12.38s13.55-8.76,20.6-12.4c1.87.42,4-.43,6.19,0a26.07,26.07,0,0,1,4.89,1.74c4.77,2.53,10.4,11.77,12.74,18.66,2.11,6.22,2.93,14.23-1.35,17.63-1.53,1.21-3.76,1.58-5.7,2.41-4.24,1.79-8.56,3.86-12,5.21-2.51,1-4.74,1.61-7.38,2.91-3.23,1.59-7,2.65-10.49,4.08a55.82,55.82,0,0,1-9.76,3.4c-1,1.69-4.87,2.39-7.68,3.46-9.13,3.5-21.07,6.89-30.84,10.44-8.57,3.11-16,6.12-23.55,8.7-.72.32-.93-.56-1.58-.67-1.45-.25-3.27.72-4.44-.27-3.65,1.61-7.75,2.94-10.7,1.84-5.6,2-11,4.48-17.49,6-1.55.36-3.2.07-4.74.28-6.59.91-13.59,2.44-18.5.3a16.15,16.15,0,0,1-9-1.66c-3.76,2.2-6.11,3.83-9.49,5.84.07,1.6,1.75,2.64,2.6,4,1.35,2.23,2.59,5.58,4.35,8.33,2.16,3.38,5.09,5.09,5.46,8.22-2.35,2.06-4.35,4.9-7.09,7-1.56,1.18-4.07,1.36-4.27,3.35-3.41.76-5.94,3.24-8.84,5a239.22,239.22,0,0,1-22,11.67c-2.53,2.39-6.29,3.42-9,5-3.35,1.94-9.41,5.35-12.82,7.77A79,79,0,0,1,78,159.64c-2.57,2.5-7.73,3.74-9.91,6-14.15,7-27.33,12.73-38.68,21.75-.81.53-.77-.53-1.3-.52-2,2.14-6,1.72-8.32,1.36-5.21-1.89-13.78-4.92-16.31-13-1.18-3.76-.58-6.15-2.22-9.66.78-2.76,2.67-4.92,3.42-7.69,5.1-4.26,10.3-8.47,14.64-13.13,14.48-11.16,25.5-24.18,38.47-36.16a87.64,87.64,0,0,0,9-7.53c4-3.77,8.91-8.17,13.3-12.27,4-3.71,9.33-7.92,13.9-11.76,3.92-3.3,8.37-7.79,12.77-11,1.23-.89,2.75-1.7,4-2.6,2.06-1.42,3.39-3.25,6-2.95.79.09,1.41.78,2.47,1.32.81.41,2.14.55,2.55.84s.55,1.15.93,1.56c.54.59,1.63,1.15,2.38,1.8C129.76,70.06,134.34,77.69,138.2,82.74ZM322.61,12c-2.29-3.17-4.06-6.9-6.43-8.39-1.54-1-4.47-2.32-5.92-2.12-.74.1-1.25.81-2.19,1.12s-1.53-.05-2.16.42c-2.27,1.7-1.51,9.34.29,13.92.93,2.39,2.73,5.17,4,8,2.76,6.11,4.26,8.39,7.8,11.42,2.52,2.16,6.05,2.92,9.12-.22s1.57-12.21-.28-16.91C325.36,15.44,324.66,14.87,322.61,12ZM310.3,36a29.4,29.4,0,0,1-4.85-7.72c-.48-1.2-.58-2.54-1.14-3.79-1.92-4.28-5.67-7.83-5.91-12-.68,5.15,3.77,9.59,4.25,14.1-1.17.1-1.8-1.44-2.43-2.71a53.2,53.2,0,0,1-3.48-9.28c.37-.74.13-1.81.35-2.63.22-.65,1.43.05,1.35-.87.7-1.27-.36-3.49,1-4.42,2.34.89,1.09,2.48,1.21,4,.37,4.77,3.62,9,5.09,13.85s3.4,6.66,6.45,10c2.05,2.23,3.14,4.89,5.86,4.21-3.58-1.9-6.63-5.89-9-9.93-3.69-6.43-7.22-14.67-7.42-22.33.14-.87,1.45-1.86.84-2.55a122.78,122.78,0,0,1-14.16,8.62c-3.91,3.52-9.69,6.14-14.87,9.31-7.82,4.77-15.66,10-23,14.28-1.13.65-2.49.94-3.66,1.56-4.2,2.23-9.81,5.31-13.51,7.74-1.38.91-2.82,1.76-4.25,2.66-5.41,3.42-11.08,6.16-15.36,9.22a16,16,0,0,0-2.72,2.43c-2.4,3.11-1.59,11.63,2.21,14.94,1.11,1,2.75.86,3.41,2.19,7.37-.55,15.29-4.18,23.79-7.17,6.79-2.38,15.33-5.44,22-7.77,21.12-7.39,39.92-14.9,55.84-21.18C315.09,40.59,312.23,38.2,310.3,36ZM205.51,76a24.78,24.78,0,0,1,4.78-1.67c-.51-1.35-1.35-2.09-1.63-3.87-2.2.43-2.78,3.32-4.67,2.78-.48-2.55,3.64-2.63,3.83-4.82-2.19.87-4.43,4.14-6.67,4.53,0,.54.08,2,.7,2.32.09-.37-.08-.87.65-.89.82,1,.5,2,.95,3.16,2.32.8,7,.33,9-1.34C211.07,74.42,207,77.71,205.51,76ZM201,71.85c2.57-1.76,3.57-4,6.48-5.17.2-.54-.27-1.44-.15-2C204.56,66.68,201.7,68.67,201,71.85Zm-2.87,8c.86-.06,1.24-.75,1.68-.51-1.58-1.71-3-4.59-2.81-6.27C195.87,74.74,196.67,78,198.17,79.83Zm-2.8.61c-.34.52-1.36.35-1.81.09A44.92,44.92,0,0,0,192.12,75c-2.85.64.69,4.5,0,5.5a2.45,2.45,0,0,1-2-.55,34.42,34.42,0,0,0-1.29-3.51c-.68.16-1.28.37-1.35.86.63-.29,1-.1,1.1.59,0,1.6-1,1.12-2.21,1.81a20.73,20.73,0,0,1-6,2.26,53.94,53.94,0,0,1-19.5.83c-3.27-1.9-7.7-1.65-11.24-3a191.93,191.93,0,0,1-19.36,15c.39,1.21-.61,1.67-.84,2.55,2-.83,3.67-3.11,5.7-2.41.1.41-.65.36-.44.82,3-1.67,4.93-4.5,8-5.61-.26-1.18-1-1.67-.28-2.44,1.06.11,1.76.88,3.12.44.24-.86-2.29-1.94-.62-2.8a2.68,2.68,0,0,0,3.46.8c-.39-1.14-1.38-1.16-2-1.94.53-.18.05-.91.59-1.09,1.24.19,1.95,1.39,3.22,1.55-.33-1.26-1.39-1.55-.28-2.44.77-.12.78,1.18,1.5,1.16-.37-1.08-.84-2.22.14-2.57.7,0,.88,1,1.94.33.21.7.9.51,1.08,1.28,11.47,4.15,25.68,3.21,42.13-1.9-1.29-1.51-1.8-5-2-6.73C193.48,75.73,196.06,78.5,195.37,80.44Zm-20.68.72c4.08.11,8.09-1.82,12.13-3.19,0-.32.23-.46.23-.76C182.79,79.05,177.82,80.05,174.69,81.16Zm-6,.66c1.11.74,3.79-.14,4.4-.64A24.09,24.09,0,0,1,168.69,81.82Zm-5.29,0c0,.51,1,.63,1,.16C164,82,164,81.36,163.4,81.81Zm-15.52-4.28c-.34.64-1.15,1-1.3,1.77C147.51,79,148.7,78.18,147.88,77.53Zm-2.5,2.36c.53-.13,1-.27.92-.74C145.77,79.28,145.46,79.52,145.38,79.89Zm-.22,33.58c.89,1.38.4,3,.7,4.61a30.73,30.73,0,0,0,8.78-7.46c-3.08-5.77-8.25-12.74-11.77-18.5-4.1,2.25-7.85,5.74-11.85,7.93,0-2,2.84-2.58,3.53-4.27a42.21,42.21,0,0,0-6.48,5.16c.26.62.88.56.93,1.56-2.37,1-5.63,2.91-6.4.09-.6-2.21,3.11-5.09,5.28-6.87,3.16-2.6,5.24-5.57,7.63-6.66-.33-1.37,1-2.82.82-4.15-.37-2.91-3-5.14-4.51-7.36-.78-1.16-1.78-2.2-2.34-3.2-3.26-5.76-8.82-9.64-12.59-12-3.3,1.24-6.39,4.49-9.49,5.84-7.07,5.94-14.35,12.61-20.84,18.45-3.29,3-6.82,5.58-10.06,8.54s-6.29,6.19-9.44,9c-2,1.79-4.72,3.11-5.6,5.82,7.48-4.65,12.1-10.46,18.87-15.1,3-3.75,7-5.53,10.75-8.52,3.26-2.55,6.45-6,9.66-9.1.67-.64,1.62-1,2.27-1.61,3.93-3.62,8-8.68,12.77-11,.76-.37,3-1.36,3.68,0-5.68,2.43-9.11,6.81-14.07,10.43-1.54,2.56-4.35,4.23-6.58,6.35-1,1-1.68,2.22-2.74,3.12-3.21,2.74-7,4.89-10.37,7.49-4.61,3.55-8.42,8-13.38,10.46,0,.38.48.44.19.63-2.85,3-6.38,4.8-9.68,7.5-3.86,3.17-7.57,7.62-11.9,10-6.84,7.52-14.06,13.75-21,21.71-5.46,4.4-9.55,9.19-15.82,13-2.59,3.37-6.18,6.21-9.11,9.4,1,.32-1.05,1.85-.14,2.57.35-.58.22-2.34,1-2.13-.35,6.11,3.15,12.91,6.72,17.73a3.24,3.24,0,0,1,1.68-.51c3.09,3.21,7.86,5,12.2,3.9,1-1,1.86-2,3.74-2.05,2.23-1.35,3.61-3.19,5.35-4.36a80.07,80.07,0,0,1,8.35-5c16.27-8.28,34.3-16.8,48.55-26.34-.88-2.16.49-3.89-.54-5.58,2.21-6,.62-14.71,2.7-20.78a2.78,2.78,0,0,1,.16-3.26c-.1.5-.09.51.28.14.38-.71-.39-.06-.47-.78.56-3.22,1.58-6.21,1.13-10a38.45,38.45,0,0,0,2.2-11c.41-.42.39-.09,1-.53.29-.91.27-2.91.93-3,.59,2.58-1.15,5.1-1.55,7.81-.57,3.85-.39,7.94-1.32,11.65-.43.3-.21.94-.79,1.16,1,.87-.55,1.5.14,2,.54.14-.44,2.1-.64,3.18-.6,3.21-.72,7.28-1.38,11.43-.85,5.35-.37,11.37-1.54,17,5.51-3,10.79-6.21,16.27-9.27-1.2-.92-1.61-4-.66-6a4.22,4.22,0,0,1,.81-4.14c.07-.89-.7-.23-.73-.93.19-1.14.69-2.2.79-3.45s-.48-2.92-.3-4c.09-.55.84-1,.95-1.43.16-.69-.13-1.53,0-2.29,0,.15.33.42.33.35.17-2.34-.63-4.27.25-6,0-.89-.33-1-.36-2,.27-.5.21-1.18.67-1.58-.67,0,.11-.61-.32-1,1-8.2,2.48-17.65,3.81-25.48.17-1.05-.06-2.51.86-3.25.13.34.19,1.47.75.23-1.08,2.11.77,6.74-1.52,9.42.1,1.11.61,2.72-.52,3.6.37,7.49-2.31,14.75-1.79,20.74-1.33,2.86.2,6.77-1.65,9,.3,1.56,0,2.42-.57,2.7.46.94.42,1.51-.29,2.84,1.3,4.32-1.67,8.33-.3,12.72,7-3.65,13.56-7.21,21-10.93a3.43,3.43,0,0,1,0-3.2c-.18-.67-.4-4.52,1-4.91-1.64-2.83.15-4.87.27-6.74,0-.37-.7-1.94.21-2.35-.8.28-.13-.15-.4-.57a66.36,66.36,0,0,0,1-7.2c.26-.16.31-.43.78-.47-1-1.36.7-3.14,1.34-3.16-.36,1.3,0,3.82-1.47,5,.13,1,.37-.3.55.29-.28.2-.44.47-.71.67.52,5.59-1.52,11.29-1.21,17.36-.53.12-.84.37-.92.73,1.9,0-.08,3,.87,3.64,4.06-2.81,8.62-5.36,13-8,.27-.44-.07-1.21.19-1.67.1.24.14.61.4.57.33-.58-.46-.54-.59-1.2.08-5.07-.93-10.73,1.6-14.48.94,1.13-.06,2.52-.18,4-.17,1.86.71,4.31-.86,5.54C145.73,111.93,145.62,114.17,145.16,113.47Zm-.85-32.57c.31-.3,1.13-.33.86-1C144.48,80.05,144.39,80.47,144.31,80.9Zm-19.06,21.35c1-.22,1.27,0,2-.84-.53,0-.44-1.16-.72-1.62,1-.5,2-1,2.14-2C126.48,98,125.29,100.23,125.25,102.25ZM50.36,118.84c1.26-1,3.09-1.75,3.91-3A6.52,6.52,0,0,0,50.36,118.84Zm-2.65,2.64c.08-.54.92-.68,1-1.22C48,120.36,47.23,121.33,47.71,121.48Zm-42.45,39c.23.72-1.06,1.53-.34,1.94,8.1-9.3,20.79-17.07,27.9-26.31C23.65,144.2,14.56,152.38,5.26,160.44Zm.35,14.13c.14,1.05.74,1.25.91,2.25C7.63,176.55,6.11,174.87,5.61,174.57Z"/><path class="cls-1" d="M315.13,6.25c0-.34.26,0,0,0A31.21,31.21,0,0,1,324,17.36c2.81,6.05,5.36,14.74-.7,16.74-5.35,1.76-10.91-5.55-13.3-11.38-1.8-4.39-3-9.06-2.27-12.86a3.14,3.14,0,0,0,1-2.13C310.42,5.81,313,4.68,315.13,6.25Zm9,24.4c0-.14,0-.26.14-.28.25.66.36-1,0-.69C324.43,30,323.46,30.63,324.09,30.65Zm-6.76-16.33c-.93-1.45-1.86-2.81-3-3,3.57,4.58,8.73,13.93,7.26,20.31C325.24,26.17,320.15,18.72,317.33,14.32ZM320.38,29a27.25,27.25,0,0,0-10-18.1c-.16.39,0,.94-.32,1.24,3.32,1.56,6.27,5.39,7.72,9.62,1,2.86,2.13,6.59.58,8.78C316,24.67,315.14,16.76,309.9,14c1,6.62,4.85,14.23,9.22,17.65C320,31.06,319.71,29.76,320.38,29Zm.68,3c.06.21.12.42.19.63l.42-.13c-.07-.21-.13-.42-.19-.63ZM311.24,8.57c-.61,0-.28.56-.44.83.34,0,.62.15,1,.16C311.7,9,311.25,9.22,311.24,8.57Z"/><path class="cls-1" d="M291.29,15.5c.3-.25,0,1.14.9,0A20.51,20.51,0,0,0,295.13,29c-.2.42-1,.51-1.62.72C291.46,25.22,288.94,18.89,291.29,15.5Z"/><path class="cls-1" d="M117.25,102.36c-.82-1.1-.08-2.53.31-3.53.77,0,.33.41.26.84.69-.1.28-.79,1.14-.8-2,3.9-.11,7.79-2,11.62.08.39.39.37.46.78-1.77,2.39-.21,5.53-2,7.73-.79,0-.18-.83-.74-.92.57-.48,1.12-1.79.19-1.67.37-.74,0-1.39.2-2.35.08-.37.71-.91.74-1.38,0-.26-.5-.74-.53-1a19.16,19.16,0,0,1,.92-5.33c0-.05.54.2.7,0A4.41,4.41,0,0,1,117.25,102.36Z"/><path class="cls-1" d="M105.06,100.76c.56,3.09-1,6.52-.64,10.06-.2.34-.31.19-.63.19.36,3-.57,6.86-1.4,9.84.07.2.3.08.48.08-1.43,6.38-1.22,13.49-3.26,18.89-1.11-.95.6-4.12-.07-4.8.18-.55.66,0,.71-.67,0-.4-.32-.37-.27-.15a17.11,17.11,0,0,1,1-6.51c-.43-9,3.12-18.41,2.4-27.12,1.09,0,.22-1.49,1.51-1.83a1.4,1.4,0,0,1,.27-2.15c-.76-1-.14-2.45.65-3.18.55.18,0,.56.53,1C105,94.63,106.65,100.09,105.06,100.76Z"/><path class="cls-1" d="M90.75,112c1.11,2.11-.26,4.76-.62,7.07-1.1,7.06-1.31,15-3.34,21.67a7.62,7.62,0,0,1-.55,4.3c-.94-3,1.11-6.79.56-9.58.27-1.79,1.15-5.2,1.4-7.54,0-.36-.44-.39-.46-.78,0-.91.64-2.78.82-4.15.21-1.63.18-3.28.33-4.23,0,0,.65-.73.65-.89s-.49-.32-.4-.57c.19-.52,1.4-1.15.54-2C90.31,114.88,90.68,113.18,90.75,112Z"/><path class="cls-1" d="M83.76,123c-1.33-.79.95-3,0-3.69,1.34.43.4,2.25.26,3.14-.52,3.39-1.82,7.25-2.26,10.78-.24,1.87-.59,3.75-.86,5.54-.57-.2-.08-1.32-.09-1.81-.11-.22-.24,0-.21.06,1.23-3.69.54-9.94,2.49-13.83C83.19,123.07,83.66,123.14,83.76,123Z"/><path class="cls-1" d="M50,134.55c-.26,6-2.8,11.81-4,18s-1.71,12.62-3.88,18.38c.25,1.61-.55,2.65-.33,4.24-.38.14-.66.35-.72.67.2-2.6,0-6.13,1.36-8.44-.34-.62-.23-.87-.52-1,2.17-3.27.27-5.65,2.49-9.25-.58-2.75,1.38-6.33,1.13-10,.37-.21.2-.72.92-.74C47,142.1,47.74,137.91,50,134.55Z"/><path class="cls-1" d="M42.57,144.84c-1.73,2.72-1.18,7.17-2.19,11-.21.79-.9,1.39-1.18,2.19-.77,2.18-.75,4.83-1.74,7.18-.15.35-.73.59-.86,1-.52,1.45-.43,3.27-.84,4.85-.89,3.39-2.63,6.25-3.27,9.71l-1.06.31c.74-.66.48-1.86,1.33-2.46.43-5.64,3.05-8.89,2.91-14,.26,0,.29.34.4.57.84-2.57,1.76-6.45,2.71-9.31-.67-.59.85-2.41.75-4.36,0-.62.66-1,.73-1.37s-.2-1.47-.08-1.81S41.58,144.92,42.57,144.84Z"/><path class="cls-1" d="M35.08,146.63a15.29,15.29,0,0,1-1.93,8.85c-.91,4.23-1.94,8.6-3.22,12.91-.52,1.74-1.7,3.32-2.17,5-.59,2.12-.37,4.66-2.54,6A20.17,20.17,0,0,0,26.71,176c1.09-4.91,3-10.44,3.86-15.4.45-.46.66-1.05,1.16-1.5-.79-2.06.58-3,.14-4.86C34,152.27,33.14,148.71,35.08,146.63Z"/><path class="cls-1" d="M25.56,179.81a1.65,1.65,0,0,1-.88,1.64C25.09,181,24.71,180.06,25.56,179.81Z"/><path class="cls-1" d="M18.53,161c-.89,3.3-1.61,9.72-3.74,13.53,1.2-4.15,1.14-9.82,3.51-12.77-.09-.28-.17-.56-.26-.84C18.27,161,18.54,161.44,18.53,161Z"/><path class="cls-1" d="M2.17,161.6c.43.7-.9.46-.59,1.1C1.22,163.26,1.47,161.6,2.17,161.6Z"/><path class="cls-1" d="M0,164.32c1.1-.23.38.37.53,1C0,165.13.52,164.75,0,164.32Z"/><path class="cls-1" d="M256.06,38.05c-.5,3.4.19,6.87.75,10.11-.59.34-.83,0-1.32.17C254.27,44.64,252.56,38.83,256.06,38.05Z"/><path class="cls-1" d="M19.54,178.87c-1.16-2.76,1.07-5.16,1.54-7.82.55-3,1.19-6.32,2-9.33.38-1.34.55-2.61.89-3.93.66-2.59,2.1-5.8,2.62-8.83.2-.06.24.21.33.36.36-.18.5.07.28.15C25.5,159.72,22.16,169.1,19.54,178.87Z"/></g></g></svg>