<svg xmlns="http://www.w3.org/2000/svg" viewBox="0 0 167.67 164.9"><defs><style>.cls-1{fill:#231f20;fill-rule:evenodd;}</style></defs><g id="Layer_2" data-name="Layer 2"><g id="Graphics"><path class="cls-1" d="M112.8,11c-.41,1.07-2,.65-3.09.47-4-.66-7.5-1.7-11.87-1.9a35.94,35.94,0,0,0-4.27-.23c-1.78.17-3.4.55-5.46.71-2.71.21-5.17,1.45-7.84,2.14-1.15.29-2.39.07-3.56.47-1.84.63-4.87,2.1-7.6,1.43C78.92,6.78,101.77,7.31,112.8,11Z"/><path class="cls-1" d="M112.08,15.3c-3.93.79-8.08-.92-12.58-.71-8,.38-15.76,3-23.5,2.85.58-2.46,2.67-.84,4-2.14,7.32-1,15.28-2.7,23.27-1.9C106.24,13.7,109.58,14,112.08,15.3Z"/><path class="cls-1" d="M54.39,16.73c.39-.07.41.22.72.23-.52,2-2,3.11-2.14,5.23-.13,1.85.8,3,.71,4.75-.74,0-.68.74-1.66.47C50.08,23,51.79,19.83,54.39,16.73Z"/><path class="cls-1" d="M106.62,19.1c-6,.61-14.73-.71-18,3.33-4-2.81,5.15-4.54,8.55-4.52C101.09,17.94,105.22,18.46,106.62,19.1Z"/><path class="cls-1" d="M58.67,19.81a13.53,13.53,0,0,1-2.38,5C53.87,24.29,56.88,18.34,58.67,19.81Z"/><path class="cls-1" d="M68.4,19.58c-1,1.88-2.24,3.45-2.37,6.17a2.59,2.59,0,0,1-1.9-.48C64.25,22.35,65,18.93,68.4,19.58Z"/><path class="cls-1" d="M64.36,19.81c-1.14,1.56-1.39,4-2.61,5.46-.31-.24-.87-.23-1.18-.47C60.79,22.24,61.87,19.32,64.36,19.81Z"/><path class="cls-1" d="M50.12,20.29c-1.86,3.52,2.12,6.25,0,8.55C47.57,27.48,46.74,21.24,50.12,20.29Z"/><path class="cls-1" d="M142.24,22h.47c5.37,5.73,9.94,11.06,13.3,19a41.11,41.11,0,0,0,1.9,8.31c2,13.67,2.48,30-4.28,41.79-.19,2.18-1,3.72-2.61,4.51A16,16,0,0,1,152.21,92c.39-1.15.35-2.38.71-3.56,1-3.3,2.77-6.56,3.56-10,2.26-9.76,1-22.37-1.19-31.82a58.27,58.27,0,0,0-5-13.29C148.17,29.05,144.35,26.09,142.24,22Z"/><path class="cls-1" d="M72.2,22.43c-1.46,1.92-2.75,3.35-2.85,6.17H67.69C66.84,25.7,69.26,21.44,72.2,22.43Z"/><path class="cls-1" d="M141.52,38.1c.41.08.45-.19.48-.48,2.66,5.42,4.33,9.79,4.75,15.43-.21,2.69-.09,7.14-.48,11.4-.44,4.83.89,10.24-1.42,13.53.69,2.11-1,4.25-1.9,6.17-.44-3.29,1.37-6.89,1.66-10.68.41-5.29.79-11.52.71-15.91-.27-14.84-6.61-24.76-14.48-34.19-.15-.21-.29-.42,0-.47,1.63-.11,3,3.22,4.27,4.75a16.21,16.21,0,0,0,3.09,2.61,5.58,5.58,0,0,0,2.61,3.8C140.64,36.15,141.85,36.44,141.52,38.1Z"/><path class="cls-1" d="M44.42,22.9h.95c.67,2.5,1,5.37,2.61,6.89a2,2,0,0,1-1.66.95A7.46,7.46,0,0,1,44.42,22.9Z"/><path class="cls-1" d="M86.44,23.37c-2.34,2.49-5.65,4-6.41,8.08-.72-.17-.7.41-1.42.23C78.78,27.5,82.33,23.6,86.44,23.37Z"/><path class="cls-1" d="M76.71,23.85c-1.09,1.68-3,2.5-2.85,5.46-.68,0-1.55.13-1.9-.24C72.08,26,73.58,23.11,76.71,23.85Z"/><path class="cls-1" d="M80.51,24.09c-.93,2.39-3.36,3.28-3.33,6.65-3.52-1.2.53-6.54,2.38-6.89C80,23.82,80.06,24.14,80.51,24.09Z"/><path class="cls-1" d="M137,24.09h.48C141,26.91,142.2,32,145.8,34.77c1.45,4.1,4.28,7.59,4.51,12.82,2.3,5.31,2.28,13,1.42,20.18s-1.89,15-4,21.13c-.58,1.64-1.46,3.59-3.33,4.28,3.72-11.41,6.82-24.65,5.94-37.52S143.19,33,137,24.8C136.59,24.63,137,24.37,137,24.09Z"/><path class="cls-1" d="M141.05,25.51h.71c11.2,10.21,16.09,27.71,13.77,45.35a41.93,41.93,0,0,1-1.9,14c-1.31,4.51-2.83,8.58-5.93,10.92,10.41-20,8.82-54.81-6.41-69.57C141,26.19,141.09,25.79,141.05,25.51Z"/><path class="cls-1" d="M41.1,26.46c.2,0,.22.09.23.24.9,1.72,1.3,4.11,2.14,5.93.48,1,1.91,2.06,1,3.09C41.75,34.45,39.31,29.18,41.1,26.46Z"/><path class="cls-1" d="M87.87,27.17c-.25,1.83-3,3.21-3.56,5.46-.75.12-.93-.33-1.43-.47C83.18,29.27,85.41,27.11,87.87,27.17Z"/><path class="cls-1" d="M90.72,28.84c-.73,1.88-2.22,3-2.85,5-.73.17-.7-.41-1.43-.24C86.37,30.72,88.84,28.2,90.72,28.84Z"/><path class="cls-1" d="M94.75,29.79a26.53,26.53,0,0,0-3.08,5.46,1.71,1.71,0,0,1-1.43-1C91.22,32.49,92.24,28.52,94.75,29.79Z"/><path class="cls-1" d="M99.74,29.55a10.57,10.57,0,0,1-4.51,4.27c-1.45,2-2,4.24-3.8,5.46-.58-4.42,4.37-7.31,7.12-10C98.9,29.44,99.78,29,99.74,29.55Z"/><path class="cls-1" d="M136.06,33.11c4.17,9.2,6.74,18.36,5.94,29.91-1.59.55-.58,3.7-2.38,4,2.19-9.89.68-24.64-5-33.71A2,2,0,0,1,136.06,33.11Z"/><path class="cls-1" d="M99.26,35c-.45,2-2,2.94-2.84,4.51-.5-.14-.68-.59-1.43-.48C95.44,36.86,96.84,34.44,99.26,35Z"/><path class="cls-1" d="M102.82,36.2c.18,2.65-2.42,4.52-4,6.17-.47,0-.3-.65-1-.48C99,39.51,100,36.91,102.82,36.2Z"/><path class="cls-1" d="M132.74,36.43c.38-.06.41.23.71.24,1.16,6.44,5.18,12.09,2.14,18.52-.56-2.73-.23-6.28-1-9.74-.42-2-1.45-3.86-1.66-5.69-.11-1,.21-1.59-.48-2.38C132.47,37,132.79,36.88,132.74,36.43Z"/><path class="cls-1" d="M42.05,37.38c.38-.06.41.23.71.24-1.31,7.67,2.94,15,3.56,20.66C42.79,54,39.06,43.31,42.05,37.38Z"/><path class="cls-1" d="M107.81,38.1c-1.9,1.81-4.32,3.11-5.46,5.69-.45-.1-.6-.51-1.19-.47C102,40.45,104.52,37,107.81,38.1Z"/><path class="cls-1" d="M113,40.23c0,.93-1.28.61-1.9,1-.94.79-2.64,1.32-3.79,2.38-1.45,1.32-2.18,4.54-4.28,3.56C104.63,43.37,108.19,39.13,113,40.23Z"/><path class="cls-1" d="M114.46,42.61c.65-.18.48.47,1,.47-.85,2.41-2,5.74-5,5.22C112,46.64,112.91,44.3,114.46,42.61Z"/><path class="cls-1" d="M116.12,45.22c.47,0,.3.65.95.47-.24,2.71-1.16,5.94-3.8,5.46C113.48,49.35,115.43,47.32,116.12,45.22Z"/><path class="cls-1" d="M118.5,49.49c.38-.07.4.22.71.24-.1,2.2-1.1,3.49-1.9,5-.56.19-1.64.47-2.14,0A55.76,55.76,0,0,1,118.5,49.49Z"/><path class="cls-1" d="M124.9,51.87c-.12,4.32-1,8.8-4.27,10.68-.49-1.41.81-3,1.43-4.75a42.4,42.4,0,0,0,1.42-5.7c.06-.25.47-.16.48-.47C124.38,51.6,124.46,51.92,124.9,51.87Z"/><path class="cls-1" d="M120.39,52.34c1.4.82.69,4.47,0,5.46-.74,0-1.74.16-2.13-.24C119.44,56.06,118.8,53.7,120.39,52.34Z"/><path class="cls-1" d="M126.8,54.71c.16,3.22-.21,10.27-4.74,10,1.58-2.25,3.2-6.86,4-10Z"/><path class="cls-1" d="M128.23,60.17c1.15,3.33-.9,7.5-2.85,10.21-.68,0-1.55.13-1.9-.23C125.84,67.6,126,62.83,128.23,60.17Z"/><path class="cls-1" d="M130.84,64.21h.71c.73,3.55-.83,7.73-4.27,8.55C128.3,69.39,130.57,67.83,130.84,64.21Z"/><path class="cls-1" d="M133.93,68h1.18c.78,2.58-.72,5.75-1.9,8.78-1,.47-1.07,1.78-2.84,1.43C132,75.27,133.78,71.68,133.93,68Z"/><path class="cls-1" d="M60.8,70.86c.27.74-.49,2.51-.71,3.56C58.65,73.77,60.2,71.64,60.8,70.86Z"/><path class="cls-1" d="M135.35,72.52c0-.23.29-.18.48-.24,2.42,2.52.4,10.31-3.57,11.4.09-.41-.18-.45-.47-.48A15.89,15.89,0,0,0,135.35,72.52Z"/><path class="cls-1" d="M89.29,74.42c-4.17,3.67-8.13,8.8-12.34,11.63a13.32,13.32,0,0,1-5.7,5A169.77,169.77,0,0,1,88.58,73.71C89.42,73.34,88.72,74.51,89.29,74.42Z"/><path class="cls-1" d="M93.33,75.84c.26.06.16.48.47.48-4.59,6-10.74,10.47-15,16.86-.85-.82-.86.53-1.67.47C81.75,86.83,87.17,80.39,93.33,75.84Z"/><path class="cls-1" d="M96.18,77.74c-.75.28-.58-.37-1-.47C95.3,76.76,96.35,77.22,96.18,77.74Z"/><path class="cls-1" d="M137.49,79.64c3.17,1.76-1.11,6.46-2.38,8.31-.75-.36-1-.08-1.9,0C134.73,85.27,136.93,83.28,137.49,79.64Z"/><path class="cls-1" d="M138.91,83.44c1.53,3.6-1.85,10-5.93,10.21,1.87-3.12,4.84-5.12,5.22-9.73C138.39,83.71,138.85,83.77,138.91,83.44Z"/><path class="cls-1" d="M102.82,86.53c4.25,1.13,6.3,5.73,7.13,9.49,1,2.15,3.7,6.4,4,9.5.15,1.39.15,3.8-1.66,4.27A23,23,0,0,0,109,98.4a25.8,25.8,0,0,0-3.56-7.84C104.56,89.3,102.8,88.42,102.82,86.53Z"/><path class="cls-1" d="M139.62,90.09c1,3.27-1.36,9-4.74,7.83a23.43,23.43,0,0,0,4-7.36C139.1,90.36,139.56,90.42,139.62,90.09Z"/><path class="cls-1" d="M140.1,97c.92-.12.21,1.38,1,1.43-1.14,2-2.65,4.77-5.7,4C136.63,100.3,139.23,99.51,140.1,97Z"/><path class="cls-1" d="M71.72,97.69c.44,1.17-1.1,2.52-1.66,2.84-.53,2.32-2.66,3-3.32,5.23a1.1,1.1,0,0,0-.71-.24c-.88,3.4-3.17,5.38-4.75,8.07-.42.21-.7.76-1.19.24-.59,2-1.21,4-3.09,4.75a79.16,79.16,0,0,1-16.38,19.94c-3.42.88-5.61,4.77-9.26,2.85,1.54-1.75,3.6-1.83,5.46-2.85,4-2.16,8.51-6.79,11.4-10.44,3.3-4.17,6.33-8.9,9.5-13.3S64,105.57,67.93,102.2c.18-1.16,1.49-1.19,1.42-2.62C70.39,99.2,70.87,98.25,71.72,97.69Z"/><path class="cls-1" d="M44.66,98.64c-5.22,6-12.19,10.78-17.57,15.9-2.87,3.55-6.13,6.69-8.78,10.45-.54-.94.93-1.91.71-3.33C25.52,112.1,35,105.5,44,98.4,44.33,98.33,44.36,98.62,44.66,98.64Z"/><path class="cls-1" d="M78.61,98.64c.27,0,.42,0,.47.23-.81,2.2-1.48,4.53-3.32,5.7-.48,3.63-3.43,4.8-4.27,8.07-3.58,3-4.5,8.64-8.08,11.64-.18,2.59-2.28,4.29-3.56,6.41s-2.1,4.4-3.56,6.41c-.49.67-1.4,1-1.9,1.66-.74,1-1,2.35-1.9,3.32A45.71,45.71,0,0,1,43,150.15c-2.54,1.69-5,3.71-7.84,2.38,2-2.05,4.84-2.9,7.12-4.51,3.85-2.71,6.77-6.27,10.21-9.5C61,125,68.8,110.83,78.61,98.64Z"/><path class="cls-1" d="M144.14,98.64c1.51,1,.06,2.1-.48,3.56-1.27,3.41-3.27,8.27-7.83,7.36,4-2.27,6.21-6.3,7.83-10.92Z"/><path class="cls-1" d="M49.17,99.82c.23,0,.18.29.24.48.23.94-.71.71-.48,1.66-2.53,1-4,4.33-6.41,4.75A50.57,50.57,0,0,1,34,115c.07.69-.53.73-.47,1.42-2.58,1.61-4.2,4.19-5.94,6.65-1.86.21-2,2.51-4,1.9.84-2.32,3.12-3.22,4-5.46.68,0,.56-.71,1.19-.71C34.55,111.48,42,105.81,49.17,99.82Z"/><path class="cls-1" d="M58.67,101.48a.67.67,0,0,1,.47.72A4.13,4.13,0,0,0,58,104.57c-8.69,8.76-17,20.25-29.2,25.4-1.05.78-1.77,1.51-3.09.95,1-1.83,3.29-2.52,5-3.56s3.55-2.19,5.22-3.32a1.69,1.69,0,0,0,.48-.71,7.31,7.31,0,0,0,4.27-3.56c1.45-.38,2.11-1.54,3.33-2.14a4.91,4.91,0,0,0,.71-1.43A140,140,0,0,0,58.67,101.48Z"/><path class="cls-1" d="M139.62,102c.22.1.43.21.48.47-.45,1.85-1.95,2.65-3.09,3.8-.57.1-.51-.43-1.18-.23C136.41,104,138.14,103.08,139.62,102Z"/><path class="cls-1" d="M143,106.71h.71c.67,3.74-4.34,9.79-8.55,7.12C138.58,113.51,141.87,110.51,143,106.71Z"/><path class="cls-1" d="M102.35,113.12c-3.7.6-6.65-2.6-8.78-3.56v-.72c3-.2,5.35,2.41,8.54,3.33C101.5,112.79,102.5,112.36,102.35,113.12Z"/><path class="cls-1" d="M143.19,112.88c.38-.07.4.22.71.24.48,4.07-4.47,5.89-9,6.41-.12-1.22.79-1.43,1.9-1.43C139.3,116.75,142.33,115.9,143.19,112.88Z"/><path class="cls-1" d="M41.81,113.12c-.15,2.32-3,4-4.75,5.46-2.08,1.87-3.44,4.47-6.17,5.7-.95.68-1.56,2.8-3.33,1.9,4-4.89,9-8.73,13.54-13.06Z"/><path class="cls-1" d="M113,120.72c2.71,2.1,9,1.29,12.11,1.66-1.82,2.57-5.92.12-8.31,1-1.14-1-3.84-.43-4.27-2.14C113,121.28,113,121,113,120.72Z"/><path class="cls-1" d="M47.27,123.56a3.08,3.08,0,0,1-2.14,3.09c-3,4.28-8.11,8.13-13.53,8.55,2.94-2.61,6.63-4.2,9.73-6.65a56,56,0,0,0,5.23-5Z"/><path class="cls-1" d="M27.33,150.63a22.15,22.15,0,0,0-8.79-16.38,13.14,13.14,0,0,0-9-3.09c.29-2.43,4.23-2.15,5.7-1.66a22.3,22.3,0,0,1,2.85,2.14c3.46,2.59,6.25,4.22,8.31,8.54,1.42,3,3,4.81,2.61,9.26C28.27,149.67,28.51,150.86,27.33,150.63Z"/><path class="cls-1" d="M23.53,153.24c-.1-8-5.92-15.08-11.87-18-1.15-.07-1.91.52-2.85,0,1.45-2.39,4.35-1.89,6.41-.71,4.14,2.37,9.86,10.83,10.21,15.43C25.52,151.19,25.59,153.2,23.53,153.24Z"/><path class="cls-1" d="M19,152.29c-2.11-4.22-3.17-11.33-8.55-13.06-.07-.38.22-.41.24-.71.83-.38,4,.39,5.22,1.43,2.1,1.75,4,7.49,4,9.73C20,150.56,19.88,151.79,19,152.29Z"/><path class="cls-1" d="M82.17,93.65c4.67-7,9.75-14.79,17.57-17.81,0,1.58-2,1.9-1.9,2.85-.29.34-.09,0,0-.23-6,3-8.81,9.23-13.53,13.53-.5.06.34.63-.24,1C83.29,93,83,93.6,82.17,93.65Z"/><path class="cls-1" d="M25.9,162.74c.34.7,2.93,1.18,4.28,1.66-1.91,1-4.31.4-6.41-.48-4.18-1.72-7.93-5.1-11.64-8.78C7,150,2.74,145.62,1.21,137.1c-.3-1.68-1.1-2.88-1.19-4.51a43,43,0,0,1,.24-5.46c.24-2.68,1.51-4.84,1.66-7.84.37-.34,1.11-.32,1.43-.71,2.81-7.48,8-12.58,13.06-17.81,1.42.08,2.37-1.3,3.32-2.37,4.66-2.26,8.7-6.08,13.53-8.55,2.34-1.19,5.41-2,7.13-3.8,3.71-1.11,6.37-3.28,9.49-5A91.49,91.49,0,0,1,43,67.53c-1.67-4-3.1-7.81-4.51-12.1-.38-1.13-1.29-2-1.67-3.09-1.71-5-.74-11.31-2.13-17.09,1.82-2.13,0-4.66,0-7.36,0-2,1.73-5.54,2.85-7.36,4-6.49,13.36-9.24,20.18-13.06,1-.53,1.7-1.44,2.61-1.9,2.18-1.11,5.48-1.43,8.31-2.37C74.3,1.31,78.32-.46,84.78.11c3.91.34,8,0,11.16.47,1.16.17,2.23.8,3.32,1,6.89,1,14.23,1.34,20.66,2.85A81.59,81.59,0,0,1,128.23,7c4.41,1.58,8.42,3,12.11,5.46,10.56,7,17,17.31,22.31,28.49a142.6,142.6,0,0,1,3.57,15.2,3.55,3.55,0,0,0,.95,2.14,73.49,73.49,0,0,1-3.57,32.28c-.62,1.9-1.69,3.81-2.13,5.7-.81,3.5-2.35,7.52-3.33,11.63-3.77,5.18-6,11.27-11.39,15-2.06,1.42-5.12,2.19-8.08,3.33-3.44,1.32-6.32,2.6-9.73,2.61-2.45,0-5-.38-7.6-.48-2.8-.11-6,0-8.54-.47-.94-.19-1.5-1.12-2.61-1.43-1.7-.47-5.22-.19-7.6-1-1.83-.58-3.1-2.48-5-2.13C92.47,118.49,84.88,116.11,80,111c-2.66,2.48-3.81,6.48-6.64,8.79-3,5.08-5.75,10.4-9,15.19-1.83,4.86-5.87,10-9.73,13.53-1.27,1.18-2.49,2.8-3.8,3.8-1,.81-2.79,1.39-4.27,2.38-5.57,3.71-11.91,8.71-20.42,8.07ZM119.21,125c2.37.18,4.82-.24,7.36-.24s5.14,1.17,7.12.48c2.27-.8,6.71-2,8.55-3.33a41.7,41.7,0,0,0,4.27-4.27,49.81,49.81,0,0,0,10.21-15.91A124.85,124.85,0,0,0,161,88.66a120.47,120.47,0,0,0,3.33-13.77c.21-1.5-.12-3.14,0-4.74.18-2.71.8-4.66.47-7.6-1.22-11-5.43-24.31-11.16-32.53-3.51-5-8.13-9.14-12.34-12.82-1.6-1.39-2.62-2.64-4.28-3.56s-4.09-1.24-5.93-2.14a36.81,36.81,0,0,0-15-4,26.36,26.36,0,0,0-11.87-2.38c-2.87-1-7.61-1.41-11.63-1.66C83.7,2.87,74.06,3.4,67.45,6,64.51,7.22,62,8.54,59.38,9.6a53.54,53.54,0,0,0-7.6,4c-4.63,2.81-10.17,7.22-11.87,11.63-4,10.34-.71,18.11,1.9,29.21.62,2.65.57,5.59,1.42,7.83.31.8,1.19,1.63,1.67,2.61,2.69,5.51,5,10.93,9.49,14-1.14-5.83-6.27-11-7.12-17.09,1.65-.05,2.24,2.1,2.85,3.32,1.58,3.19,3.06,6.26,4.75,9,.8,1.33,1.36,3.74,3.32,3.56.77-1-.74-2.11-1.42-3.08a19.29,19.29,0,0,0-2.38-3.33c-.9-3.39.46-6.26-.23-8.78C52.85,62,50.9,62,50.59,60.41,52.05,58.29,52.68,56.57,52,54c-.4-1.52-1.29-3.77-1.9-5.93-.7-2.48-1.13-5.18-1.66-6.65-.33-.9-1.15-1.4-1.19-2.38-.11-2.86,2.2-4.25,3.8-5.69a17.35,17.35,0,0,1,3.56-2.85C65.12,25.71,75,37.59,83.36,35.72c2.26,5.57,6.7,9,11.16,12.35.75.36,1,.08,1.9,0,.71,1.78,5,3.74,6.88,3.32,1.53-.34,1.87-3.09,4-2.14C105.42,56,109.56,60.15,113,63c2.13-.4,1.68-3.93,3.56-4,2-.11,2.22,3.67,1.43,6.17s-2.57,4.14-1.43,6.88c1.48,3.53,3.17,7.81,4.75,9.26,1.93-.44,2-4.78,5.46-4.51-1.46,9.54,3.81,16.11,4.28,25.41,0,1.08-1.25,1-1.43,1.9,3.71,5.94.61,14-5.22,14.72-4.69.54-7.32-3.82-10.68-5.23-5.62,4.47-12.89-1.9-10.93-8.54-3.51-.83-8.14-2.2-10.68-4.75-1.72.23-4.39-.17-5.93.71a10.54,10.54,0,0,0-2.14,2.85,23.55,23.55,0,0,0,2.37,2.37c4.89,4.91,11.32,8.51,17.34,11.16,1.11.49,2.65.81,3.08,1.9-9.6-1.14-17.44-8-24.21-13.53,0,1-.92,1.14-1,2.13C91.93,116.13,102.6,123.73,119.21,125ZM76.71,37.86c-.82.64-1.34-1-2.61-.72-4.49-4.3-20.45-7.46-24-.23,2.25-1.1,4.24-2.7,7.12-2.38s4.95,2.69,6.41,4.28c-2.89,1.38-13.37-1.4-12.34,5,8.15-4.31,23.85-1.24,26.35,5C73.16,47,69.6,44.6,63.41,44c-.48.15-.06,1.2-.95.95-4.31-1-7.39,1.09-10,3.09A2,2,0,0,0,53,49.49c3.32-2.65,8.87-3.19,13.53-2.85a11.88,11.88,0,0,1,2.61.48c3.4,1.53,8.94,3.6,9.26,6.88-4.11-.23-6-4.15-11.16-5.22-4.29-.89-13.37-.67-13.77,3.32C57,51,64,48.65,67.21,51.63c0,.67-1.46-.2-1.42.47,5.72,0,10.66,3.64,15,5,0-1.78-.63-5.85-1.9-7.84.07-.55,1-.23,1.18-.71-3.2-4.4-7.49-7.7-12.1-10.68-1-.35-2.29-.41-2.38-1.66C73.19,37.63,78,41.8,81.46,47.59c2.34,1.52,3.35,4.76,3.32,7.84,0,2.59-2.57,5.19-.71,6.64,4-7.33,1.49-21.74-6.17-24.45-.64.77.65.69,0,1.19C76.83,38.63,77.35,38.24,76.71,37.86Zm-26.83.71c-.11,1,.56,1.18.95,1.66,1.27-2.13,4.53-2.28,6.89-3.32C54.59,35.42,52.32,37.91,49.88,38.57Zm1.9,7.36A20.1,20.1,0,0,0,55.34,44C54,44.47,52.09,44.41,51.78,45.93Zm75,47.25c-.77-2.55-1.64-5-3.32-6.65,0,.42.24,1.19-.47,1a3.2,3.2,0,0,1-1.43-1.9c-.72,0-.92-.5-1.42-.71a15.85,15.85,0,0,0-5.94-5.23c-1.4-.72-2.93-1-4.51-1.9.67-1.19,2.28-.13,3.32-.71-2.28-.88-4.26-2.07-6.41-3.09,1.19-.1-.09-.5-.23-.71,2.75-.06,4.88,1.76,6.88,1.66-1.45-3.38-8.69-1-11.16-3.32,3.74-.47,10.16-1,12.35,1.42A25,25,0,0,1,113,69.67c-2.09-3-8.12-.19-10.44-2.14.67-1.17,2.24-.37,3.32-.47,3-.3,5.78-.86,8.55,1a12.22,12.22,0,0,0,1.66-5.22c-1.72.41-2.57,1.7-4.27,2.13-2.58-2.45-6.65,1-9.26.72a13.49,13.49,0,0,1,6.17-3.09,5.36,5.36,0,0,0-1.9-2.61c-2.58,3-7.46,3.61-9.5,7.12-.29-6.59,4.62-7.84,5.23-14-.36,0-.88.09-1-.24-1.53,1.93-3.49,4-5.22,5.94-.83,1-1.09,3-2.62,2.85,1-3.68,4-5.35,5.23-8.79a9.54,9.54,0,0,0-3.09-1.42c-.85,3-1.54,6.06-3.8,7.6.46-3.14,2.43-5.92,2.38-8.79-.4-.55-1.29-.61-1.9-1-.24,3.08-.74,10.8-4.28,11.87,1.35-4,4-13.6-1.18-15.9,1,6.8,1.33,13.78-2.85,17.33,1.37.52,2.68,1.11,3.08,2.61-2.3-.59-2.79-1.62-5-2.14-1.2.68-1.37,2-2.14,3.09-6.9,9.44-18.43,13.26-29,18.52-5.19,2.59-10.17,5.73-15.44,8.31s-9.42,6.35-13.77,10c-6.58,5.48-13,10.55-16.38,19-.19.67.34.62.24,1.19a8.69,8.69,0,0,0-1,2.14c.2.51.62.81.47,1.66-.42,0-1.18-.24-.94.47a35,35,0,0,0,.23,9.26c.81,4.79,2.11,6.87,4.28,10.45,1.11,1.84,2,3.6,3.32,4.75,1.66,1.41,3.75,2.12,5.46,3.32.69.48,1,1.41,1.9,1.9,3.37,1.93,8.64,3.29,11.87,2.14.41-.08-.22-.74.48-1,4.21-.31,6.23-1.35,9.49-3.56a43.1,43.1,0,0,0,12.11-12.11c4.29-6.18,7.78-12.05,12.11-18.28,2-2.9,3.63-6,5.22-8.79,2.37-4.17,5.25-6.74,6.41-10.92a1.54,1.54,0,0,0,1.19-.24c7.71-9.14,13.13-20.58,24.45-26.11,1,1.16,2.9-1.3,3.33,1-2,1.44-4.77,2.19-6.65,3.8.92,1.87-2,2.91-2.61,4.74a24.38,24.38,0,0,1,5.46,15.2c.93.49,2.19.65,2.85,1.42-.52,1.44-1.26,4.12.23,5,1.33-5.62-1.26-9-2.13-13.77-1.53-1.24-1.81-4-2.85-5.94-.63-1.13-3.07-2.59-1.19-3.79,4,3.4,4.93,9.17,7.84,14,.42-1.6-.84-3.54.23-4.27a39.78,39.78,0,0,1,3.09,17.57c2.2.14,1.67-2.45,2.85-3.33.71,0,1.2.7,1.66.24,0-5.18-2.84-9.61-2.61-13.53,3.21,3.31,4.58,10.78,3.8,15.91.79.63,1.25,1.59,2.37,1.89.52-6.87-2-12.53-5.22-17.8-3.37-5.51-7.15-9.63-10.45-13.77,4.14.29,6.14,3.51,8.55,6.88,4.88,6.82,11.3,17.28,9,26.12a7,7,0,0,0,2.85,1.42c1.15-7.69-2.25-12.64-5-18-1.64-3.23-4.55-6.62-4.75-9.73,6.71,6.27,10.72,15.23,12.82,26.11.47-1,.89-.68,1.66-1.42,1.23-3,1.18-7.3-.95-9.26.26,1.41.07,2.19-.71,2.85-2-1.7-2.56-4.37-3.56-6.65-1.72-3.92-3.1-6.93-5.47-9.5A59.6,59.6,0,0,0,109,84.15c-1.52-.14-2.61-.72-2.85-2.13A4.85,4.85,0,0,1,109,82c4.48,1.22,10.1,7.2,12.58,10.44s2.7,8.21,5.22,11.16c.33-.86,1.51-.87,1.9-1.66-1-5.33-4.28-8.38-6.64-12.35-2.86-1.81-6.61-4-7.6-6.88C119.55,85.08,123.85,89.48,126.8,93.18ZM53.92,54.24a59.24,59.24,0,0,0,7.59-1.9C58.69,52.68,55.43,52.59,53.92,54.24Zm5.46.24c-1.69.36-4.51.52-4.75,2.61,3.37-1.19,9.9-3.88,13.06-1-2.48.75-4.53.22-6.89,1.42-2.62.29-5.64.27-7.36,2.38.56.63,1.85.53,2.61,1,4.23-5.36,15.63-2.82,22.32-1.43C74.34,56.09,67.09,52.82,59.38,54.48Zm39.88,9.26c2.51-1.53,5.32-2.76,6.65-5.46-1.3-.68-.84-3.12-1.66-4.28C103.93,58.43,100.07,60.59,99.26,63.74ZM64.13,59.22c-2,2.85-6.55,3.11-7.6,6.89,3.43-2,9.58-5.92,15.91-5.22,2.14.23,4.34,1.9,6.17,1.18C74.94,60,69.1,60,64.13,59.22Zm-2.85.24c-1.79.47-5.09,1.56-4,3.33C58.06,61.55,61.79,60.13,61.28,59.46ZM57,70.86c3.07-3.19,7.53-7,13.77-7.84C64.82,63.27,57.39,65.06,57,70.86Zm4,5.46c.7-.56,1.18-1.36,2.14-1.66,4.08-1.28,8-4.59,11.63-7.13a20.93,20.93,0,0,0-11.4,5.7c-.87.87-1.63,2.94-3.32,2.14,2.42-6.05,9.17-7.77,15.19-10.21C68.46,62.68,52.81,71.41,61,76.32Zm53.42-.24c.37-.39.92.08,1.42.24C116.29,74.62,113.92,75.77,114.46,76.08ZM121.58,83a21.08,21.08,0,0,0,3.09,1C125.28,79.85,123.24,82.39,121.58,83ZM98.08,99.82c0,.75-1.28.31-1.19,1.19a18.79,18.79,0,0,0,4,1.66c-.3-4.42-2.34-10.44-5.46-13.53C95.16,92.94,98,95.58,98.08,99.82ZM91.67,98.4a9.7,9.7,0,0,1,4.51,1.9c0-2.76-1.71-5.7-2.38-8.55C91.06,92.46,92.44,95.9,91.67,98.4Zm-3.8.71c.13-.74,1.38-.36,1.9-.71.09-.48.59-1.76,0-2.14C89.55,97.47,87.31,97.91,87.87,99.11Zm18.52,12.11c.86.48.84,1.85,2.37,1.66.94-2.93-.16-7.48-1-11.16C107.55,104.72,107.58,107.91,106.39,111.22Z"/><path class="cls-1" d="M38.25,96.26c.31,2.17-2.33,2.69-3.56,3.8-.8.72-1.16,1.91-1.9,2.61-.92.87-2.13,1.28-3.09,2.14-5.64,5-10.91,10.42-14.72,16.38-1-.41-.7-1.44-.47-2.37.64-2.63,4.43-7.22,6.64-9.26,1.68-1.55,3.86-2.94,5.7-4.51s3.69-3.23,5.46-4.75C34.3,98.59,36.44,97.79,38.25,96.26Z"/><path class="cls-1" d="M71.49,103.62c.27.09.6.42.23.48-.83,4.42-4.56,7.88-6.17,12.82a36.18,36.18,0,0,0-6.41,10.21c-6.79,8.51-13.92,16.44-23.27,21.84-1,0-1.48.41-2.61.23-.73,4.4-5.16,9.87-9.73,8.08,2.87-1.48,7.27-3.58,7.12-8.08-.06-1.87-1.66-4.28-2.61-6.88a24,24,0,0,0-4-7.6c-1.84-2.06-4.93-3.62-5.93-5.22-3.87-.7-8-3.31-11.87-1.19,1.06-5.16,7.22-1.46,10.68-.47,3.23.92,4.41,1.29,6.65,3.56,1.22,1.24,3,2.53,3.8,3.56,2.79,3.68,4,9,5.46,12.82C51.71,139.09,60.11,119.86,71.49,103.62Z"/></g></g></svg>