<svg xmlns="http://www.w3.org/2000/svg" viewBox="0 0 402.18 299.19"><defs><style>.cls-1{fill:#231f20;fill-rule:evenodd;}</style></defs><g id="Layer_2" data-name="Layer 2"><g id="Graphics"><path class="cls-1" d="M374.17,7.05c4.15,1.24,4.45,5.36,5.23,9.5h-1.19c.19-.83-.36-.92-.24-1.66-.38.88-.18,2.35-1.9,1.89-.06-2.78-2.76-4.19-1.9-7.12,1,1.26,2.26,2.17,2.85,3.8C377.38,11,375.09,9.06,374.17,7.05Z"/><path class="cls-1" d="M354.23,26c.31.09.37.42.71.48-12.06,20.38-33.32,31.57-53.18,44.16-1-.64-2.1.92-3.09.24C318.94,57.78,340.07,45.75,354.23,26Z"/><path class="cls-1" d="M360.4,29.13c.23,0,.19.29.24.47.6,1.43-1.68,4-2.14,5.94-.83,0-.78.8-1.42,1-1.85,2.87-3.58,6.51-6.18,9a125.65,125.65,0,0,1-10,8.55c-.94.74-1.67,1.95-2.61,2.61-2.77,1.94-6.14,3.08-9,5-5.65,3.73-11.16,7.91-17.81,9.73.3-1.88,3.33-2.86,5.23-3.8,6.06-3,11.76-7.07,17.57-10.68A75.07,75.07,0,0,0,360.4,29.13Z"/><path class="cls-1" d="M360.4,35.54c.39-.07.41.22.71.24-.77,2.87-2.64,4.64-3.56,7.36-3.46,4-6.58,7.69-10.44,10.92-2,1.7-4.49,2.77-6.65,4.27-3.14,2.18-5.67,5.34-9.5,6.65-4.07,3-7.65,5.81-13.53,7.83a53.33,53.33,0,0,1-15.67,7.36c-1.06.42-2.24,1.8-3.8,1,4-2.64,11.1-5.13,16.15-7.83A228.61,228.61,0,0,0,344.5,53.35c2.41-1.85,4.48-4,7.12-5.94.17-1.17,1.55-1.14,1.42-2.61C356.48,42.7,358,38.72,360.4,35.54Z"/><path class="cls-1" d="M275.88,92.52c.45,0,.17.79.71.71-2.41,3.84-6.42,6.08-9.73,9-2.05,1.68-3.36,4.08-5.7,5.46-.9,1.24-2.65,4.21-4,2.14C262.57,103.26,269.58,98.25,275.88,92.52Z"/><path class="cls-1" d="M268.05,95.61c-3.06,2.87-5.07,6.8-10,7.83.17-.72-.25-.86-.24-1.42,3.71-1.6,6.22-4.39,9-6.89C267.76,94.79,267.32,95.78,268.05,95.61Z"/><path class="cls-1" d="M211.07,126.47c-3,3.79-6.24,7.38-7.36,13.06-.86.23-.2-1.07-1-.95C203.21,132.23,205.75,128,211.07,126.47Z"/><path class="cls-1" d="M215.58,127.18c-2.89,2.58-5.72,5.2-5.94,10.45-3.13-.46-1.14-5.14.24-7.36a6.43,6.43,0,0,1,3.8-3.09c.23,0,.18-.29.24-.47C214.23,127.1,215.26,126.79,215.58,127.18Z"/><path class="cls-1" d="M219.85,128.61A14.14,14.14,0,0,0,212.49,141c-.72.17-.86-.24-1.42-.24C210.58,134.48,214.19,127.92,219.85,128.61Z"/><path class="cls-1" d="M195.63,163.27c.5.84,2.36,1.64,2.62,3.09,1.25,7-10,6.13-9.74.47.07-1.69,1.6-3.22,3.56-4-.37-3,2.64-2.58,4.51-3.32-1-1.28.07-3,.48-4.75.87-3.76,1.54-8.66,2.61-12.11.44-1.4,1.19-3,2.61-3.32-.67,6.49-3.46,13.81-4.75,19.71,3.75-.67,6.09,6.06,2.14,7.83A6.11,6.11,0,0,0,195.63,163.27Zm4-1c-.63-.4-1.85-1.46-2.85-.71C197.46,162,199.14,162.61,199.67,162.32Zm-9,4.51c.13,1.76,4.33,3.61,5.7,1.19C196.27,165.11,190.4,163.6,190.65,166.83Z"/><path class="cls-1" d="M205.84,140.24a3.06,3.06,0,0,1-.23,2.37c-.52,1.12-.22.89-.48,2.38-.29,1.69-1.36,3.53-1.9,5.46-.7,2.49-.35,5.27-1.9,7.36h-1.66c2-5.62,2.49-12.7,5.22-17.57Z"/><path class="cls-1" d="M180.68,148.08c-9.3-2.31-18.46-4-27.78-4-14.56-.08-27.5,5.48-39.65,10,1.3-1.89,4.37-2.51,6.65-3.56a84.72,84.72,0,0,1,15.67-5.94c6.79-3.5,18.75-2.75,28-1.66C170.31,143.64,177.6,143.69,180.68,148.08Z"/><path class="cls-1" d="M208.93,142.85c1.15.44.46.76,1.43,0-1.63,5.51-2.63,12.89-4.52,19a2,2,0,0,1-2.13-.24c2.36-5.74,2.32-13.05,5.46-18.05A1.08,1.08,0,0,1,208.93,142.85Z"/><path class="cls-1" d="M185.66,155.91c-14.92-5.92-35.15-5.68-52.7-3.09,1.07-1.88,3.42-1,5.46-1.42s3.63-1.33,5.46-1.66a44.91,44.91,0,0,1,14.72-.24c9.55-1,16.94,2.31,25.16,3.8C184.17,154.4,185.7,154.37,185.66,155.91Z"/><path class="cls-1" d="M178.3,160.18c-.32.68-1.47-.52-2.13-.71-4.38-1.25-10.44-1.68-15.2-1.9-13.53-.63-24.22,4.77-33.71,8.31,0-2.06,2.32-2.48,3.8-3.09a33.06,33.06,0,0,1,5-1.66c2.41-1.33,3.85-2.42,6.41-2.37.35,0,.09-.71.48-.71,4.13-.8,8-1.51,10.92-2.38,1.17.68,3.31.13,4.51,0,3.73-.59,6.87.32,10.68,1C172.57,157.21,178.12,156.79,178.3,160.18Z"/><path class="cls-1" d="M170.23,164.69c-7.88-.71-15.65-1-21.6.95-.3-1.45,2-.81,2.37-2.37a40.19,40.19,0,0,1,19-.24C170.08,163.88,170.63,163.9,170.23,164.69Z"/><path class="cls-1" d="M119.19,163.74c-1.46-.05-3.24-.35-5,.48-.84.4-1.37,1.2-2.13,1.66-5.33,3.23-10.21,5.69-14.49,10a214.72,214.72,0,0,0-32,41.08c-1.73.56-2.42,3.43-3.56,3.79-1.31-1.21,1.66-2.09,1.19-4,1.49-.76,1.63-1.49,2.13-3.33,2.43-2.64,4.14-6,6.18-9-.08-.62.49-.61,1-.71a140.21,140.21,0,0,1,24.45-30.15,56.69,56.69,0,0,1,9.5-6.65C109.51,165.05,116.13,159.16,119.19,163.74Z"/><path class="cls-1" d="M215.34,164.69c.75-.11.93.34,1.43.48a10.87,10.87,0,0,1-4.52,8.07C212,169.59,214.91,168,215.34,164.69Z"/><path class="cls-1" d="M209.41,253.49c3.09-9.2,11-17.41,15-27.78,6.94-18.15,2.64-41.26-9.26-53.66-.23,0-.18-.29-.23-.47.38-.69,1.22.38,1.42-.24,2,1.3,3.19,3.73,4.75,5.94A37.82,37.82,0,0,1,226.5,188a50.32,50.32,0,0,1,3.09,16.38,66.46,66.46,0,0,1,0,9.26,11.54,11.54,0,0,1-1,2.61c-.59,1.93-.33,4.28-.95,6.18-.18.52-.77.9-.95,1.42-.67,1.89-.15,3.61-1.9,4.51-3.45,8.62-9.07,16.21-13.53,23,0,1.05-.68-.11-.95.48C209.87,252.33,210.78,253.52,209.41,253.49Z"/><path class="cls-1" d="M213.2,175.62c0-.21.1-.23.24-.24s.24.24.48.24c8.78,10.18,10.48,26,9,39.41a42.71,42.71,0,0,1-5.46,17.09c-2.84,5.12-5.65,9.55-10.92,11.87-.68-1,1.33-1.35,1.9-1.9,2.71-3.62,5.64-7,7.83-11.16,3.06-8,6.28-17.42,4.51-27.06.82-10.31-3.45-21.08-8.31-28C212.78,175.93,214,175.81,213.2,175.62Z"/><path class="cls-1" d="M209.17,182.74h.47c3.93,2.93,5.59,6.77,6.65,12.34.8,4.22,1.57,9.63,1.19,13.06a54.44,54.44,0,0,1-2.61,11.63,51.12,51.12,0,0,1-6.65,12.35c-1.54,2.16-2.51,5.16-5,5.7,3-5.39,6.49-11.09,9.5-17.1,4.56-12.12,3.22-27.94-3.56-37.27Z"/><path class="cls-1" d="M205.84,189.15c2.81,5.47,4.41,10.55,3.33,17.33a66.41,66.41,0,0,1-7.84,22.08c-.62,0-1.48-.22-1.18.71-1.05-1.14,1.15-1.83.71-3.8,3.45-6.5,6.78-15.35,6.65-24.21-.06-4.08-2-7.39-2.38-11.16A4.13,4.13,0,0,0,205.84,189.15Z"/><path class="cls-1" d="M196.82,194.13c1.3,0,1,1.13,1.9,1,1.75,4.27,2.38,13.92,0,19.47-.45.18-.16.71-.71.24-.28.63.45,1.4,0,1.42-1.48,1.13-1.63,3.6-3.09,4.75-.45-1.54.87-2.62,1.43-4C198.85,210.53,199.47,201,196.82,194.13Z"/><path class="cls-1" d="M119,219.3c-1.64,1.75-2.39,3.81-4.75,5.22-1.73,3.34-4.69,5.44-7.12,8.08-.11,2.17-2.44,2.62-3.32,3.32.17-2.12,2.42-4.65,4.51-7.12,1.38-1.64,3.06-3.55,4.51-5.23a34.74,34.74,0,0,1,5.22-4.75C118.37,218.93,118.2,219.57,119,219.3Z"/><path class="cls-1" d="M192.31,228.32c.44,0,.15.81.48,1-.71.77-1.4,2.64-2.38,2.38-1.62,3.18-5,4.6-8.07,6.64s-5.7,5.17-10,5.46a1.19,1.19,0,0,0-.71-.71,2.67,2.67,0,0,1,2.61-.95c.42-.06.54-.41.47-1,2.88-1.81,6.78-3.56,9.74-6.17,2.23-2,4.11-4.33,5.93-5.46C191,229.14,192.44,229.37,192.31,228.32Z"/><path class="cls-1" d="M59.83,230.7c.62.85-.39,1.49-.71,2.61-.48-.07-.46-.64-.95-.71-.27,1.31,0,1.37-.24,2.84-.22.41-.74.52-1.18.72v1.18c-5.73,7.25-9.82,16.14-16.15,22.8-.78-.17-1.08-.82-1.42-1.43,7.56-8,12.46-19.33,19.94-28Z"/><path class="cls-1" d="M66,235.68c.43.95-1.21,4.84-2.61,5.22-3.29,6.4-7.27,13.19-11.4,17.34-1.06.35-.73-.7-1.66-.48,4.29-4.81,7.37-10.83,10.92-16.38a1.29,1.29,0,0,1,1-.24c-.48-1.26,1.2-2.23,1.42-3.56.48-.08.75,0,.71.48C64.94,237.31,65.26,236.28,66,235.68Z"/><path class="cls-1" d="M77.88,236.16c.31.08.37.41.71.47-3,6-5.22,12.82-9.73,17.33-.93.06-1.24-.51-1.9-.71C71.85,248.81,72.9,240.51,77.88,236.16Z"/><path class="cls-1" d="M135.57,242.57c.06.61.41-.33,1,0,0,.81-.88.7-1.66.71a1.1,1.1,0,0,1,.95-.95C135.85,242.53,135.71,242.55,135.57,242.57Z"/><path class="cls-1" d="M134.38,242.8c.63.34-.5.91-.95.95C133.26,242.94,134.31,243.36,134.38,242.8Z"/><path class="cls-1" d="M123.94,243.52a1.94,1.94,0,0,1-1.43.47C122.54,243.38,123.31,243.52,123.94,243.52Z"/><path class="cls-1" d="M35.38,247.31c-.07.49-.64.47-.71.95C34.07,248,34.86,247.21,35.38,247.31Z"/><path class="cls-1" d="M95.68,258.47c.09,1-3.61.92-5,.72-.46-.07-1.41.23-2.14.23-3.19,0-7.9-.07-10-2.13v-.72c.19,0,.24-.23.47-.23,3,1.34,9.79,1,14.25,1.42C94.16,257.84,95.76,257.15,95.68,258.47Z"/><path class="cls-1" d="M24,259.42c.37,1,.43,3.1-.23,3.8a3.53,3.53,0,0,1-2.14-1.42C22.2,260.8,22.43,259.45,24,259.42Z"/><path class="cls-1" d="M9.5,274.14c1.2.21.16,1.24.95,1.66,12.82,3,25.76,5.78,39.65,7.13,1.07.17-.36-.65.71-.48.1.5-.16.63-.24.95-.6.73-2.88.12-3.08.71-.76.21-.74-.37-1.19-.47-8.63.08-21.43-1.64-29.2-5-3,.23-6.45-1.13-9.26-1.9C7.77,275.26,7.91,274,9.5,274.14Z"/><path class="cls-1" d="M99.48,275.33c-1.5.73-2.53-.3,0,0Z"/><path class="cls-1" d="M87.14,275.57v.71A1.57,1.57,0,0,1,86,276,1.16,1.16,0,0,1,87.14,275.57Z"/><path class="cls-1" d="M93.31,282.93v.95c-.56,0-.7-.41-1.42-.24C92.41,283.45,92.52,282.85,93.31,282.93Z"/><path class="cls-1" d="M307,70a117.13,117.13,0,0,1,11.87-7.84C325,58,332.59,53.24,339.27,48.84c4.89-3.82,8.87-8.55,13.06-13.06,1.38-3.06,3.5-5.65,5.22-8.55.49-.83.76-2.53,2.14-2.37.48,1,.17,2.73-1.19,3.08-.19,2.74-2.55,3.31-2.61,6.18-4.55,5.49-9,11.11-14.48,15.66a1.54,1.54,0,0,1-1.19.24c-.08.87-.87,1-1.19,1.66-9.65,6.24-20.34,12.5-29.91,18.05C308.83,68.23,308.9,70.54,307,70Z"/><path class="cls-1" d="M304.37,64.74c5.84-4.71,12.4-9,18.52-13.77,2.16-1.66,3.6-3.79,6.41-5,3.47-4.13,8.1-7.1,12.35-10.45.28,2.33-2.23,3.74-4,4.75A199.39,199.39,0,0,1,319.09,56a60.44,60.44,0,0,1-9.5,5.93c-.43,0-.14.81-.47,1-1.61,0-2.78,1.59-4.27,2.38-.27,0-.14-.24,0-.24C305.28,64.8,304.7,64.72,304.37,64.74Z"/><path class="cls-1" d="M46.3,226.18c.22-.26.44-.07,1.19-.23a5.25,5.25,0,0,1,1.9-4.75c.5-1.87,1.15-3.6,2.85-4.27-.27-1.3,1.15-.91.71-2.38C63.8,201.07,73.06,186.13,85.24,174c6.37-6.36,12.93-12.91,21.84-16.62.06.94-.86.89-.71,1.9a1.59,1.59,0,0,0-1.66,1.43c-10.82,5.56-17.36,15.4-26.12,23-5.11,7.39-11.06,13.95-15.67,21.84-2.3,2.28-4.26,4.76-6.41,7.36-.8,1-1.14,2.44-2.37,2.85-.23,2-2.66,3.82-3.33,6.17a1.29,1.29,0,0,1-1,.24c-1.63,5.94-5.76,9.78-7.59,14.24h-.72c.2,1.66-2.32,3.76-2.85,6.18-1.82.94-1.44,3.29-3.32,4.51-.53-1.13,1.75-2.35,1.19-3.56,2.08-1.38,2.06-4.76,4.51-5.7.07-.29-.69-.82-.71-.24C41.7,234.42,45.05,229.47,46.3,226.18Z"/><path class="cls-1" d="M120.37,169.92c.27,0,.14.23,0,.23-.47.29.06.82.24.24.41.35-1.09.8-1,1.66-7,3.34-12.35,8.38-18.52,12.59-3.93,4.53-7.89,9-12.1,13.29a56,56,0,0,1-8.79,11.16,13.12,13.12,0,0,1-3.8,5.22,8.59,8.59,0,0,1-3.32,4.51c-1.94,3.21-3.83,6.46-6.65,8.79,0-2.53,3.54-5.74,3.33-6.89,1.7-1,2-3.38,4-4.51a3.31,3.31,0,0,1,2.38-3.32c2.34-5.41,6.71-8.79,9.49-13.77h.71c.31-.56,0-.44.24-1.19,8.94-10.61,18.37-20.73,31.58-27.06.77-.3.18.77,1,.47C119.3,170.58,120,170.4,120.37,169.92Z"/><path class="cls-1" d="M86.9,212.18c.27,0,.13.24,0,.23.29.59.69-.71,1.19-.71C88.28,210,90,208,91.65,207c9.53-12.86,21-25.06,34.66-33,.4-.56,1.47-1.68,2.14-1.18.27,0,.2-.44.23-.72,2.2.57,2.18-2.19,3.8-1.42-.91.61-.39.37-.23,1.42-1.43,1-3.34,1.79-4.52,2.62-.25.17-.25.75-.47,1-1.24,1.11-3.94,2-5.94,3.56-1.17.92-2.07,2.22-3.08,2.85-.17.1-.84-.08-.95,0-3.42,2.4-7,7.19-10.45,10-3.86,3.08-8.63,9.87-12.34,14.48-1.63,2-4,4-5.7,6.17-1,1.27-2.59,4.39-4,5.46-.14.11-.25-.38-.24-.47-1.69,2.21-3.35,5.63-6.17,5.93a50.77,50.77,0,0,1,4.75-5.93c0-.23-.29-.19-.47-.24.39-.85.63-.47,1.42-.71A20.49,20.49,0,0,1,86.9,212.18Z"/><path class="cls-1" d="M132.72,171.1c.73-1.81-.54,1.36,0,0Z"/><path class="cls-1" d="M137,175.38c.08.05.46.88,0,1.18-1,0,0-.36,0-.71-1.16,0-.69,1-1,1.43-19.22,13.47-32.79,33.81-49.38,49.14-.64-.8-.12-2.44,1.43-2.85,0-1.35,1.76-2.85,2.85-3.08.56-1.76,2.25-3.57,3.79-3.56.23-.21.16-.59.24-1.43,11.14-12.12,21.37-25.17,34.19-35.61.74.12.63-.82,1.19-.24C131.91,177.58,134.58,176.6,137,175.38Z"/><path class="cls-1" d="M133.67,193.66c.16.32.63-.12,1.19.24a131.12,131.12,0,0,0-17.57,15.67c-4,.37-4.73,5.84-8.31,7.36-3.41,6.69-7.77,11.06-11.63,17.09a4.91,4.91,0,0,1-1.43-.71,109.33,109.33,0,0,1,6.65-10A171.55,171.55,0,0,1,114,208.85a.65.65,0,0,0,.72-.47,4.1,4.1,0,0,0,2.37-1.43c.26.06.16.48.48.48C121.38,201.62,127.83,195.89,133.67,193.66Z"/><path class="cls-1" d="M166.43,220.72c.52,0,.11-.84.24-1.18,2.05-1.35,3.87-2.94,5.94-4.28a60.15,60.15,0,0,0,8.78-15.43c.57-1.46.3-3.27,2.14-3.8.62,2.22-1.18,3.73-.95,5.46-1.88,1.95-1.4,5.5-4,7.13-.94,4.35-4.15,6.44-6.41,9.49a4.93,4.93,0,0,0-3.56,2.61c-2.71,1.92-5.71,2.66-8.07,4.51-.52-.15-.76.68-.71-.23-2.33,2.65-6.8,2.18-10,5-1.95-.41-3.8,1.24-5.93,1.43-.25-1.63,2.82-1.69,3.8-2.85,1.16,1.06,3.4-1.84,5.93-1.66,3.13-2,8.31-4,12.11-6.65C166,220.33,166.09,220.67,166.43,220.72Zm-1.66.72c.15,0,.28,0,.24.23.18,0,.47,0,.47-.23-.14,0-.28,0-.23-.24.18,0,.46,0,.47-.24C165.3,220.52,165,221,164.77,221.44Zm-8.07,5h.71v-.71h-.47C156.92,226,156.63,226,156.7,226.42Z"/><path class="cls-1" d="M177.12,224.76c-.1-.45-.68-.43-.48-1.19,1.52-.52,2-1.85,3.8-1.9a1.68,1.68,0,0,1,0-1.42h.95c1.74-3.36,4.78-7.39,6.89-11.16.5.92.23,3.44-1.43,3.56.37,1.45-1.61,2.46-1.66,4.28-.47.39-.3,0-.95,0,.18,1.92-1.68,1.8-1.66,3.56h-.71Q166.54,239,137,243.28c-.92-2.53,3.81-1,4.28-2.38.42.06,1.19-.24.95.48.52-.91,2.74-.26,2.37-1.43.95.66.31.14.95-.23,1.11-.65,3.27-.58,5.22-1.19,3.89-1.21,7.14-3.16,10.21-3.8.53-.9,2.07-2,3.09-1.66,1.53-1.95,4-2.13,5.22-3.09.41-.32.71-1.3,1.19-1.66,1-.76,2.95-.58,3.32-2.37,1,.31.72.21,1-.48.5.13.51.37.24.71C175.79,225.21,175.73,225.51,177.12,224.76Z"/><path class="cls-1" d="M149.58,217.87c-.19-.2-.65-.14-.72-.47-.49.07.35.63-.23.95-2.15.09-3.67,1.46-5.46,2.85a2.09,2.09,0,0,0-2.38,1c-2-.47-4.31,1.55-5.93,1.42.26-1.56,2.48-1.15,3.08-2.37,2.89-.14,4.67-3.14,7.6-3.09,7.17-4.78,15.33-8.57,18.52-17.33.14.07.91.59.95,0-.47,7.28-6.59,11-11.4,14.72C153.82,215.11,150.47,216.56,149.58,217.87Z"/><path class="cls-1" d="M142,230.93c.27,0,.13.24,0,.24.51.65,1.09-.24,1.66.24-.26.61-1.27.46-2.14.47.27-.29.21-.48-.23-.47C141.32,231.07,142,231.32,142,230.93Z"/><path class="cls-1" d="M47.73,236.16c-.4-.37.08-.93.23-1.43a.24.24,0,0,1,0,.48c.07.5.64-.35.95.23-.76,1.54-1.14,3.45-2.61,4.28.74,1.16-1.12.64-.71,2.13-3,2-2.57,5.12-5.94,7.13-2.31,5.68-7.11,8.87-10.44,13.53,0-3.31,3.21-5.08,5.22-7.6,0-.47-.65-.3-.47-.95,3-2.23,5-7.88,8.78-10.68a3.34,3.34,0,0,1,1.9-2.85A7.82,7.82,0,0,1,47.73,236.16Z"/><path class="cls-1" d="M126.55,242.57c-1.33.8-3.69.58-5.46,1,0,.4.4.61,0,.71-.91,0-.09-.2-.24-.71-1.08-.45-.32.94-1.19.71.64-1-.33-.44-1.19-.48-.07.63,1.34-.22,1,.72-1,.25-1.18-.26-1.43-.72-.74-.11-.67.6-1,.95-5.3.06-8.82,2-13.53,1.43.07.32.59.19,1,.24-6.44.46-8.24,0-13.53.23.37-.67-1.68-.6-1.9-1.42.83-.66,2.15-.27,3.08-.24C102.5,245.28,117,242.44,126.55,242.57Z"/><path class="cls-1" d="M121.32,265.36c.74-.8,4.91-.7,6.65-.95-.43-1.15-1.22-.28-1.66-.48,0-1,4.49-.05,4.75-.95,3.94.3,9.44-1.77,12.82-1.18,6.1-2.5,14-2.87,20.18-6.18,2.2-1.17,3.37-3.34,6.17-2.61-6,6.66-16.07,8.24-25.88,10-9.18,1.63-19.49,3.36-29.44,3.56A12.56,12.56,0,0,1,121.32,265.36Zm9.5-1.43a1,1,0,0,0,1-.47C131.35,263,131,263.52,130.82,263.93Z"/><path class="cls-1" d="M114.68,282c-.37-.13,0-.25.23-.24.21.66.8-.35,1.19.47.55-.07.29-.61,1.43-.71C148.4,278.94,179,269.57,198,252.77c0,.8.77.82.71,1.67a40.1,40.1,0,0,1-8.07,6.17c-.21.5-.66.77-1,1.19-11.57,7.09-26.15,12.84-41.55,17.09-11.1,3.06-22.9,3.87-33.95,4.51-3.52.21-7.71,1-10.68,0-2.38.75-6.66.48-9.26.24.49-1.18,2.09-.42,3.8-.48s4-.52,5.46-.47c.41,0,1.75-.16,1.66.47,2.89-.93,3.74.12,6.65-1.18a1.08,1.08,0,0,0-.24.71c1.46.11,1.12-.5,1.66-.95.47,1.13,1,.53,1.66.71C114.87,282.26,114.68,282.22,114.68,282Z"/><path class="cls-1" d="M205.13,255.62c1.15,1.48-.83,2.63-1.66,3.33-1.05.88-2.17,1.88-3.09,2.61a59.07,59.07,0,0,1-10.44,7.12c-.34.17-1.37.44-1.43.48a63.8,63.8,0,0,1-9.49,4.27,200,200,0,0,1-35.85,9.73c-6.85,1.14-14.28,3.64-21.85,4.52-18.08,2.09-37.38,2.13-54.6-.95,3.89-1.53,10.39,1.3,12.82-.24-1.41.83,2.24.72,1.9.47,7,1,24.38.05,35.61-1.18A266.26,266.26,0,0,0,175,272.72c10.43-3.68,19.93-8.13,26.83-14.72C202.67,257.18,203.46,255.13,205.13,255.62Z"/><path class="cls-1" d="M189.46,262.75c.53,1.32-1.77,1.86-2.37,2.85C187,264.75,188.92,263.8,189.46,262.75Z"/><path class="cls-1" d="M46.06,268.68c-.76.52-3.64-.29-4.74-1.42,10,.93,21.44,1.5,33.95,1.9,0,.19-.24.23-.24.47,1.07-.27,1.34.11,2.37.24-.66.5-1.94-.2-3.56,0,.38.86,1.4-.29,1.43.71-1,0-1.43.35-2.14-.24-.28,0-.2.44-.24.72-3.8-.62-9-.23-13.29-.72,0,.23.29.19.47.24a58.5,58.5,0,0,1-10.68-1.19C50,270,46.1,269.7,46.06,268.68Z"/><path class="cls-1" d="M76.45,271.06c-.47,0-.3-.65-1-.48a6.5,6.5,0,0,1,3.33,0C78.74,271.3,76.58,270,76.45,271.06Z"/><path class="cls-1" d="M16.39,272.24a3.58,3.58,0,0,0,0-1.66c6.84,1.61,13.21,1.51,20.65,2.61,2.55.38,6.86.65,10.21,1.9,9,1.25,19.64,2,29.44,2.38,0,.52-1,.1-1.42.23,0,.61.79.48,1.42.48a108.41,108.41,0,0,1-23-.48c.18-.57-2.19-.34-3.56-.47-4.72-.45-10.26-1.93-15-2.14a2.61,2.61,0,0,1-1.42-.95C29.11,274.32,22.61,273.14,16.39,272.24Z"/><path class="cls-1" d="M341.88,18.45c-7.24,5.43-15.43,11.14-21.36,17.09,4-1.49,7.57-6.67,11.39-8.31-.17,1.89-2,2.44-3.08,3.56-7.06,7-15,13.23-21.85,20.66-.05-.3-.71-.31-.71,0,2.4-4.73,7.65-8.66,11.4-12.82-2,.67-3.75,3.68-6.18,4.74-3,3.1-5.67,6.56-9,9.5-1.58,1.39-3.52,5.65-6.88,6.65,1.19-2.56,3.52-4.74,5.46-6.89a60.6,60.6,0,0,0,6.41-8.07c11-9.88,20-18.85,33.24-26.59C341.43,17.79,341.15,18.62,341.88,18.45ZM318.14,38.39c.26-.77,1.24-.82,1.43-1.66C319.09,37.13,317.59,37.75,318.14,38.39Z"/><path class="cls-1" d="M284.9,72.1c-1.63,3-4.49,4.26-7.36,6.65A29.91,29.91,0,0,1,271.85,83c-1.8.94-3.8,2.25-4.75,4-5.36,2.24-9.64,5.55-15.67,7.12-.63.07-.78-.33-.71-1-3.16.39-6.16,4.25-8.79,2.85.61-1.42,2.47-2,3.8-2.61,4-1.89,8.5-4.32,12.58-5.46a123.69,123.69,0,0,0,18.52-10.69c2.1-2.24,5.27-3.43,7.36-5.69h.48C284.63,71.9,284.72,72.05,284.9,72.1Z"/><path class="cls-1" d="M222.7,137.15c.1.36.3-.09.71,0-.45,2.58-3.25,4.82-4.75,7.13-1.41,5-2.65,10.16-3.79,15.43,3.53,3.84,7.87,6.72,11.39,10.92a36.24,36.24,0,0,1,5.94,10,62.61,62.61,0,0,1,3.8,10.45c.6,2.41,1.81,4.49,2.13,6.88.8,5.84-.42,11.48-.71,17.81-.06,1.11.92-.31,1,.71-.93,14.36-6.4,27.82-12.82,38.22-.36.57-1,.24-1.19.48-1.67,5.06-4.81,5.08-7.59,8.31-.47-1.17,1-1.93,1.66-2.61A78.17,78.17,0,0,0,224.6,253c-3.9,3.41-7.72,7.5-12.11,11.16-1.07.9-2,2-3.08,2.85A82.35,82.35,0,0,1,199,273.43c-2.62,1.49-4.79,3.94-7.84,4.51a141.82,141.82,0,0,1-53.89,19.23,220.46,220.46,0,0,1-42,1.66c-13.35-.76-27.86-.93-41.55-3.08-6.86-1.08-13.85-2.49-20.42-3.8C23.67,290,16.12,287.59,7.6,285.3c-2.45-.66-5.26-1.33-6.17-2.14-1.45-1.28-2.59-5.41.71-5.69,5.78-12.32,13.05-23.72,20.42-34.67s14-22.35,22.79-32.05c9.09-16.39,21.79-29.18,33.48-43,5.9-4.39,10.91-10,17.09-14,1.5-1,3-1.8,4.51-2.85,4.57-3.1,10.49-7,16.62-8.78,10.65-3,23.18-5.88,34.66-8.55,2.1,1.29,5.19.42,7.84.48,5.8.13,12,2.31,17.8,4,.78.14,1.11-.16,1.67-.23,4.72,2.32,9.24,4.83,14.24,6.88a4.17,4.17,0,0,1,.48,2.61c2.34-8.42,4.49-18.87,10.44-24.45,3.15-1.27,5.13-4.25,8.07-5.94,3.33-1.9,7.09-3.15,10.93-4.74-.89-2.18-.32-7.3.23-10.21-.16-.81-.79,1-.95.23-.52-1.41.77-2.55,1.67-3.56a32.46,32.46,0,0,1,2.61-3.08c.53-.45,1.48-.46,2.13-1,1.44-1.08,3.16-2.89,5-3.8,8.12-3.38,16.31-5.78,24.22-9.5,8.33-3.92,17.52-9.22,24-15.43,1.51-1.45,2.74-3,4.52-4.51,2.44-2.16,5.14-4.17,7.59-6.65,3.15-3.18,6-6.52,9-10C311.69,35,319.37,24.53,330.49,17a121.84,121.84,0,0,1,10.44-6.41c2.66,0,3.34-1.89,6.18-1.66a8.47,8.47,0,0,1,5.69-2.14c.74-2,3.11-2.16,5.7-3.08,1.62-.58,3.09-1.7,4.51-1.9,1.18-.17,2.63.14,4,0,4.05-.41,7.13-1.32,10,.95,2.43-2.14,10.21-5.11,11.4.23,1.34-1,1.95,1.1,3.8,1,3.6,2.53,7.18,5.72,8.78,10,4.78,12.72-5.85,25.68-17.09,23-3.32-.79-8.55-3.88-9.5-7.37-1.44,3.63-2.69,7.44-7.12,8.08a3.86,3.86,0,0,1,0,2.13C361.6,53.09,348,61.42,336.9,69.73a48.79,48.79,0,0,1-6.41,3.8c-2.24,1.16-4.41,2.78-6.41,3.56-.82.31-1.8.16-2.61.47-1.74.67-3.58,1.77-5.47,2.61-5.08,2.28-10.54,5.3-15.43,8.08C293.92,92,287,95.57,282.05,100.83c-2.19.36-2.93,2.31-4.27,3.8-2.12,2.36-5,4.56-7.36,6.88-4.15,4.06-7.61,9.32-11.39,14.25a7.43,7.43,0,0,0-3.8,3.32c-5.47,3-14.46,3.1-19-.24-5,2.08-8.8,5.44-13.29,8.08C223,137.12,222.85,137.14,222.7,137.15ZM384.62,9.42c-.68-1.22.26-3.28-.95-5.22.35-1.08,1.12-1,1.9-1.19-1-2.65-4.67-.7-5.94.48.28.52,1.33,1,.71,1.66C381.8,5.44,382,7,383,7.76c0,.28-.38.26-.72.24.24.79.76,1.3.95,2.14h1.43C384.66,9.36,385.87,9,384.62,9.42Zm-8.79-4.51c-3.39-2.95-10.56-.8-14.48-.23,5.52,1.76,9.19,5.84,12.35,10,1.64,2.15,2.25,4.9,4,6.88,1.81-1.51,3.54-3.11,3.56-6.41-.28-.62-.81,1.12-1.42.24V11.8C378,10,377,7.4,375.83,4.91Zm10.92,1.43a13.62,13.62,0,0,1,11.88,9.73c1.09,4.63-1.72,12.51-6.18,14.72-3.85,1.91-8.57,1.16-13.05-.95-.9-.58-1.4-2.65-2.62-2.14-.69,1.26,1.09,1.86,1,3.33,3.69,1.78,6.72,4.9,10.92,4.27a16.12,16.12,0,0,0,8.08-4.51c5.31-6,2.74-17.92-2.38-22.55-1.61-.53-2.46-1.82-3.8-2.61-2,.35-2.56-.14-4-.24A1.35,1.35,0,0,0,386.75,6.34Zm-31.33.71c1.84,1.22,3.57,1.19,5-.47C359.1,6.29,355.89,5.34,355.42,7.05Zm24.92,4c-.13,1.08.59,1.31.72,2.13.13.35-.28,1.23.23,1.19.17-4.12-1.7-6.21-3.79-8.07.05.18,0,.47.23.47C379.23,8.07,379.16,9.88,380.34,11.09ZM360.4,9.42c.67-.75,2-.9,2.61-1.66C361.77,7.79,360.08,8.62,360.4,9.42Zm-10.68-.23c.4,1.34,2.4,1.08,3.08,2.13a3.19,3.19,0,0,0,1.9-1.9C353.54,8.45,351.23,8.67,349.72,9.19Zm38.7,1.18c-2-.41-2.5,1.61-5,1.9.73,5.6-1.63,7.58-4,10.45,1.75,5.45,10.55,10.49,14.71,4,4-6.25,1.8-16-5.46-17.81C388.83,9.67,388.41,9.81,388.42,10.37Zm-26.36,0c0,.84.84.75,1.19,1.19.74-.77,2-1,2.61-1.9C364.55,8.51,363.11,9.85,362.06,10.37Zm-6.64,2.14a3.06,3.06,0,0,0,2.37-1.9c-.35-.12-.6-.35-1-.47C356.44,11,355.47,11.3,355.42,12.51ZM264.72,114.6c3.81-4.4,8.19-8,12.35-12.11,1.27-1.25,2.23-2.84,3.56-4,3.15-2.83,6.76-5,10.21-7.6.72.17.86-.24,1.42-.24C302.37,83.24,314.71,79,326,73.29c14.85-7.57,27.8-17.36,37.27-30.15.84-5.17,3.44-8.17,3.32-12.82a14.25,14.25,0,0,0-2.85-7.84,29.7,29.7,0,0,0-17.09-11.16A13.84,13.84,0,0,1,345,12c-4.81,1-9.14,3.79-12.82,6.41C317.93,28.54,308.38,43,297,55.72c-8.21,6-14.61,14-23.27,19.94a86.7,86.7,0,0,1-7.83,4.51c-10.19,5.52-22.61,9.37-33.48,13.77-4.82,3.3-8.89,9.1-6.88,16.62-.07.49-.64.47-.71,1a45,45,0,0,1,4.51-1.18c.93-2.86-1.22-5.88,1.19-7.13,1.41,2,1,4,.94,6.65.78-.1.69-1.06,1.67-.95.17-2.34-1.09-8,2.61-7.6-1.51,1.92.79,6.6-1.43,7.6.87.25,1.47.75,2.38.95-.49-2.57-1.33-8.25,1.42-9,.67,1.78-.25,5.09,0,7.6.08.75,0,2.62,1.43,2.37,1-3.34-.79-7.23.71-9.5h1.19c.67,2.89-.71,7,1.18,10.21a2.05,2.05,0,0,1,1.43.24c0-3-2.8-9.6,1-9a22.5,22.5,0,0,0,0,4.27c.28,2.07.35,5,1.9,5.7-.57-3-.84-5.12-1.19-8.55a2.94,2.94,0,0,1,2.14.24c0,2.88,0,6.91,1.66,10,.56-3.27-1.29-5.33-.95-7.6,1.77-.23,2.34,1.95,2.61,3.09,1,4.19-.79,9.69-.71,14-2.41.27-.25-3.14-1.43-3.8a5.39,5.39,0,0,0-.71,5.22c4.34,0,5.42-3.73,5.7-7.36.4-5.25-1-11.38-4-14.48a18,18,0,0,0-10-4.75c-2.89-.29-4.43.52-7.6,1-1.37,1.24-3.59,2.89-5.22,3.09-.13-1.73,2.18-3.13,3.8-4,5.15-2.9,13.11-2.06,17.81.71,4.39,3,7.89,10.06,6.88,16.15.89-.1.1,1.48.71,1.66,8-9.46,16.14-20.11,27.07-25.88-.23,2.12-3.91,2.69-4.75,5-2,.06-2,2.3-4.27,2.61-5.95,6.79-11.73,13.75-17.81,20.42-.48-.13-.46-.72-.95-.24a15.92,15.92,0,0,1-2.85,7.83C258.59,124.73,261,118.87,264.72,114.6ZM364.91,12.51a21.22,21.22,0,0,0,4.28,4.75,7.2,7.2,0,0,0,1.42-2.37C369.36,13.09,367.27,9.84,364.91,12.51ZM358,13.7c2.21.79,2.93,3.08,5,4a13.49,13.49,0,0,0,1.43-1.9c-.47-.4-.7-1-1.43-1.18-.4.3,0,1.42-.71,1.42s-1.15.05-1.19-.47c.17-.86.78-1.28.95-2.14C360.76,12.22,358.81,11.5,358,13.7Zm11.87,5.22c0,.31.3.33.24.71,1.2-.38,1.61-1.55,2.37-2.37C371.42,16.73,370.48,18.17,369.9,18.92Zm-5.46.95c1.29-.06,1.6-1.08,1.66-2.37h-.71C365.23,18.45,364.5,18.82,364.44,19.87Zm6.88,1.66c1.06.49,2.05-.89,2.38-1.9A3.17,3.17,0,0,0,371.32,21.53Zm-5.46.48a.64.64,0,0,1,.48.71c1.21.11,1.15-1.06,1.9-1.43-.14-.57-.21-1.22-.95-1.18C367.17,21.1,366.37,21.4,365.86,22Zm6.41,1.42c1,1,.8,3.16,1.43,4.51,1.16,0,1.33-1,1.9-1.66-1.43-1.06.41-2.73-.72-4.27C373.58,22.05,373.18,23,372.27,23.43Zm-4.51,1.19a2.36,2.36,0,0,0,.95,1.66,6.34,6.34,0,0,0,1.19-2.61c-.34-.06-.4-.39-.71-.48A3.29,3.29,0,0,1,367.76,24.62Zm.95,3.8v1.66c1.16-.59,1.6-1.89,2.38-2.85-.31,0-.33-.3-.72-.24C370.12,27.77,369.35,28,368.71,28.42Zm-.95,7.36c2.08-.77,3.25-2.45,3.56-5A4.85,4.85,0,0,0,367.76,35.78Zm-128,77.39c-2.35-.35-6.13-1.26-7.84-1.18-.91,0-1.68.7-2.61,1-2,.54-3.78.55-5.7,1.42s-3.71,1.72-5.7,2.61a43.87,43.87,0,0,0-11.87,8.31c-1.65,1.57-4.29,2.52-4,5,1.63-1.63,3.13-5.05,5.93-4-1.92,2.59-4.27,4.75-5.7,7.84-.23.87.13,2.34-.95,2.37-1.07-.6-.72-2.47-1-3.32a111.82,111.82,0,0,0-4,15c0,.91,1.1.63,1,1.66-2.91,3.3-3.72,7.83-6.65,10.68-.75.12-.09-1.18-1-.95a39.26,39.26,0,0,1-6.41,6.41c-6.62,5.17-15.91,7-22.55,12.11,0,.67.43,1,.47,1.66,5,3.46,10.9,7.27,18.28,7.6a12.09,12.09,0,0,1,3.8-2.85c4.88-2.79,10-5.54,14-8.55,1-1.91,2.82-3,4.51-4.27a15.77,15.77,0,0,1,4.75-5.46c3.73-8.84,5.31-19.75,9-28-.21-.6-1.12,1.31-1.43,0s1.22-1.36,1.9-2.13,1.12-2.39,2.14-3.33c2.43-2.22,6.31-5.08,9.73-5,4.65-5.09,11-8.49,16.62-12.59C242.89,114.29,241.85,113.49,239.8,113.17Zm6.64,5.47a2.28,2.28,0,0,0,1.66-1.9A2.16,2.16,0,0,0,246.44,118.64Zm-2.13,1.18c.4-.4-.14-1.06-.48-1.42C243.78,119.08,243.89,119.6,244.31,119.82Zm-3.8.24c-.17,1,.22,1.36.23,2.14C243.05,122.63,242.2,118.17,240.51,120.06Zm-2.85,1.9c.12,1.26-.22,2.08.47,2.37C239,124,239.33,120.91,237.66,122Zm7.36.47c.44,1.91.69,5.94-1.9,4.75-.1-1,.23-2.44-.24-3.08a19.68,19.68,0,0,0-5,3.32c4.07,2,9.09,3,13.77,1,.06-.7-.54-.73-.48-1.43h1.19c.21-.86-.42-1.26,0-1.66a15.77,15.77,0,0,1-4.28,1.19c.26,1.45-.61,1.76-1.9,1.66-.46-1.64.42-4.19.24-5.93C246,121.69,245.5,122.26,245,122.43Zm-11.16,2.14c.39.24.26,1,.47,1.43,1.28.32,2-2.18.95-2.62C235.22,124.19,234,123.87,233.86,124.57Zm-3.09,4.27c1.3,0,2-2.21.95-3.08C230.3,126.69,231,126.93,230.77,128.84Zm-3.56-.47c.37.74-.1,2.32.71,2.61.53-.35,1.34-2.65.24-3.09C228.13,128.33,227.36,128,227.21,128.37Zm-2.61,1.9a30.2,30.2,0,0,1-4.51,3.56c-1.67,2.73-4.13,7-3.8,10.21,1.86-1.38,3-3.47,4.51-5.22-.93.3-.61-.65-1-.95a23,23,0,0,1,5.46-5.23v-2.37Zm-36.09,58.64c-.33-.13-3.5.89-4.27,1.9-2,.71-3.36.84-4.51,2.14-7.44-.79-11.6-4.86-18-6.65-.33-1.09-2.61-1.27-1.67-2.85,1.5-.38,2.38,1.12,3.56,1.66a70.44,70.44,0,0,0,16.15,5.7c1.37-1.09,2.61-1.87,2.85-3.56,1.12-.87,1.58,1.19,2.61.47.43-.67,1.16-1.05.95-2.37-2.48.92-5.1,1.71-6.17,4-9-.55-15-4.18-20.42-8.31-.79-.67-1.14,1.27-1.66-.24-1-1.46.78-2,1.18-2.85-1.23,0-2.53,1.26-3.56.71,5.6-4.59,13.05-7.16,20-10.68a41.89,41.89,0,0,0,7.59-5,49.92,49.92,0,0,0,6.65-6.17c1.13-1.34,3.78-5,3.56-6.65-.16-1.19-3.35-4-4.51-4.75-3.57-2.22-7.44-2.84-11.4-4.51A55,55,0,0,0,160,136.68c-15.11-.94-25.6,3.51-37.27,6.65-2.17.58-4.49.63-6.41,1.42-4.65,1.91-8.78,4.89-13.06,7.6-3.25,2.06-7,3.92-10,6.17-1,.77-1.75,2-2.85,2.85-9,7.19-17.57,15.56-24,24.69C63.15,189,61,192.5,58.41,195.8c-1.32,1.67-2.74,3.26-4,5C51.79,204.21,50,208,47.49,211.7c-.7,1-1.86,1.62-2.61,2.61-1.17,1.52-2.16,3.22-3.33,4.75-6,7.9-11.53,16.09-16.85,24.46-7,11.08-14.8,22.63-20.42,34.9,1.15-.23.55.68.47,1.18,22.07,5.77,45.08,11.53,69.8,13.06,2,.13,3.86-.34,6.41-.24,24.28,1,48.42-.06,69.8-3.8a117.91,117.91,0,0,0,54.61-25.4C219.76,251.34,234,236,235.52,214.08c.1-1.42-.21-3.1,0-4.51,1.27-8.66-.46-14.68-2.85-21.13-2.93-7.92-5.42-14-10.68-19-2.62-2.47-5.08-5.29-8.07-6.88C213,177,198.82,179.44,191.84,187c4.71-3.2,10-6.45,14.48-9.73,1.25-.92,3.1-3.27,5-2.14.55,1.74-1.58,2.44-2.62,3.09-8.81,5.46-17.26,12.5-27.06,16.62-.18-.69-1.13-.62-.95-1.67C183.29,191.76,186.24,190.67,188.51,188.91ZM215.1,149.5c.09-1.18.67-1.87.72-3.09-.31,0-.33-.3-.72-.23C215.27,147.45,213.53,149,215.1,149.5Zm-1.18,3.8c-.41-.31,0-1.42-.72-1.43C213,152.65,213.76,153.67,213.92,153.3Zm-2.38,6.41c1.18.3,1.15-.6,1.43-1.19-.63,0-.61-.66-.95-1C212,158.38,211.42,158.71,211.54,159.71ZM206.08,173c2.74-1.11,6.41-6.88,4.28-10.68C209.83,166.77,205.68,168.37,206.08,173Zm-2.37-.47c-.87.42-1.49,2.72-.48,3.56C203.88,175.64,204.88,173.24,203.71,172.53ZM199,176.09c.89.81-.12,1.95.24,2.61.35-.59,1.06-.83,1.66-1.19v-1.66C200,176.22,199.8,175.72,199,176.09Zm-3.8,3.09c.35.44,0,1.57.47,1.9a2.91,2.91,0,0,0,1-2.62C196.17,178.77,196,179.27,195.16,179.18Zm-3.56,3.08c.67.24-.07,1,0,1.43,2.13-.23.41-1.5,1.66-2.38A4.66,4.66,0,0,0,191.6,182.26Zm-3.8,1.9c.37.59.29,1.62,1.19,1.66-.25-1.2.54-1.35.47-2.37C188.73,183.51,188.39,184,187.8,184.16ZM235.52,229a50.38,50.38,0,0,0,1.9-11.87C236.79,220.52,235.57,225.06,235.52,229Zm-6.41,13.06a12.81,12.81,0,0,0,3.56-8.31C232,237,228.69,238.65,229.11,242.09Zm-1.42.71c-.06.34-.39.4-.48.72-5.15,8.94-14,16.23-21.6,22.31-1.32,1.05-4.35,2.44-4,4,6.65-3.95,11.77-9.45,17.57-14.25a93.81,93.81,0,0,0,7.36-9.49c.71-1,2.14-1.94,1.66-3.09C228.11,242.86,228,242.77,227.69,242.8ZM110.4,294.32c-12.41.81-24.35,1.22-35.13.48a302.82,302.82,0,0,1-44.88-6.65c-8.56-2-16.56-4.68-24.93-6.17-.56-.2-1.09.33-.23.23,7.5,2.16,14.89,4.93,23,6.41,2.65.49,5,1.31,7.6,1.9,4.36,1,8.84,1.2,13.53,1.9,6.38,1,13,2.15,19.7,2.85,38.5,4,79.57,2.7,106.13-11.63C156.68,291.2,133.23,294.71,110.4,294.32Z"/><path class="cls-1" d="M167.15,182a14.53,14.53,0,0,0-.48-2.62,3.43,3.43,0,0,1,3.32-1.18c.93-.82,1.46-2,2.38-2.85.72-.17.86.24,1.42.24,2.33-2.13,9.52.37,10,3.08.36,2.15-2.75,5.26-5,5.94C173.9,186.12,170.54,183.51,167.15,182Zm14.48-1.19c.52-2.46-2.71-4.17-5.23-3.56C178.88,177.73,180.25,179.29,181.63,180.84Zm-5.46-1.43a13.12,13.12,0,0,1,2.85,2.38c.11.45-.74,1,.23,1C180.51,181.45,176.58,179,176.17,179.41Zm-7.36,1.19a10.49,10.49,0,0,0,7.83,2.14C175.14,180.68,171.41,178.83,168.81,180.6Z"/><path class="cls-1" d="M166,212.65c.35.13.6.35.95.48,0,.61-.89.38-1.19.71-.89,3.07-4.75,3.16-6.17,5.7-.23,0-.19-.29-.24-.48-1.35,1.51-4.4,3.81-5.93,3.56A35.06,35.06,0,0,1,138.89,229a1.71,1.71,0,0,0-.47.72c-2.56.9-4.72.79-6.89,1.9-.48-.16-.15-1.11-.71-1.19.72-.86,2.69-.48,3.33-1.43,1,1.5,3-1.53,3.08,0,.84,0,.8-.94,1.19-1.42.75,0,1.41.63,1.42-.48,2.11.81,3.77-2.25,5-1.18.35-.11-.1-.31,0-.72,4-1.71,5.25-2.41,9.26-4,0-.57,1-1.5,2.13-1.66.26-.5,2-2.23,3.09-1.9,1.14-.47,1.09-1.85,2.14-2.14.58-.16,1.68.76,1.42-.47.21.1.43.2.48.47.32-.07.19-.59.23-.95C164.58,215,165.23,213.26,166,212.65Z"/><path class="cls-1" d="M162.4,245.18c.49.13.5.37.23.71a47.26,47.26,0,0,1-19.94,7.6c-11.91,3.95-25.38,4.72-40.6,4.27a46.31,46.31,0,0,1,13.3-.47c4.23-1.36,10.8-.49,14-2.85.34.28.23,1,1.18.71.25-.1.84-.92,0-.71.81-.68,2-.38,3.09-.24-1.67-.72.75-.38,1.42-.48,6.67-.94,17.75-4.75,23.75-7.83C160.37,245.65,161.28,246,162.4,245.18Z"/><path class="cls-1" d="M111.12,275.57c24.79-2.21,47.53-6.42,65.52-16.15,3.88-2.1,7.38-5.14,12.35-6.65-.67,2-4.46,3-5.7,5.23a90.33,90.33,0,0,1-20.89,9.49,164.6,164.6,0,0,1-63.63,9.74c-3.94-.22-9.61,0-10.92-1.66,3.08.37,5.91-.27,10.21.71.9-.88,3.34.08,6.17-.24,1.66-.18,2.72-1.06,4.75-.71-.07.32-.6.2-1,.24a1.14,1.14,0,0,1,.24.71c1.32.82.41-.78,2.37-.48,0-.52-1-.1-1.42-.23C110.74,274.27,111.49,277.22,111.12,275.57Z"/></g></g></svg>